<svg width="361" height="339" viewBox="0 0 361 339" fill="none" xmlns="http://www.w3.org/2000/svg">
<rect width="361" height="339" fill="#E5E5E5"/>
<g id="buildapp 1" clip-path="url(#clip0)">
<path id="Vector" d="M122.284 342.147C122.284 347.328 84.3407 347.88 37.6418 351.528C-9.01355 355.173 -47 347.328 -47 342.147C-47 336.966 -8.83855 326.541 37.6418 332.766C84.3407 339.02 122.284 336.966 122.284 342.147Z" fill="#E6E6E6"/>
<path id="Vector_2" d="M103.599 162.904L112.664 185.334L139.766 200.734C142.66 206.848 151.857 207.316 152.526 203.363C153.277 198.927 141.358 191.788 141.358 191.788L118.689 172.623L116.705 156.124L103.599 162.904Z" fill="#A0616A"/>
<path id="Vector_3" d="M104.668 313.425L102.997 330.14L112.692 330.976L113.695 313.425H104.668Z" fill="#A0616A"/>
<path id="Vector_4" d="M106.006 327.633C105.139 326.487 104.34 325.265 103.614 323.976C102.224 321.572 100.991 333.901 100.991 333.901C100.991 333.901 99.6538 338.916 99.9881 341.423C100.322 343.93 108.012 343.93 109.349 343.512C110.686 343.095 117.373 343.512 117.373 343.512H127.403C136.095 338.498 127.403 335.155 127.403 335.155C124.728 334.737 115.701 324.29 115.701 324.29L113.695 319.693C112.358 319.275 111.021 325.543 111.021 325.543L106.006 327.633Z" fill="#2F2E41"/>
<path id="Vector_5" d="M79.5945 313.634L77.9225 330.349L87.6179 331.185L88.6211 313.634H79.5945Z" fill="#A0616A"/>
<path id="Vector_6" d="M80.9317 327.842C80.065 326.696 79.2654 325.474 78.5393 324.185C77.1498 321.781 75.9169 334.11 75.9169 334.11C75.9169 334.11 74.5796 338.707 74.9139 341.214C75.2483 343.721 82.9377 343.721 84.275 343.303C85.6122 342.886 92.2987 343.721 92.2987 343.721H102.328C111.021 338.707 102.328 335.364 102.328 335.364C99.6538 334.946 90.6271 324.499 90.6271 324.499L88.6211 319.902C87.2839 319.484 85.9466 325.752 85.9466 325.752L80.9317 327.842Z" fill="#2F2E41"/>
<path id="Vector_7" d="M90.6271 205.82C89.2898 207.909 89.9585 215.013 89.9585 215.013C89.9585 215.013 87.6182 237.997 88.6212 240.087C89.6241 242.176 87.9525 243.847 86.9495 246.773C85.9465 249.698 84.9436 256.802 84.9436 256.802C79.2601 262.652 79.5944 289.397 79.5944 289.397L77.5885 313.216C78.2571 315.723 87.6182 316.141 88.9555 315.723C90.2928 315.305 94.3046 277.696 94.3046 277.696L103.331 256.384C103.331 256.384 102.663 313.216 102.663 315.723C102.663 318.231 111.689 316.977 113.695 316.977C115.701 316.977 115.701 275.189 115.701 275.189L117.707 264.324L128.406 214.596V208.745L126.734 205.82C126.734 205.82 91.9644 203.731 90.6271 205.82Z" fill="#2F2E41"/>
<path id="Vector_8" d="M105.337 110.96C111.061 110.96 115.701 105.161 115.701 98.0061C115.701 90.8516 111.061 85.0517 105.337 85.0517C99.6134 85.0517 94.9733 90.8516 94.9733 98.0061C94.9733 105.161 99.6134 110.96 105.337 110.96Z" fill="#A0616A"/>
<path id="Vector_9" d="M110.519 104.065C108.419 109.913 109.662 118.08 113.863 127.049L96.8121 117.02L99.4867 114.095L98.818 105.737L110.519 104.065Z" fill="#A0616A"/>
<path id="Vector_10" d="M110.519 117.438C112.752 119.097 114.088 122.145 114.854 125.248C116.274 130.991 117.128 136.929 117.399 142.93L118.209 160.898L128.238 208.536C119.546 217.73 114.531 215.64 102.83 208.118C91.1286 200.596 89.7913 210.626 89.7913 210.626C89.7913 210.626 88.7883 210.208 89.7913 208.954C90.7943 207.7 89.7913 208.954 88.7884 207.7C87.7854 206.447 88.7884 207.7 89.1227 206.447C89.457 205.193 89.1227 206.029 88.7884 205.611C88.454 205.193 90.1256 201.432 90.1256 201.432L87.451 170.091L84.1078 125.795C88.1197 119.527 99.4867 114.095 99.4867 114.095L109.851 123.288C113.194 124.96 110.519 118.273 110.519 118.273L110.519 117.438Z" fill="black"/>
<path id="Vector_11" d="M78.5915 152.331L77.2542 177.404L94.3047 207.909C94.3047 215.013 97.3136 216.685 97.3136 216.685C98.4532 214.411 99.4589 212.037 100.322 209.581C101.994 204.984 99.3195 201.223 99.3195 201.223L87.6182 170.3L92.633 154.838L78.5915 152.331Z" fill="#A0616A"/>
<path id="Vector_12" d="M84.275 126.004C78.5915 128.512 77.5885 155.674 77.5885 155.674C84.275 151.077 92.2987 158.599 92.2987 158.599C92.2987 158.599 93.9703 151.495 95.9763 142.302C96.582 139.716 96.6543 136.98 96.1867 134.35C95.7191 131.72 94.7266 129.28 93.3017 127.258C93.3017 127.258 89.9585 123.497 84.275 126.004Z" fill="black"/>
<path id="Vector_13" d="M95.8091 101.976C97.1285 100.657 98.9284 103.055 98.9284 103.055L99.9839 91.1809C99.9839 91.1809 106.581 92.1704 110.803 90.8511C115.025 89.5317 115.685 95.6336 115.685 95.6336C115.902 93.1695 115.946 90.6862 115.817 88.2124C115.553 85.244 112.122 82.2755 106.053 80.2965C99.984 78.3175 96.8174 86.8931 96.8174 86.8931C92.5954 89.5318 94.4897 103.295 95.8091 101.976Z" fill="#2F2E41"/>
<g id="phone">
<path id="Vector_14" d="M347.758 0.000557541H247.432C242.591 0.000550964 237.894 2.05935 234.113 5.83852C230.332 9.6177 227.692 14.8924 226.627 20.7955L175.935 301.844C175.382 304.909 175.372 308.089 175.906 311.16C176.44 314.23 177.505 317.118 179.027 319.62C180.548 322.122 182.489 324.177 184.713 325.642C186.937 327.108 189.39 327.947 191.901 328.102L295.037 334.453C300.56 334.793 305.993 332.61 310.322 328.311C314.652 324.012 317.582 317.891 318.566 311.09L347.322 112.386L349.461 113.15L354.963 75.4882L352.761 74.8L360.788 19.3345C361.132 16.9588 361.052 14.5175 360.555 12.1848C360.057 9.85201 359.154 7.68517 357.909 5.83874C356.665 3.9923 355.11 2.51175 353.355 1.5026C351.601 0.493461 349.69 -0.0194096 347.758 0.000553565L347.758 0.000557541Z" fill="#3F3D56"/>
<path id="Vector_15" d="M257.979 9.00001H246.268C242.905 9.00001 239.643 10.4377 237.023 13.0744C234.404 15.7112 232.585 19.3883 231.868 23.4955L183.21 302.251C182.93 303.856 182.93 305.518 183.211 307.122C183.491 308.727 184.046 310.237 184.836 311.55C185.627 312.862 186.634 313.946 187.79 314.727C188.947 315.508 190.224 315.968 191.535 316.075L294.337 324.497C297.237 324.734 300.106 323.629 302.396 321.391C304.685 319.154 306.236 315.941 306.751 312.365L348.271 24.2442C348.54 22.3794 348.478 20.4636 348.09 18.6319C347.701 16.8003 346.996 15.0975 346.024 13.6437C345.052 12.19 343.836 11.0206 342.463 10.2182C341.089 9.41587 339.592 9.00001 338.076 9.00001H326.966C325.891 9.00001 324.845 9.44308 323.992 10.2606C323.139 11.0782 322.525 12.2246 322.245 13.5224V13.5224C321.998 14.6681 321.456 15.6802 320.703 16.402C319.949 17.1237 319.026 17.5149 318.077 17.5149H265.335C263.476 17.5149 261.686 16.6379 260.322 15.0592C258.958 13.4806 258.121 11.3166 257.979 9V9.00001Z" fill="white"/>
<path id="Vector_16" d="M318.98 200.933C319.181 200.943 319.379 200.862 319.537 200.705C319.694 200.549 319.802 200.327 319.841 200.08L342.892 43.2519C342.914 43.1026 342.91 42.9491 342.879 42.8022C342.849 42.6553 342.793 42.5184 342.716 42.4012C342.639 42.284 342.542 42.1893 342.433 42.1236C342.323 42.058 342.203 42.0231 342.082 42.0213L237.207 40.4942H237.197C237.008 40.495 236.825 40.576 236.677 40.7238C236.529 40.8717 236.426 41.0778 236.384 41.3085L209.209 193.046C209.182 193.194 209.182 193.348 209.208 193.496C209.234 193.645 209.286 193.784 209.359 193.905C209.433 194.026 209.527 194.125 209.634 194.196C209.742 194.267 209.861 194.307 209.982 194.314L318.98 200.933Z" fill="#E6E6E6"/>
<path id="Vector_17" d="M227.712 210.951C227.617 210.951 227.526 210.991 227.452 211.064C227.379 211.137 227.327 211.24 227.306 211.354L226.338 216.543C226.324 216.616 226.323 216.693 226.335 216.766C226.347 216.84 226.372 216.91 226.408 216.97C226.444 217.031 226.49 217.081 226.543 217.118C226.595 217.154 226.654 217.176 226.714 217.181L281.431 222.042C281.532 222.05 281.633 222.012 281.713 221.935C281.794 221.857 281.85 221.746 281.87 221.622L282.801 215.619C282.813 215.546 282.811 215.471 282.798 215.398C282.784 215.326 282.758 215.259 282.722 215.2C282.685 215.141 282.639 215.093 282.587 215.058C282.534 215.024 282.476 215.004 282.417 214.999L227.737 210.952C227.728 210.952 227.72 210.951 227.712 210.951Z" fill="#E6E6E6"/>
<path id="Vector_18" d="M294.189 241.321C294.288 241.331 294.386 241.296 294.466 241.224C294.546 241.152 294.603 241.046 294.627 240.926L295.813 234.91C295.827 234.837 295.829 234.76 295.817 234.685C295.805 234.611 295.781 234.54 295.745 234.479C295.709 234.417 295.663 234.366 295.61 234.33C295.556 234.293 295.497 234.271 295.437 234.266L225.561 228.157C225.466 228.148 225.372 228.18 225.294 228.247C225.215 228.315 225.158 228.414 225.132 228.529L223.9 233.727C223.882 233.801 223.878 233.88 223.888 233.956C223.897 234.033 223.921 234.106 223.956 234.17C223.991 234.234 224.037 234.287 224.091 234.326C224.144 234.365 224.204 234.388 224.266 234.394L294.189 241.321Z" fill="#E6E6E6"/>
<path id="Vector_19" d="M290.437 260.604C290.535 260.614 290.633 260.58 290.714 260.508C290.794 260.435 290.851 260.33 290.875 260.209L292.06 254.194C292.075 254.12 292.076 254.043 292.065 253.968C292.053 253.894 292.028 253.823 291.992 253.762C291.956 253.7 291.91 253.65 291.857 253.613C291.804 253.576 291.745 253.554 291.684 253.549L221.808 247.44C221.714 247.431 221.619 247.463 221.541 247.53C221.463 247.598 221.406 247.698 221.379 247.812L220.147 253.01C220.13 253.085 220.125 253.163 220.135 253.24C220.145 253.316 220.168 253.389 220.203 253.453C220.238 253.517 220.284 253.57 220.338 253.609C220.392 253.648 220.452 253.671 220.514 253.678L290.437 260.604Z" fill="#E6E6E6"/>
<path id="Vector_20" d="M258.254 293.685C258.354 293.698 258.454 293.666 258.535 293.593C258.617 293.521 258.675 293.414 258.698 293.292L261.205 280.758C261.22 280.685 261.222 280.608 261.21 280.534C261.199 280.46 261.175 280.389 261.14 280.328C261.105 280.267 261.059 280.215 261.007 280.178C260.954 280.141 260.896 280.118 260.836 280.112L217.924 275.6C217.824 275.592 217.725 275.628 217.644 275.702C217.563 275.776 217.506 275.884 217.482 276.006L215.344 288.036C215.331 288.109 215.33 288.183 215.343 288.256C215.355 288.328 215.379 288.396 215.414 288.456C215.448 288.516 215.493 288.566 215.544 288.602C215.596 288.639 215.653 288.662 215.712 288.669L258.254 293.685Z" fill="black"/>
</g>
</g>
<defs>
<clipPath id="clip0">
<rect width="361" height="339" fill="white"/>
</clipPath>
</defs>
</svg>
