<svg width="334" height="185" viewBox="0 0 334 185" fill="none" xmlns="http://www.w3.org/2000/svg">
<g opacity="0.7">
<path opacity="0.7" d="M253.88 0H79.7764C78.2843 0.00585456 76.8554 0.646565 75.8039 1.78128C74.7523 2.91599 74.1642 4.45184 74.1687 6.05119V134.49C74.1642 136.089 74.7523 137.625 75.8039 138.76C76.8554 139.894 78.2843 140.535 79.7764 140.541H139.656V162.712H136.926C136.551 162.713 136.181 162.794 135.835 162.949C135.489 163.104 135.175 163.33 134.911 163.615C134.647 163.9 134.438 164.238 134.296 164.61C134.154 164.982 134.081 165.38 134.083 165.781V170.229H139.656V172.861H194V170.229H199.573V165.781C199.575 165.38 199.502 164.982 199.36 164.61C199.218 164.238 199.009 163.9 198.745 163.615C198.481 163.33 198.167 163.104 197.821 162.949C197.476 162.794 197.105 162.713 196.73 162.712H194.162V162.52H193.986V140.541H253.88C255.372 140.535 256.801 139.894 257.852 138.76C258.904 137.625 259.492 136.089 259.487 134.49V6.05119C259.492 4.45184 258.904 2.91599 257.852 1.78128C256.801 0.646565 255.372 0.00585456 253.88 0Z" fill="url(#paint0_linear)"/>
</g>
<path d="M193.818 136.723H140.182V170.627H193.818V136.723Z" fill="#BDBDBD"/>
<g opacity="0.1">
<path opacity="0.1" d="M141.238 140.04H192.869C193.491 137.14 193.99 135.249 193.99 135.249H140.01C140.01 135.249 140.564 137.132 141.238 140.04Z" fill="black"/>
</g>
<path d="M81.1758 1.10558H253.017C254.485 1.10558 255.893 1.73069 256.931 2.84339C257.969 3.95609 258.552 5.46524 258.552 7.03884V120.508H75.6403V7.03884C75.6403 5.46524 76.2235 3.95609 77.2616 2.84339C78.2997 1.73069 79.7077 1.10558 81.1758 1.10558V1.10558Z" fill="#535461"/>
<path d="M252.92 138.934H81.0795C79.6114 138.934 78.2034 138.309 77.1653 137.196C76.1272 136.084 75.544 134.575 75.544 133.001V120.508H258.456V133.001C258.456 134.575 257.873 136.084 256.835 137.196C255.797 138.309 254.389 138.934 252.92 138.934V138.934Z" fill="#BDBDBD"/>
<path d="M167 133.038C168.709 133.038 170.094 131.553 170.094 129.721C170.094 127.889 168.709 126.404 167 126.404C165.291 126.404 163.906 127.889 163.906 129.721C163.906 131.553 165.291 133.038 167 133.038Z" fill="#535461"/>
<path d="M137.49 160.677H196.51C197.255 160.677 197.97 160.995 198.496 161.559C199.023 162.124 199.319 162.89 199.319 163.688V168.048H134.681V163.688C134.681 163.293 134.754 162.901 134.895 162.536C135.036 162.171 135.243 161.839 135.504 161.559C135.765 161.28 136.074 161.058 136.415 160.906C136.756 160.755 137.121 160.677 137.49 160.677V160.677Z" fill="#BDBDBD"/>
<g opacity="0.5">
<path opacity="0.5" d="M222.183 26.2096H111.817C110.962 26.2096 110.27 26.952 110.27 27.8679V93.7456C110.27 94.6615 110.962 95.404 111.817 95.404H222.183C223.038 95.404 223.73 94.6615 223.73 93.7456V27.8679C223.73 26.952 223.038 26.2096 222.183 26.2096Z" fill="url(#paint1_linear)"/>
</g>
<path d="M220.729 26.7181H113.271C112.417 26.7181 111.724 27.4606 111.724 28.3765V92.8538C111.724 93.7697 112.417 94.5121 113.271 94.5121H220.729C221.583 94.5121 222.276 93.7697 222.276 92.8538V28.3765C222.276 27.4606 221.583 26.7181 220.729 26.7181Z" fill="white"/>
<g opacity="0.5">
<path opacity="0.5" d="M153.158 36.4509H144.067C143.213 36.4509 142.52 37.1934 142.52 38.1093V46.5485C142.52 47.4644 143.213 48.2069 144.067 48.2069H153.158C154.012 48.2069 154.705 47.4644 154.705 46.5485V38.1093C154.705 37.1934 154.012 36.4509 153.158 36.4509Z" fill="black"/>
</g>
<path d="M190.651 36.4509H158.968C158.632 36.4509 158.36 36.7429 158.36 37.1032C158.36 37.4634 158.632 37.7555 158.968 37.7555H190.651C190.987 37.7555 191.26 37.4634 191.26 37.1032C191.26 36.7429 190.987 36.4509 190.651 36.4509Z" fill="#E0E0E0"/>
<path d="M185.099 40.372H158.968C158.632 40.372 158.36 40.664 158.36 41.0243C158.36 41.3846 158.632 41.6766 158.968 41.6766H185.099C185.435 41.6766 185.707 41.3846 185.707 41.0243C185.707 40.664 185.435 40.372 185.099 40.372Z" fill="#E0E0E0"/>
<g opacity="0.5">
<path opacity="0.5" d="M153.158 54.7372H144.067C143.213 54.7372 142.52 55.4796 142.52 56.3955V64.8348C142.52 65.7506 143.213 66.4931 144.067 66.4931H153.158C154.012 66.4931 154.705 65.7506 154.705 64.8348V56.3955C154.705 55.4796 154.012 54.7372 153.158 54.7372Z" fill="black"/>
</g>
<path d="M190.651 54.7372H158.968C158.632 54.7372 158.36 55.0292 158.36 55.3894C158.36 55.7497 158.632 56.0417 158.968 56.0417H190.651C190.987 56.0417 191.26 55.7497 191.26 55.3894C191.26 55.0292 190.987 54.7372 190.651 54.7372Z" fill="#E0E0E0"/>
<path d="M190.651 58.6546H158.968C158.632 58.6546 158.36 58.9466 158.36 59.3069C158.36 59.6671 158.632 59.9592 158.968 59.9592H190.651C190.987 59.9592 191.26 59.6671 191.26 59.3069C191.26 58.9466 190.987 58.6546 190.651 58.6546Z" fill="#E0E0E0"/>
<g opacity="0.5">
<path opacity="0.5" d="M153.158 73.0234H144.067C143.213 73.0234 142.52 73.7659 142.52 74.6818V83.121C142.52 84.0369 143.213 84.7794 144.067 84.7794H153.158C154.012 84.7794 154.705 84.0369 154.705 83.121V74.6818C154.705 73.7659 154.012 73.0234 153.158 73.0234Z" fill="black"/>
</g>
<path d="M190.651 73.0234H158.968C158.632 73.0234 158.36 73.3154 158.36 73.6757C158.36 74.0359 158.632 74.328 158.968 74.328H190.651C190.987 74.328 191.26 74.0359 191.26 73.6757C191.26 73.3154 190.987 73.0234 190.651 73.0234Z" fill="#E0E0E0"/>
<path d="M190.933 76.9408H158.906C158.605 76.9408 158.36 77.2032 158.36 77.5268V77.6594C158.36 77.9831 158.605 78.2454 158.906 78.2454H190.933C191.235 78.2454 191.48 77.9831 191.48 77.6594V77.5268C191.48 77.2032 191.235 76.9408 190.933 76.9408Z" fill="#E0E0E0"/>
<g opacity="0.1">
<path opacity="0.1" d="M193.99 160.493H140.354V161.599H193.99V160.493Z" fill="black"/>
</g>
<g opacity="0.7">
<path opacity="0.7" d="M55.5193 136.925H30.6268L30.9706 133.925C38.0052 127.155 42.5539 109.119 42.5539 109.119C42.4529 109.134 42.353 109.157 42.2548 109.186C38.1289 110.078 35.1927 111.894 33.1401 114.08L34.0134 106.097C47.0098 103.098 52.1636 84.6714 52.1636 84.6714C43.8707 86.643 38.6997 89.6944 35.4884 92.591L36.7674 80.8645C45.5554 84.0965 54.646 66.9269 54.646 66.9269L54.3022 66.8495L54.4741 66.7315L54.2128 66.831C44.4999 64.5867 39.3082 70.5384 37.6235 73.0112L37.7507 71.8614C37.494 72.5985 37.2442 73.3208 37.0012 74.0284V74.0578C36.3136 76.0553 35.6844 78.0281 35.1136 79.9764C34.6162 81.6397 34.1509 83.2857 33.7177 84.9146V84.8925C33.7177 84.8925 33.3155 74.4043 22.9974 71.644C22.9974 71.644 24.0805 94.5184 32.2565 90.7742C31.5001 94.0909 30.8812 97.2824 30.3449 100.382C30.0033 102.399 29.7054 104.364 29.4509 106.278L29.4028 106.337L29.4509 106.293L29.4303 106.444C29.2011 108.181 29.0062 109.874 28.8458 111.522C29.004 108.346 28.4642 99.1692 18.3765 90.5457C18.3765 90.5457 4.96753 115.804 27.8315 120.765C27.8831 120.813 27.9347 120.861 27.9828 120.905L27.9484 120.791L28.1547 120.839L28.2476 119.541C27.9719 124.956 27.9983 130.383 28.3266 135.793V135.793C28.3507 136.162 28.3748 136.53 28.3988 136.88H3.22093C-6.38539 158.178 8.55701 169.849 8.55701 169.849H49.8154C65.8373 148.202 55.5193 136.925 55.5193 136.925Z" fill="url(#paint2_linear)"/>
</g>
<path opacity="0.6" d="M29.224 145.01C29.224 145.01 22.6914 114.422 37.1318 74.9902" stroke="#535461" stroke-width="3" stroke-miterlimit="10"/>
<path d="M3.78136 135.797H54.3228C54.3228 135.797 64.2936 149.432 48.8217 169.701H8.93865C8.93865 169.701 -5.50177 155.697 3.78136 135.797Z" fill="black"/>
<path d="M36.4064 77.0171C36.4064 77.0171 41.4296 67.4354 53.4633 70.3836C53.4633 70.3836 43.5166 88.5372 34.5532 82.5929L36.4064 77.0171Z" fill="#4DB6AC"/>
<path d="M33.2226 87.1847C33.2226 87.1847 32.8341 77.3856 22.8633 74.806C22.8633 74.806 23.8948 96.1805 31.8026 92.6795L33.2226 87.1847Z" fill="#4DB6AC"/>
<path d="M29.9632 101.657C29.9632 101.657 31.8026 91.3896 51.0565 86.9673C51.0565 86.9673 44.9159 108.202 29.0762 107.35L29.9632 101.657Z" fill="#4DB6AC"/>
<path d="M28.4023 113.181C28.4023 113.181 30.4274 102.445 18.3937 92.4952C18.3937 92.4952 5.32854 116.328 27.8418 120.809L28.4023 113.181Z" fill="#4DB6AC"/>
<path d="M28.0413 127.936C28.0413 127.936 26.6454 112.764 41.7734 109.816C41.7734 109.816 36.2482 131.002 28.0206 134.78L28.0413 127.936Z" fill="#4DB6AC"/>
<path opacity="0.3" d="M34.7251 82.7293C34.7251 82.7293 47.7903 72.042 53.2914 70.1994" stroke="#535461" stroke-miterlimit="10"/>
<path opacity="0.3" d="M29.0521 107.236C29.0521 107.236 44.8678 89.1785 51.0565 86.9673" stroke="#535461" stroke-miterlimit="10"/>
<path opacity="0.3" d="M22.8633 74.806C22.8633 74.806 32.4903 88.8099 31.8026 92.4952" stroke="#535461" stroke-miterlimit="10"/>
<path opacity="0.3" d="M18.3937 92.4952C18.3937 92.4952 23.551 117.555 27.6768 120.872" stroke="#535461" stroke-miterlimit="10"/>
<path opacity="0.3" d="M28.0206 134.876C28.0206 134.876 36.2723 110.553 41.7734 109.816" stroke="#535461" stroke-miterlimit="10"/>
<g opacity="0.1">
<path opacity="0.1" d="M54.3228 135.797H3.78134C3.66788 136.044 3.55786 136.291 3.43752 136.534H52.6037C52.6037 136.534 62.3304 149.842 47.6527 169.701H48.8217C64.2936 149.432 54.3228 135.797 54.3228 135.797Z" fill="black"/>
</g>
<path d="M334 167.9H0V180.036H334V167.9Z" fill="#535461"/>
<path d="M319.845 180.036H14.1516V185H319.845V180.036Z" fill="#E0E0E0"/>
<path opacity="0.1" d="M319.845 180.036H14.1516V181.691H319.845V180.036Z" fill="black"/>
<g opacity="0.7">
<path opacity="0.7" d="M313.811 163.95L313.845 163.895C313.916 163.777 313.986 163.654 314.055 163.526L314.093 163.456C314.159 163.336 314.222 163.213 314.282 163.087L314.313 163.025C314.382 162.881 314.447 162.737 314.505 162.586C314.629 162.285 314.737 161.976 314.829 161.661L314.863 161.54C314.894 161.425 314.925 161.311 314.952 161.197L314.987 161.035C315.01 160.932 315.03 160.827 315.049 160.722C315.049 160.663 315.069 160.604 315.08 160.545C315.09 160.486 315.111 160.338 315.124 160.231C315.138 160.125 315.124 160.11 315.145 160.051C315.166 159.992 315.166 159.826 315.172 159.712C315.172 159.66 315.172 159.605 315.172 159.553C315.172 159.387 315.172 159.218 315.172 159.052V128.616H310.411V113.698H304.566V128.616H300.536V107.189H294.691V128.616H292.494V104.127H286.649V128.616H281.492V159.056C281.492 164.024 285.346 168.048 290.087 168.048H306.591C307.94 168.054 309.272 167.721 310.48 167.078C311.688 166.434 312.739 165.497 313.55 164.34V164.34C313.634 164.21 313.722 164.08 313.811 163.95Z" fill="url(#paint3_linear)"/>
</g>
<path d="M292.838 118.297H287.337V155.149H292.838V118.297Z" fill="#535461"/>
<path d="M292.838 106.135H287.337V118.297H292.838V106.135Z" fill="#3AD29F"/>
<path d="M300.402 121.245H294.901V158.098H300.402V121.245Z" fill="#535461"/>
<path d="M300.402 109.084H294.901V121.245H300.402V109.084Z" fill="#4D8AF0"/>
<path d="M309.685 127.51H304.184V164.363H309.685V127.51Z" fill="#535461"/>
<path d="M309.685 115.349H304.184V127.51H309.685V115.349Z" fill="#F55F44"/>
<path d="M282.523 129.721H314.155V159.019C314.155 161.316 313.303 163.519 311.788 165.143C310.273 166.767 308.218 167.679 306.075 167.679H290.603C288.46 167.679 286.405 166.767 284.89 165.143C283.375 163.519 282.523 161.316 282.523 159.019V129.721Z" fill="black"/>
<g opacity="0.1">
<path opacity="0.1" d="M282.523 129.721V131.195H312.78V160.493C312.782 162.429 312.177 164.31 311.06 165.833C312.025 165.024 312.805 163.99 313.342 162.809C313.878 161.628 314.156 160.332 314.155 159.019V129.721H282.523Z" fill="black"/>
</g>
<defs>
<linearGradient id="paint0_linear" x1="166.828" y1="172.857" x2="166.828" y2="0" gradientUnits="userSpaceOnUse">
<stop stop-color="#808080" stop-opacity="0.25"/>
<stop offset="0.54" stop-color="#808080" stop-opacity="0.12"/>
<stop offset="1" stop-color="#808080" stop-opacity="0.1"/>
</linearGradient>
<linearGradient id="paint1_linear" x1="55220.3" y1="17939.3" x2="55220.3" y2="4947.32" gradientUnits="userSpaceOnUse">
<stop stop-color="#808080" stop-opacity="0.25"/>
<stop offset="0.54" stop-color="#808080" stop-opacity="0.12"/>
<stop offset="1" stop-color="#808080" stop-opacity="0.1"/>
</linearGradient>
<linearGradient id="paint2_linear" x1="7760.15" y1="53376.1" x2="17813.1" y2="53376.1" gradientUnits="userSpaceOnUse">
<stop stop-color="#808080" stop-opacity="0.25"/>
<stop offset="0.54" stop-color="#808080" stop-opacity="0.12"/>
<stop offset="1" stop-color="#808080" stop-opacity="0.1"/>
</linearGradient>
<linearGradient id="paint3_linear" x1="31705.5" y1="36429.1" x2="35006.2" y2="36429.1" gradientUnits="userSpaceOnUse">
<stop stop-color="#808080" stop-opacity="0.25"/>
<stop offset="0.54" stop-color="#808080" stop-opacity="0.12"/>
<stop offset="1" stop-color="#808080" stop-opacity="0.1"/>
</linearGradient>
</defs>
</svg>
