<svg width="319" height="237" viewBox="0 0 319 237" fill="none" xmlns="http://www.w3.org/2000/svg">
<rect width="319" height="237" fill="#E5E5E5"/>
<g id="devices 2" clip-path="url(#clip0)">
<path id="Vector" d="M328 32H9V236.264H328V32Z" fill="#E5E5E5"/>
<g id="devices 1">
<path id="Vector_2" d="M175.345 236.296H243.156C245.833 236.296 245.837 230.346 243.156 230.346H175.345C172.668 230.346 172.663 236.296 175.345 236.296Z" fill="#E6E6E6"/>
<path id="Vector 2" d="M282.604 43.8145V148.884H164.403V102.624C164.403 100.524 163.818 98.5098 162.78 97.0245C161.741 95.5392 160.333 94.7039 158.864 94.7019H136.696V43.8145H282.604Z" fill="black"/>
<path id="Vector 3" d="M289.902 163.696H164.535V162.964H289.39V39.2236C289.389 37.7677 288.984 36.3719 288.264 35.3424C287.543 34.3129 286.568 33.7338 285.55 33.7322H132.22C131.201 33.7338 130.226 34.3129 129.505 35.3424C128.786 36.3719 128.381 37.7677 128.38 39.2236V94.2275H127.868V39.2236C127.87 37.5736 128.329 35.9917 129.144 34.8249C129.96 33.6582 131.066 33.0019 132.22 33H285.55C286.704 33.0019 287.809 33.6582 288.626 34.8249C289.442 35.9917 289.9 37.5736 289.902 39.2236V163.696Z" fill="#3F3D56"/>
<path id="Vector 4" d="M278.023 186.029H164.536V185.296H278.023C281.037 185.292 283.926 183.577 286.056 180.529C288.188 177.482 289.386 173.35 289.39 169.039V163.696H164.536V162.964H289.902V169.039C289.898 173.543 288.646 177.862 286.419 181.046C284.192 184.232 281.172 186.024 278.023 186.029Z" fill="#3F3D56"/>
<path id="Vector 5" d="M244.342 221.906C238.015 213.218 233.853 201.881 232.516 186.029H185.889C185.414 200.86 181.279 211.983 173.819 221.867L173.031 221.906C180.727 211.93 184.966 200.725 185.388 185.647L185.397 185.296H232.971L232.997 185.62C234.311 201.741 238.56 213.151 245.043 221.847L244.342 221.906Z" fill="#3F3D56"/>
<path id="Vector 7" d="M122.827 234.246C122.389 234.246 121.961 234.06 121.597 233.712C121.232 233.364 120.949 232.869 120.781 232.291C120.613 231.712 120.569 231.075 120.655 230.46C120.74 229.846 120.952 229.281 121.261 228.838C121.57 228.395 121.965 228.093 122.395 227.972C122.825 227.849 123.27 227.912 123.675 228.152C124.08 228.391 124.425 228.797 124.668 229.318C124.912 229.839 125.042 230.451 125.042 231.078C125.041 231.918 124.807 232.723 124.393 233.317C123.977 233.911 123.414 234.245 122.827 234.246ZM122.827 228.643C122.49 228.643 122.162 228.785 121.881 229.053C121.601 229.321 121.383 229.701 121.254 230.146C121.125 230.591 121.092 231.081 121.157 231.554C121.223 232.026 121.385 232.459 121.623 232.8C121.862 233.141 122.165 233.373 122.495 233.467C122.826 233.561 123.168 233.513 123.479 233.329C123.79 233.144 124.056 232.831 124.243 232.432C124.43 232.031 124.53 231.56 124.53 231.078C124.529 230.432 124.35 229.813 124.03 229.357C123.711 228.9 123.278 228.643 122.827 228.643Z" fill="#3F3D56"/>
<g id="movephones">
<path id="Vector 8" d="M157.037 106.995H89.4534C88.7395 106.997 88.0551 107.403 87.5503 108.125C87.0454 108.847 86.7615 109.826 86.7606 110.847V130.048C90.1318 130.162 92.3201 134.14 92.8503 138.971V156.377H93.1063C93.1469 156.378 93.186 156.401 93.2147 156.443C93.2435 156.483 93.2598 156.539 93.2599 156.597V165.86C93.2598 165.919 93.2435 165.974 93.2147 166.015C93.186 166.056 93.1469 166.08 93.1063 166.08H92.8503V222.065C92.8503 223.295 92.8417 225.54 92.8417 225.54H157.037C157.75 225.539 158.435 225.132 158.94 224.41C159.445 223.688 159.729 222.709 159.73 221.688V110.847C159.729 109.826 159.445 108.847 158.94 108.125C158.435 107.403 157.75 106.997 157.037 106.995Z" fill="black"/>
<path id="Vector 9" d="M158.74 237.052H86.9139V236.32H158.74C160.209 236.318 161.617 235.482 162.655 233.997C163.694 232.511 164.278 230.498 164.28 228.397V102.792C164.278 100.692 163.694 98.6784 162.655 97.1932C161.617 95.7081 160.209 94.8727 158.74 94.8704H86.9139C85.4453 94.8727 84.0375 95.7081 82.999 97.1932C81.9606 98.6784 81.3765 100.692 81.3748 102.792V129.899H80.8628V102.792C80.8647 100.498 81.5027 98.2982 82.6372 96.6758C83.7716 95.0533 85.3096 94.1407 86.9139 94.1381H158.74C160.345 94.1407 161.883 95.0533 163.017 96.6757C164.151 98.2982 164.789 100.498 164.792 102.792V228.397C164.789 230.692 164.151 232.892 163.017 234.514C161.883 236.137 160.345 237.05 158.74 237.052Z" fill="#3F3D56"/>
<path id="Vector 10" d="M86.1926 237.264H62.416C60.6261 237.262 58.91 236.243 57.6443 234.433C56.3787 232.623 55.6667 230.168 55.6647 227.608V139.555C55.6667 136.995 56.3787 134.54 57.6443 132.73C58.91 130.92 60.6261 129.902 62.416 129.899H86.1927C87.9825 129.902 89.6986 130.92 90.9643 132.73C92.2299 134.54 92.9419 136.995 92.9439 139.555V155.312C93.0652 155.385 93.1688 155.506 93.2416 155.663C93.3145 155.819 93.3535 156.003 93.3536 156.191L93.3536 166.444C93.3535 166.632 93.3145 166.816 93.2416 166.972C93.1688 167.129 93.0652 167.25 92.9439 167.322V227.608C92.9419 230.169 92.2299 232.623 90.9643 234.433C89.6986 236.243 87.9825 237.262 86.1926 237.264ZM62.416 130.631C60.7618 130.634 59.1759 131.574 58.0062 133.248C56.8365 134.92 56.1785 137.189 56.1767 139.555V227.608C56.1785 229.974 56.8365 232.243 58.0062 233.915C59.1759 235.588 60.7618 236.53 62.416 236.532H86.1926C87.8468 236.53 89.4327 235.588 90.6024 233.915C91.7721 232.243 92.4301 229.974 92.4319 227.608V166.664H92.6879C92.7287 166.664 92.7678 166.641 92.7966 166.599C92.8253 166.558 92.8416 166.503 92.8416 166.444L92.8417 156.191C92.8416 156.132 92.8254 156.077 92.7966 156.036C92.7678 155.994 92.7287 155.971 92.6879 155.971H92.4319V139.555C92.4301 137.189 91.7721 134.92 90.6024 133.248C89.4327 131.574 87.8468 130.634 86.1927 130.631H62.416Z" fill="#3F3D56"/>
<path id="Vector 11" d="M86.4546 132.682H83.351C83.4938 133.183 83.5483 133.725 83.5097 134.263C83.4712 134.8 83.3407 135.316 83.1299 135.765C82.9191 136.213 82.6344 136.581 82.3009 136.835C81.9673 137.09 81.5952 137.223 81.2174 137.223H67.5961C67.2182 137.223 66.846 137.09 66.5125 136.835C66.179 136.581 65.8943 136.213 65.6835 135.765C65.4727 135.316 65.3423 134.8 65.3037 134.263C65.2651 133.725 65.3196 133.183 65.4623 132.682H62.5636C61.2771 132.682 60.0433 133.413 59.1336 134.713C58.224 136.014 57.7129 137.779 57.7129 139.619V227.544C57.7129 229.384 58.224 231.149 59.1336 232.45C60.0433 233.75 61.2771 234.481 62.5636 234.481H86.4547C87.7412 234.481 88.9749 233.75 89.8846 232.45C90.7943 231.149 91.3053 229.384 91.3053 227.544V139.619C91.3053 137.779 90.7943 136.014 89.8846 134.713C88.9749 133.413 87.7412 132.682 86.4546 132.682Z" fill="black"/>
</g>
<path id="Vector 12" d="M342.697 237.121H24.3058C24.2657 237.121 24.226 237.11 24.1889 237.088C24.1518 237.066 24.118 237.034 24.0896 236.994C24.0612 236.953 24.0387 236.905 24.0233 236.852C24.0079 236.799 24 236.743 24 236.685C24 236.628 24.0079 236.571 24.0233 236.518C24.0387 236.465 24.0612 236.417 24.0896 236.376C24.118 236.336 24.1518 236.304 24.1889 236.282C24.226 236.26 24.2657 236.249 24.3058 236.249H342.697C342.737 236.249 342.777 236.26 342.813 236.282C342.85 236.304 342.884 236.336 342.912 236.376C342.941 236.417 342.963 236.465 342.979 236.518C342.994 236.571 343.002 236.628 343.002 236.685C343.002 236.743 342.994 236.799 342.979 236.852C342.963 236.905 342.941 236.953 342.912 236.994C342.884 237.034 342.85 237.066 342.813 237.088C342.777 237.11 342.737 237.121 342.697 237.121Z" fill="#3F3D56"/>
<path id="Vector 13" d="M244.5 236.916H173.594C172.888 236.917 172.189 236.718 171.536 236.333C170.883 235.947 170.29 235.38 169.791 234.666C169.291 233.952 168.895 233.104 168.624 232.172C168.354 231.238 168.215 230.238 168.215 229.228C168.215 228.218 168.354 227.217 168.624 226.284C168.895 225.351 169.291 224.503 169.791 223.789C170.29 223.075 170.883 222.509 171.536 222.124C172.189 221.737 172.888 221.539 173.594 221.539H244.5C245.925 221.541 247.291 222.352 248.299 223.793C249.305 225.235 249.871 227.19 249.871 229.228C249.871 231.266 249.305 233.22 248.299 234.662C247.291 236.103 245.925 236.914 244.5 236.916ZM173.594 222.272C172.305 222.272 171.068 223.005 170.155 224.31C169.243 225.613 168.73 227.383 168.73 229.228C168.73 231.073 169.243 232.842 170.155 234.146C171.068 235.45 172.305 236.184 173.594 236.184H244.5C245.79 236.184 247.027 235.45 247.939 234.146C248.851 232.842 249.363 231.073 249.363 229.228C249.363 227.383 248.851 225.613 247.939 224.31C247.027 223.005 245.79 222.272 244.5 222.272H173.594Z" fill="#3F3D56"/>
<path id="Vector 14" d="M295.984 178.38L297.97 184.318L314.93 176.189L311.999 167.425L295.984 178.38Z" fill="#FFB8B8"/>
<path id="Vector 15" d="M297.945 198.407L291.703 179.744L296.746 176.296L300.76 188.299C301.35 190.065 301.426 192.095 300.97 193.941C300.515 195.786 299.565 197.299 298.33 198.143L297.945 198.407Z" fill="#2F2E41"/>
<path id="Vector 16" d="M291.987 231.408L296.587 231.186L296.78 205.578L291.388 206.034L291.987 231.408Z" fill="#FFB8B8"/>
<path id="Vector 17" d="M305.512 237.217H291.047V229.224H300.35C301.719 229.224 303.032 230.002 304 231.387C304.968 232.771 305.512 234.648 305.512 236.606V237.217Z" fill="#2F2E41"/>
<path id="Vector 18" d="M292.365 227.561C291.979 227.561 291.605 227.376 291.301 227.035C290.998 226.696 290.783 226.219 290.691 225.684C288.171 211.205 278.795 138.25 287.086 123.921L287.158 123.797L287.268 123.757C287.85 123.546 298.821 118.688 305.26 126.271L305.334 126.36L308.917 141.193L318.576 161.699C319.105 162.821 319.471 164.085 319.652 165.414C319.834 166.743 319.827 168.11 319.631 169.435C319.437 170.76 319.058 172.015 318.517 173.127C317.976 174.239 317.285 175.184 316.485 175.906L303.801 187.353C303.495 187.618 303.139 187.74 302.782 187.705C302.425 187.668 302.084 187.475 301.807 187.152C301.574 186.876 301.395 186.519 301.287 186.115L298.622 176.585C298.462 176.007 298.46 175.365 298.614 174.785C298.768 174.204 299.068 173.727 299.456 173.447L305.398 169.197C305.56 169.069 305.701 168.891 305.812 168.677C305.921 168.462 305.996 168.216 306.032 167.956C306.049 167.72 306.025 167.482 305.962 167.262C305.9 167.043 305.802 166.848 305.676 166.695L298.778 158.191C298.624 158.001 298.436 157.88 298.235 157.842C298.034 157.805 297.831 157.851 297.648 157.977C297.466 158.102 297.313 158.301 297.208 158.55C297.103 158.797 297.052 159.083 297.06 159.373L298.769 223.933C298.785 224.54 298.645 225.133 298.376 225.601C298.106 226.07 297.726 226.381 297.307 226.476L292.642 227.529C292.551 227.551 292.458 227.561 292.365 227.561Z" fill="#6248FF"/>
<path id="Vector 19" d="M304.264 128.903C304.225 128.903 304.186 128.901 304.146 128.896L286.945 127.074C286.706 127.049 286.474 126.946 286.268 126.772C286.061 126.599 285.886 126.36 285.755 126.073C285.623 125.787 285.54 125.461 285.511 125.121C285.483 124.782 285.509 124.437 285.588 124.114C286.646 119.751 286.776 115.037 285.961 110.568C284.84 104.25 284.814 92.5028 284.898 86.0629C284.917 84.9712 285.223 83.9298 285.756 83.1466C286.287 82.3634 287.006 81.8958 287.769 81.8373V81.8286L288.115 81.8347C290.918 81.8908 296.061 82.1768 300.269 83.429C301.686 83.8488 302.962 84.9466 303.886 86.5418C304.81 88.1369 305.327 90.1344 305.351 92.2053C305.447 98.1842 305.46 106.277 304.986 110.877C304.585 114.758 305.325 122.211 305.801 126.309C305.838 126.628 305.826 126.955 305.766 127.267C305.706 127.578 305.599 127.867 305.452 128.114C305.306 128.361 305.124 128.559 304.919 128.696C304.714 128.831 304.49 128.903 304.264 128.903Z" fill="#3F3D56"/>
<path id="Vector 20" d="M310.405 152.355C309.946 152.041 309.542 151.587 309.22 151.026C308.897 150.464 308.665 149.808 308.539 149.104C308.413 148.4 308.397 147.665 308.491 146.951C308.585 146.237 308.788 145.561 309.084 144.971L301.139 95.9723H307.146L314.158 144.005C314.818 144.783 315.255 145.881 315.387 147.09C315.52 148.298 315.337 149.534 314.874 150.563C314.412 151.592 313.701 152.343 312.877 152.674C312.054 153.004 311.175 152.89 310.405 152.355Z" fill="#FFB8B8"/>
<path id="Vector 21" d="M272.778 101.28L282.29 88.4118L285.873 95.5868L276.915 106.862L288.663 120.205C288.748 120.197 288.833 120.187 288.919 120.187C289.642 120.185 290.35 120.483 290.958 121.041C291.566 121.601 292.049 122.399 292.348 123.34C292.647 124.282 292.75 125.326 292.646 126.349C292.541 127.372 292.231 128.331 291.756 129.109C291.28 129.887 290.658 130.453 289.963 130.739C289.268 131.025 288.53 131.018 287.838 130.721C287.145 130.423 286.528 129.846 286.059 129.059C285.59 128.271 285.29 127.308 285.193 126.284L285.157 126.337L272.929 111.18C272.436 110.569 272.038 109.817 271.76 108.973C271.483 108.129 271.333 107.211 271.318 106.278C271.304 105.345 271.427 104.419 271.678 103.558C271.929 102.697 272.304 101.921 272.778 101.28Z" fill="#FFB8B8"/>
<path id="Vector 22" d="M301.772 99.1119C301.478 99.1133 301.19 98.9949 300.941 98.7707C300.692 98.5465 300.493 98.2257 300.367 97.8458C299.609 95.5573 299.087 93.1238 298.818 90.6211C298.406 86.5333 300.393 84.1015 302.414 83.5718C304.38 83.0563 306.775 84.2925 307.387 88.2242C307.438 88.557 307.478 88.8933 307.506 89.2319C307.751 92.2122 307.981 94.5302 308.191 96.1218C308.232 96.4348 308.226 96.7568 308.173 97.066C308.119 97.3752 308.021 97.6645 307.883 97.9145C307.745 98.1645 307.571 98.3693 307.374 98.5151C307.175 98.661 306.958 98.7444 306.736 98.7599L301.852 99.1091C301.825 99.111 301.798 99.112 301.772 99.1119Z" fill="#3F3D56"/>
<path id="Vector 23" d="M294.961 77.6169C300.706 77.6169 305.362 70.9569 305.362 62.7415C305.362 54.5261 300.706 47.8662 294.961 47.8662C289.218 47.8662 284.56 54.5261 284.56 62.7415C284.56 70.9569 289.218 77.6169 294.961 77.6169Z" fill="#FBFF48"/>
<path id="Vector 24" d="M295.024 78.7813C299.727 78.7813 303.54 73.3288 303.54 66.6029C303.54 59.8768 299.727 54.4244 295.024 54.4244C290.321 54.4244 286.509 59.8768 286.509 66.6029C286.509 73.3288 290.321 78.7813 295.024 78.7813Z" fill="#FFB8B8"/>
<path id="Vector 25" d="M279.911 93.1851C279.694 92.9019 279.536 92.5362 279.459 92.1304C279.382 91.7248 279.387 91.2959 279.473 90.894C279.995 88.4745 280.76 86.1763 281.744 84.071C283.371 80.6587 285.985 80.7864 287.725 82.3488C289.418 83.8685 290.6 87.0939 289.193 90.5839C289.074 90.8789 288.945 91.1651 288.805 91.4414C287.577 93.8755 286.653 95.8072 286.055 97.1834C285.938 97.4539 285.782 97.6852 285.596 97.8618C285.41 98.0384 285.201 98.1561 284.981 98.2072C284.762 98.2582 284.537 98.2412 284.322 98.1575C284.107 98.0737 283.908 97.9252 283.736 97.7217L279.971 93.2601C279.95 93.2357 279.93 93.2107 279.911 93.1851Z" fill="#3F3D56"/>
<path id="Vector 26" d="M292.941 49.4566C290.848 47.6705 290.395 43.2229 291.642 40.228C292.889 37.233 295.409 35.6708 297.845 35.5678C301.325 35.4207 304.685 37.8987 307.122 41.4559C309.557 45.0132 311.164 49.5666 312.389 54.2273C313.614 58.8879 314.493 63.7217 315.7 68.3919C316.32 70.7884 317.082 73.249 318.499 74.8053C319.915 76.3615 322.168 76.6422 323.379 74.7641C323.374 77.7694 321.763 80.5015 319.765 81.4319C317.767 82.3624 315.507 81.6598 313.755 79.9996C310.717 77.1195 309.249 71.8621 308.411 66.7883C307.572 61.7144 307.159 56.3977 305.473 51.7752C304.774 49.86 303.817 48.0406 302.47 47.0634C301.123 46.0861 299.328 46.1503 298.244 47.6553C297.743 48.3523 297.418 49.3028 296.848 49.8839C296.488 50.2063 296.081 50.4065 295.658 50.4696C295.235 50.5325 294.808 50.4564 294.408 50.2472C293.614 49.8197 292.87 49.2193 292.203 48.4671" fill="#FBFF48"/>
<path id="Vector 27" d="M287.839 61.4864C288.66 63.0645 289.695 64.3887 290.883 65.379C292.071 66.3694 293.387 67.0056 294.752 67.2491C296.116 67.4928 297.501 67.3387 298.822 66.7964C300.144 66.254 301.375 65.3345 302.443 64.0934C303.269 63.1313 304.037 61.8054 303.985 60.2829C303.932 58.7232 303.041 57.4983 302.131 56.6357C299.737 54.3853 296.857 53.439 294.016 53.9693C292.395 54.2809 290.77 55.1257 289.623 56.7918C288.474 58.4578 287.902 61.049 288.494 63.2292" fill="#FBFF48"/>
</g>
</g>
<defs>
<clipPath id="clip0">
<rect width="319" height="237" fill="white"/>
</clipPath>
</defs>
</svg>
