<svg width="367" height="235" viewBox="0 0 367 235" fill="none" xmlns="http://www.w3.org/2000/svg">
<rect width="367" height="235" fill="#E5E5E5"/>
<g id="devices 1" clip-path="url(#clip0)">
<path id="Vector" d="M174.116 233.886H252.13C255.21 233.886 255.215 227.041 252.13 227.041H174.116C171.036 227.041 171.031 233.886 174.116 233.886Z" fill="#E6E6E6"/>
<path id="Vector_2" d="M297.514 12.4417V133.321H161.528V80.1006C161.527 77.684 160.855 75.3671 159.66 73.6583C158.465 71.9495 156.845 70.9885 155.155 70.9862H129.652V12.4417H297.514Z" fill="black"/>
<path id="Vector_3" d="M305.91 150.362H161.68V149.52H305.321V7.16011C305.32 5.48512 304.854 3.87928 304.026 2.69488C303.197 1.51048 302.075 0.844254 300.904 0.842356H124.502C123.33 0.844256 122.208 1.51048 121.379 2.69488C120.551 3.87928 120.085 5.48513 120.084 7.16011V70.4404H119.495V7.16011C119.497 5.26179 120.025 3.44182 120.963 2.0995C121.902 0.757186 123.174 0.00212883 124.502 -7.62939e-06H300.904C302.231 0.00212581 303.503 0.757177 304.442 2.0995C305.381 3.44182 305.908 5.26179 305.91 7.16011V150.362Z" fill="#3F3D56"/>
<path id="Vector_4" d="M292.244 176.055H161.68V175.212H292.244C295.711 175.207 299.035 173.234 301.486 169.728C303.938 166.222 305.317 161.468 305.321 156.509V150.362H161.68V149.52H305.91V156.509C305.906 161.691 304.465 166.659 301.903 170.323C299.341 173.988 295.867 176.049 292.244 176.055V176.055Z" fill="#3F3D56"/>
<path id="Vector_5" d="M253.495 217.331C246.216 207.335 241.428 194.293 239.889 176.055H186.246C185.7 193.118 180.943 205.915 172.36 217.286L171.454 217.331C180.308 205.854 185.185 192.963 185.67 175.616L185.681 175.212H240.413L240.443 175.585C241.955 194.132 246.843 207.258 254.301 217.263L253.495 217.331Z" fill="#3F3D56"/>
<path id="Vector_6" d="M113.696 80.9947C113.301 80.9947 112.915 80.8272 112.586 80.5134C112.258 80.1995 112.002 79.7535 111.851 79.2316C111.7 78.7097 111.66 78.1355 111.737 77.5815C111.814 77.0275 112.004 76.5185 112.284 76.1191C112.563 75.7197 112.919 75.4477 113.306 75.3375C113.694 75.2272 114.095 75.2838 114.46 75.5C114.825 75.7161 115.137 76.0822 115.356 76.5518C115.576 77.0215 115.693 77.5737 115.693 78.1385C115.692 78.8958 115.482 79.6217 115.107 80.1572C114.733 80.6926 114.225 80.9938 113.696 80.9947V80.9947ZM113.696 75.9427C113.392 75.9427 113.095 76.0715 112.843 76.3128C112.59 76.5541 112.394 76.8971 112.277 77.2983C112.161 77.6996 112.131 78.1411 112.19 78.5671C112.249 78.993 112.395 79.3843 112.61 79.6914C112.825 79.9985 113.098 80.2076 113.396 80.2923C113.694 80.3771 114.003 80.3336 114.283 80.1674C114.564 80.0011 114.804 79.7197 114.972 79.3586C115.141 78.9974 115.231 78.5729 115.231 78.1386C115.231 77.5564 115.069 76.9982 114.781 76.5866C114.493 76.1749 114.103 75.9434 113.696 75.9427V75.9427Z" fill="#3F3D56"/>
<path id="Vector_7" d="M113.696 231.527C113.192 231.527 112.699 231.314 112.28 230.913C111.861 230.513 111.535 229.943 111.342 229.278C111.149 228.612 111.098 227.879 111.197 227.172C111.295 226.465 111.538 225.816 111.894 225.306C112.25 224.796 112.704 224.449 113.199 224.309C113.693 224.168 114.205 224.24 114.671 224.516C115.137 224.792 115.534 225.259 115.814 225.858C116.094 226.457 116.244 227.162 116.244 227.883C116.243 228.849 115.974 229.775 115.497 230.459C115.019 231.142 114.371 231.526 113.696 231.527V231.527ZM113.696 225.081C113.308 225.081 112.93 225.245 112.607 225.553C112.285 225.861 112.034 226.299 111.886 226.811C111.738 227.323 111.699 227.886 111.774 228.43C111.85 228.973 112.037 229.472 112.311 229.864C112.585 230.256 112.934 230.523 113.314 230.631C113.694 230.739 114.088 230.684 114.446 230.472C114.804 230.26 115.11 229.9 115.325 229.44C115.54 228.979 115.655 228.437 115.655 227.883C115.654 227.14 115.448 226.428 115.08 225.903C114.713 225.377 114.215 225.082 113.696 225.081V225.081Z" fill="#3F3D56"/>
<g id="movephones">
<path id="Vector_8" d="M153.053 85.1295H75.3003C74.479 85.131 73.6916 85.5983 73.1108 86.4289C72.53 87.2595 72.2033 88.3857 72.2023 89.5604V111.651C76.0808 111.782 78.5983 116.359 79.2083 121.916V141.942H79.5028C79.5496 141.943 79.5945 141.969 79.6276 142.017C79.6607 142.064 79.6794 142.128 79.6795 142.195V152.852C79.6794 152.919 79.6607 152.983 79.6276 153.03C79.5945 153.077 79.5496 153.104 79.5028 153.104H79.2083V217.514C79.2083 218.929 79.1984 221.511 79.1984 221.511H153.053C153.874 221.51 154.661 221.042 155.242 220.212C155.823 219.381 156.15 218.255 156.151 217.08V89.5604C156.15 88.3857 155.823 87.2595 155.242 86.4289C154.661 85.5982 153.874 85.131 153.053 85.1295V85.1295Z" fill="black"/>
<path id="Vector_9" d="M155.013 234.756H72.3787V233.914H155.013C156.703 233.911 158.322 232.95 159.517 231.241C160.712 229.532 161.384 227.216 161.386 224.799V80.294C161.384 77.8776 160.712 75.561 159.517 73.8524C158.322 72.1438 156.703 71.1827 155.013 71.18H72.3787C70.6891 71.1827 69.0694 72.1438 67.8747 73.8524C66.68 75.561 66.008 77.8776 66.0061 80.294V111.479H65.4171V80.294C65.4192 77.6543 66.1533 75.1236 67.4584 73.2571C68.7635 71.3905 70.533 70.3406 72.3787 70.3376H155.013C156.859 70.3406 158.628 71.3905 159.933 73.257C161.238 75.1236 161.972 77.6543 161.975 80.294V224.799C161.972 227.439 161.238 229.97 159.933 231.836C158.628 233.703 156.859 234.753 155.013 234.756V234.756Z" fill="#3F3D56"/>
<path id="Vector_10" d="M71.5488 235H44.1946C42.1353 234.997 40.161 233.825 38.7049 231.743C37.2488 229.66 36.4297 226.836 36.4274 223.891V122.588C36.4297 119.643 37.2488 116.819 38.7049 114.736C40.161 112.654 42.1353 111.483 44.1946 111.479H71.5489C73.6081 111.483 75.5824 112.654 77.0385 114.736C78.4946 116.819 79.3137 119.643 79.316 122.588V140.716C79.4555 140.8 79.5747 140.94 79.6585 141.12C79.7424 141.3 79.7872 141.511 79.7874 141.727L79.7873 153.523C79.7872 153.74 79.7424 153.951 79.6585 154.131C79.5747 154.311 79.4555 154.451 79.316 154.534V223.891C79.3137 226.837 78.4946 229.66 77.0385 231.743C75.5824 233.825 73.6081 234.997 71.5488 235V235ZM44.1946 112.322C42.2914 112.325 40.4669 113.407 39.1212 115.332C37.7755 117.256 37.0185 119.866 37.0164 122.588V223.891C37.0185 226.613 37.7755 229.223 39.1212 231.147C40.4669 233.072 42.2915 234.155 44.1946 234.158H71.5488C73.4519 234.155 75.2765 233.072 76.6222 231.147C77.9679 229.223 78.7249 226.613 78.727 223.891V153.776H79.0215C79.0684 153.776 79.1134 153.75 79.1465 153.702C79.1796 153.655 79.1983 153.591 79.1983 153.523L79.1984 141.727C79.1983 141.66 79.1797 141.596 79.1465 141.549C79.1134 141.501 79.0684 141.475 79.0215 141.475H78.727V122.588C78.7249 119.866 77.9679 117.256 76.6222 115.332C75.2765 113.407 73.452 112.325 71.5489 112.322H44.1946Z" fill="#3F3D56"/>
<path id="Vector_11" d="M71.8503 114.681H68.2797C68.4439 115.257 68.5066 115.881 68.4622 116.5C68.4179 117.118 68.2678 117.712 68.0253 118.228C67.7828 118.744 67.4552 119.167 67.0715 119.459C66.6878 119.752 66.2597 119.905 65.825 119.905H50.1541C49.7193 119.905 49.2912 119.752 48.9075 119.459C48.5238 119.167 48.1963 118.744 47.9537 118.228C47.7112 117.712 47.5612 117.118 47.5168 116.5C47.4724 115.881 47.5351 115.257 47.6993 114.681H44.3644C42.8843 114.681 41.4649 115.522 40.4183 117.018C39.3718 118.515 38.7838 120.545 38.7838 122.662V223.817C38.7838 225.934 39.3718 227.964 40.4183 229.461C41.4649 230.957 42.8843 231.798 44.3644 231.798H71.8504C73.3304 231.798 74.7498 230.957 75.7964 229.461C76.8429 227.964 77.4309 225.934 77.4309 223.817V122.662C77.4309 120.545 76.8429 118.515 75.7964 117.018C74.7498 115.522 73.3304 114.681 71.8503 114.681V114.681Z" fill="black"/>
</g>
<path id="Vector_12" d="M366.649 234.835H0.349924C0.303777 234.835 0.258056 234.823 0.215376 234.797C0.172697 234.772 0.133898 234.735 0.101211 234.689C0.068525 234.642 0.0425922 234.587 0.0248963 234.526C0.00720044 234.465 -0.00190735 234.4 -0.00190735 234.334C-0.00190735 234.268 0.00720044 234.202 0.0248963 234.141C0.0425922 234.08 0.068525 234.025 0.101211 233.978C0.133898 233.932 0.172697 233.895 0.215376 233.87C0.258056 233.845 0.303777 233.832 0.349924 233.832H366.649C366.695 233.832 366.741 233.845 366.783 233.87C366.826 233.895 366.865 233.932 366.897 233.978C366.93 234.025 366.956 234.08 366.974 234.141C366.991 234.202 367 234.268 367 234.334C367 234.4 366.991 234.465 366.974 234.526C366.956 234.587 366.93 234.642 366.897 234.689C366.865 234.735 366.826 234.772 366.783 234.797C366.741 234.823 366.695 234.835 366.649 234.835V234.835Z" fill="#3F3D56"/>
<path id="Vector_13" d="M253.677 234.599H172.102C171.289 234.6 170.485 234.372 169.734 233.928C168.983 233.484 168.3 232.832 167.726 232.011C167.151 231.189 166.695 230.214 166.384 229.141C166.073 228.067 165.913 226.916 165.913 225.754C165.913 224.592 166.073 223.441 166.384 222.368C166.695 221.294 167.151 220.319 167.726 219.497C168.3 218.676 168.983 218.025 169.734 217.581C170.485 217.136 171.289 216.908 172.102 216.909H253.677C255.316 216.911 256.888 217.844 258.047 219.502C259.205 221.161 259.856 223.41 259.856 225.754C259.856 228.099 259.205 230.347 258.047 232.006C256.888 233.664 255.316 234.597 253.677 234.599ZM172.102 217.752C170.618 217.752 169.195 218.595 168.145 220.096C167.096 221.596 166.506 223.632 166.506 225.754C166.506 227.877 167.096 229.912 168.145 231.413C169.195 232.913 170.618 233.757 172.102 233.757H253.677C255.161 233.757 256.584 232.913 257.633 231.413C258.683 229.912 259.272 227.877 259.272 225.754C259.272 223.632 258.683 221.596 257.633 220.096C256.584 218.595 255.161 217.752 253.677 217.752H172.102Z" fill="#3F3D56"/>
<path id="Vector_14" d="M312.908 167.255L315.193 174.087L334.704 164.735L331.332 154.652L312.908 167.255Z" fill="#FFB8B8"/>
<path id="Vector_15" d="M315.164 190.296L307.983 168.825L313.784 164.858L318.402 178.667C319.081 180.699 319.169 183.034 318.644 185.158C318.12 187.281 317.028 189.021 315.607 189.992L315.164 190.296V190.296Z" fill="#2F2E41"/>
<path id="Vector_16" d="M308.309 228.262L313.601 228.007L313.823 198.546L307.62 199.07L308.309 228.262Z" fill="#FFB8B8"/>
<path id="Vector_17" d="M323.869 234.946H307.228V225.75H317.931C319.506 225.75 321.016 226.645 322.13 228.238C323.243 229.83 323.869 231.99 323.869 234.243V234.946V234.946Z" fill="#2F2E41"/>
<path id="Vector_18" d="M308.744 223.837C308.3 223.837 307.87 223.624 307.52 223.232C307.171 222.841 306.924 222.293 306.818 221.677C303.919 205.019 293.132 121.087 302.671 104.602L302.754 104.459L302.88 104.413C303.55 104.171 316.172 98.5814 323.579 107.306L323.665 107.408L327.787 124.473L338.899 148.064C339.508 149.355 339.929 150.809 340.137 152.338C340.346 153.867 340.338 155.44 340.113 156.964C339.889 158.489 339.453 159.933 338.831 161.212C338.209 162.491 337.414 163.578 336.493 164.409L321.901 177.578C321.549 177.883 321.139 178.024 320.728 177.983C320.318 177.941 319.926 177.719 319.607 177.347C319.339 177.03 319.133 176.619 319.008 176.154L315.942 165.19C315.759 164.525 315.756 163.787 315.933 163.119C316.111 162.451 316.456 161.902 316.902 161.58L323.738 156.691C323.925 156.543 324.087 156.339 324.214 156.092C324.34 155.845 324.426 155.562 324.468 155.263C324.487 154.991 324.459 154.718 324.387 154.465C324.316 154.212 324.203 153.988 324.058 153.812L316.122 144.028C315.945 143.81 315.728 143.671 315.497 143.627C315.266 143.584 315.032 143.637 314.822 143.782C314.612 143.926 314.436 144.155 314.316 144.441C314.195 144.726 314.136 145.055 314.145 145.388L316.112 219.663C316.13 220.361 315.969 221.043 315.659 221.582C315.349 222.121 314.912 222.479 314.43 222.588L309.063 223.8C308.958 223.825 308.851 223.837 308.744 223.837Z" fill="#6248FF"/>
<path id="Vector_19" d="M322.434 110.333C322.389 110.333 322.344 110.331 322.298 110.326L302.508 108.229C302.233 108.201 301.967 108.082 301.73 107.882C301.492 107.683 301.29 107.408 301.139 107.078C300.988 106.749 300.892 106.374 300.859 105.983C300.826 105.592 300.856 105.195 300.947 104.824C302.164 99.8039 302.314 94.3807 301.376 89.2397C300.087 81.9711 300.057 68.4562 300.153 61.0473C300.175 59.7913 300.527 58.5932 301.14 57.6921C301.752 56.7911 302.579 56.2532 303.456 56.1859L303.456 56.1758L303.855 56.1828C307.079 56.2474 312.996 56.5764 317.837 58.017C319.468 58.5 320.936 59.763 321.999 61.5982C323.062 63.4334 323.656 65.7314 323.684 68.1139C323.794 74.9925 323.81 84.3031 323.264 89.5956C322.803 94.0607 323.654 102.635 324.202 107.349C324.244 107.716 324.23 108.092 324.161 108.451C324.092 108.809 323.969 109.142 323.8 109.426C323.632 109.71 323.423 109.938 323.187 110.095C322.951 110.251 322.694 110.333 322.434 110.333H322.434Z" fill="#3F3D56"/>
<path id="Vector_20" d="M329.499 137.314C328.971 136.953 328.506 136.431 328.135 135.785C327.764 135.139 327.497 134.384 327.352 133.574C327.207 132.764 327.188 131.919 327.296 131.097C327.405 130.276 327.638 129.498 327.979 128.819L318.838 72.4477H325.749L333.816 127.708C334.575 128.603 335.078 129.866 335.23 131.257C335.383 132.647 335.173 134.069 334.64 135.253C334.108 136.437 333.291 137.301 332.343 137.681C331.396 138.061 330.384 137.93 329.499 137.314H329.499Z" fill="#FFB8B8"/>
<path id="Vector_21" d="M286.21 78.5543L297.153 63.7496L301.275 72.0042L290.969 84.9756L304.485 100.327C304.583 100.317 304.68 100.306 304.78 100.306C305.611 100.304 306.426 100.646 307.125 101.289C307.825 101.933 308.38 102.851 308.724 103.934C309.068 105.017 309.187 106.218 309.067 107.395C308.946 108.572 308.59 109.675 308.043 110.57C307.496 111.466 306.78 112.117 305.98 112.446C305.181 112.775 304.332 112.767 303.536 112.425C302.739 112.082 302.029 111.418 301.489 110.513C300.95 109.607 300.604 108.499 300.493 107.32L300.451 107.381L286.383 89.9439C285.816 89.241 285.358 88.376 285.039 87.4047C284.72 86.4333 284.547 85.3771 284.53 84.3041C284.514 83.2311 284.655 82.1651 284.944 81.1748C285.233 80.1845 285.664 79.2919 286.21 78.5543V78.5543Z" fill="#FFB8B8"/>
<path id="Vector_22" d="M319.567 76.0598C319.228 76.0614 318.897 75.9252 318.611 75.6672C318.324 75.4093 318.095 75.0402 317.95 74.6031C317.078 71.9703 316.478 69.1706 316.168 66.2914C315.694 61.5885 317.98 58.7908 320.305 58.1813C322.567 57.5883 325.322 59.0105 326.026 63.5338C326.085 63.9167 326.131 64.3036 326.163 64.6931C326.445 68.1219 326.71 70.7887 326.951 72.6198C326.999 72.9799 326.992 73.3503 326.931 73.706C326.869 74.0618 326.756 74.3946 326.597 74.6822C326.438 74.9698 326.238 75.2054 326.011 75.3732C325.783 75.541 325.533 75.637 325.277 75.6548L319.658 76.0565C319.628 76.0587 319.597 76.0599 319.567 76.0598Z" fill="#3F3D56"/>
<path id="Vector_23" d="M311.731 51.3304C318.34 51.3304 323.697 43.6683 323.697 34.2167C323.697 24.7651 318.34 17.1031 311.731 17.1031C305.123 17.1031 299.765 24.7651 299.765 34.2167C299.765 43.6683 305.123 51.3304 311.731 51.3304Z" fill="#FBFF48"/>
<path id="Vector_24" d="M311.803 52.67C317.214 52.67 321.6 46.3971 321.6 38.6591C321.6 30.921 317.214 24.6481 311.803 24.6481C306.393 24.6481 302.007 30.921 302.007 38.6591C302.007 46.3971 306.393 52.67 311.803 52.67Z" fill="#FFB8B8"/>
<path id="Vector_25" d="M294.416 69.2412C294.166 68.9154 293.985 68.4946 293.896 68.0278C293.807 67.5611 293.813 67.0677 293.912 66.6053C294.513 63.8218 295.393 61.1778 296.525 58.7557C298.397 54.8299 301.404 54.9768 303.406 56.7743C305.354 58.5227 306.713 62.2334 305.095 66.2486C304.958 66.5879 304.809 66.9172 304.648 67.2351C303.236 70.0354 302.172 72.2578 301.485 73.8411C301.35 74.1523 301.17 74.4184 300.957 74.6216C300.743 74.8247 300.502 74.9602 300.249 75.0189C299.997 75.0776 299.738 75.0581 299.491 74.9618C299.244 74.8654 299.014 74.6945 298.817 74.4604L294.485 69.3274C294.461 69.2994 294.438 69.2706 294.416 69.2412Z" fill="#3F3D56"/>
<path id="Vector_26" d="M309.407 18.9328C306.999 16.878 306.478 11.7611 307.912 8.31554C309.347 4.86998 312.246 3.07263 315.049 2.95417C319.052 2.78496 322.918 5.63582 325.721 9.72831C328.523 13.8208 330.372 19.0594 331.781 24.4214C333.19 29.7833 334.202 35.3444 335.59 40.7173C336.303 43.4744 337.18 46.3053 338.81 48.0957C340.44 49.8861 343.031 50.2091 344.425 48.0484C344.419 51.5059 342.566 54.649 340.267 55.7195C337.968 56.79 335.368 55.9816 333.353 54.0716C329.857 50.7582 328.169 44.7097 327.204 38.8724C326.239 33.0351 325.764 26.9183 323.824 21.6003C323.02 19.3969 321.919 17.3038 320.369 16.1795C318.82 15.0552 316.755 15.129 315.508 16.8605C314.931 17.6624 314.557 18.7559 313.902 19.4244C313.487 19.7953 313.019 20.0257 312.533 20.0982C312.046 20.1706 311.555 20.0831 311.095 19.8424C310.181 19.3506 309.325 18.6598 308.558 17.7944" fill="#FBFF48"/>
<path id="Vector_27" d="M303.537 32.7728C304.481 34.5883 305.672 36.1117 307.039 37.2511C308.406 38.3905 309.92 39.1224 311.49 39.4026C313.059 39.6829 314.653 39.5057 316.173 38.8817C317.694 38.2577 319.11 37.1999 320.338 35.772C321.289 34.6652 322.172 33.1398 322.113 31.3881C322.052 29.5938 321.026 28.1846 319.979 27.1922C317.225 24.6031 313.912 23.5145 310.644 24.1246C308.779 24.483 306.909 25.455 305.589 27.3717C304.268 29.2884 303.61 32.2695 304.291 34.7778" fill="#FBFF48"/>
</g>
<defs>
<clipPath id="clip0">
<rect width="367" height="235" fill="white"/>
</clipPath>
</defs>
</svg>
