<svg width="384" height="201" viewBox="0 0 384 201" fill="none" xmlns="http://www.w3.org/2000/svg">
<rect width="384" height="201" fill="#E5E5E5"/>
<g id="devices 1">
<g clip-path="url(#clip0)">
<path id="Vector" d="M182.181 200.048H263.809C267.032 200.048 267.037 194.192 263.809 194.192H182.181C178.958 194.192 178.953 200.048 182.181 200.048Z" fill="#E6E6E6"/>
<path id="Vector_2" d="M310.021 11.7101V115.101H167.737V69.58C167.735 67.5131 167.032 65.5313 165.782 64.0698C164.532 62.6082 162.836 61.7863 161.069 61.7843H134.384V11.7101H310.021Z" fill="black"/>
<path id="Vector_3" d="M320.08 128.608H169.169V127.887H319.464V6.12419C319.462 4.69154 318.975 3.31803 318.109 2.30499C317.242 1.29195 316.067 0.722113 314.842 0.72049H130.269C129.043 0.722115 127.868 1.29195 127.002 2.30499C126.135 3.31803 125.648 4.69154 125.647 6.12419V60.249H125.03V6.12419C125.032 4.50052 125.584 2.94386 126.566 1.79575C127.548 0.647642 128.88 0.00182735 130.269 0H314.842C316.231 0.00182477 317.562 0.647634 318.544 1.79575C319.526 2.94386 320.079 4.50051 320.08 6.12419V128.608Z" fill="#3F3D56"/>
<path id="Vector_4" d="M305.781 150.583H169.169V149.862H305.781C309.409 149.858 312.887 148.171 315.452 145.172C318.017 142.173 319.46 138.107 319.464 133.865V128.608H169.169V127.887H320.08V133.865C320.076 138.298 318.568 142.547 315.887 145.681C313.207 148.815 309.572 150.578 305.781 150.583Z" fill="#3F3D56"/>
<g id="Group 1">
<path id="Vector_5" d="M265.237 185.887C257.622 177.338 252.612 166.183 251.001 150.583H194.873C194.302 165.177 189.324 176.123 180.344 185.848L179.396 185.887C188.66 176.071 193.763 165.045 194.27 150.208L194.282 149.862H251.549L251.581 150.181C253.163 166.045 258.277 177.272 266.081 185.829L265.237 185.887Z" fill="#3F3D56"/>
</g>
<path id="Vector_6" d="M118.962 198.03C118.435 198.03 117.92 197.847 117.481 197.504C117.043 197.162 116.701 196.675 116.499 196.106C116.297 195.536 116.245 194.909 116.347 194.305C116.45 193.7 116.704 193.145 117.077 192.709C117.45 192.273 117.925 191.976 118.442 191.855C118.959 191.735 119.495 191.797 119.983 192.033C120.47 192.269 120.886 192.668 121.179 193.181C121.472 193.693 121.629 194.296 121.629 194.913C121.628 195.739 121.347 196.531 120.847 197.116C120.347 197.7 119.669 198.029 118.962 198.03ZM118.962 192.516C118.557 192.516 118.161 192.657 117.824 192.92C117.486 193.183 117.224 193.558 117.069 193.996C116.913 194.433 116.873 194.915 116.952 195.38C117.031 195.845 117.226 196.272 117.513 196.607C117.8 196.942 118.165 197.171 118.563 197.263C118.96 197.356 119.372 197.308 119.747 197.127C120.121 196.945 120.442 196.638 120.667 196.244C120.892 195.85 121.012 195.387 121.012 194.913C121.012 194.277 120.795 193.668 120.411 193.219C120.027 192.77 119.506 192.517 118.962 192.516Z" fill="#3F3D56"/>
<g id="move">
<path id="Vector_7" d="M160.142 72.8129H78.7884C77.929 72.8141 77.1051 73.2138 76.4974 73.9243C75.8898 74.6347 75.5479 75.598 75.5469 76.6027V95.4976C79.605 95.6093 82.2391 99.5242 82.8774 104.277V121.406H83.1855C83.2345 121.406 83.2814 121.429 83.3161 121.47C83.3507 121.51 83.3703 121.565 83.3704 121.622V130.737C83.3703 130.794 83.3507 130.849 83.3161 130.89C83.2814 130.93 83.2345 130.953 83.1855 130.953H82.8774V186.044C82.8774 187.254 82.867 189.463 82.867 189.463H160.142C161.002 189.461 161.826 189.062 162.433 188.351C163.041 187.641 163.383 186.678 163.384 185.673V76.6027C163.383 75.598 163.041 74.6347 162.433 73.9243C161.826 73.2138 161.002 72.8141 160.142 72.8129Z" fill="black"/>
<g id="ipad">
<path id="Vector_8" d="M161.356 200.156H74.8934V199.436H161.356C163.123 199.434 164.818 198.612 166.068 197.15C167.318 195.689 168.021 193.707 168.023 191.641V68.0423C168.021 65.9755 167.318 63.994 166.068 62.5326C164.818 61.0712 163.123 60.2492 161.356 60.2468H74.8934C73.1256 60.2492 71.4308 61.0712 70.1808 62.5326C68.9308 63.994 68.2277 65.9755 68.2257 68.0423V94.7156H67.6094V68.0423C67.6116 65.7845 68.3797 63.6199 69.7453 62.0234C71.1108 60.4269 72.9623 59.5289 74.8934 59.5263H161.356C163.287 59.5289 165.138 60.4269 166.504 62.0234C167.869 63.6199 168.637 65.7845 168.64 68.0423V191.641C168.637 193.898 167.869 196.063 166.504 197.659C165.138 199.256 163.287 200.154 161.356 200.156Z" fill="black"/>
</g>
<path id="Vector_9" d="M118.962 69.2763C118.549 69.2763 118.145 69.133 117.802 68.8646C117.458 68.5962 117.19 68.2147 117.032 67.7683C116.874 67.3219 116.832 66.8308 116.913 66.3569C116.994 65.8831 117.193 65.4478 117.485 65.1061C117.777 64.7645 118.149 64.5318 118.555 64.4376C118.96 64.3433 119.38 64.3917 119.762 64.5765C120.144 64.7614 120.47 65.0745 120.7 65.4762C120.929 65.878 121.052 66.3502 121.052 66.8334C121.051 67.4811 120.831 68.102 120.439 68.56C120.047 69.0179 119.516 69.2756 118.962 69.2763ZM118.962 64.9553C118.645 64.9553 118.334 65.0654 118.07 65.2718C117.806 65.4782 117.6 65.7715 117.478 66.1147C117.357 66.4579 117.325 66.8356 117.387 67.1999C117.449 67.5642 117.602 67.8989 117.826 68.1616C118.051 68.4242 118.337 68.6031 118.649 68.6756C118.961 68.748 119.284 68.7108 119.577 68.5687C119.871 68.4265 120.122 68.1858 120.298 67.8769C120.475 67.568 120.569 67.2049 120.569 66.8334C120.568 66.3355 120.399 65.8581 120.098 65.506C119.797 65.1539 119.388 64.9558 118.962 64.9553Z" fill="#3F3D56"/>
<g id="iphone">
<path id="Vector_10" d="M74.8631 201H46.2418C44.0871 200.997 42.0213 199.995 40.4978 198.214C38.9742 196.433 38.1172 194.018 38.1147 191.499V104.852C38.1172 102.333 38.9742 99.9175 40.4978 98.1363C42.0214 96.3551 44.0871 95.3532 46.2417 95.3503H74.8631C77.0178 95.3531 79.0835 96.3551 80.607 98.1363C82.1306 99.9175 82.9876 102.333 82.9901 104.852V120.358C83.136 120.429 83.2607 120.549 83.3484 120.703C83.4362 120.857 83.4831 121.037 83.4832 121.222L83.4832 131.312C83.483 131.496 83.4361 131.677 83.3484 131.831C83.2607 131.985 83.136 132.105 82.9901 132.176V191.499C82.9876 194.018 82.1306 196.433 80.607 198.214C79.0834 199.995 77.0177 200.997 74.8631 201ZM46.2417 96.0708C44.2504 96.0734 42.3414 96.9994 40.9334 98.6456C39.5253 100.292 38.7333 102.524 38.731 104.852V191.499C38.7332 193.827 39.5253 196.059 40.9333 197.705C42.3414 199.351 44.2505 200.277 46.2417 200.279H74.8631C76.8543 200.277 78.7634 199.351 80.1714 197.705C81.5795 196.059 82.3715 193.827 82.3738 191.499V131.528H82.6819C82.731 131.528 82.778 131.505 82.8127 131.464C82.8474 131.424 82.8669 131.369 82.8669 131.312L82.867 121.222C82.8669 121.165 82.8474 121.11 82.8127 121.069C82.778 121.029 82.731 121.006 82.6819 121.006H82.3738V104.852C82.3715 102.524 81.5795 100.292 80.1715 98.6456C78.7634 96.9994 76.8544 96.0735 74.8631 96.0708H46.2417Z" fill="#E5E5E5"/>
</g>
<g id="iphone_2">
<path id="Vector_11" d="M75.4977 97.0962H71.7617C71.9335 97.5887 71.9991 98.123 71.9527 98.6521C71.9062 99.1811 71.7492 99.6887 71.4955 100.13C71.2418 100.572 70.899 100.933 70.4976 101.183C70.0961 101.434 69.6482 101.564 69.1932 101.564H52.7964C52.3415 101.564 51.8936 101.434 51.4921 101.183C51.0906 100.933 50.7479 100.572 50.4942 100.13C50.2405 99.6887 50.0835 99.1811 50.037 98.6521C49.9906 98.123 50.0562 97.5887 50.228 97.0962H46.7385C45.1899 97.0962 43.7048 97.8155 42.6097 99.0957C41.5147 100.376 40.8995 102.112 40.8995 103.923V190.443C40.8995 192.253 41.5147 193.989 42.6097 195.27C43.7047 196.55 45.1899 197.269 46.7385 197.269H75.4977C77.0463 197.269 78.5315 196.55 79.6266 195.27C80.7216 193.989 81.3368 192.253 81.3368 190.443V103.923C81.3368 102.112 80.7216 100.376 79.6265 99.0957C78.5315 97.8155 77.0463 97.0962 75.4977 97.0962Z" fill="black"/>
</g>
</g>
<path id="Vector_12" d="M265.428 200.657H180.074C179.224 200.658 178.382 200.463 177.596 200.083C176.81 199.703 176.096 199.146 175.495 198.443C174.894 197.741 174.416 196.907 174.091 195.988C173.765 195.07 173.598 194.086 173.598 193.092C173.598 192.098 173.765 191.114 174.091 190.195C174.416 189.277 174.894 188.443 175.495 187.74C176.096 187.038 176.81 186.481 177.596 186.101C178.382 185.721 179.224 185.526 180.074 185.527H265.428C267.143 185.528 268.787 186.326 270 187.745C271.212 189.163 271.893 191.086 271.893 193.092C271.893 195.097 271.212 197.021 270 198.439C268.787 199.858 267.143 200.655 265.428 200.657ZM180.074 186.247C178.521 186.247 177.032 186.968 175.934 188.252C174.836 189.536 174.219 191.277 174.219 193.092C174.219 194.907 174.836 196.648 175.934 197.932C177.032 199.215 178.521 199.937 180.074 199.937H265.428C266.98 199.937 268.469 199.215 269.567 197.932C270.665 196.648 271.282 194.907 271.282 193.092C271.282 191.277 270.665 189.536 269.567 188.252C268.469 186.968 266.98 186.247 265.428 186.247H180.074Z" fill="#3F3D56"/>
<path id="Vector_13" d="M327.403 143.056L329.793 148.9L350.208 140.901L346.68 132.277L327.403 143.056Z" fill="#FFB8B8"/>
<path id="Vector_14" d="M329.762 162.764L322.25 144.4L328.318 141.006L333.151 152.817C333.862 154.555 333.953 156.552 333.405 158.369C332.856 160.185 331.713 161.673 330.227 162.504L329.762 162.764Z" fill="#2F2E41"/>
<path id="Vector_15" d="M322.59 195.237L328.127 195.019L328.36 169.82L321.87 170.268L322.59 195.237Z" fill="#FFB8B8"/>
<path id="Vector_16" d="M338.871 200.954H321.459V193.089H332.658C334.306 193.089 335.886 193.854 337.051 195.216C338.216 196.578 338.871 198.426 338.871 200.352V200.954Z" fill="#2F2E41"/>
<path id="Vector_17" d="M322.148 187.766C321.683 187.766 321.232 187.584 320.867 187.249C320.502 186.914 320.243 186.446 320.132 185.918C317.099 171.671 305.812 99.882 315.793 85.7825L315.88 85.6596L316.012 85.6205C316.712 85.4132 329.92 80.6327 337.669 88.0946L337.76 88.1818L342.073 102.778L353.699 122.956C354.336 124.061 354.777 125.304 354.995 126.612C355.213 127.919 355.204 129.265 354.97 130.569C354.735 131.872 354.279 133.108 353.628 134.202C352.977 135.295 352.145 136.225 351.182 136.937L335.914 148.2C335.545 148.461 335.117 148.581 334.687 148.546C334.257 148.511 333.847 148.321 333.513 148.003C333.233 147.731 333.017 147.38 332.887 146.982L329.679 137.604C329.487 137.036 329.484 136.404 329.67 135.833C329.855 135.262 330.217 134.792 330.683 134.516L337.836 130.335C338.032 130.209 338.202 130.034 338.334 129.823C338.465 129.612 338.556 129.37 338.6 129.113C338.619 128.881 338.59 128.647 338.515 128.431C338.441 128.215 338.322 128.023 338.17 127.872L329.867 119.504C329.682 119.318 329.455 119.199 329.214 119.161C328.972 119.124 328.726 119.17 328.507 119.293C328.287 119.417 328.103 119.613 327.977 119.857C327.851 120.101 327.789 120.383 327.798 120.668L329.857 184.196C329.876 184.793 329.707 185.377 329.383 185.838C329.059 186.299 328.601 186.605 328.097 186.698L322.481 187.735C322.371 187.755 322.259 187.766 322.148 187.766Z" fill="#F6E330"/>
<path id="Vector_18" d="M337.369 94.37C337.322 94.37 337.275 94.3679 337.228 94.3638L316.521 92.5706C316.233 92.5462 315.955 92.4447 315.706 92.2739C315.458 92.1032 315.246 91.8678 315.088 91.586C314.93 91.3043 314.83 90.9837 314.795 90.6492C314.76 90.3148 314.792 89.9755 314.887 89.6576C316.161 85.3642 316.317 80.7256 315.336 76.3284C313.988 70.1115 313.956 58.5519 314.057 52.2149C314.08 51.1406 314.448 50.1159 315.089 49.3452C315.729 48.5745 316.595 48.1145 317.513 48.0569L317.513 48.0483L317.93 48.0542C321.304 48.1095 327.494 48.3909 332.559 49.6231C334.267 50.0362 335.803 51.1165 336.915 52.6861C338.026 54.2558 338.648 56.2213 338.677 58.2591C338.792 64.1425 338.809 72.106 338.238 76.6329C337.756 80.4519 338.646 87.7859 339.219 91.8177C339.264 92.1317 339.249 92.4533 339.177 92.76C339.104 93.0668 338.975 93.3515 338.799 93.5943C338.623 93.8371 338.404 94.0322 338.157 94.1662C337.91 94.3001 337.642 94.3697 337.369 94.37H337.369Z" fill="#2E22BC"/>
<g id="Vector_19" filter="url(#filter0_d)">
<path d="M344.762 118.448C344.21 118.139 343.723 117.692 343.335 117.139C342.947 116.587 342.667 115.941 342.515 115.249C342.364 114.556 342.344 113.833 342.457 113.13C342.571 112.427 342.814 111.762 343.171 111.181L333.608 62.9659H340.838L349.278 110.231C350.073 110.997 350.6 112.077 350.759 113.266C350.918 114.456 350.698 115.672 350.142 116.685C349.585 117.698 348.73 118.436 347.738 118.761C346.746 119.086 345.687 118.975 344.762 118.448H344.762Z" fill="#FFB8B8"/>
</g>
<path id="Vector_20" d="M299.467 67.189L310.917 54.5263L315.231 61.5866L304.447 72.6813L318.589 85.8114C318.692 85.8033 318.793 85.7932 318.897 85.7932C319.768 85.7923 320.62 86.0844 321.352 86.6348C322.084 87.1851 322.664 87.9704 323.025 88.8965C323.385 89.8227 323.509 90.8506 323.383 91.8573C323.257 92.864 322.885 93.8068 322.312 94.5729C321.739 95.339 320.99 95.896 320.154 96.1773C319.317 96.4585 318.429 96.4522 317.596 96.1589C316.763 95.8656 316.019 95.2978 315.455 94.5235C314.89 93.7492 314.528 92.8011 314.413 91.7927L314.368 91.8449L299.649 76.9307C299.055 76.3295 298.576 75.5897 298.242 74.7589C297.909 73.9281 297.727 73.0247 297.71 72.1069C297.693 71.1892 297.841 70.2774 298.143 69.4304C298.446 68.5834 298.897 67.8199 299.467 67.189Z" fill="#FFB8B8"/>
<path id="Vector_21" d="M334.369 65.0554C334.015 65.0567 333.668 64.9402 333.369 64.7196C333.07 64.499 332.83 64.1833 332.678 63.8094C331.766 61.5576 331.138 59.1629 330.814 56.7003C330.317 52.6778 332.709 50.2849 335.142 49.7636C337.509 49.2564 340.391 50.4728 341.128 54.3417C341.19 54.6692 341.238 55.0001 341.271 55.3332C341.566 58.266 341.844 60.5469 342.096 62.1131C342.146 62.4211 342.138 62.7379 342.074 63.0422C342.01 63.3464 341.891 63.6311 341.725 63.8771C341.559 64.1231 341.35 64.3246 341.112 64.4681C340.874 64.6116 340.612 64.6938 340.344 64.709L334.465 65.0526C334.433 65.0545 334.401 65.0554 334.369 65.0554Z" fill="#2E22BC"/>
<path id="Vector_22" d="M326.171 43.9038C333.086 43.9038 338.691 37.3504 338.691 29.2662C338.691 21.1821 333.086 14.6286 326.171 14.6286C319.256 14.6286 313.651 21.1821 313.651 29.2662C313.651 37.3504 319.256 43.9038 326.171 43.9038Z" fill="#F6E330"/>
<path id="Vector_23" d="M326.247 45.0497C331.908 45.0497 336.497 39.6843 336.497 33.0659C336.497 26.4474 331.908 21.082 326.247 21.082C320.586 21.082 315.996 26.4474 315.996 33.0659C315.996 39.6843 320.586 45.0497 326.247 45.0497Z" fill="#FFB8B8"/>
<path id="Vector_24" d="M308.053 59.2233C307.792 58.9447 307.603 58.5847 307.51 58.1855C307.417 57.7863 307.422 57.3643 307.527 56.9688C308.155 54.588 309.076 52.3265 310.26 50.2548C312.219 46.8971 315.366 47.0227 317.46 48.5602C319.498 50.0556 320.92 53.2294 319.228 56.6636C319.084 56.9539 318.928 57.2356 318.76 57.5075C317.283 59.9026 316.169 61.8035 315.45 63.1577C315.309 63.4238 315.12 63.6515 314.897 63.8252C314.674 63.999 314.422 64.1149 314.157 64.1651C313.893 64.2153 313.622 64.1986 313.364 64.1162C313.105 64.0338 312.865 63.8876 312.658 63.6874L308.126 59.297C308.101 59.2731 308.077 59.2485 308.053 59.2233Z" fill="#2E22BC"/>
<path id="Vector_25" d="M325.833 14.6488C323.314 12.8913 322.768 8.51471 324.269 5.56765C325.77 2.62059 328.804 1.08328 331.736 0.981961C335.925 0.837229 339.97 3.27563 342.903 6.77601C345.835 10.2764 347.769 14.7571 349.244 19.3433C350.718 23.9294 351.776 28.686 353.229 33.2815C353.975 35.6397 354.893 38.061 356.598 39.5924C358.304 41.1237 361.015 41.4 362.473 39.5519C362.467 42.5092 360.528 45.1976 358.123 46.1132C355.718 47.0288 352.997 46.3374 350.888 44.7037C347.23 41.8697 345.464 36.6963 344.455 31.7035C343.445 26.7107 342.948 21.479 340.918 16.9304C340.077 15.0457 338.925 13.2555 337.303 12.2938C335.682 11.3322 333.522 11.3954 332.217 12.8763C331.613 13.5622 331.222 14.4975 330.536 15.0693C330.103 15.3865 329.613 15.5836 329.104 15.6456C328.595 15.7075 328.08 15.6327 327.6 15.4268C326.643 15.0061 325.747 14.4153 324.945 13.6751" fill="#F7E330"/>
<path id="Vector_26" d="M315.542 24.9687C316.53 26.5215 317.776 27.8245 319.206 28.7991C320.636 29.7736 322.22 30.3996 323.863 30.6393C325.505 30.879 327.172 30.7275 328.763 30.1938C330.354 29.6601 331.837 28.7553 333.121 27.534C334.116 26.5873 335.04 25.2826 334.978 23.7843C334.914 22.2497 333.841 21.0444 332.746 20.1956C329.864 17.981 326.398 17.0499 322.978 17.5717C321.027 17.8782 319.07 18.7096 317.688 20.349C316.307 21.9884 315.618 24.5382 316.331 26.6836" fill="#F6E330"/>
</g>
<rect x="0.5" y="0.5" width="383" height="200" stroke="black"/>
</g>
<defs>
<filter id="filter0_d" x="329.608" y="62.9659" width="25.2018" height="63.9778" filterUnits="userSpaceOnUse" color-interpolation-filters="sRGB">
<feFlood flood-opacity="0" result="BackgroundImageFix"/>
<feColorMatrix in="SourceAlpha" type="matrix" values="0 0 0 0 0 0 0 0 0 0 0 0 0 0 0 0 0 0 127 0"/>
<feOffset dy="4"/>
<feGaussianBlur stdDeviation="2"/>
<feColorMatrix type="matrix" values="0 0 0 0 0 0 0 0 0 0 0 0 0 0 0 0 0 0 0.25 0"/>
<feBlend mode="normal" in2="BackgroundImageFix" result="effect1_dropShadow"/>
<feBlend mode="normal" in="SourceGraphic" in2="effect1_dropShadow" result="shape"/>
</filter>
<clipPath id="clip0">
</clipPath>
</defs>
</svg>
