<svg width="319" height="237" viewBox="0 0 319 237" fill="none" xmlns="http://www.w3.org/2000/svg">
<rect width="319" height="237" fill="#E5E5E5"/>
<g id="onlineshop 1">
<path id="Vector" d="M311.847 204.762H147.397C145.701 204.76 144.075 204.113 142.876 202.961C141.677 201.81 141.002 200.249 141 198.62V7.14177C141.002 5.51343 141.677 3.95231 142.876 2.80091C144.075 1.6495 145.701 1.00183 147.397 1H311.847C313.543 1.00183 315.169 1.6495 316.369 2.80091C317.568 3.95231 318.243 5.51343 318.245 7.14177V198.62C318.243 200.249 317.568 201.81 316.369 202.961C315.169 204.113 313.543 204.76 311.847 204.762V204.762ZM147.397 1.72256C145.901 1.72419 144.466 2.29566 143.408 3.3116C142.35 4.32755 141.754 5.705 141.753 7.14177V198.62C141.754 200.057 142.35 201.435 143.408 202.451C144.466 203.467 145.901 204.038 147.397 204.04H311.847C313.344 204.038 314.779 203.467 315.837 202.451C316.895 201.435 317.49 200.057 317.492 198.62V7.14177C317.49 5.705 316.895 4.32755 315.837 3.3116C314.779 2.29566 313.344 1.72419 311.847 1.72256H147.397Z" fill="#3F3D56"/>
<path id="Vector_2" d="M318.624 15.0258H142.132V15.7483H318.624V15.0258Z" fill="#3F3D56"/>
<path id="Vector_3" d="M150.787 10.8384C152.45 10.8384 153.797 9.5444 153.797 7.94817C153.797 6.35193 152.45 5.05792 150.787 5.05792C149.124 5.05792 147.776 6.35193 147.776 7.94817C147.776 9.5444 149.124 10.8384 150.787 10.8384Z" fill="#3F3D56"/>
<path id="Vector_4" d="M160.195 10.8384C161.858 10.8384 163.205 9.5444 163.205 7.94817C163.205 6.35193 161.858 5.05792 160.195 5.05792C158.532 5.05792 157.184 6.35193 157.184 7.94817C157.184 9.5444 158.532 10.8384 160.195 10.8384Z" fill="#3F3D56"/>
<path id="Vector_5" d="M169.603 10.8384C171.265 10.8384 172.613 9.5444 172.613 7.94817C172.613 6.35193 171.265 5.05792 169.603 5.05792C167.94 5.05792 166.592 6.35193 166.592 7.94817C166.592 9.5444 167.94 10.8384 169.603 10.8384Z" fill="#3F3D56"/>
<path id="Vector_6" d="M287.111 43.7149H169.701C168.403 43.7149 167.159 43.2201 166.241 42.3393C165.324 41.4585 164.808 40.2639 164.808 39.0183C164.808 37.7727 165.324 36.5781 166.241 35.6973C167.159 34.8165 168.403 34.3217 169.701 34.3217H287.111C288.408 34.3217 289.653 34.8165 290.57 35.6973C291.488 36.5781 292.003 37.7727 292.003 39.0183C292.003 40.2639 291.488 41.4585 290.57 42.3393C289.653 43.2201 288.408 43.7149 287.111 43.7149V43.7149ZM169.701 35.0442C168.603 35.0442 167.55 35.4629 166.773 36.2082C165.997 36.9535 165.561 37.9643 165.561 39.0183C165.561 40.0723 165.997 41.0831 166.773 41.8284C167.55 42.5737 168.603 42.9924 169.701 42.9924H287.111C288.209 42.9924 289.262 42.5737 290.038 41.8284C290.814 41.0831 291.25 40.0723 291.25 39.0183C291.25 37.9643 290.814 36.9535 290.038 36.2082C289.262 35.4629 288.209 35.0442 287.111 35.0442H169.701Z" fill="#56553D"/>
<g id="two">
<path id="Vector_7" d="M213.632 109.829H167.345C165.649 109.827 164.023 109.18 162.823 108.028C161.624 106.877 160.949 105.316 160.947 103.687V67.1982C160.949 65.5698 161.624 64.0087 162.823 62.8573C164.023 61.7059 165.649 61.0582 167.345 61.0564H213.632C215.328 61.0582 216.954 61.7059 218.153 62.8573C219.352 64.0087 220.027 65.5698 220.029 67.1982V103.687C220.027 105.316 219.352 106.877 218.153 108.028C216.954 109.18 215.328 109.827 213.632 109.829V109.829ZM167.345 61.779C165.848 61.7806 164.413 62.3521 163.355 63.368C162.297 64.384 161.702 65.7614 161.7 67.1982V103.687C161.702 105.124 162.297 106.502 163.355 107.518C164.413 108.534 165.848 109.105 167.345 109.107H213.632C215.128 109.105 216.563 108.534 217.621 107.518C218.679 106.502 219.275 105.124 219.276 103.687V67.1982C219.275 65.7614 218.679 64.384 217.621 63.368C216.563 62.3521 215.128 61.7806 213.632 61.779H167.345Z" fill="#3F3D56"/>
<path id="Vector_8" d="M178.97 101.004C178.962 101.004 178.953 101.004 178.945 101.004L173.68 100.816C173.516 100.812 173.359 100.75 173.239 100.643C173.118 100.536 173.042 100.391 173.024 100.234C172.662 97.1299 171.171 81.3132 177.418 74.7392C178.302 73.79 179.395 73.0416 180.618 72.5485C181.841 72.0553 183.163 71.8296 184.488 71.8879C184.542 71.8912 184.596 71.8803 184.643 71.8563C184.691 71.8324 184.731 71.7963 184.759 71.7521L186.034 69.8293C186.104 69.7251 186.202 69.6417 186.319 69.5887C186.436 69.5356 186.565 69.5149 186.693 69.529C187.715 69.6476 192.924 70.2071 195.114 69.5983C195.243 69.5618 195.381 69.5626 195.509 69.6006C195.638 69.6386 195.752 69.7122 195.838 69.8121L197.511 71.7759C197.54 71.8114 197.577 71.8398 197.62 71.8587C197.662 71.8777 197.709 71.8865 197.756 71.8846C198.607 71.8682 201.592 72.0264 204.204 74.8314C207.033 77.8688 209.952 84.7219 207.795 100.12C207.773 100.278 207.691 100.423 207.566 100.528C207.441 100.633 207.281 100.691 207.114 100.692H202.968C202.803 100.691 202.645 100.634 202.52 100.531C202.396 100.427 202.314 100.285 202.289 100.128L200.935 91.1556C200.924 91.0818 200.884 91.0148 200.824 90.9677C200.764 90.9207 200.687 90.8971 200.61 90.9017C200.532 90.9063 200.459 90.9387 200.406 90.9924C200.352 91.0462 200.321 91.1174 200.319 91.1919L200.226 95.4047C200.223 95.5296 200.183 95.6513 200.111 95.7553C200.039 95.8594 199.938 95.9416 199.819 95.9925C198.34 96.6164 190.53 99.5428 181.898 95.8776C181.781 95.8272 181.681 95.7467 181.609 95.6451C181.537 95.5434 181.496 95.4246 181.49 95.3018L181.32 91.4742C181.317 91.3994 181.285 91.3287 181.229 91.276C181.174 91.2233 181.1 91.1926 181.022 91.19C180.944 91.1874 180.868 91.2131 180.809 91.2619C180.75 91.3108 180.713 91.3792 180.704 91.4535L179.652 100.42C179.632 100.58 179.552 100.728 179.426 100.836C179.301 100.944 179.138 101.004 178.97 101.004V101.004Z" fill="black"/>
</g>
<g id="one">
<path id="Vector_9" d="M213.632 177.75H167.345C165.649 177.748 164.023 177.1 162.823 175.949C161.624 174.798 160.949 173.237 160.947 171.608V135.119C160.949 133.491 161.624 131.929 162.823 130.778C164.023 129.627 165.649 128.979 167.345 128.977H213.632C215.328 128.979 216.954 129.627 218.153 130.778C219.352 131.929 220.027 133.491 220.029 135.119V171.608C220.027 173.237 219.352 174.798 218.153 175.949C216.954 177.1 215.328 177.748 213.632 177.75V177.75ZM167.345 129.7C165.848 129.701 164.413 130.273 163.355 131.289C162.297 132.305 161.702 133.682 161.7 135.119V171.608C161.702 173.045 162.297 174.422 163.355 175.438C164.413 176.454 165.848 177.026 167.345 177.027H213.632C215.128 177.026 216.563 176.454 217.621 175.438C218.679 174.422 219.275 173.045 219.276 171.608V135.119C219.275 133.682 218.679 132.305 217.621 131.289C216.563 130.273 215.128 129.701 213.632 129.7H167.345Z" fill="#3F3D56"/>
<path id="Vector_10" d="M200.818 171H200.814L179.804 170.86C179.651 170.858 179.504 170.798 179.391 170.691C179.277 170.583 179.204 170.435 179.186 170.275L177.072 151.305C177.06 151.182 177.005 151.069 176.92 150.985C176.834 150.902 176.722 150.854 176.606 150.85C174.938 150.793 170.97 150.391 170.147 147.911C169.415 145.702 171.418 142.443 176.101 138.225C176.181 138.153 176.276 138.104 176.379 138.081C176.481 138.058 176.588 138.062 176.688 138.094C176.789 138.126 176.88 138.183 176.954 138.262C177.028 138.34 177.082 138.437 177.111 138.543L179.542 147.401C179.572 147.507 179.633 147.6 179.717 147.667C179.8 147.734 179.902 147.771 180.007 147.772L199.928 147.913C200.032 147.915 200.134 147.88 200.218 147.815C200.303 147.75 200.365 147.658 200.396 147.553L203.101 138.464C203.131 138.362 203.184 138.27 203.255 138.195C203.326 138.119 203.413 138.063 203.509 138.031C203.605 137.999 203.707 137.992 203.806 138.01C203.905 138.028 203.999 138.071 204.079 138.136C205.924 139.625 211.871 144.736 210.892 148.005C210.379 149.717 208.067 150.671 204.02 150.841C203.904 150.845 203.793 150.893 203.708 150.977C203.622 151.06 203.568 151.173 203.555 151.295L201.441 170.415C201.423 170.576 201.35 170.725 201.235 170.833C201.12 170.941 200.972 171 200.818 171V171Z" fill="black"/>
</g>
<g id="three">
<path id="Vector_11" d="M293.411 62.8628H247.124C243.798 62.8628 241.103 65.4508 241.103 68.6433V105.133C241.103 108.325 243.798 110.913 247.124 110.913H293.411C296.736 110.913 299.432 108.325 299.432 105.133V68.6433C299.432 65.4508 296.736 62.8628 293.411 62.8628Z" fill="#F2F2F2"/>
<path id="Vector_12" d="M291.153 95.7947C284.67 96.9929 278.557 99.5922 273.276 103.396C273.008 102.713 272.505 102.139 271.85 101.77C271.403 101.504 270.915 101.307 270.404 101.187C269.939 101.073 269.492 101.344 269.082 101.735C268.61 102.237 268.214 102.8 267.905 103.407C260.821 98.7388 250.074 95.7597 250.074 95.7597V94.826C250.083 94.6059 250.106 94.3867 250.144 94.1695C250.18 93.9186 250.226 93.6968 250.284 93.4254C251.196 88.9728 254.8 78.7984 254.8 78.7984H258.876L266.778 80.374L275.668 79.8517L284.621 78.0631L285.782 77.8297C287.718 79.2886 289.916 89.501 290.779 93.8485C290.888 94.4 290.973 94.8552 291.037 95.1907C291.113 95.5701 291.153 95.7947 291.153 95.7947Z" fill="white"/>
</g>
<g id="four">
<path id="Vector_13" d="M293.411 130.784H247.124C243.798 130.784 241.103 133.372 241.103 136.564V173.053C241.103 176.246 243.798 178.834 247.124 178.834H293.411C296.736 178.834 299.432 176.246 299.432 173.053V136.564C299.432 133.372 296.736 130.784 293.411 130.784Z" fill="#F2F2F2"/>
<path id="Vector_14" d="M266.834 140.617C266.834 140.617 264.941 141.072 262.005 148.706C259.069 156.34 258.029 166.204 258.029 166.204C258.029 166.204 256.378 168.888 263.425 169.067C263.425 169.067 262.858 170.84 266.834 170.568C270.81 170.296 270.237 170.299 270.237 170.299C270.237 170.299 272.794 168.753 273.93 169.025C275.066 169.297 275.776 169.39 277.006 170.388C278.236 171.387 282.168 170.98 282.215 170.209C282.247 169.83 282.247 169.449 282.215 169.07C282.215 169.07 288.227 169.435 287.091 165.253C285.954 161.071 285.008 154.208 285.008 154.208C285.008 154.208 281.932 140.802 278.426 140.62C274.921 140.438 266.834 140.617 266.834 140.617Z" fill="white"/>
</g>
<path id="Vector_15" d="M72.4935 127.747C78.7285 127.747 83.783 122.895 83.783 116.909C83.783 110.923 78.7285 106.07 72.4935 106.07C66.2585 106.07 61.2041 110.923 61.2041 116.909C61.2041 122.895 66.2585 127.747 72.4935 127.747Z" fill="#2F2E41"/>
<path id="Vector_16" d="M73.4417 127.768C78.5463 127.768 82.6844 123.795 82.6844 118.895C82.6844 113.994 78.5463 110.021 73.4417 110.021C68.3371 110.021 64.199 113.994 64.199 118.895C64.199 123.795 68.3371 127.768 73.4417 127.768Z" fill="#FFB8B8"/>
<path id="Vector_17" d="M108.642 145.884C108.495 146.026 108.36 146.179 108.238 146.341L89.5872 145.708L87.454 141.867L80.9955 144.2L84.0837 151.352C84.3332 151.93 84.7712 152.414 85.3319 152.733C85.8926 153.051 86.5458 153.187 87.1933 153.118L108.299 150.894C108.789 151.503 109.461 151.955 110.225 152.189C110.99 152.422 111.81 152.427 112.577 152.203C113.345 151.978 114.023 151.534 114.521 150.931C115.019 150.327 115.314 149.592 115.367 148.824C115.419 148.056 115.227 147.29 114.815 146.629C114.404 145.968 113.792 145.443 113.062 145.124C112.332 144.805 111.518 144.706 110.728 144.842C109.939 144.978 109.211 145.341 108.642 145.884H108.642Z" fill="#FFB8B8"/>
<path id="Vector_18" d="M78.5112 147.654C78.2735 147.551 78.0617 147.401 77.89 147.213C77.7184 147.025 77.5911 146.803 77.5168 146.564L74.919 138.193C74.3548 137.034 74.2925 135.707 74.7457 134.504C75.1989 133.301 76.1305 132.319 77.3364 131.774C78.5423 131.23 79.924 131.166 81.1786 131.598C82.4331 132.03 83.4581 132.921 84.0289 134.078L89.0611 141.388C89.2047 141.597 89.2998 141.833 89.3398 142.08C89.3799 142.327 89.3641 142.579 89.2933 142.82C89.2226 143.061 89.0987 143.284 88.93 143.474C88.7613 143.665 88.5518 143.818 88.3158 143.924L80.0207 147.643C79.7848 147.749 79.5277 147.805 79.2672 147.807C79.0067 147.809 78.7488 147.756 78.5112 147.654V147.654Z" fill="#CCCCCC"/>
<path id="Vector_19" d="M96.8809 232.638L100.933 230.52L94.3532 214.508L88.3728 217.633L96.8809 232.638Z" fill="#FFB8B8"/>
<path id="Vector_20" d="M95.1273 231.908L103.107 227.738L103.108 227.738C103.775 227.389 104.508 227.169 105.264 227.092C106.021 227.015 106.785 227.082 107.514 227.288C108.244 227.495 108.923 227.837 109.515 228.296C110.106 228.755 110.598 229.321 110.961 229.962L111.051 230.121L97.9858 236.949L95.1273 231.908Z" fill="#2F2E41"/>
<path id="Vector_21" d="M52.2924 232.656H56.9057L59.1007 215.571L52.2913 215.572L52.2924 232.656Z" fill="#FFB8B8"/>
<path id="Vector_22" d="M51.1155 231.21L60.2012 231.209H60.2015C60.9619 231.209 61.7148 231.353 62.4173 231.632C63.1198 231.912 63.7581 232.321 64.2958 232.837C64.8335 233.354 65.26 233.966 65.551 234.641C65.8419 235.315 65.9917 236.038 65.9917 236.768V236.949L51.1157 236.949L51.1155 231.21Z" fill="#2F2E41"/>
<path id="Vector_23" d="M80.9607 156.83L82.4659 174.172L99.2566 222.531C99.3226 222.722 99.3467 222.923 99.3273 223.122C99.308 223.322 99.2455 223.516 99.144 223.691C99.0425 223.866 98.9041 224.019 98.7377 224.14C98.5713 224.261 98.3804 224.348 98.1772 224.394L93.0311 225.57C92.7016 225.646 92.3552 225.612 92.048 225.475C91.7408 225.338 91.4908 225.106 91.3383 224.815L69.8718 183.935C69.8018 183.802 69.6906 183.693 69.5534 183.623C69.4162 183.553 69.2597 183.525 69.1055 183.544C68.9513 183.562 68.8069 183.626 68.6922 183.727C68.5774 183.828 68.4979 183.96 68.4646 184.106L59.0176 225.422C58.9441 225.744 58.7582 226.032 58.4908 226.239C58.2234 226.445 57.8905 226.558 57.5474 226.558H52.7599C52.5605 226.558 52.3631 226.52 52.1791 226.446C51.9951 226.372 51.8283 226.264 51.6883 226.128C51.5483 225.991 51.438 225.83 51.3637 225.652C51.2895 225.474 51.2529 225.284 51.2559 225.093C51.6946 196.445 50.2474 163.8 61.7686 158.637L63.6502 153.94L80.9607 156.83Z" fill="#2F2E41"/>
<path id="Vector_24" d="M63.1082 155.17L61.1681 143.906C60.847 142.059 61.0154 140.164 61.6579 138.396C62.3003 136.627 63.3961 135.043 64.8442 133.788C66.2597 132.546 67.9783 131.665 69.8416 131.228C71.7048 130.791 73.6527 130.811 75.5057 131.286C75.6157 131.315 75.7258 131.344 75.836 131.374C78.116 132 80.1406 133.284 81.6365 135.05C83.1324 136.817 84.0274 138.982 84.2006 141.253C84.5708 146.145 84.2395 153.242 80.5585 159.27L80.487 159.387L63.1082 155.17Z" fill="#CCCCCC"/>
<path id="Vector_25" d="M82.6363 114.178C80.5242 115.576 78.0173 116.32 75.4522 116.31C76.3672 116.919 77.4089 117.33 78.5055 117.516C75.0949 118.218 71.5701 118.237 68.1516 117.572C67.3917 117.455 66.6585 117.213 65.9841 116.857C65.648 116.677 65.3552 116.431 65.1247 116.135C64.8942 115.839 64.7312 115.5 64.6462 115.139C64.419 113.893 65.4302 112.761 66.4811 111.999C68.0901 110.848 69.9452 110.056 71.9123 109.679C73.8794 109.301 75.9092 109.348 77.855 109.817C79.1256 110.132 80.3984 110.665 81.2236 111.644C82.0489 112.624 82.2933 114.134 81.5071 115.143L82.6363 114.178Z" fill="#2F2E41"/>
<path id="Vector_26" d="M72.3449 106.017C73.4164 101.864 69.5763 97.2495 65.1205 97.3359C60.5996 97.4235 57.2728 101.346 54.986 105.091C52.6991 108.836 50.4263 113.081 46.228 114.693C44.8387 115.227 43.3332 115.421 41.8465 115.258C40.3598 115.096 38.9383 114.582 37.7096 113.762C36.4808 112.942 35.4831 111.842 34.806 110.561C34.1289 109.28 33.7935 107.858 33.8299 106.422C33.2662 110.972 34.0472 115.894 37.1034 119.413C40.1596 122.932 45.8465 124.518 49.934 122.153C52.2685 120.803 53.7607 118.455 54.9908 116.12C56.221 113.785 57.3157 111.322 59.1797 109.413C61.0437 107.504 63.9259 106.237 66.52 107.04C67.5497 107.359 68.4735 107.98 69.5373 108.17C70.6012 108.359 71.9406 107.873 72.0859 106.844L72.3449 106.017Z" fill="#2F2E41"/>
<path id="Vector_27" d="M50.0683 181.323C49.6847 180.892 49.4043 180.385 49.2469 179.838C49.0896 179.291 49.059 178.717 49.1574 178.158C49.2558 177.598 49.4807 177.066 49.8165 176.599C50.1522 176.132 50.5904 175.742 51.1004 175.455L59.118 140.954L67.2511 144.159L56.8127 177.064C57.2577 177.919 57.3607 178.9 57.1024 179.823C56.844 180.745 56.2421 181.545 55.4108 182.07C54.5795 182.595 53.5765 182.809 52.5918 182.671C51.6072 182.533 50.7093 182.054 50.0683 181.323H50.0683Z" fill="#FFB8B8"/>
<path id="Vector_28" d="M55.9413 145.903C55.8132 145.686 55.7356 145.444 55.7138 145.195C55.6919 144.945 55.7263 144.695 55.8146 144.459L58.8977 136.242C59.1601 134.987 59.93 133.884 61.0385 133.174C62.147 132.463 63.5037 132.204 64.8111 132.453C66.1185 132.701 67.2698 133.437 68.0127 134.5C68.7556 135.562 69.0294 136.864 68.7741 138.119L68.3057 146.87C68.2924 147.12 68.2231 147.364 68.1026 147.586C67.9821 147.808 67.8133 148.002 67.6076 148.155C67.4019 148.309 67.1641 148.418 66.9106 148.475C66.657 148.532 66.3936 148.536 66.1382 148.487L57.1629 146.755C56.9075 146.705 56.6661 146.604 56.4552 146.457C56.2444 146.31 56.0691 146.121 55.9413 145.903Z" fill="#CCCCCC"/>
<path id="Path 22" d="M121.631 142.034L121.497 142.016L122 138.504C122.077 137.965 121.928 137.418 121.586 136.984C121.243 136.551 120.735 136.265 120.174 136.191L112.422 135.168C111.86 135.094 111.291 135.237 110.839 135.566C110.387 135.895 110.09 136.383 110.013 136.922L107.254 156.193C107.176 156.732 107.325 157.278 107.668 157.712C108.011 158.146 108.518 158.431 109.08 158.505L116.832 159.528C117.394 159.602 117.963 159.459 118.415 159.13C118.866 158.801 119.164 158.314 119.241 157.775L121.139 144.517L121.273 144.534L121.631 142.034Z" fill="#3F3D56"/>
<path id="Path 23" d="M119.93 137.222L118.965 137.094C118.994 137.205 118.995 137.32 118.967 137.431C118.939 137.542 118.883 137.644 118.804 137.729C118.725 137.814 118.625 137.879 118.514 137.918C118.403 137.958 118.283 137.97 118.165 137.955L113.93 137.396C113.812 137.38 113.7 137.337 113.604 137.27C113.508 137.204 113.43 137.115 113.378 137.013C113.326 136.911 113.301 136.798 113.305 136.684C113.309 136.57 113.342 136.459 113.402 136.36L112.5 136.241C112.302 136.215 112.101 136.227 111.907 136.275C111.714 136.324 111.532 136.409 111.373 136.525C111.213 136.641 111.08 136.786 110.979 136.951C110.878 137.117 110.812 137.3 110.784 137.49L108.156 155.845C108.129 156.035 108.141 156.229 108.192 156.414C108.242 156.6 108.331 156.774 108.451 156.927C108.572 157.08 108.723 157.209 108.896 157.306C109.069 157.403 109.259 157.466 109.457 157.492L116.887 158.473C117.287 158.525 117.693 158.424 118.014 158.189C118.336 157.955 118.548 157.608 118.603 157.224V157.224L121.231 138.869C121.286 138.485 121.18 138.096 120.936 137.787C120.692 137.478 120.33 137.274 119.93 137.222L119.93 137.222Z" fill="white"/>
<path id="Vector_29" d="M114.661 152.46C116.947 152.46 118.8 150.681 118.8 148.486C118.8 146.291 116.947 144.512 114.661 144.512C112.375 144.512 110.521 146.291 110.521 148.486C110.521 150.681 112.375 152.46 114.661 152.46Z" fill="black"/>
<path id="Vector_30" d="M114.25 150.002C114.157 150.002 114.067 149.974 113.992 149.92L113.987 149.917L113.015 149.202C112.969 149.168 112.931 149.127 112.903 149.08C112.874 149.033 112.856 148.981 112.848 148.927C112.841 148.872 112.844 148.817 112.859 148.765C112.873 148.712 112.899 148.662 112.933 148.619C112.968 148.576 113.011 148.539 113.06 148.512C113.11 148.485 113.164 148.467 113.22 148.46C113.277 148.453 113.334 148.457 113.389 148.471C113.444 148.485 113.495 148.509 113.54 148.543L114.17 149.007L115.659 147.142C115.694 147.099 115.737 147.063 115.786 147.036C115.835 147.008 115.89 146.991 115.946 146.983C116.002 146.976 116.059 146.98 116.114 146.994C116.169 147.008 116.22 147.032 116.265 147.066L116.256 147.078L116.266 147.066C116.357 147.133 116.416 147.232 116.431 147.341C116.446 147.45 116.415 147.56 116.346 147.647L114.594 149.84C114.554 149.891 114.502 149.932 114.442 149.96C114.382 149.988 114.317 150.002 114.25 150.002Z" fill="white"/>
<path id="Vector_31" d="M152.812 237H9.43604C9.33623 237 9.24052 236.962 9.16995 236.894C9.09938 236.826 9.05972 236.735 9.05972 236.639C9.05972 236.543 9.09938 236.451 9.16995 236.383C9.24052 236.316 9.33623 236.277 9.43604 236.277H152.812C152.912 236.277 153.008 236.316 153.078 236.383C153.149 236.451 153.189 236.543 153.189 236.639C153.189 236.735 153.149 236.826 153.078 236.894C153.008 236.962 152.912 237 152.812 237Z" fill="#3F3D56"/>
</g>
</svg>
