<svg width="341" height="249" viewBox="0 0 341 249" fill="none" xmlns="http://www.w3.org/2000/svg">
<rect width="341" height="249" fill="#E5E5E5"/>
<g id="shopping 1">
<path id="Vector" d="M334.161 214.079H158.37C156.557 214.077 154.819 213.397 153.537 212.187C152.255 210.977 151.534 209.337 151.532 207.627V6.45274C151.534 4.74196 152.255 3.1018 153.537 1.89209C154.819 0.682384 156.557 0.0019259 158.37 0H334.161C335.975 0.0019259 337.713 0.682384 338.995 1.89209C340.277 3.1018 340.998 4.74196 341 6.45274V207.627C340.998 209.337 340.277 210.977 338.995 212.187C337.713 213.397 335.975 214.077 334.161 214.079ZM158.37 0.759146C156.77 0.760854 155.237 1.36126 154.105 2.42865C152.974 3.49603 152.338 4.94323 152.336 6.45274V207.627C152.338 209.136 152.974 210.583 154.105 211.651C155.237 212.718 156.77 213.318 158.37 213.32H334.161C335.761 213.318 337.295 212.718 338.426 211.651C339.557 210.583 340.194 209.136 340.195 207.627V6.45274C340.194 4.94323 339.557 3.49603 338.426 2.42865C337.295 1.36126 335.761 0.760854 334.161 0.759146H158.37Z" fill="#56553D"/>
<path id="Vector_2" d="M340.598 15.7866H151.934V16.5457H340.598V15.7866Z" fill="#3F3D56"/>
<path id="Vector_3" d="M161.186 11.3872C162.963 11.3872 164.404 10.0277 164.404 8.35061C164.404 6.67355 162.963 5.31403 161.186 5.31403C159.409 5.31403 157.968 6.67355 157.968 8.35061C157.968 10.0277 159.409 11.3872 161.186 11.3872Z" fill="#3F3D56"/>
<path id="Vector_4" d="M171.243 11.3872C173.02 11.3872 174.461 10.0277 174.461 8.35061C174.461 6.67355 173.02 5.31403 171.243 5.31403C169.465 5.31403 168.025 6.67355 168.025 8.35061C168.025 10.0277 169.465 11.3872 171.243 11.3872Z" fill="#3F3D56"/>
<path id="Vector_5" d="M181.299 11.3872C183.077 11.3872 184.518 10.0277 184.518 8.35061C184.518 6.67355 183.077 5.31403 181.299 5.31403C179.522 5.31403 178.081 6.67355 178.081 8.35061C178.081 10.0277 179.522 11.3872 181.299 11.3872Z" fill="#3F3D56"/>
<path id="Vector_6" d="M306.912 45.9284H181.404C180.017 45.9284 178.687 45.4085 177.706 44.4831C176.725 43.5577 176.174 42.3026 176.174 40.9939C176.174 39.6852 176.725 38.4301 177.706 37.5047C178.687 36.5793 180.017 36.0594 181.404 36.0594H306.912C308.299 36.0594 309.629 36.5793 310.61 37.5047C311.59 38.4301 312.141 39.6852 312.141 40.9939C312.141 42.3026 311.59 43.5577 310.61 44.4831C309.629 45.4085 308.299 45.9284 306.912 45.9284ZM181.404 36.8186C180.23 36.8186 179.105 37.2585 178.275 38.0415C177.445 38.8245 176.979 39.8865 176.979 40.9939C176.979 42.1013 177.445 43.1633 178.275 43.9463C179.105 44.7293 180.23 45.1692 181.404 45.1692H306.912C308.085 45.1692 309.211 44.7293 310.041 43.9463C310.87 43.1633 311.337 42.1013 311.337 40.9939C311.337 39.8865 310.87 38.8245 310.041 38.0415C309.211 37.2585 308.085 36.8186 306.912 36.8186H181.404Z" fill="#3F3D56"/>
<path id="Vector_7" d="M228.365 115.39H178.886C177.073 115.388 175.335 114.708 174.053 113.498C172.77 112.288 172.049 110.648 172.047 108.937V70.6006C172.049 68.8898 172.77 67.2497 174.053 66.04C175.335 64.8302 177.073 64.1498 178.886 64.1479H228.365C230.178 64.1498 231.916 64.8302 233.198 66.04C234.48 67.2497 235.201 68.8898 235.203 70.6006V108.937C235.201 110.648 234.48 112.288 233.198 113.498C231.916 114.708 230.178 115.388 228.365 115.39ZM178.886 64.907C177.286 64.9087 175.752 65.5091 174.621 66.5765C173.49 67.6439 172.854 69.0911 172.852 70.6006V108.937C172.854 110.447 173.49 111.894 174.621 112.962C175.752 114.029 177.286 114.629 178.886 114.631H228.365C229.965 114.629 231.498 114.029 232.63 112.962C233.761 111.894 234.397 110.447 234.399 108.937V70.6006C234.397 69.0911 233.761 67.6439 232.63 66.5765C231.498 65.5091 229.965 64.9087 228.365 64.907H178.886Z" fill="#3F3D56"/>
<path id="Vector_8" d="M313.646 66.0457H264.167C260.612 66.0457 257.73 68.7648 257.73 72.1189V110.456C257.73 113.81 260.612 116.529 264.167 116.529H313.646C317.2 116.529 320.082 113.81 320.082 110.456V72.1189C320.082 68.7648 317.2 66.0457 313.646 66.0457Z" fill="#F2F2F2"/>
<path id="Vector_9" d="M228.365 186.75H178.886C177.073 186.748 175.335 186.068 174.053 184.858C172.77 183.648 172.049 182.008 172.047 180.297V141.96C172.049 140.25 172.77 138.609 174.053 137.4C175.335 136.19 177.073 135.51 178.886 135.508H228.365C230.178 135.51 231.916 136.19 233.198 137.4C234.48 138.609 235.201 140.25 235.203 141.96V180.297C235.201 182.008 234.48 183.648 233.198 184.858C231.916 186.068 230.178 186.748 228.365 186.75ZM178.886 136.267C177.286 136.268 175.752 136.869 174.621 137.936C173.49 139.004 172.854 140.451 172.852 141.96V180.297C172.854 181.807 173.49 183.254 174.621 184.321C175.752 185.389 177.286 185.989 178.886 185.991H228.365C229.965 185.989 231.498 185.389 232.63 184.321C233.761 183.254 234.397 181.807 234.399 180.297V141.96C234.397 140.451 233.761 139.004 232.63 137.936C231.498 136.869 229.965 136.268 228.365 136.267H178.886Z" fill="#3F3D56"/>
<path id="Vector_10" d="M313.646 137.405H264.167C260.612 137.405 257.73 140.125 257.73 143.479V181.816C257.73 185.17 260.612 187.889 264.167 187.889H313.646C317.2 187.889 320.082 185.17 320.082 181.816V143.479C320.082 140.125 317.2 137.405 313.646 137.405Z" fill="#F2F2F2"/>
<g id="four">
<path id="Vector_11" d="M191.313 106.118C191.304 106.118 191.295 106.118 191.286 106.118L185.658 105.921C185.483 105.916 185.315 105.851 185.186 105.739C185.057 105.626 184.976 105.474 184.957 105.309C184.57 102.048 182.976 85.4303 189.653 78.5235C190.599 77.5262 191.767 76.7399 193.074 76.2218C194.382 75.7037 195.795 75.4666 197.211 75.5278C197.269 75.5313 197.326 75.5198 197.377 75.4946C197.429 75.4695 197.471 75.4316 197.501 75.3851L198.864 73.3649C198.938 73.2555 199.044 73.1679 199.168 73.1122C199.293 73.0564 199.432 73.0347 199.569 73.0495C200.661 73.174 206.229 73.7619 208.57 73.1223C208.708 73.0839 208.855 73.0847 208.993 73.1247C209.13 73.1646 209.252 73.2419 209.344 73.3469L211.133 75.4101C211.164 75.4475 211.203 75.4773 211.249 75.4972C211.294 75.517 211.344 75.5263 211.394 75.5243C212.304 75.5071 215.495 75.6733 218.287 78.6204C221.311 81.8115 224.431 89.0116 222.126 105.189C222.102 105.355 222.015 105.508 221.881 105.618C221.747 105.729 221.576 105.79 221.398 105.79H216.966C216.79 105.79 216.62 105.73 216.487 105.621C216.354 105.512 216.266 105.362 216.24 105.198L214.792 95.771C214.781 95.6936 214.738 95.6231 214.674 95.5737C214.609 95.5243 214.528 95.4995 214.445 95.5043C214.362 95.5092 214.284 95.5432 214.227 95.5997C214.169 95.6561 214.136 95.7309 214.135 95.8092L214.035 100.235C214.032 100.367 213.989 100.494 213.912 100.604C213.835 100.713 213.726 100.799 213.599 100.853C212.019 101.508 203.67 104.583 194.442 100.732C194.317 100.679 194.211 100.595 194.134 100.488C194.057 100.381 194.013 100.256 194.007 100.127L193.825 96.1058C193.822 96.0273 193.787 95.9529 193.728 95.8975C193.669 95.8422 193.59 95.8099 193.506 95.8072C193.423 95.8045 193.342 95.8314 193.279 95.8828C193.216 95.9341 193.176 96.006 193.166 96.0841L192.041 105.504C192.02 105.673 191.935 105.828 191.8 105.942C191.666 106.055 191.493 106.118 191.313 106.118Z" fill="black"/>
</g>
<g id="three">
<path id="Vector_12" d="M214.594 175.567H214.589L192.536 175.436C192.376 175.434 192.222 175.378 192.102 175.277C191.983 175.176 191.906 175.038 191.887 174.888L189.669 157.096C189.656 156.981 189.599 156.875 189.509 156.796C189.419 156.718 189.302 156.673 189.179 156.67C187.428 156.616 183.263 156.239 182.4 153.913C181.631 151.841 183.734 148.785 188.649 144.829C188.733 144.762 188.833 144.715 188.941 144.694C189.049 144.672 189.16 144.676 189.266 144.706C189.371 144.736 189.467 144.79 189.544 144.863C189.622 144.937 189.679 145.028 189.71 145.128L192.261 153.435C192.293 153.534 192.357 153.622 192.445 153.685C192.532 153.747 192.639 153.782 192.749 153.783L213.659 153.915C213.768 153.916 213.875 153.884 213.964 153.823C214.052 153.762 214.118 153.676 214.15 153.577L216.99 145.053C217.021 144.958 217.077 144.871 217.151 144.8C217.226 144.73 217.317 144.677 217.418 144.647C217.519 144.617 217.625 144.61 217.73 144.627C217.834 144.644 217.932 144.685 218.016 144.745C219.953 146.142 226.195 150.935 225.167 154.001C224.629 155.607 222.203 156.502 217.955 156.661C217.833 156.665 217.716 156.71 217.627 156.788C217.537 156.867 217.48 156.973 217.466 157.087L215.247 175.019C215.228 175.17 215.151 175.309 215.031 175.41C214.911 175.512 214.755 175.567 214.594 175.567Z" fill="black"/>
</g>
<g id="two">
<path id="Vector_13" d="M310.912 93.8747C303.982 95.1335 297.447 97.8645 291.802 101.861C291.516 101.143 290.978 100.541 290.278 100.153C289.8 99.8732 289.278 99.6663 288.732 99.5399C288.235 99.4203 287.757 99.7054 287.318 100.116C286.814 100.643 286.391 101.234 286.061 101.873C278.488 96.9679 267 93.8379 267 93.8379V92.8569C267.009 92.6257 267.034 92.3954 267.075 92.1672C267.114 91.9035 267.162 91.6706 267.224 91.3855C268.199 86.7074 272.052 76.0178 272.052 76.0178H276.409L284.856 77.6732L294.359 77.1244L303.93 75.2452L305.171 75C307.24 76.5328 309.589 87.2623 310.512 91.83C310.629 92.4094 310.72 92.8876 310.788 93.2401C310.869 93.6387 310.912 93.8747 310.912 93.8747Z" fill="white"/>
</g>
<g id="first">
<path id="Vector_14" d="M283.592 144.083C283.592 144.083 281.568 144.56 278.43 152.581C275.291 160.602 274.18 170.965 274.18 170.965C274.18 170.965 272.415 173.785 279.948 173.974C279.948 173.974 279.342 175.836 283.592 175.55C287.842 175.264 287.23 175.267 287.23 175.267C287.23 175.267 289.963 173.644 291.178 173.929C292.392 174.215 293.151 174.312 294.466 175.362C295.781 176.411 299.984 175.983 300.034 175.173C300.068 174.775 300.068 174.375 300.034 173.977C300.034 173.977 306.461 174.36 305.246 169.966C304.031 165.573 303.019 158.362 303.019 158.362C303.019 158.362 299.731 144.277 295.984 144.086C292.236 143.894 283.592 144.083 283.592 144.083Z" fill="white"/>
</g>
<path id="Vector_15" d="M77.4931 134.216C84.1581 134.216 89.5611 129.117 89.5611 122.828C89.5611 116.539 84.1581 111.441 77.4931 111.441C70.8281 111.441 65.425 116.539 65.425 122.828C65.425 129.117 70.8281 134.216 77.4931 134.216Z" fill="#2F2E41"/>
<path id="Vector_16" d="M81.8801 135.645C87.3368 135.645 91.7602 131.471 91.7602 126.323C91.7602 121.174 87.3368 117 81.8801 117C76.4235 117 72 121.174 72 126.323C72 131.471 76.4235 135.645 81.8801 135.645Z" fill="#FFB8B8"/>
<path id="Vector_17" d="M103.562 244.417L107.894 242.192L100.86 225.369L94.4675 228.653L103.562 244.417Z" fill="#FFB8B8"/>
<path id="Vector_18" d="M101.688 243.65L110.218 239.269L110.218 239.269C110.932 238.902 111.716 238.671 112.524 238.59C113.332 238.51 114.15 238.58 114.929 238.797C115.709 239.014 116.435 239.373 117.068 239.856C117.7 240.338 118.225 240.932 118.614 241.606L118.71 241.773L104.743 248.947L101.688 243.65Z" fill="#2F2E41"/>
<path id="Vector_19" d="M55.8988 244.436H60.8302L63.1766 226.486L55.8976 226.487L55.8988 244.436Z" fill="#FFB8B8"/>
<path id="Vector_20" d="M54.6407 242.917L64.3529 242.916H64.3533C65.1662 242.916 65.971 243.067 66.722 243.361C67.4729 243.654 68.1552 244.084 68.73 244.627C69.3047 245.169 69.7606 245.813 70.0717 246.521C70.3827 247.23 70.5428 247.989 70.5428 248.756V248.946L54.6409 248.947L54.6407 242.917Z" fill="#2F2E41"/>
<path id="Vector_21" d="M86.5441 164.771L88.1532 182.991L106.102 233.799C106.172 233.999 106.198 234.21 106.177 234.42C106.157 234.63 106.09 234.833 105.982 235.017C105.873 235.201 105.725 235.362 105.547 235.489C105.369 235.616 105.165 235.707 104.948 235.756L99.447 236.992C99.0947 237.071 98.7245 237.036 98.3961 236.892C98.0678 236.748 97.8005 236.503 97.6375 236.198L74.6905 193.248C74.6157 193.108 74.4968 192.994 74.3501 192.92C74.2035 192.846 74.0363 192.817 73.8714 192.837C73.7066 192.857 73.5522 192.924 73.4295 193.03C73.3069 193.135 73.2219 193.274 73.1862 193.427L63.0878 236.836C63.0091 237.174 62.8104 237.477 62.5246 237.694C62.2388 237.911 61.8829 238.029 61.5161 238.029H56.3985C56.1854 238.029 55.9743 237.989 55.7776 237.912C55.581 237.834 55.4026 237.72 55.253 237.577C55.1033 237.434 54.9854 237.264 54.9061 237.077C54.8267 236.891 54.7875 236.691 54.7908 236.49C55.2598 206.391 53.7127 172.094 66.0285 166.669L68.0398 161.735L86.5441 164.771Z" fill="#2F2E41"/>
<path id="Vector_22" d="M67.4605 163.027L65.3866 151.193C65.0433 149.252 65.2234 147.261 65.9101 145.403C66.5969 143.545 67.7682 141.881 69.3162 140.562C70.8294 139.257 72.6665 138.332 74.6582 137.872C76.65 137.413 78.7322 137.434 80.713 137.934C80.8306 137.963 80.9482 137.994 81.0661 138.025C83.5033 138.684 85.6676 140.032 87.2666 141.888C88.8656 143.745 89.8224 146.019 90.0075 148.405C90.4033 153.544 90.0492 161.001 86.1143 167.334L86.0379 167.457L67.4605 163.027Z" fill="#CCCCCC"/>
<path id="Vector_23" d="M88.3354 119.96C86.0776 121.428 83.3979 122.209 80.6558 122.199C81.6339 122.839 82.7475 123.271 83.9197 123.466C80.2739 124.204 76.506 124.224 72.8517 123.525C72.0394 123.402 71.2556 123.148 70.5347 122.774C70.1755 122.585 69.8625 122.326 69.6161 122.015C69.3697 121.704 69.1954 121.348 69.1046 120.969C68.8617 119.66 69.9427 118.471 71.066 117.669C72.7859 116.461 74.769 115.629 76.8717 115.232C78.9745 114.836 81.1444 114.885 83.2243 115.377C84.5825 115.708 85.9431 116.268 86.8253 117.297C87.7074 118.326 87.9687 119.913 87.1283 120.973L88.3354 119.96Z" fill="#2F2E41"/>
<path id="Vector_24" d="M77.3342 111.385C78.4795 107.021 74.3747 102.173 69.6115 102.264C64.7789 102.356 61.2227 106.477 58.7781 110.412C56.3335 114.346 53.904 118.806 49.4161 120.5C47.931 121.061 46.3217 121.265 44.7325 121.094C43.1432 120.924 41.6237 120.383 40.3102 119.522C38.9967 118.661 37.9302 117.505 37.2064 116.159C36.4826 114.814 36.1241 113.319 36.163 111.81C35.5604 116.59 36.3953 121.762 39.6623 125.46C42.9293 129.157 49.0083 130.823 53.3777 128.338C55.8732 126.919 57.4683 124.453 58.7833 121.999C60.0983 119.546 61.2685 116.959 63.261 114.953C65.2536 112.947 68.3346 111.616 71.1076 112.46C72.2083 112.795 73.1958 113.448 74.333 113.647C75.4702 113.845 76.902 113.335 77.0573 112.254L77.3342 111.385Z" fill="#2F2E41"/>
<g id="hand1">
<path id="Vector_25" d="M116.134 153.271C115.977 153.42 115.833 153.58 115.703 153.75L95.7656 153.086L93.4853 149.05L86.5814 151.502L89.8826 159.016C90.1493 159.623 90.6175 160.132 91.2168 160.466C91.8162 160.801 92.5144 160.943 93.2067 160.871L115.768 158.534C116.292 159.174 117.01 159.649 117.827 159.894C118.644 160.14 119.521 160.145 120.341 159.909C121.162 159.673 121.886 159.207 122.419 158.573C122.951 157.939 123.267 157.167 123.323 156.359C123.379 155.552 123.174 154.748 122.734 154.053C122.294 153.359 121.64 152.807 120.859 152.472C120.079 152.137 119.209 152.033 118.365 152.176C117.521 152.319 116.743 152.701 116.134 153.271H116.134Z" fill="#FFB8B8"/>
<path id="Vector_26" d="M83.9258 155.13C83.6717 155.022 83.4452 154.864 83.2617 154.667C83.0783 154.469 82.9422 154.236 82.8627 153.985L80.0858 145.19C79.4827 143.972 79.4161 142.579 79.9006 141.314C80.385 140.05 81.3809 139.019 82.67 138.447C83.959 137.874 85.436 137.808 86.7771 138.261C88.1181 138.715 89.2139 139.652 89.824 140.866L95.2032 148.547C95.3567 148.766 95.4584 149.014 95.5012 149.274C95.544 149.533 95.5271 149.798 95.4515 150.051C95.3759 150.304 95.2434 150.539 95.063 150.739C94.8827 150.939 94.6588 151.1 94.4065 151.211L85.5394 155.119C85.2871 155.23 85.0124 155.289 84.7339 155.291C84.4554 155.292 84.1797 155.238 83.9258 155.13Z" fill="#CCCCCC"/>
<path id="Path 22" d="M130.019 149.226L129.876 149.207L130.414 145.517C130.497 144.95 130.337 144.376 129.971 143.92C129.605 143.465 129.062 143.165 128.461 143.087L120.175 142.012C119.574 141.934 118.966 142.085 118.483 142.43C118 142.776 117.682 143.288 117.6 143.854L114.65 164.101C114.568 164.668 114.727 165.242 115.093 165.697C115.46 166.153 116.003 166.453 116.603 166.531L124.889 167.606C125.49 167.683 126.098 167.533 126.581 167.188C127.064 166.842 127.382 166.33 127.464 165.763L129.494 151.834L129.636 151.853L130.019 149.226Z" fill="#3F3D56"/>
<path id="Path 23" d="M128.201 144.17L127.169 144.036C127.201 144.152 127.202 144.273 127.171 144.389C127.141 144.506 127.082 144.613 126.997 144.703C126.913 144.792 126.806 144.86 126.687 144.902C126.568 144.943 126.44 144.956 126.315 144.94L121.787 144.352C121.661 144.336 121.542 144.291 121.439 144.221C121.336 144.151 121.253 144.058 121.197 143.95C121.142 143.843 121.115 143.724 121.119 143.604C121.124 143.485 121.159 143.368 121.222 143.264L120.259 143.139C120.047 143.112 119.832 143.124 119.625 143.175C119.418 143.226 119.224 143.315 119.054 143.437C118.883 143.559 118.74 143.711 118.632 143.886C118.524 144.06 118.454 144.252 118.425 144.452L115.615 163.736C115.586 163.936 115.599 164.139 115.653 164.334C115.707 164.529 115.802 164.712 115.931 164.873C116.06 165.034 116.221 165.169 116.406 165.271C116.59 165.372 116.794 165.439 117.006 165.466L124.948 166.497C125.376 166.552 125.809 166.445 126.153 166.199C126.497 165.953 126.724 165.588 126.782 165.184L129.592 145.9C129.651 145.497 129.537 145.088 129.276 144.763C129.015 144.439 128.629 144.225 128.201 144.17L128.201 144.17Z" fill="white"/>
<path id="Vector_27" d="M122.568 160.18C125.012 160.18 126.993 158.311 126.993 156.005C126.993 153.699 125.012 151.829 122.568 151.829C120.124 151.829 118.143 153.699 118.143 156.005C118.143 158.311 120.124 160.18 122.568 160.18Z" fill="black"/>
<path id="Vector_28" d="M122.13 157.597C122.03 157.598 121.933 157.567 121.854 157.511L121.849 157.507L120.809 156.756C120.76 156.721 120.72 156.678 120.689 156.628C120.659 156.579 120.639 156.524 120.631 156.467C120.623 156.41 120.627 156.352 120.642 156.297C120.658 156.242 120.685 156.19 120.722 156.144C120.759 156.099 120.805 156.06 120.858 156.032C120.91 156.003 120.968 155.984 121.029 155.977C121.089 155.97 121.15 155.973 121.209 155.988C121.268 156.003 121.323 156.029 121.371 156.064L122.044 156.551L123.636 154.593C123.673 154.547 123.719 154.509 123.771 154.48C123.824 154.452 123.882 154.433 123.942 154.426C124.002 154.418 124.063 154.422 124.122 154.437C124.181 154.452 124.236 154.477 124.284 154.512L124.274 154.525L124.284 154.512C124.381 154.583 124.445 154.686 124.461 154.801C124.477 154.916 124.444 155.031 124.37 155.123L122.497 157.427C122.454 157.48 122.398 157.523 122.335 157.553C122.271 157.582 122.201 157.598 122.13 157.597Z" fill="white"/>
</g>
<g id="hand2">
<path id="Vector_29" d="M53.5213 190.504C53.1112 190.051 52.8115 189.518 52.6432 188.943C52.475 188.369 52.4423 187.766 52.5475 187.179C52.6527 186.591 52.8932 186.032 53.252 185.541C53.6109 185.051 54.0794 184.64 54.6245 184.339L63.195 148.091L71.889 151.458L60.7307 186.03C61.2064 186.927 61.3166 187.959 61.0404 188.928C60.7642 189.897 60.1208 190.737 59.2322 191.288C58.3435 191.84 57.2714 192.065 56.2188 191.92C55.1663 191.776 54.2065 191.272 53.5213 190.504H53.5213Z" fill="#FFB8B8"/>
<path id="Vector_30" d="M59.7993 153.291C59.6624 153.062 59.5795 152.808 59.5561 152.546C59.5327 152.284 59.5695 152.021 59.6639 151.774L62.9596 143.14C63.2401 141.822 64.0631 140.663 65.2481 139.917C66.433 139.17 67.8833 138.898 69.2808 139.159C70.6784 139.42 71.9092 140.194 72.7033 141.31C73.4974 142.426 73.7901 143.793 73.5172 145.113L73.0165 154.307C73.0022 154.569 72.9281 154.826 72.7993 155.059C72.6706 155.292 72.4901 155.496 72.2702 155.657C72.0503 155.818 71.7962 155.933 71.5251 155.993C71.2541 156.053 70.9725 156.057 70.6995 156.005L61.1052 154.185C60.8321 154.134 60.5741 154.027 60.3487 153.873C60.1234 153.718 59.936 153.52 59.7993 153.291Z" fill="#CCCCCC"/>
</g>
</g>
</svg>
