<svg width="268" height="283" viewBox="0 0 268 283" fill="none" xmlns="http://www.w3.org/2000/svg">
<rect width="268" height="283" fill="#E5E5E5"/>
<g id="flutter 1">
<path id="Vector" d="M209.299 278.369L205.288 278.369L203.379 259.132L209.3 259.132L209.299 278.369Z" fill="#FFB8B8"/>
<path id="Vector_2" d="M202.422 276.944H210.159V283H197.551C197.551 282.204 197.677 281.417 197.922 280.682C198.167 279.947 198.525 279.28 198.978 278.717C199.43 278.155 199.967 277.709 200.558 277.405C201.149 277.1 201.783 276.944 202.422 276.944V276.944Z" fill="#2F2E41"/>
<path id="Vector_3" d="M224.352 278.369L220.341 278.369L218.432 259.132L224.353 259.132L224.352 278.369Z" fill="#FFB8B8"/>
<path id="Vector_4" d="M217.475 276.944H225.212V283H212.603C212.603 282.204 212.729 281.417 212.974 280.682C213.219 279.947 213.578 279.28 214.03 278.717C214.483 278.155 215.02 277.709 215.611 277.405C216.202 277.1 216.835 276.944 217.475 276.944V276.944Z" fill="#2F2E41"/>
<path id="Vector_5" d="M223.862 221.076C223.43 220.731 223.064 220.272 222.79 219.731C222.516 219.191 222.341 218.582 222.276 217.948C222.212 217.314 222.26 216.671 222.418 216.062C222.575 215.454 222.838 214.896 223.187 214.428L220.546 167.827L228.155 168.744L228.364 214.381C228.958 215.163 229.3 216.189 229.326 217.264C229.352 218.339 229.06 219.389 228.505 220.214C227.95 221.04 227.171 221.583 226.315 221.742C225.46 221.901 224.587 221.664 223.862 221.076H223.862Z" fill="#FFB8B8"/>
<path id="Vector_6" d="M209.11 268.678L204.694 268.416C204.318 268.394 203.962 268.193 203.702 267.856C203.441 267.518 203.294 267.069 203.291 266.601L202.983 211.05C202.982 210.786 203.026 210.525 203.113 210.285C203.2 210.045 203.328 209.83 203.488 209.657C203.648 209.484 203.836 209.356 204.04 209.281C204.243 209.207 204.457 209.188 204.667 209.225L222.335 212.414C222.684 212.475 223.004 212.69 223.236 213.02C223.467 213.35 223.596 213.774 223.596 214.212L225.869 265.685C225.87 265.927 225.833 266.166 225.76 266.39C225.686 266.614 225.578 266.817 225.441 266.989C225.305 267.16 225.142 267.296 224.962 267.389C224.783 267.482 224.591 267.53 224.396 267.53H219.635C219.284 267.532 218.944 267.376 218.677 267.093C218.41 266.809 218.234 266.415 218.18 265.984L215.243 242.769C215.2 242.429 215.06 242.12 214.848 241.899C214.636 241.678 214.367 241.56 214.09 241.566C213.814 241.573 213.548 241.703 213.343 241.934C213.138 242.164 213.007 242.48 212.974 242.821L210.642 267.067C210.598 267.511 210.426 267.92 210.156 268.217C209.887 268.514 209.54 268.679 209.18 268.68C209.157 268.68 209.134 268.68 209.11 268.678Z" fill="#2F2E41"/>
<path id="Vector_7" d="M212.219 214.214C208.325 211.525 205.283 210.818 203.816 210.636C203.621 210.613 203.432 210.54 203.26 210.423C203.088 210.306 202.937 210.147 202.817 209.956C202.693 209.763 202.603 209.54 202.55 209.303C202.498 209.065 202.485 208.816 202.512 208.572L206.746 169.499C206.989 167.213 207.699 165.043 208.809 163.194C209.918 161.346 211.389 159.881 213.082 158.94C214.721 158.003 216.525 157.603 218.323 157.779C220.122 157.954 221.854 158.698 223.355 159.941C223.5 160.061 223.643 160.183 223.782 160.308C225.512 161.883 226.827 164.059 227.563 166.562C228.299 169.065 228.422 171.783 227.917 174.372C225.321 187.575 224.43 209.219 224.277 213.424C224.265 213.783 224.168 214.129 223.998 214.419C223.828 214.709 223.593 214.93 223.322 215.054C221.725 215.775 220.039 216.148 218.34 216.156C216.199 216.173 214.092 215.504 212.219 214.214V214.214Z" fill="black"/>
<path id="Vector_8" d="M222.268 183.485C222.09 183.326 221.943 183.119 221.838 182.88C221.732 182.64 221.672 182.374 221.66 182.102L221.102 169.542C221.047 168.297 221.365 167.072 221.993 166.101C222.622 165.13 223.518 164.483 224.507 164.285C225.497 164.086 226.511 164.35 227.353 165.026C228.196 165.702 228.807 166.741 229.069 167.944L231.518 179.174C231.62 179.642 231.568 180.142 231.374 180.563C231.18 180.984 230.859 181.292 230.483 181.42L223.516 183.768C223.304 183.84 223.082 183.852 222.866 183.803C222.65 183.754 222.446 183.645 222.268 183.485Z" fill="black"/>
<path id="Vector_9" d="M215.76 153.634C220.199 153.634 223.797 149.161 223.797 143.643C223.797 138.125 220.199 133.652 215.76 133.652C211.321 133.652 207.723 138.125 207.723 143.643C207.723 149.161 211.321 153.634 215.76 153.634Z" fill="#FFB8B8"/>
<path id="Vector_10" d="M200.641 182.969C199.73 182.972 198.844 182.592 198.128 181.893L184.454 168.482C184.343 168.531 184.229 168.572 184.115 168.606C183.622 168.75 183.11 168.763 182.613 168.644C182.116 168.526 181.644 168.278 181.229 167.918C180.811 167.558 180.46 167.091 180.199 166.549C179.938 166.006 179.773 165.4 179.715 164.772C179.608 163.637 179.854 162.494 180.403 161.578C180.952 160.661 181.762 160.04 182.668 159.842C183.573 159.645 184.505 159.885 185.273 160.514C186.04 161.143 186.585 162.114 186.795 163.226C186.831 163.421 186.856 163.618 186.87 163.817L200.771 173.786L204.23 171.31L208.063 177.547L202.992 182.04C202.305 182.646 201.483 182.971 200.641 182.969V182.969Z" fill="#FFB8B8"/>
<path id="Vector_11" d="M201.273 173.164C201.25 172.893 201.275 172.618 201.349 172.361C201.422 172.104 201.541 171.87 201.696 171.678L208.85 162.782C209.559 161.9 210.506 161.377 211.507 161.311C212.508 161.246 213.493 161.644 214.272 162.428C215.051 163.212 215.569 164.327 215.727 165.558C215.884 166.789 215.669 168.048 215.123 169.094L210.028 178.854C209.815 179.26 209.481 179.546 209.099 179.647C208.717 179.748 208.319 179.656 207.991 179.393L201.936 174.508C201.752 174.36 201.596 174.162 201.482 173.929C201.367 173.697 201.296 173.435 201.273 173.164Z" fill="black"/>
<path id="Vector_12" d="M218.019 152.988C218.132 153.151 218.272 153.284 218.428 153.38C218.584 153.475 218.753 153.531 218.927 153.543C219.101 153.556 219.274 153.525 219.438 153.452C219.602 153.38 219.752 153.267 219.881 153.121C221.673 151.317 223.094 149.01 224.027 146.389C225.072 143.293 225.225 139.514 224.036 136.612C223.031 134.159 221.226 132.597 219.425 131.321C218.734 130.78 217.977 130.382 217.184 130.144C216.783 130.03 216.368 130.023 215.965 130.122C215.562 130.22 215.18 130.423 214.843 130.716C214.486 131.053 214.21 131.505 214.044 132.023C213.878 132.541 213.829 133.106 213.901 133.656C213.077 132.306 211.966 131.27 210.694 130.663C209.913 130.245 209.041 130.173 208.222 130.457C207.065 130.937 206.209 132.39 205.732 133.95C205.347 135.145 205.206 136.44 205.321 137.719C205.372 138.329 205.522 138.921 205.762 139.457C206.002 139.994 206.327 140.464 206.718 140.839C207.662 141.649 208.878 141.567 209.975 141.208C211.073 140.85 212.138 140.243 213.255 140.073C214.371 139.904 215.609 140.271 216.274 141.509C216.742 142.381 216.853 143.53 216.949 144.625L217.446 150.319C217.481 151.134 217.622 151.936 217.864 152.695C217.905 152.8 217.957 152.899 218.019 152.988V152.988Z" fill="#2F2E41"/>
<g id="flutt">
<path id="Path 22" d="M167.554 94.1594H166.484V57.3893C166.484 51.7448 164.698 46.3316 161.517 42.3404C158.336 38.3491 154.023 36.1069 149.525 36.1069H87.4429C82.9449 36.1069 78.6311 38.3491 75.4506 42.3404C72.27 46.3316 70.4832 51.7448 70.4832 57.3893V259.116C70.4832 264.761 72.27 270.174 75.4506 274.165C78.6311 278.156 82.9449 280.399 87.4429 280.399H149.525C154.023 280.399 158.336 278.156 161.517 274.165C164.697 270.174 166.484 264.761 166.484 259.116V120.333H167.554L167.554 94.1594Z" fill="#3F3D56"/>
<path id="Path 23" d="M151.137 43.8485H142.885C143.264 44.9861 143.409 46.2204 143.306 47.4425C143.204 48.6647 142.857 49.8373 142.296 50.8569C141.736 51.8766 140.978 52.712 140.091 53.2897C139.204 53.8673 138.215 54.1694 137.21 54.1694H100.986C99.9812 54.1693 98.9916 53.8671 98.1047 53.2894C97.2177 52.7117 96.4606 51.8763 95.9 50.8566C95.3394 49.837 94.9926 48.6645 94.89 47.4424C94.7875 46.2203 94.9324 44.9861 95.3119 43.8485H87.6032C85.9092 43.8485 84.2318 44.2564 82.6668 45.0489C81.1017 45.8413 79.6797 47.0028 78.4818 48.4671C77.284 49.9313 76.3338 51.6696 75.6856 53.5828C75.0373 55.4959 74.7037 57.5464 74.7037 59.6172V259.469C74.7037 263.651 76.0627 267.662 78.4819 270.619C80.901 273.576 84.182 275.238 87.6032 275.238H151.137C154.559 275.238 157.84 273.576 160.259 270.619C162.678 267.662 164.037 263.651 164.037 259.469V259.469V59.6168C164.037 55.4348 162.678 51.4241 160.259 48.4669C157.84 45.5098 154.559 43.8485 151.137 43.8485V43.8485Z" fill="white"/>
<g id="Group">
<path id="Vector_13" d="M86.6665 194.845H97.754V197.542H88.9165V205.7H96.8979V208.364H88.9165V218.684H86.6665L86.6665 194.845Z" fill="#3F3D56"/>
<path id="Vector_14" d="M100.432 194.845H102.707V218.682H100.432V194.845Z" fill="#3F3D56"/>
<path id="Vector_15" d="M107.275 217.415C106.408 216.217 105.975 214.541 105.976 212.388V201.703H108.251V211.958C108.251 213.578 108.546 214.765 109.135 215.52C109.447 215.904 109.82 216.203 110.23 216.398C110.64 216.593 111.079 216.68 111.517 216.653C112.247 216.667 112.963 216.4 113.565 215.887C114.16 215.382 114.639 214.694 114.957 213.89C115.285 213.084 115.454 212.194 115.452 211.292V201.703H117.73V218.682H115.56V216.217H115.452C115.026 217.122 114.404 217.861 113.658 218.349C112.859 218.918 111.953 219.216 111.032 219.214C109.394 219.214 108.141 218.614 107.275 217.415Z" fill="#3F3D56"/>
<path id="Vector_16" d="M124.95 218.876C124.507 218.674 124.102 218.362 123.758 217.961C123.407 217.542 123.132 217.033 122.955 216.469C122.763 215.806 122.672 215.105 122.687 214.401V204.266H120.304V201.703H122.687V196.908H124.962V201.703H128.284V204.266H124.962V213.727C124.916 214.47 125.067 215.211 125.39 215.837C125.574 216.093 125.803 216.294 126.058 216.423C126.313 216.553 126.589 216.609 126.864 216.587C127.398 216.582 127.918 216.385 128.364 216.021V218.784C128.104 218.936 127.83 219.048 127.548 219.117C127.198 219.19 126.844 219.223 126.489 219.216C125.964 219.221 125.442 219.105 124.95 218.876V218.876Z" fill="#3F3D56"/>
<path id="Vector_17" d="M134.616 218.876C134.173 218.674 133.768 218.362 133.425 217.961C133.073 217.542 132.799 217.033 132.621 216.469C132.429 215.806 132.338 215.105 132.353 214.401V204.266H129.971V201.703H132.353V196.908H134.629V201.703H137.95V204.266H134.629V213.727C134.583 214.47 134.733 215.211 135.057 215.837C135.241 216.093 135.469 216.294 135.724 216.423C135.98 216.553 136.255 216.609 136.531 216.587C137.064 216.582 137.584 216.385 138.03 216.021V218.784C137.77 218.936 137.496 219.048 137.214 219.117C136.864 219.19 136.51 219.223 136.155 219.216C135.63 219.22 135.108 219.105 134.616 218.876V218.876Z" fill="#3F3D56"/>
<path id="Vector_18" d="M142.692 218.047C141.661 217.276 140.822 216.164 140.269 214.836C139.678 213.412 139.379 211.828 139.398 210.225C139.385 208.658 139.664 207.108 140.215 205.698C140.732 204.358 141.533 203.219 142.532 202.403C143.567 201.568 144.78 201.139 146.013 201.17C147.235 201.133 148.44 201.518 149.495 202.285C150.471 203.02 151.256 204.09 151.757 205.365C152.301 206.766 152.572 208.306 152.548 209.861C152.552 210.152 152.525 210.443 152.468 210.726H141.676C141.697 211.876 141.955 212.999 142.427 213.989C142.836 214.835 143.424 215.526 144.126 215.987C144.79 216.424 145.53 216.653 146.281 216.653C148.031 216.653 149.38 215.632 150.326 213.591L152.253 214.757C151.698 216.088 150.871 217.214 149.855 218.021C148.767 218.802 147.533 219.215 146.277 219.219C145.02 219.224 143.784 218.82 142.692 218.047V218.047ZM150.136 208.393C150.093 207.649 149.929 206.924 149.653 206.261C149.343 205.52 148.876 204.898 148.301 204.463C147.601 203.948 146.797 203.694 145.984 203.732C144.978 203.701 144.002 204.161 143.266 205.014C142.503 205.919 141.992 207.102 141.807 208.393H150.136Z" fill="#3F3D56"/>
<path id="Vector_19" d="M155.197 201.703H157.367V204.432H157.474C157.767 203.46 158.314 202.639 159.028 202.101C159.74 201.501 160.579 201.176 161.438 201.168C161.989 201.151 162.536 201.276 163.045 201.535V204.565C162.445 204.203 161.785 204.021 161.118 204.033C160.467 204.029 159.832 204.274 159.296 204.733C158.734 205.213 158.278 205.861 157.97 206.618C157.639 207.406 157.469 208.282 157.474 209.171V218.682H155.199V201.703H155.197Z" fill="#3F3D56"/>
</g>
<path id="Vector_20" d="M131.954 139.999L161.749 177.213L133.608 176.807L123.136 163.789L131.954 139.999Z" fill="#01579B"/>
<path id="Vector_21" d="M144.031 155.083L123.136 163.789L135.92 144.87L144.031 155.083Z" fill="url(#paint0_linear)"/>
<path id="Vector_22" d="M161.55 63.5344L101.984 137.592L87.9626 120.164L133.519 63.5344H161.55Z" fill="#54C5F8"/>
<path id="Vector_23" d="M108.902 146.5L133.444 115.991H161.586L122.973 163.586L108.902 146.5Z" fill="#54C5F8"/>
<path id="Vector_24" d="M123.004 128.878L137.026 146.301L123.136 163.789L109.066 146.704L123.004 128.878Z" fill="#29B6F6"/>
</g>
</g>
<defs>
<linearGradient id="paint0_linear" x1="126.69" y1="166.492" x2="139.356" y2="156.304" gradientUnits="userSpaceOnUse">
<stop stop-color="#1A237E" stop-opacity="0.4"/>
<stop offset="1" stop-color="#1A237E" stop-opacity="0"/>
</linearGradient>
</defs>
</svg>
