<svg width="327" height="290" viewBox="0 0 327 290" fill="none" xmlns="http://www.w3.org/2000/svg">
<rect width="327" height="290" fill="#E5E5E5"/>
<path d="M255.377 285.254L250.482 285.254L248.153 265.542L255.378 265.542L255.377 285.254Z" fill="#FFB8B8"/>
<path d="M246.985 283.794H256.426V290H241.042C241.042 289.185 241.195 288.378 241.494 287.625C241.793 286.872 242.231 286.188 242.782 285.612C243.334 285.035 243.99 284.578 244.711 284.266C245.432 283.954 246.205 283.794 246.985 283.794V283.794Z" fill="#2F2E41"/>
<path d="M273.743 285.254L268.848 285.254L266.519 265.542L273.744 265.542L273.743 285.254Z" fill="#FFB8B8"/>
<path d="M265.352 283.794H274.792V290H259.408C259.408 289.185 259.562 288.378 259.86 287.625C260.159 286.872 260.597 286.188 261.149 285.612C261.701 285.035 262.356 284.578 263.077 284.266C263.798 283.954 264.571 283.794 265.352 283.794V283.794Z" fill="#2F2E41"/>
<path d="M273.145 226.545C272.618 226.191 272.171 225.72 271.837 225.166C271.503 224.612 271.289 223.989 271.21 223.339C271.132 222.69 271.191 222.03 271.383 221.407C271.575 220.784 271.895 220.212 272.322 219.732L269.099 171.978L278.383 172.918L278.638 219.684C279.363 220.485 279.78 221.537 279.812 222.638C279.844 223.74 279.488 224.816 278.81 225.661C278.133 226.507 277.183 227.064 276.139 227.227C275.094 227.39 274.029 227.147 273.145 226.545H273.145Z" fill="#FFB8B8"/>
<path d="M255.146 275.324L249.757 275.055C249.298 275.033 248.865 274.827 248.546 274.481C248.228 274.135 248.049 273.675 248.046 273.195L247.67 216.27C247.668 216 247.722 215.733 247.828 215.486C247.935 215.24 248.091 215.021 248.286 214.843C248.481 214.665 248.711 214.534 248.959 214.458C249.207 214.381 249.468 214.362 249.724 214.401L271.282 217.668C271.708 217.73 272.098 217.951 272.381 218.289C272.664 218.628 272.82 219.061 272.821 219.51L275.594 272.257C275.595 272.505 275.55 272.75 275.461 272.979C275.371 273.208 275.239 273.417 275.072 273.593C274.905 273.768 274.706 273.908 274.488 274.003C274.269 274.098 274.034 274.147 273.797 274.147H267.988C267.559 274.149 267.144 273.99 266.818 273.699C266.492 273.408 266.278 273.005 266.213 272.563L262.628 248.774C262.576 248.426 262.405 248.109 262.146 247.883C261.888 247.656 261.56 247.535 261.222 247.541C260.885 247.548 260.561 247.682 260.311 247.918C260.06 248.154 259.9 248.477 259.86 248.827L257.015 273.673C256.962 274.128 256.751 274.547 256.422 274.851C256.094 275.156 255.67 275.325 255.231 275.326C255.203 275.326 255.174 275.325 255.146 275.324Z" fill="#2F2E41"/>
<path d="M258.939 219.513C254.188 216.757 250.476 216.033 248.686 215.846C248.448 215.822 248.217 215.748 248.008 215.628C247.798 215.508 247.614 215.345 247.467 215.149C247.316 214.951 247.205 214.723 247.141 214.48C247.078 214.236 247.062 213.981 247.095 213.731L252.26 173.691C252.558 171.349 253.424 169.125 254.778 167.231C256.131 165.337 257.926 163.836 259.992 162.871C261.991 161.911 264.193 161.502 266.387 161.681C268.581 161.861 270.695 162.624 272.527 163.897C272.704 164.02 272.878 164.145 273.048 164.273C275.158 165.887 276.763 168.117 277.661 170.682C278.558 173.247 278.709 176.032 278.093 178.686C274.926 192.215 273.838 214.394 273.652 218.703C273.637 219.071 273.519 219.425 273.311 219.722C273.104 220.02 272.817 220.246 272.487 220.373C270.538 221.112 268.481 221.495 266.407 221.503C263.796 221.52 261.224 220.834 258.939 219.513V219.513Z" fill="black"/>
<path d="M271.2 188.024C270.983 187.861 270.803 187.648 270.675 187.403C270.547 187.158 270.473 186.885 270.458 186.606L269.778 173.735C269.711 172.46 270.098 171.204 270.865 170.209C271.632 169.215 272.725 168.552 273.933 168.348C275.14 168.145 276.377 168.416 277.405 169.108C278.433 169.801 279.179 170.866 279.499 172.098L282.487 183.606C282.611 184.086 282.548 184.598 282.311 185.029C282.074 185.461 281.683 185.776 281.223 185.907L272.723 188.313C272.464 188.387 272.193 188.399 271.93 188.349C271.667 188.299 271.417 188.188 271.2 188.024Z" fill="black"/>
<path d="M263.26 157.434C268.676 157.434 273.066 152.851 273.066 147.196C273.066 141.541 268.676 136.958 263.26 136.958C257.844 136.958 253.453 141.541 253.453 147.196C253.453 152.851 257.844 157.434 263.26 157.434Z" fill="#FFB8B8"/>
<path d="M244.812 187.495C243.7 187.498 242.62 187.109 241.746 186.392L225.061 172.649C224.926 172.699 224.787 172.742 224.647 172.777C224.046 172.924 223.422 172.937 222.815 172.815C222.209 172.694 221.633 172.441 221.127 172.072C220.617 171.703 220.188 171.224 219.87 170.668C219.551 170.112 219.35 169.492 219.28 168.848C219.149 167.685 219.449 166.514 220.119 165.574C220.789 164.635 221.777 163.999 222.882 163.796C223.987 163.594 225.124 163.84 226.06 164.485C226.997 165.129 227.661 166.124 227.918 167.264C227.962 167.463 227.992 167.665 228.009 167.869L244.971 178.085L249.192 175.548L253.868 181.939L247.681 186.543C246.843 187.164 245.84 187.497 244.812 187.495V187.495Z" fill="#FFB8B8"/>
<path d="M245.583 177.447C245.555 177.169 245.586 176.888 245.675 176.624C245.765 176.361 245.91 176.121 246.099 175.924L254.829 166.808C255.694 165.905 256.848 165.368 258.07 165.301C259.291 165.234 260.493 165.642 261.444 166.445C262.395 167.249 263.027 168.391 263.219 169.653C263.41 170.914 263.148 172.205 262.482 173.276L256.265 183.277C256.006 183.694 255.598 183.987 255.132 184.09C254.666 184.194 254.18 184.1 253.78 183.83L246.392 178.824C246.167 178.672 245.978 178.47 245.838 178.232C245.698 177.993 245.611 177.725 245.583 177.447Z" fill="black"/>
<path d="M266.015 156.772C266.154 156.939 266.324 157.076 266.514 157.174C266.705 157.272 266.912 157.328 267.124 157.341C267.335 157.354 267.548 157.322 267.747 157.248C267.947 157.173 268.131 157.058 268.287 156.908C270.474 155.06 272.208 152.696 273.347 150.01C274.622 146.837 274.809 142.965 273.358 139.991C272.131 137.477 269.929 135.877 267.731 134.569C266.888 134.015 265.965 133.607 264.997 133.363C264.508 133.247 264.001 133.239 263.509 133.34C263.017 133.441 262.551 133.649 262.141 133.949C261.705 134.295 261.368 134.758 261.165 135.289C260.963 135.82 260.903 136.398 260.992 136.962C259.986 135.579 258.631 134.517 257.078 133.895C256.125 133.467 255.061 133.393 254.062 133.684C252.65 134.176 251.605 135.664 251.024 137.263C250.554 138.488 250.382 139.814 250.523 141.125C250.584 141.751 250.767 142.357 251.06 142.907C251.353 143.457 251.75 143.938 252.227 144.323C253.379 145.152 254.862 145.068 256.201 144.701C257.54 144.334 258.84 143.712 260.202 143.538C261.565 143.364 263.075 143.741 263.887 145.009C264.458 145.903 264.593 147.08 264.71 148.202L265.316 154.037C265.359 154.872 265.531 155.694 265.826 156.472C265.876 156.58 265.94 156.681 266.015 156.772V156.772Z" fill="#2F2E41"/>
<path d="M204.441 96.4884H203.136V58.8088C203.136 53.0247 200.956 47.4776 197.075 43.3876C193.194 39.2977 187.931 37 182.442 37H106.693C101.205 37 95.9417 39.2977 92.061 43.3876C88.1802 47.4776 86 53.0247 86 58.8088V265.526C86 271.31 88.1802 276.857 92.061 280.947C95.9417 285.037 101.205 287.334 106.693 287.334H182.442C187.931 287.334 193.194 285.036 197.075 280.947C200.955 276.857 203.136 271.31 203.136 265.526V123.309H204.441L204.441 96.4884Z" fill="#3F3D56"/>
<path d="M184.41 44.9331H174.34C174.804 46.0989 174.98 47.3636 174.855 48.616C174.73 49.8684 174.307 51.07 173.623 52.1149C172.939 53.1597 172.015 54.0159 170.932 54.6078C169.85 55.1997 168.643 55.5093 167.416 55.5093H123.218C121.992 55.5092 120.785 55.1995 119.702 54.6076C118.62 54.0156 117.696 53.1594 117.012 52.1146C116.328 51.0697 115.905 49.8682 115.78 48.6159C115.655 47.3635 115.832 46.0988 116.295 44.9331H106.889C104.822 44.9331 102.775 45.3511 100.866 46.1631C98.9562 46.9752 97.2211 48.1654 95.7596 49.6659C94.298 51.1664 93.1387 52.9477 92.3477 54.9081C91.5567 56.8686 91.1496 58.9698 91.1496 61.0918V265.887C91.1496 270.172 92.8079 274.282 95.7596 277.313C98.7113 280.343 102.715 282.046 106.889 282.046H184.41C188.585 282.046 192.588 280.343 195.54 277.313C198.491 274.282 200.15 270.172 200.15 265.887V265.887V61.0915C200.15 56.806 198.491 52.696 195.54 49.6658C192.588 46.6355 188.585 44.9331 184.41 44.9331V44.9331Z" fill="white"/>
<path d="M105.746 199.664H119.274V202.429H108.491V210.788H118.23V213.518H108.491V224.093H105.746L105.746 199.664Z" fill="#3F3D56"/>
<path d="M122.542 199.664H125.318V224.091H122.542V199.664Z" fill="#3F3D56"/>
<path d="M130.891 222.793C129.834 221.566 129.305 219.848 129.306 217.641V206.692H132.082V217.2C132.082 218.861 132.442 220.077 133.161 220.851C133.541 221.245 133.997 221.551 134.497 221.751C134.998 221.95 135.533 222.039 136.068 222.012C136.958 222.027 137.831 221.753 138.566 221.227C139.292 220.709 139.877 220.004 140.264 219.18C140.664 218.355 140.872 217.443 140.869 216.518V206.692H143.648V224.091H141V221.566H140.869C140.349 222.493 139.59 223.25 138.679 223.75C137.704 224.333 136.6 224.639 135.476 224.636C133.477 224.636 131.949 224.022 130.891 222.793Z" fill="#3F3D56"/>
<path d="M152.457 224.289C151.917 224.082 151.423 223.764 151.004 223.352C150.574 222.923 150.24 222.401 150.023 221.823C149.789 221.144 149.678 220.426 149.697 219.704V209.319H146.789V206.692H149.697V201.779H152.473V206.692H156.525V209.319H152.473V219.014C152.417 219.775 152.6 220.534 152.995 221.176C153.219 221.438 153.498 221.644 153.81 221.777C154.121 221.91 154.458 221.967 154.794 221.944C155.444 221.939 156.079 221.737 156.623 221.364V224.195C156.306 224.352 155.971 224.466 155.627 224.537C155.201 224.612 154.768 224.646 154.336 224.639C153.694 224.643 153.058 224.525 152.457 224.289V224.289Z" fill="#3F3D56"/>
<path d="M164.252 224.289C163.711 224.082 163.217 223.764 162.798 223.352C162.369 222.923 162.034 222.401 161.818 221.823C161.583 221.144 161.472 220.426 161.491 219.704V209.319H158.583V206.692H161.491V201.779H164.267V206.692H168.319V209.319H164.267V219.014C164.211 219.775 164.394 220.534 164.789 221.176C165.014 221.438 165.292 221.644 165.604 221.777C165.915 221.91 166.252 221.967 166.588 221.944C167.238 221.939 167.874 221.737 168.417 221.364V224.195C168.1 224.352 167.766 224.466 167.421 224.537C166.995 224.612 166.562 224.646 166.13 224.639C165.489 224.643 164.852 224.524 164.252 224.289V224.289Z" fill="#3F3D56"/>
<path d="M174.106 223.441C172.848 222.65 171.824 221.511 171.15 220.15C170.428 218.69 170.063 217.067 170.087 215.425C170.071 213.819 170.411 212.231 171.083 210.786C171.714 209.413 172.692 208.246 173.91 207.409C175.174 206.554 176.653 206.114 178.158 206.146C179.648 206.108 181.119 206.503 182.406 207.288C183.597 208.042 184.555 209.138 185.167 210.444C185.83 211.88 186.161 213.458 186.132 215.051C186.136 215.35 186.103 215.648 186.034 215.938H172.866C172.891 217.116 173.206 218.268 173.782 219.282C174.282 220.149 174.999 220.857 175.855 221.329C176.665 221.777 177.568 222.012 178.485 222.012C180.62 222.012 182.265 220.966 183.42 218.874L185.771 220.069C185.094 221.433 184.085 222.586 182.846 223.414C181.518 224.214 180.013 224.637 178.479 224.642C176.946 224.646 175.438 224.232 174.106 223.441V223.441ZM183.188 213.547C183.136 212.785 182.935 212.042 182.599 211.363C182.221 210.603 181.65 209.966 180.95 209.52C180.096 208.992 179.114 208.732 178.122 208.771C176.895 208.739 175.704 209.211 174.806 210.085C173.875 211.012 173.252 212.225 173.025 213.547H183.188Z" fill="#3F3D56"/>
<path d="M189.363 206.692H192.011V209.488H192.142C192.499 208.492 193.167 207.651 194.038 207.1C194.906 206.485 195.93 206.152 196.979 206.144C197.65 206.126 198.318 206.254 198.94 206.52V209.625C198.207 209.254 197.402 209.067 196.588 209.08C195.794 209.076 195.018 209.326 194.365 209.797C193.679 210.289 193.123 210.953 192.747 211.728C192.343 212.536 192.136 213.434 192.142 214.345V224.091H189.366V206.692H189.363Z" fill="#3F3D56"/>
<path d="M161.004 143.462L197.358 181.597L163.021 181.18L150.245 167.84L161.004 143.462Z" fill="#01579B"/>
<path d="M175.739 158.919L150.245 167.84L165.843 148.454L175.739 158.919Z" fill="url(#paint0_linear)"/>
<path d="M197.115 65.1059L124.436 140.995L107.328 123.137L162.914 65.1059H197.115Z" fill="#54C5F8"/>
<path d="M132.877 150.124L162.822 118.86H197.159L150.045 167.632L132.877 150.124Z" fill="#54C5F8"/>
<path d="M150.083 132.066L167.192 149.919L150.245 167.841L133.076 150.332L150.083 132.066Z" fill="#29B6F6"/>
<defs>
<linearGradient id="paint0_linear" x1="154.581" y1="170.611" x2="167.856" y2="157.896" gradientUnits="userSpaceOnUse">
<stop stop-color="#1A237E" stop-opacity="0.4"/>
<stop offset="1" stop-color="#1A237E" stop-opacity="0"/>
</linearGradient>
</defs>
</svg>
