<svg width="309" height="279" viewBox="0 0 309 279" fill="none" xmlns="http://www.w3.org/2000/svg">
<rect width="309" height="279" fill="#E5E5E5"/>
<g id="undraw_laravel_and_vue_59tp 1">
<path id="Vector" d="M309 208.702C309 221.043 251.717 244 179.56 244C107.403 244 48 222.467 48 210.125C48 197.784 107.403 199.308 179.56 199.308C251.717 199.308 309 196.361 309 208.702Z" fill="#3F3D56"/>
<path id="Vector_2" opacity="0.1" d="M309 208.702C309 221.043 251.717 244 179.56 244C107.403 244 48 222.467 48 210.125C48 197.784 107.403 199.308 179.56 199.308C251.717 199.308 309 196.361 309 208.702Z" fill="black"/>
<path id="Vector_3" d="M178.5 232C250.573 232 309 221.926 309 209.5C309 197.074 250.573 187 178.5 187C106.427 187 48 197.074 48 209.5C48 221.926 106.427 232 178.5 232Z" fill="#3F3D56"/>
<path id="Vector_4" d="M295 129.308V133H67V127.667L88.1895 117H276.353L295 129.308Z" fill="#2F2E41"/>
<path id="Vector_5" opacity="0.1" d="M295 128.846V133H67V127L295 128.846Z" fill="black"/>
<path id="Vector_6" d="M261.765 48H176.235C174.448 48 173 49.3785 173 51.079V105.921C173 107.622 174.448 109 176.235 109H261.765C263.552 109 265 107.622 265 105.921V51.079C265 49.3785 263.552 48 261.765 48Z" fill="#3F3D56"/>
<path id="Vector_7" d="M262 49H177V96H262V49Z" fill="#F2F2F2"/>
<path id="Vector_8" d="M173.477 124.53C173.576 124.53 173.656 124.379 173.656 124.193C173.656 124.006 173.576 123.855 173.477 123.855C173.378 123.855 173.298 124.006 173.298 124.193C173.298 124.379 173.378 124.53 173.477 124.53Z" fill="#F2F2F2"/>
<path id="Vector_9" d="M265 100V105.711C265 106.143 264.916 106.571 264.754 106.97C264.591 107.369 264.353 107.732 264.053 108.037C263.752 108.342 263.396 108.585 263.003 108.75C262.611 108.915 262.19 109 261.765 109H176.235C175.81 109 175.389 108.915 174.997 108.75C174.604 108.585 174.248 108.342 173.947 108.037C173.647 107.732 173.409 107.369 173.246 106.97C173.084 106.571 173 106.143 173 105.711V100H265Z" fill="#3F3D56"/>
<path id="Vector_10" d="M216 125.695V127H158V125.957L158.08 125.695L159.509 121H214.814L216 125.695Z" fill="#3F3D56"/>
<path id="Vector_11" opacity="0.1" d="M216 125V127H158V125.4L158.08 125H216Z" fill="black"/>
<path id="Vector_12" d="M249.739 73.0915C249.276 72.6436 243.327 65.4027 242.322 64.2083C241.241 63.0139 240.777 63.2379 240.082 63.3125C239.386 63.3872 231.892 64.6562 231.042 64.7308C230.193 64.8801 229.652 65.1787 230.193 65.9252C230.656 66.5971 235.601 73.3154 236.682 74.8831L216.981 79.4366L201.375 54.1307C200.757 53.2349 200.602 52.9363 199.211 53.011C197.821 53.0856 186.927 53.9814 186.155 53.9814C185.382 54.0561 184.532 54.3547 185.305 56.1462C186.077 57.9378 198.439 83.6169 198.748 84.3634C199.057 85.1099 199.984 86.3043 202.07 85.8564C204.233 85.3339 211.65 83.4677 215.745 82.4226C217.908 86.155 222.235 93.7692 223.085 94.8889C224.166 96.3819 224.939 96.0833 226.561 95.6354C227.875 95.2621 246.803 88.6931 247.653 88.3198C248.503 87.9466 249.044 87.7226 248.426 86.9015C247.962 86.3043 243.018 79.8099 240.391 76.4507C242.168 76.0028 248.58 74.3605 249.276 74.1365C250.048 73.9126 250.203 73.5394 249.739 73.0915V73.0915ZM213.968 80.1831C213.736 80.2578 202.688 82.7958 202.147 82.9451C201.529 83.0944 201.529 83.0198 201.529 82.7958C201.375 82.5719 188.395 56.5941 188.163 56.2955C188.009 55.9969 188.009 55.6984 188.163 55.6984C188.318 55.6984 198.593 54.8026 198.902 54.8026C199.289 54.8026 199.211 54.8772 199.366 55.1012C199.366 55.1012 213.814 79.2127 214.045 79.5859C214.354 79.9592 214.2 80.1085 213.968 80.1831V80.1831ZM245.026 85.7818C245.181 86.0804 245.413 86.2297 244.795 86.379C244.254 86.6029 226.175 92.5002 225.789 92.6495C225.402 92.7988 225.171 92.8734 224.707 92.2016C224.244 91.5297 218.372 81.7507 218.372 81.7507L237.609 76.8986C238.073 76.7493 238.228 76.6746 238.537 77.1225C238.846 77.6451 244.872 85.5578 245.026 85.7818V85.7818ZM246.263 72.6436C245.799 72.7183 238.768 74.4352 238.768 74.4352L232.974 66.821C232.819 66.5971 232.665 66.3731 233.051 66.2985C233.437 66.2238 240.005 65.1041 240.314 65.0294C240.623 64.9548 240.854 64.8801 241.241 65.4027C241.627 65.8506 246.572 71.9718 246.803 72.1957C247.035 72.4197 246.726 72.569 246.263 72.6436V72.6436Z" fill="#FB503B"/>
<path id="Vector_13" d="M167.5 61C173.851 61 179 56.299 179 50.5C179 44.701 173.851 40 167.5 40C161.149 40 156 44.701 156 50.5C156 56.299 161.149 61 167.5 61Z" fill="#FFB9B9"/>
<path id="Vector_14" d="M159 57.3077V73H177C177 73 174.677 59.9231 175.839 56L159 57.3077Z" fill="#FFB9B9"/>
<path id="Vector_15" d="M195.937 79.4028C195.937 79.4028 178.05 70.9966 178.05 70.4168C178.05 69.8371 176.231 66.0688 175.018 66.0688C173.805 66.0688 163.498 62.8802 157.738 67.5181L157.131 71.2864L135 85.2003L141.063 106.361C141.063 106.361 145.005 110.419 143.792 113.318C142.579 116.217 144.701 131 144.701 131L192.299 129.551V109.839C192.299 109.839 193.814 105.201 194.724 103.752C195.633 102.303 194.724 97.9546 194.724 97.9546L202 89.2585C202 89.2585 201.091 81.1421 195.937 79.4028Z" fill="#D0CDE1"/>
<path id="Vector_16" opacity="0.1" d="M136.011 92.0434L137.454 85C137.454 85 129.115 117.486 130.077 121.223C131.039 124.96 138.095 130.71 139.058 130.998C140.02 131.285 149 106.274 149 106.274L136.011 92.0434Z" fill="black"/>
<path id="Vector_17" d="M140.227 84L135.062 84.865C135.062 84.865 127.162 117.446 128.073 121.194C128.985 124.943 135.669 130.709 136.581 130.998C137.492 131.286 146 106.201 146 106.201L140.227 84Z" fill="#D0CDE1"/>
<path id="Vector_18" opacity="0.1" d="M198.006 93.7442L200.789 89C200.789 89 204.719 121.491 202.099 124.654C199.48 127.817 189.116 129 189.116 129L189 105.389L198.006 93.7442Z" fill="black"/>
<path id="Vector_19" d="M198.994 85L202.947 88.7603C202.947 88.7603 206.596 121.446 204.164 124.628C201.731 127.809 192.108 129 192.108 129L192 105.248L198.994 85Z" fill="#D0CDE1"/>
<path id="Vector_20" d="M139.596 135.823C139.596 135.823 130.796 132.678 129.279 138.682C127.762 144.685 132.92 171.558 132.92 171.558C132.92 171.558 136.258 191.855 138.382 192.427C140.506 192.999 149.912 193.285 151.429 190.712C152.946 188.139 146.878 161.838 146.878 161.838L182.075 161.266C182.075 161.266 179.951 184.137 178.737 186.138C177.523 188.139 177.523 195 178.737 195C179.951 195 193.301 194.428 194.211 192.713C195.122 190.998 200.28 152.404 200.28 152.404C200.28 152.404 204.528 138.968 199.673 139.825C194.818 140.683 139.596 135.823 139.596 135.823Z" fill="#3F3D56"/>
<path id="Vector_21" d="M191.58 191.958C191.58 191.958 194.549 189.803 196.034 191.958C197.518 194.113 198.112 196.576 191.58 200.271C185.048 203.966 180 203.042 180 202.426V193.497L191.58 191.958Z" fill="#2F2E41"/>
<path id="Vector_22" d="M139.42 191.718C139.42 191.718 136.451 190.102 134.966 191.718C133.482 193.335 132.888 195.182 139.42 197.953C145.952 200.724 151 200.031 151 199.57V192.873L139.42 191.718Z" fill="#2F2E41"/>
<path id="Vector_23" d="M167.455 36.0058C166.276 35.9667 165.1 36.1267 163.979 36.4783C163.111 36.8115 162.281 37.2304 161.503 37.7281L156.279 40.8274C155.836 41.0105 155.459 41.3148 155.197 41.7019C154.934 42.0891 154.798 42.5417 154.805 43.0027L154.152 47.6668C153.987 48.8438 153.835 50.1026 154.388 51.1668C154.849 52.055 155.728 52.6628 156.451 53.3747C157.607 54.5187 158.386 55.962 158.689 57.525C159.063 59.4723 158.824 61.8174 160.439 63.0601C161.314 63.733 162.506 63.8603 163.628 63.9228C166.695 64.0937 169.772 63.9807 172.817 63.5854C173.301 63.5508 173.773 63.4247 174.205 63.2143C174.754 62.9044 175.1 62.3574 175.423 61.8325C176.59 59.9377 177.792 57.9219 177.779 55.7244C177.773 54.6373 177.482 53.4697 178.029 52.5161C178.318 52.1108 178.632 51.722 178.968 51.3517C179.646 50.4435 179.778 49.2767 179.888 48.167C180.241 44.6224 179.872 41.9251 177.134 39.4283C174.578 37.0975 170.941 36.0272 167.455 36.0058Z" fill="#2F2E41"/>
<path id="Vector_24" d="M139.286 168L129 219H134.143L144 168.836L139.286 168Z" fill="#2F2E41"/>
<path id="Vector_25" d="M172 173.639L178 231H182L178.4 172L172 173.639Z" fill="#2F2E41"/>
<path id="Vector_26" d="M189 171.779L197.806 208H202L193.613 171L189 171.779Z" fill="#2F2E41"/>
<path id="Vector_27" d="M155.286 172L154 200H157.429L160 172H155.286Z" fill="#2F2E41"/>
<path id="Vector_28" d="M132.162 163.84C132.162 163.84 125.433 120.745 144.36 119.537C163.287 118.329 190.205 119.537 190.205 119.537C190.205 119.537 205.767 118.329 201.141 163.84C201.141 163.84 205.347 177.131 167.493 175.922C129.639 174.714 132.162 163.84 132.162 163.84Z" fill="#6C63FF"/>
</g>
</svg>
