<svg width="319" height="237"  viewBox="0 -10 300 297" fill="none" xmlns="http://www.w3.org/2000/svg">
<rect width="300" height="297" fill="#E5E5E5"/>
<g clip-path="url(#clip0)">
<path d="M300 0.262512H0.12822V297H300V0.262512Z" fill="#E6E6E6"/>
<path d="M291.425 37.4812H8.70297V279.445H291.425V37.4812Z" fill="white"/>
<path d="M299.872 0H0V19.684H299.872V0Z" fill="black"/>
<path d="M267.138 63.9593H164.227V217.438H267.138V63.9593Z" fill="#E6E6E6"/>
<path d="M9.46701 13.7116C10.771 13.7116 11.8282 12.0782 11.8282 10.0634C11.8282 8.04854 10.771 6.41519 9.46701 6.41519C8.16299 6.41519 7.10587 8.04854 7.10587 10.0634C7.10587 12.0782 8.16299 13.7116 9.46701 13.7116Z" fill="white"/>
<path d="M18.4296 13.7116C19.7336 13.7116 20.7907 12.0782 20.7907 10.0634C20.7907 8.04854 19.7336 6.41519 18.4296 6.41519C17.1255 6.41519 16.0684 8.04854 16.0684 10.0634C16.0684 12.0782 17.1255 13.7116 18.4296 13.7116Z" fill="white"/>
<path d="M27.3921 13.7116C28.6961 13.7116 29.7533 12.0782 29.7533 10.0634C29.7533 8.04854 28.6961 6.41519 27.3921 6.41519C26.0881 6.41519 25.031 8.04854 25.031 10.0634C25.031 12.0782 26.0881 13.7116 27.3921 13.7116Z" fill="white"/>
<path d="M57.8867 63.6437H30.4441V106.045H57.8867V63.6437Z" fill="black"/>
<path d="M96.0493 63.8867H68.6068V106.288H96.0493V63.8867Z" fill="#E6E6E6"/>
<path d="M96.1583 122.131H68.7157V263.218H96.1583V122.131Z" fill="black"/>
<path d="M57.138 121.816H29.6955V194.002H57.138V121.816Z" fill="#E6E6E6"/>
<path d="M214.987 88.2019C210.468 76.4064 201.53 75.857 201.53 75.857C201.53 75.857 192.82 74.1363 187.233 92.1002C182.025 108.845 174.837 125.01 186.077 128.931L188.107 119.168L189.364 129.657C190.964 129.835 192.569 129.877 194.173 129.784C206.208 129.184 217.67 129.96 217.301 123.289C216.809 114.416 219.334 99.5508 214.987 88.2019Z" fill="#2F2E41"/>
<path d="M184.144 200.206L168.907 216.553C168.907 216.553 160.019 230.94 166.367 230.94C172.716 230.94 175.256 218.515 175.256 218.515L194.725 205.436L184.144 200.206Z" fill="#FFB8B8"/>
<path d="M190.281 136.446C190.281 136.446 176.948 200.209 181.181 203.477C185.413 206.745 194.724 208.708 194.724 208.708L190.281 136.446Z" fill="#2F2E41"/>
<path opacity="0.1" d="M190.281 136.446C190.281 136.446 176.948 200.209 181.181 203.477C185.413 206.745 194.724 208.708 194.724 208.708L190.281 136.446Z" fill="black"/>
<path d="M232.195 216.884H202.182L223.505 200.209C223.976 200.68 224.427 201.195 224.856 201.752C228.017 205.864 230.528 211.041 232.195 216.884Z" fill="#2F2E41"/>
<path d="M198.746 120.097C204.823 120.097 209.75 112.484 209.75 103.094C209.75 93.7038 204.823 86.0915 198.746 86.0915C192.668 86.0915 187.741 93.7038 187.741 103.094C187.741 112.484 192.668 120.097 198.746 120.097Z" fill="#FFB8B8"/>
<path d="M198.534 117.154C198.534 117.154 201.073 129.579 198.534 134.157C195.995 138.735 212.501 127.618 212.501 127.618C212.501 127.618 206.576 114.539 208.269 108.653L198.534 117.154Z" fill="#FFB8B8"/>
<path d="M222.912 173.924L222.023 182.877C222.023 182.877 222.472 184.911 223.018 187.873C223.729 191.738 224.605 197.183 224.855 201.75C225.113 206.38 224.723 210.107 222.87 210.343C220.212 210.683 218.828 213.174 217.448 216.883H186.83C186.91 214.843 187.007 212.723 187.122 210.546C187.186 209.238 187.256 207.912 187.332 206.57C187.417 205.027 190.415 176.037 188.162 169.798C183.507 156.916 189.432 149.526 189.432 149.526C189.432 149.526 190.278 139.716 190.278 136.447C190.278 133.883 196.779 130.921 199.59 129.757C199.772 129.685 199.932 129.613 200.08 129.561C200.567 129.365 200.859 129.253 200.859 129.253L203.081 127.846C203.081 127.846 209.323 125.982 209.747 124.674C210.018 124.11 210.397 123.693 210.831 123.483C211.724 122.895 212.862 122.476 213.133 122.058C213.52 121.37 213.87 120.635 214.179 119.86C214.99 118.422 216.084 117.433 217.294 117.045C221.839 115.273 228.37 118.785 228.37 118.785L226.085 141.837L222.912 173.924Z" fill="#2F2E41"/>
<path d="M236.203 159.662L220.966 176.008C220.966 176.008 212.078 190.395 218.427 190.395C224.776 190.395 227.313 177.972 227.313 177.972L246.782 164.894L236.203 159.662Z" fill="#FFB8B8"/>
<path d="M210.027 87.0647L201.196 79.9199L195.657 81.246C193.694 81.7167 191.869 83.0885 190.417 85.183C188.965 87.2776 187.954 89.9982 187.516 92.9917L186.479 100.06L192.76 99.6861L194.514 93.3603V99.5817L197.413 99.4096L199.094 89.3386L200.145 100.059L210.448 99.7343L210.027 87.0647Z" fill="#2F2E41"/>
<path d="M225.41 120.097L228.373 118.789C228.373 118.789 258.423 137.754 257.577 154.103C256.73 170.451 258 170.449 252.921 171.105C247.842 171.761 233.03 163.912 233.45 162.604C233.871 161.296 236.836 154.756 236.836 154.756L225.408 141.022L225.41 120.097Z" fill="#2F2E41"/>
<path d="M209.75 105.711C210.685 105.711 211.443 104.539 211.443 103.095C211.443 101.65 210.685 100.479 209.75 100.479C208.815 100.479 208.057 101.65 208.057 103.095C208.057 104.539 208.815 105.711 209.75 105.711Z" fill="#FFB8B8"/>
<path d="M267.138 242.106H164.227V263.307H267.138V242.106Z" fill="#E6E6E6"/>
<path d="M57.138 209.932H29.6955V262.904H57.138V209.932Z" fill="#E6E6E6"/>
<path d="M135.179 64.1763H107.736V194.001H135.179V64.1763Z" fill="#E6E6E6"/>
<path d="M135.07 210.061H107.627V263.064H135.07V210.061Z" fill="#E6E6E6"/>
</g>
<defs>
<clipPath id="clip0">
<rect width="300" height="297" fill="white"/>
</clipPath>
</defs>
</svg>
