<svg width="319" height="237" viewBox="0 0 384 280" fill="none" xmlns="http://www.w3.org/2000/svg">
<rect width="384" height="280" fill="#E5E5E5"/>
<g clip-path="url(#clip0)">
<path d="M250.967 53.3501C250.967 53.3501 230.297 46.8365 228.931 65.3635C227.565 83.8904 234.394 114.405 228.931 124.214C223.468 134.022 203.975 148.193 214.234 149.463C224.493 150.733 229.614 152.549 226.541 159.088C223.468 165.627 207.421 171.803 210.835 176.525C214.25 181.248 215.957 187.06 212.542 192.873C209.128 198.685 197.178 202.318 199.227 206.314C201.275 210.31 208.787 212.489 205.031 216.849C201.275 221.208 190.388 231.124 194.636 231.07" stroke="#535461" stroke-width="3" stroke-miterlimit="10"/>
<path d="M281.163 41.0067H237.572C235.126 41.0067 233.144 43.1162 233.144 45.7183V62.175C233.144 64.7771 235.126 66.8865 237.572 66.8865H281.163C283.609 66.8865 285.592 64.7771 285.592 62.175V45.7183C285.592 43.1162 283.609 41.0067 281.163 41.0067Z" fill="black"/>
<path opacity="0.1" d="M281.411 62.9145H237.324V63.3998H281.411V62.9145Z" fill="black"/>
<path opacity="0.3" d="M281.411 45.0504H237.324V62.8428H281.411V45.0504Z" fill="black"/>
<path opacity="0.1" d="M247.586 60.7879C250.944 60.7879 253.667 57.8912 253.667 54.3179C253.667 50.7447 250.944 47.848 247.586 47.848C244.228 47.848 241.505 50.7447 241.505 54.3179C241.505 57.8912 244.228 60.7879 247.586 60.7879Z" fill="black"/>
<path opacity="0.1" d="M271.15 60.7879C274.508 60.7879 277.23 57.8912 277.23 54.3179C277.23 50.7447 274.508 47.848 271.15 47.848C267.791 47.848 265.069 50.7447 265.069 54.3179C265.069 57.8912 267.791 60.7879 271.15 60.7879Z" fill="black"/>
<path d="M263.928 66.8858H254.807V72.5484H263.928V66.8858Z" fill="black"/>
<path d="M278.371 70.9302H240.365V103.28H278.371V70.9302Z" fill="black"/>
<path d="M279.131 109.75H239.605V113.794H279.131V109.75Z" fill="black"/>
<path d="M246.066 123.499V128.351V135.629V139.673V142.1H252.907V139.673V135.629V128.351V123.499V117.837H246.066V123.499Z" fill="black"/>
<path d="M266.589 117.837V123.499V128.351V135.629V139.673V142.1H273.43V139.673V135.629V128.351V123.499V117.837H266.589Z" fill="black"/>
<path d="M235.188 78.2091V85.6893C233.311 86.0383 231.561 86.9356 230.135 88.2811C228.812 89.5843 227.784 91.1888 227.126 92.9746C226.288 95.2672 225.788 97.684 225.645 100.139C225.43 103.349 225.571 106.576 226.066 109.751H218.464C218.148 105.887 218.214 101.999 218.663 98.1508C219.022 94.9698 219.845 91.8678 221.103 88.9569C223.305 84.0425 226.437 81.3765 229.189 79.9283C231.053 78.9141 233.097 78.3284 235.188 78.2091Z" fill="black"/>
<path opacity="0.3" d="M252.907 117.837H246.066V123.499H252.907V117.837Z" fill="black"/>
<path opacity="0.3" d="M252.907 128.351H246.066V135.63H252.907V128.351Z" fill="black"/>
<path opacity="0.3" d="M252.907 139.673H246.066V142.1H252.907V139.673Z" fill="black"/>
<path opacity="0.3" d="M273.43 117.837H266.589V123.499H273.43V117.837Z" fill="black"/>
<path opacity="0.3" d="M273.43 128.351H266.589V135.63H273.43V128.351Z" fill="black"/>
<path opacity="0.3" d="M273.43 139.673H266.589V142.1H273.43V139.673Z" fill="black"/>
<path opacity="0.3" d="M235.188 78.2091V85.6893C233.311 86.0383 231.561 86.9356 230.135 88.2812L229.189 79.9283C231.053 78.9141 233.097 78.3284 235.188 78.2091V78.2091Z" fill="black"/>
<path opacity="0.3" d="M227.126 92.9746C226.288 95.2672 225.788 97.684 225.645 100.139L218.663 98.1508C219.022 94.9698 219.845 91.8678 221.103 88.9569L227.126 92.9746Z" fill="black"/>
<path d="M283.547 78.2091V85.6893C285.425 86.0383 287.175 86.9356 288.601 88.2811C289.923 89.5843 290.952 91.1888 291.609 92.9746C292.447 95.2672 292.947 97.684 293.091 100.139C293.306 103.349 293.165 106.576 292.67 109.751H300.271C300.588 105.887 300.521 101.999 300.072 98.1508C299.714 94.9698 298.89 91.8678 297.633 88.9569C295.431 84.0425 292.298 81.3765 289.547 79.9283C287.682 78.9141 285.638 78.3284 283.547 78.2091V78.2091Z" fill="black"/>
<path opacity="0.3" d="M283.547 78.2091V85.6893C285.425 86.0383 287.175 86.9356 288.601 88.2812L289.547 79.9283C287.682 78.9141 285.638 78.3284 283.547 78.2091V78.2091Z" fill="black"/>
<path opacity="0.3" d="M291.609 92.9746C292.447 95.2672 292.947 97.684 293.091 100.139L300.072 98.1508C299.714 94.9698 298.89 91.8678 297.633 88.9569L291.609 92.9746Z" fill="black"/>
<path opacity="0.1" d="M263.928 66.8858H254.807V67.556H263.928V66.8858Z" fill="black"/>
<path opacity="0.1" d="M279.046 76.6942V90.238C278.591 89.7158 278.339 89.0301 278.339 88.3183V78.612C278.339 77.9007 278.591 77.2156 279.046 76.6942V76.6942Z" fill="black"/>
<path opacity="0.1" d="M240.5 77.5872V87.726C240.454 88.3671 240.204 88.9723 239.791 89.4415V75.8717C240.204 76.3408 240.454 76.9461 240.5 77.5872V77.5872Z" fill="black"/>
<path opacity="0.1" d="M276.47 103.281H242.266V103.76H276.47V103.281Z" fill="black"/>
<path opacity="0.1" d="M258.227 113.794H241.505V114.166H258.227V113.794Z" fill="black"/>
<path opacity="0.1" d="M276.47 113.794H259.749V114.166H276.47V113.794Z" fill="black"/>
<path d="M245.988 17.0567H243.37V41.0068H245.988V17.0567Z" fill="black"/>
<path d="M276.001 17.0567H273.384V41.0068H276.001V17.0567Z" fill="black"/>
<path opacity="0.1" d="M244.592 20.3986C246.23 20.3986 247.558 18.9855 247.558 17.2424C247.558 15.4992 246.23 14.0862 244.592 14.0862C242.953 14.0862 241.625 15.4992 241.625 17.2424C241.625 18.9855 242.953 20.3986 244.592 20.3986Z" fill="black"/>
<path d="M244.592 20.2129C246.23 20.2129 247.558 18.7998 247.558 17.0567C247.558 15.3136 246.23 13.9005 244.592 13.9005C242.953 13.9005 241.625 15.3136 241.625 17.0567C241.625 18.7998 242.953 20.2129 244.592 20.2129Z" fill="black"/>
<path opacity="0.1" d="M274.78 20.3986C276.418 20.3986 277.746 18.9855 277.746 17.2424C277.746 15.4992 276.418 14.0862 274.78 14.0862C273.141 14.0862 271.813 15.4992 271.813 17.2424C271.813 18.9855 273.141 20.3986 274.78 20.3986Z" fill="black"/>
<path d="M274.78 20.2129C276.418 20.2129 277.746 18.7998 277.746 17.0567C277.746 15.3136 276.418 13.9005 274.78 13.9005C273.141 13.9005 271.813 15.3136 271.813 17.0567C271.813 18.7998 273.141 20.2129 274.78 20.2129Z" fill="black"/>
<path opacity="0.5" d="M213.055 155.817C211.888 157.06 211.622 158.768 211.207 160.351C210.023 164.871 207.236 169.041 203.352 172.104C200.506 174.347 196.692 176.831 197.366 180.178C197.527 180.978 197.953 181.725 198.065 182.531C198.549 186.022 193.534 187.862 191.592 190.917C190.145 193.192 190.532 196.012 190.962 198.604C191.488 201.777 192.124 205.162 194.571 207.497C195.231 208.128 196.018 208.675 196.479 209.435C197.51 211.138 196.614 213.37 197.552 215.116C198.803 217.445 202.742 217.546 205.029 215.976C207.315 214.406 208.372 211.824 209.385 209.404C212.123 202.862 215.49 196.299 221.181 191.535C226.638 186.968 234.576 183.425 235.512 176.777C235.914 173.926 234.896 170.802 236.45 168.291C237.184 167.104 238.411 166.225 239.242 165.091C241.718 161.712 239.875 156.825 236.25 154.426C230.776 150.804 217.816 150.745 213.055 155.817Z" fill="#DEE3F3"/>
<path d="M308.988 34.3653L284.872 42.3825L285.788 45.5032L309.904 37.486L308.988 34.3653Z" fill="black"/>
<path d="M319.725 155.824C319.725 155.824 306.503 153.011 302.978 149.26C299.452 145.508 283.586 138.944 281.823 143.633C280.06 148.322 258.024 164.265 273.009 167.078C287.993 169.892 308.266 170.83 312.673 168.954C317.081 167.078 319.725 155.824 319.725 155.824Z" fill="#A8A8A8"/>
<path opacity="0.2" d="M273.009 165.336C287.993 168.15 308.266 169.088 312.673 167.212C316.03 165.784 318.362 158.921 319.284 155.727C319.563 155.79 319.725 155.824 319.725 155.824C319.725 155.824 317.081 167.078 312.673 168.954C308.266 170.83 287.993 169.892 273.009 167.078C268.684 166.266 267.447 164.359 267.913 161.945C268.282 163.52 269.789 164.732 273.009 165.336Z" fill="black"/>
<path d="M349.087 33.1804C348.851 32.5558 348.475 32.0019 347.992 31.567C344.445 28.1265 338.707 29.1695 334.302 27.0679C333.287 26.5838 332.246 25.9121 331.144 26.0962C329.605 26.3531 328.175 28.2168 326.833 27.3899L326.929 27.7013C326.897 27.6846 326.865 27.6678 326.833 27.6481C327.162 28.7139 327.491 29.7797 327.82 30.8455C328.199 32.0731 328.598 33.3364 329.335 34.3586C328.245 35.3694 327.412 36.6546 326.91 38.0967C326.408 39.5389 326.254 41.0919 326.462 42.6137C326.67 44.1356 327.233 45.5776 328.1 46.808C328.967 48.0384 330.111 49.0178 331.425 49.6567C331.472 49.7637 331.518 49.8712 331.563 49.9797C331.605 49.9998 331.648 50.0171 331.69 50.0365C331.982 50.7515 332.201 51.4984 332.341 52.2637C331.199 52.4317 329.209 53.7749 327.251 55.7587L323.336 55.6162C320.806 55.5264 318.358 54.641 316.302 53.0718L304.595 44.1165C303.76 44.2037 302.974 44.5735 302.351 45.1714C300.898 43.5598 299.664 41.8761 299.769 40.8898C299.769 40.8898 294.324 30.0481 292.345 35.469C290.365 40.8898 296.057 46.5688 296.057 46.5688L299.668 51.5458C299.525 52.4182 299.435 53.2993 299.398 54.1838C303.852 59.6047 319.443 64.5093 319.443 64.5093L321.874 64.6345C321.879 64.682 321.883 64.7221 321.888 64.7616C321.738 65.4403 321.665 66.1355 321.67 66.8325C321.672 66.9326 321.673 67.0376 321.675 67.1424C321.674 67.2111 321.669 67.2803 321.67 67.3488C321.794 75.9964 322.907 102.455 322.907 102.455C323.124 102.353 323.348 102.259 323.576 102.17L323.402 104.52C323.402 104.52 313.009 106.069 305.337 109.167C297.665 112.265 297.418 115.878 297.418 115.878V147.767C295.226 148.963 291.769 150.536 289.994 149.694C288.067 148.781 287.009 149.548 286.818 150.349V150.349C286.779 150.507 286.776 150.672 286.81 150.831L286.812 150.841C286.828 150.912 286.853 150.981 286.886 151.045L286.893 151.06C286.929 151.127 286.973 151.189 287.024 151.243C287.766 152.018 303.852 158.729 307.564 157.697C307.679 157.665 307.791 157.624 307.901 157.576C307.936 157.56 307.968 157.539 308.003 157.522C308.071 157.488 308.141 157.454 308.205 157.414C308.243 157.39 308.277 157.361 308.314 157.334C308.369 157.295 308.426 157.257 308.478 157.213C308.514 157.182 308.546 157.147 308.581 157.114C308.629 157.069 308.677 157.025 308.722 156.976C308.754 156.94 308.783 156.9 308.814 156.863C308.856 156.811 308.899 156.761 308.938 156.706C308.966 156.666 308.991 156.623 309.018 156.582C309.055 156.524 309.093 156.467 309.127 156.405C309.151 156.363 309.172 156.318 309.195 156.275C309.228 156.21 309.262 156.146 309.292 156.078C309.311 156.034 309.329 155.989 309.347 155.944C309.377 155.872 309.406 155.8 309.432 155.726C309.448 155.682 309.462 155.637 309.476 155.592C309.502 155.513 309.528 155.434 309.551 155.352C309.563 155.309 309.573 155.266 309.584 155.223C309.607 155.136 309.629 155.048 309.648 154.959C309.657 154.919 309.664 154.879 309.672 154.839C309.691 154.743 309.71 154.648 309.726 154.55C309.732 154.514 309.737 154.478 309.742 154.442C309.758 154.338 309.772 154.233 309.785 154.128C309.789 154.097 309.792 154.067 309.795 154.036C309.807 153.923 309.818 153.81 309.827 153.695C309.829 153.671 309.831 153.647 309.832 153.623C309.841 153.501 309.848 153.378 309.854 153.255C309.854 153.239 309.855 153.222 309.856 153.206C309.861 153.075 309.864 152.943 309.866 152.812L309.866 152.787C309.861 151.247 309.7 149.712 309.388 148.208V148.208L310.286 121.041C315.147 121.122 320.008 120.931 324.85 120.47L325.382 133.432C325.382 133.432 325.382 141.95 328.104 145.822C330.434 149.136 333.126 163.791 333.854 167.95C332.854 169.979 330.94 172.488 327.609 172.41C327.609 172.41 321.341 171.834 321.695 173.668L321.696 173.671C321.705 173.719 321.719 173.766 321.735 173.812L321.739 173.824C321.759 173.877 321.781 173.928 321.807 173.977L321.813 173.988C321.838 174.035 321.867 174.084 321.9 174.134C321.906 174.144 321.913 174.154 321.92 174.165C321.956 174.219 321.996 174.274 322.042 174.331L322.053 174.345C322.095 174.397 322.141 174.45 322.19 174.504C322.204 174.519 322.218 174.534 322.232 174.55C322.288 174.61 322.347 174.67 322.412 174.734C325.63 177.831 344.437 178.347 344.437 178.347L344.437 178.336L344.437 178.328L344.437 178.289L344.437 178.278C344.437 178.258 344.437 178.233 344.436 178.206L344.436 178.195C344.425 177.299 344.313 172.595 343.187 169.055H343.448C343.448 169.055 340.725 142.983 338.498 139.885C338.498 139.885 337.906 126.138 339.242 117.522C339.324 117.49 339.407 117.459 339.488 117.427C345.727 114.948 346.17 108.843 345.527 104.357C346.707 104.76 347.407 105.037 347.407 105.037C347.407 105.037 347.386 104.842 347.345 104.496C347.385 104.512 347.407 104.52 347.407 104.52C347.407 104.52 347.288 103.701 347.092 102.421C346.646 98.9036 345.781 92.7566 344.861 89.8545C344.712 89.2165 344.57 88.6712 344.437 88.2579C343.906 86.514 343.541 84.7175 343.348 82.8957C343.096 80.535 342.968 78.1611 342.966 75.7852C342.986 72.6102 343.214 69.4406 343.65 66.2995C344.027 63.556 344.368 60.4358 344.339 58.257C344.365 57.4981 344.315 56.7385 344.19 55.9908C343.86 54.3821 342.401 53.3361 340.885 52.6705C340.787 52.6276 340.687 52.5924 340.588 52.5526C340.625 51.9428 340.673 51.2519 340.736 50.5235C340.918 50.6574 341.124 50.7506 341.34 50.7973C341.557 50.844 341.781 50.8433 341.997 50.7952C342.649 50.6433 343.117 50.0644 343.534 49.5199C345.727 46.6537 347.979 43.6662 348.822 40.1057C349.158 38.5155 349.314 36.888 349.285 35.2582C349.286 35.1691 349.286 35.0798 349.285 34.9903C349.318 34.3793 349.251 33.7668 349.087 33.1804V33.1804Z" fill="url(#paint0_linear)"/>
<path d="M329.117 47.1522C329.117 47.1522 332.44 52.4556 331.728 54.981C331.016 57.5064 339.561 55.9912 339.561 55.9912C339.561 55.9912 339.798 46.1421 341.46 43.8692C343.121 41.5963 329.117 47.1522 329.117 47.1522Z" fill="#F7C4A7"/>
<path d="M307.161 50.5616C307.161 50.5616 300.278 44.5006 300.515 42.2277C300.515 42.2277 295.294 31.621 293.395 36.9244C291.496 42.2277 296.955 47.7836 296.955 47.7836L303.601 57.1277L307.161 50.5616Z" fill="#F7C4A7"/>
<path d="M300.159 145.643C300.159 145.643 293.751 149.937 291.14 148.674C288.529 147.411 287.58 149.431 288.292 150.189C289.004 150.947 304.432 157.513 307.992 156.503C311.553 155.492 309.742 147.22 309.742 147.22L300.159 145.643Z" fill="#535461"/>
<path d="M334.101 164.079C334.101 164.079 332.559 171.024 327.218 170.897C327.218 170.897 319.148 170.14 322.234 173.17C325.319 176.201 343.358 176.706 343.358 176.706C343.358 176.706 343.358 166.352 340.035 164.079C336.712 161.806 334.101 164.079 334.101 164.079Z" fill="#535461"/>
<path d="M324.37 115.086L325.082 132.764C325.082 132.764 325.082 141.098 327.693 144.886C330.304 148.674 333.389 167.614 333.389 167.614H342.409C342.409 167.614 339.798 142.108 337.662 139.077C337.662 139.077 336.712 116.601 340.035 111.55L324.37 115.086Z" fill="#575988"/>
<path opacity="0.1" d="M324.37 115.086L325.082 132.764C325.082 132.764 325.082 141.098 327.693 144.886C330.304 148.674 333.389 167.614 333.389 167.614H342.409C342.409 167.614 339.798 142.108 337.662 139.077C337.662 139.077 336.712 116.601 340.035 111.55L324.37 115.086Z" fill="black"/>
<path d="M343.121 99.1758C343.121 99.1758 348.58 113.066 338.611 117.106C328.642 121.147 310.603 120.642 310.603 120.642L309.654 149.937C309.654 149.937 298.498 151.452 298.261 147.664V115.591C298.261 115.591 298.498 112.055 305.856 109.025C313.214 105.994 323.183 104.479 323.183 104.479L323.658 97.913L343.121 99.1758Z" fill="#575988"/>
<path opacity="0.1" d="M334.374 53.4192C336.27 53.1962 338.187 53.4847 339.951 54.2581C341.405 54.9092 342.804 55.9326 343.121 57.5064C343.496 59.3703 343.08 63.5505 342.603 67.0866C341.838 72.6314 341.741 78.2572 342.313 83.8282C342.558 86.1481 342.896 88.1713 343.358 89.0741C344.783 91.852 346.207 104.984 346.207 104.984C346.207 104.984 330.541 98.6707 322.708 102.459C322.708 102.459 321.64 76.5733 321.522 68.1132C321.43 61.5624 329.236 54.0971 331.847 53.8446C333.377 53.6966 332.853 53.587 334.374 53.4192Z" fill="black"/>
<path d="M334.374 52.9141C336.27 52.6911 338.187 52.9796 339.951 53.753C341.405 54.4041 342.804 55.4275 343.121 57.0014C343.496 58.8653 343.08 63.0454 342.603 66.5815C341.838 72.1263 341.741 77.7521 342.313 83.3231C342.498 85.1041 342.848 86.8613 343.358 88.569C344.426 91.9783 346.207 104.479 346.207 104.479C346.207 104.479 330.541 98.1656 322.708 101.954C322.708 101.954 321.64 76.0682 321.522 67.6081C321.43 61.0573 329.236 53.592 331.847 53.3395C333.377 53.1915 332.853 53.082 334.374 52.9141Z" fill="#E14B5A"/>
<path opacity="0.1" d="M338.611 66.8505L321.759 65.8403C321.759 65.8403 320.686 57.0497 323.119 57.1399L339.798 57.759C339.798 57.759 343.358 62.3047 338.611 66.8505Z" fill="black"/>
<path d="M338.611 66.3454L319.385 65.3352C319.385 65.3352 304.432 60.5369 300.159 55.2336C300.159 55.2336 300.397 45.8895 305.144 45.3845L316.373 54.1456C318.336 55.6772 320.686 56.5446 323.119 56.6349L339.798 57.2539C339.798 57.2539 343.358 61.7996 338.611 66.3454Z" fill="#E14B5A"/>
<path opacity="0.1" d="M339.442 48.2887C339.724 45.8939 340.745 45.0996 341.46 44.1217C343.121 41.8489 329.117 47.4048 329.117 47.4048C329.839 48.5884 330.472 49.8309 331.01 51.1206C332.128 51.6684 333.345 51.9516 334.576 51.9505C336.641 51.9505 337.965 49.5857 339.442 48.2887Z" fill="black"/>
<path d="M334.576 51.698C339.295 51.698 343.121 47.6276 343.121 42.6065C343.121 37.5854 339.295 33.515 334.576 33.515C329.857 33.515 326.031 37.5854 326.031 42.6065C326.031 47.6276 329.857 51.698 334.576 51.698Z" fill="#F7C4A7"/>
<path opacity="0.1" d="M329.18 36.234C328.27 35.1766 327.833 33.7659 327.42 32.4011L326.474 29.273C327.76 30.0819 329.133 28.2586 330.608 28.0072C331.665 27.8272 332.663 28.4843 333.637 28.9579C337.862 31.0139 343.366 29.9936 346.768 33.3595C347.233 33.7875 347.593 34.3291 347.818 34.9379C347.976 35.5154 348.04 36.1174 348.008 36.718C348.035 38.312 347.886 39.9038 347.563 41.4605C346.755 44.9438 344.595 47.8666 342.491 50.6706C342.092 51.2034 341.643 51.7697 341.018 51.9183C339.797 52.2085 338.852 50.8039 338.379 49.571C337.753 47.938 337.291 46.2391 337.002 44.5026C336.928 43.7599 336.738 43.0357 336.438 42.3605C335.702 40.9733 333.889 39.6606 332.787 38.586C331.704 37.5298 330.193 37.4103 329.18 36.234Z" fill="black"/>
<path d="M329.18 35.9815C328.27 34.9241 327.833 33.5134 327.42 32.1486L326.474 29.0204C327.76 29.8294 329.133 28.0061 330.608 27.7547C331.665 27.5747 332.663 28.2317 333.637 28.7054C337.862 30.7614 343.366 29.741 346.768 33.107C347.233 33.535 347.593 34.0766 347.818 34.6853C347.976 35.2629 348.04 35.8649 348.008 36.4655C348.035 38.0594 347.886 39.6513 347.563 41.208C346.755 44.6913 344.595 47.6141 342.491 50.4181C342.092 50.9508 341.643 51.5172 341.018 51.6658C339.797 51.956 338.852 50.5513 338.379 49.3185C337.753 47.6855 337.291 45.9866 337.002 44.2501C336.928 43.5074 336.738 42.7832 336.438 42.108C335.702 40.7207 333.889 39.408 332.787 38.3334C331.704 37.2772 330.193 37.1578 329.18 35.9815Z" fill="#632652"/>
<path d="M336.831 45.2582C337.224 45.2582 337.543 44.5233 337.543 43.6167C337.543 42.7101 337.224 41.9752 336.831 41.9752C336.438 41.9752 336.119 42.7101 336.119 43.6167C336.119 44.5233 336.438 45.2582 336.831 45.2582Z" fill="#F7C4A7"/>
<path opacity="0.1" d="M341.103 87.4326C341.103 87.4326 340.629 88.9478 338.255 88.6953C335.882 88.4428 328.998 87.9377 328.998 88.6953" fill="black"/>
<path opacity="0.5" d="M322.234 172.918C321.907 172.65 321.666 172.282 321.543 171.864C321.481 172.192 321.671 172.618 322.234 173.17C325.319 176.201 343.358 176.706 343.358 176.706C343.358 176.706 343.358 176.617 343.356 176.453C343.242 176.45 325.309 175.939 322.234 172.918Z" fill="white"/>
<path opacity="0.5" d="M307.992 155.998C304.432 157.008 289.004 150.442 288.292 149.684C288.196 149.582 288.128 149.454 288.094 149.315C288.053 149.466 288.049 149.626 288.084 149.78C288.119 149.933 288.19 150.074 288.292 150.189C289.004 150.947 304.432 157.513 307.992 156.503C309.825 155.983 310.233 153.539 310.199 151.29C310.164 153.387 309.688 155.516 307.992 155.998Z" fill="white"/>
<path d="M172.593 175.353C171.76 170.425 171.25 165.443 171.064 160.44V160.44C170.901 156.32 169.543 152.355 167.178 149.089C164.812 145.823 161.555 143.415 157.852 142.197C156.504 141.756 155.017 141.343 153.377 140.973C138.993 137.722 134.624 140.56 134.127 140.934C133.708 140.119 133.344 139.273 133.038 138.403C133.014 138.315 132.991 138.225 132.968 138.135C135.814 134.905 137.548 130.744 137.888 126.331C140.287 123.743 141.689 120.62 141.689 117.257C141.689 114.366 140.651 111.651 138.834 109.301V104.738C138.834 102.129 138.351 99.5443 137.413 97.1332C136.474 94.7221 135.098 92.5313 133.364 90.686C131.629 88.8406 129.57 87.3767 127.304 86.378C125.038 85.3793 122.609 84.8653 120.156 84.8653H118.642C116.189 84.8653 113.76 85.3793 111.494 86.378C109.228 87.3767 107.169 88.8406 105.434 90.686C103.7 92.5313 102.324 94.7221 101.385 97.1332C100.447 99.5443 99.9634 102.129 99.9634 104.738V109.664C98.3264 111.815 97.4169 114.49 97.3811 117.257C97.3811 120.549 98.7256 123.611 101.033 126.167C101.349 130.742 103.163 135.054 106.159 138.353C106.26 139.099 106.364 139.902 106.466 140.75L80.7318 146.54C80.7318 146.54 70.8102 146.974 64.4223 161.001C59.0145 172.876 48.2498 203.404 45.0738 212.493H45.0737L45.0737 212.493C44.4981 214.14 44.1714 215.084 44.1714 215.084C44.1714 215.084 44.2767 214.971 44.4789 214.777C44.279 215.352 44.1714 215.662 44.1714 215.662C44.1714 215.662 44.3276 215.494 44.6244 215.218C44.1737 219.022 44.1093 225.55 48.7924 226.363C52.718 227.045 62.8293 227.325 70.4704 227.44V227.448H71.0004C76.0638 227.52 79.9163 227.52 79.9163 227.52V227.448H162.075V226.552C162.076 225.738 161.922 224.933 161.623 224.184C161.662 224.136 161.7 224.087 161.737 224.038C162.177 224.656 162.469 225.377 162.59 226.141C162.581 226.216 162.568 226.29 162.551 226.363C162.551 226.363 162.568 226.317 162.6 226.23C162.619 226.468 162.603 226.709 162.551 226.942C162.551 226.942 173.092 198.044 172.979 180.79C173.01 178.968 172.881 177.148 172.593 175.353ZM106.888 144.651C106.752 143.827 106.665 142.995 106.627 142.159L106.628 142.136C106.719 142.947 106.806 143.789 106.888 144.651ZM74.9556 206.721V213.608L70.8978 214.531L74.9556 206.721Z" fill="url(#paint1_linear)"/>
<path d="M118.977 87.6447H118.977C123.931 87.6447 128.682 89.7385 132.185 93.4654C135.687 97.1923 137.655 102.247 137.655 107.518V115.995H100.299V107.518C100.299 102.247 102.267 97.1923 105.77 93.4654C109.273 89.7385 114.023 87.6447 118.977 87.6447V87.6447Z" fill="#E14B5A"/>
<path d="M119.108 134.339C130.866 134.339 140.398 127.371 140.398 118.775C140.398 110.178 130.866 103.21 119.108 103.21C107.349 103.21 97.8173 110.178 97.8173 118.775C97.8173 127.371 107.349 134.339 119.108 134.339Z" fill="#E14B5A"/>
<path d="M105.458 133.853C105.458 133.853 109.899 158.59 105.458 165.261C101.017 171.931 119.042 174.572 119.042 174.572L137.721 167.345L140.333 149.557C140.333 149.557 128.969 142.747 131.32 128.989L105.458 133.853Z" fill="#F7C4A7"/>
<path d="M160.578 217.236C160.578 217.236 161.754 222.656 155.354 223.629C151.574 224.221 147.73 224.172 143.965 223.485L142.553 209.871H157.444L160.578 217.236Z" fill="#F7C4A7"/>
<path d="M47.5483 210.299C47.5483 210.299 44.7218 222.517 51.122 223.629C57.5223 224.741 81.0331 224.741 81.0331 224.741V210.288L70.3899 212.706L60.3958 202.505L47.5483 210.299Z" fill="#F7C4A7"/>
<path opacity="0.1" d="M106.83 141.844L81.8168 147.472C81.8168 147.472 72.2819 147.889 66.1429 161.369C60.0039 174.85 46.6811 213.345 46.6811 213.345C46.6811 213.345 58.0447 201.116 71.3675 214.179L80.2494 197.085L78.2902 224.185H147.125V211.399C147.125 211.399 161.493 219.599 160.448 224.185C160.448 224.185 172.743 190.48 170.098 175.162C169.298 170.427 168.807 165.638 168.629 160.831V160.831C168.472 156.871 167.168 153.061 164.894 149.922C162.621 146.783 159.49 144.469 155.932 143.299C154.636 142.874 153.207 142.478 151.631 142.122C136.872 138.787 133.084 142.122 133.084 142.122C133.084 142.122 130.225 152.02 130.275 156.505C130.341 162.273 122.569 166.095 122.569 166.095C122.569 166.095 111.075 163.176 110.552 160.814C110.03 158.451 105.916 144.623 106.83 141.844Z" fill="black"/>
<path d="M106.83 141.288L81.8168 146.916C81.8168 146.916 72.2818 147.333 66.1429 160.814C60.004 174.294 46.6811 212.789 46.6811 212.789C46.6811 212.789 58.0447 200.56 71.3675 213.623L80.2494 196.529L78.2902 223.629H147.125V210.844C147.125 210.844 161.493 219.043 160.448 223.629C160.448 223.629 172.743 189.924 170.098 174.606C169.298 169.871 168.807 165.082 168.629 160.275V160.275C168.472 156.315 167.168 152.505 164.894 149.366C162.621 146.227 159.49 143.913 155.932 142.743C154.636 142.318 153.207 141.922 151.631 141.566C136.872 138.231 133.084 141.566 133.084 141.566C133.084 141.566 130.225 151.464 130.275 155.95C130.341 161.717 122.569 165.539 122.569 165.539C122.569 165.539 111.075 162.62 110.552 160.258C110.03 157.895 105.916 144.067 106.83 141.288Z" fill="#575988"/>
<path opacity="0.1" d="M132.394 140.107C131.343 136.942 131.108 133.535 131.712 130.24L105.85 135.104C105.85 135.104 106.224 137.183 106.645 140.299C108.317 142.144 110.323 143.608 112.543 144.602C114.763 145.597 117.15 146.1 119.558 146.082C121.967 146.064 124.347 145.525 126.553 144.498C128.76 143.471 130.747 141.977 132.394 140.107V140.107Z" fill="black"/>
<path d="M136.806 125.932C136.806 130.905 134.964 135.677 131.679 139.215C128.395 142.753 123.932 144.77 119.258 144.831C114.584 144.891 110.077 142.989 106.712 139.537C103.348 136.085 101.397 131.362 101.284 126.39C101.28 126.237 101.279 126.084 101.279 125.932C101.278 122.393 102.211 118.925 103.972 115.922C105.732 112.92 108.249 110.503 111.237 108.948C111.77 108.671 112.317 108.422 112.879 108.2C115.803 107.057 118.957 106.745 122.028 107.297C122.03 107.298 122.033 107.299 122.035 107.298C125.97 108.011 129.564 110.114 132.237 113.268C134.91 116.422 136.506 120.442 136.767 124.679C136.793 125.094 136.806 125.511 136.806 125.932Z" fill="#F7C4A7"/>
<g opacity="0.1">
<path opacity="0.1" d="M112.854 108.643C112.862 108.637 112.87 108.632 112.879 108.627C112.317 108.848 111.77 109.097 111.237 109.374C108.249 110.93 105.732 113.346 103.972 116.349C102.211 119.351 101.278 122.819 101.279 126.358C101.279 126.511 101.28 126.664 101.284 126.817C101.836 126.801 102.379 126.662 102.877 126.41C107.209 124.26 109.807 117.679 110.827 113.09C111.192 111.448 111.542 109.597 112.854 108.643Z" fill="black"/>
<path opacity="0.1" d="M126.451 109.174C125.045 108.487 123.56 108 122.035 107.725C123.286 108.031 124.404 108.778 125.206 109.844C125.599 110.414 125.925 111.032 126.177 111.686C123.813 110.586 121.253 110.046 118.673 110.103C116.093 110.16 113.556 110.812 111.237 112.015C112.352 114.615 115.81 116.034 118.118 116.983C120.645 118.021 123.202 118.971 125.789 119.831C125.027 119.172 124.266 118.514 123.504 117.857C125.223 118.148 126.943 118.439 128.662 118.73C128.718 117.638 128.596 116.543 128.302 115.495C129.284 116.342 130.601 116.626 131.673 117.346C133.683 118.694 134.519 121.296 135.615 123.539C135.869 124.156 136.265 124.695 136.767 125.106C136.555 121.708 135.485 118.434 133.669 115.63C131.853 112.826 129.36 110.596 126.451 109.174Z" fill="black"/>
</g>
<path d="M112.854 108.217C112.862 108.211 112.87 108.205 112.879 108.2C112.317 108.421 111.77 108.67 111.237 108.948C108.249 110.503 105.732 112.92 103.972 115.922C102.211 118.925 101.278 122.393 101.279 125.932C101.279 126.084 101.28 126.237 101.284 126.39C101.836 126.375 102.379 126.236 102.877 125.983C107.209 123.833 109.807 117.253 110.827 112.664C111.192 111.021 111.542 109.17 112.854 108.217Z" fill="#632652"/>
<path d="M126.451 108.748C125.045 108.06 123.56 107.573 122.035 107.298C123.286 107.604 124.404 108.351 125.206 109.418C125.599 109.987 125.925 110.605 126.177 111.259C123.813 110.159 121.253 109.619 118.673 109.676C116.093 109.733 113.556 110.385 111.237 111.588C112.352 114.188 115.81 115.607 118.118 116.557C120.645 117.595 123.202 118.544 125.789 119.404C125.027 118.745 124.266 118.088 123.504 117.431C125.223 117.721 126.943 118.012 128.662 118.303C128.718 117.211 128.596 116.117 128.302 115.068C129.284 115.916 130.601 116.2 131.673 116.919C133.683 118.267 134.519 120.869 135.615 123.112C135.869 123.729 136.265 124.269 136.767 124.679C136.555 121.282 135.485 118.008 133.669 115.203C131.853 112.399 129.36 110.169 126.451 108.748V108.748Z" fill="#632652"/>
<path opacity="0.1" d="M99.2541 122.815C99.2541 122.815 117.54 98.6334 138.7 122.815L136.872 117.395C136.872 117.395 126.945 101.969 119.891 105.304C112.838 108.639 105.916 111.002 105.916 111.002L99.2541 122.815Z" fill="black"/>
<path d="M99.2541 122.388C99.2541 122.388 117.54 98.2066 138.7 122.388L136.872 116.968C136.872 116.968 126.945 101.542 119.891 104.877C112.838 108.213 105.916 110.575 105.916 110.575L99.2541 122.388Z" fill="#E14B5A"/>
<path opacity="0.1" d="M84.2332 174.502C84.2332 174.502 80.3147 185.62 85.8006 195.626C91.2865 205.632 80.9678 209.801 80.9678 209.801" fill="black"/>
<path opacity="0.1" d="M147.713 164.496C147.713 164.496 154.505 173.669 150.064 181.868C145.623 190.067 145.884 209.801 145.884 209.801" fill="black"/>
<path d="M78.2249 218.001H153.721C155.384 218.001 156.979 218.703 158.154 219.954C159.33 221.205 159.991 222.902 159.991 224.671V224.671H71.9553C71.9553 222.902 72.6159 221.205 73.7916 219.954C74.9674 218.703 76.5621 218.001 78.2249 218.001H78.2249Z" fill="#535461"/>
<path d="M89.5815 172.14H142.365C145.896 172.14 149.283 173.632 151.78 176.289C154.277 178.946 155.68 182.55 155.68 186.308V219.529H76.2657V186.308C76.2657 182.55 77.6686 178.946 80.1658 176.289C82.663 173.632 86.0499 172.14 89.5815 172.14V172.14Z" fill="#535461"/>
<path d="M115.908 202.922C118.505 202.922 120.61 200.682 120.61 197.919C120.61 195.156 118.505 192.916 115.908 192.916C113.311 192.916 111.206 195.156 111.206 197.919C111.206 200.682 113.311 202.922 115.908 202.922Z" fill="white"/>
<path opacity="0.1" d="M100.299 111.477C100.299 111.477 118.272 92.3647 137.655 111.128" stroke="black" stroke-miterlimit="10"/>
<path d="M142.197 110.259H140.392V121.143H142.197V110.259Z" fill="#6A5C99"/>
<path d="M137.985 117.301C139.634 117.301 141.216 117.998 142.382 119.239C143.548 120.48 144.203 122.162 144.203 123.917V124.343C144.203 126.098 143.548 127.781 142.382 129.021C141.216 130.262 139.634 130.959 137.985 130.959V117.301Z" fill="#FFD037"/>
<path d="M138.186 116.661H138.186C137.41 116.661 136.782 117.33 136.782 118.155V130.105C136.782 130.93 137.41 131.599 138.186 131.599H138.186C138.961 131.599 139.59 130.93 139.59 130.105V118.155C139.59 117.33 138.961 116.661 138.186 116.661Z" fill="#6A5C99"/>
<path d="M95.5731 121.356H97.3782V110.473H95.5731V121.356Z" fill="#6A5C99"/>
<path d="M99.785 131.172C98.136 131.172 96.5546 130.475 95.3886 129.235C94.2226 127.994 93.5675 126.311 93.5675 124.557V124.13C93.5675 122.376 94.2226 120.693 95.3886 119.452C96.5546 118.212 98.136 117.515 99.785 117.515V131.172Z" fill="#FFD037"/>
<path d="M99.5844 131.812H99.5844C100.36 131.812 100.988 131.144 100.988 130.319V118.368C100.988 117.543 100.36 116.875 99.5844 116.875H99.5844C98.809 116.875 98.1805 117.543 98.1805 118.368V130.319C98.1805 131.144 98.809 131.812 99.5844 131.812Z" fill="#6A5C99"/>
<path d="M140.178 98.6267C137.734 93.2197 132.411 86.6824 120.936 86.1606L120.937 86.1457L120.799 86.1527L120.79 86.1522L120.79 86.1532L116.725 86.3591L116.726 86.3803C105.327 86.9386 100.028 93.4503 97.5921 98.8402C95.9719 102.491 95.1123 106.472 95.0721 110.509L96.4757 110.473L97.8792 110.439C97.9406 106.84 98.7197 103.296 100.165 100.042C103.26 93.2796 108.953 89.6826 117.087 89.3508L117.087 89.3482L120.683 89.1364L120.683 89.1375C128.817 89.4692 134.51 93.0662 137.605 99.8284C139.05 103.083 139.83 106.626 139.891 110.225L141.294 110.259L142.698 110.296C142.658 106.259 141.798 102.278 140.178 98.6267V98.6267Z" fill="#FFD037"/>
<path d="M204.31 224.759H12.8429V279.455H204.31V224.759Z" fill="#D6D6E3"/>
<path opacity="0.1" d="M204.31 228.441H12.8429V235.54H204.31V228.441Z" fill="black"/>
<path d="M217.152 223.97H0V231.07H217.152V223.97Z" fill="#D6D6E3"/>
<path d="M148.695 206.314C148.695 206.314 156.889 222.298 177.375 217.939C197.861 213.579 187.959 258.262 187.959 258.262C187.959 258.262 184.608 279.577 186.966 279.455" stroke="#535461" stroke-width="3" stroke-miterlimit="10"/>
</g>
<defs>
<linearGradient id="paint0_linear" x1="318.036" y1="178.347" x2="318.036" y2="26.0651" gradientUnits="userSpaceOnUse">
<stop stop-color="#808080" stop-opacity="0.25"/>
<stop offset="0.53514" stop-color="#808080" stop-opacity="0.12"/>
<stop offset="1" stop-color="#808080" stop-opacity="0.1"/>
</linearGradient>
<linearGradient id="paint1_linear" x1="45858.1" y1="98755.1" x2="45858.1" y2="42735.6" gradientUnits="userSpaceOnUse">
<stop stop-color="#808080" stop-opacity="0.25"/>
<stop offset="0.53514" stop-color="#808080" stop-opacity="0.12"/>
<stop offset="1" stop-color="#808080" stop-opacity="0.1"/>
</linearGradient>
<clipPath id="clip0">
<rect width="384" height="280" fill="white"/>
</clipPath>
</defs>
</svg>
