<svg width="265" height="174" viewBox="0 0 265 174" fill="none" xmlns="http://www.w3.org/2000/svg">
<rect width="265" height="174" fill="#E5E5E5"/>
<g id="undraw_pitching_36ol 1" clip-path="url(#clip0)">
<path id="Vector" d="M262.146 114.214H77.6883C76.9317 114.213 76.2063 113.892 75.6713 113.322C75.1363 112.752 74.8354 111.979 74.8345 111.173V3.04063C74.8354 2.23448 75.1363 1.46162 75.6713 0.891585C76.2063 0.321553 76.9317 0.000910292 77.6883 0H262.146C262.903 0.000910292 263.628 0.321553 264.163 0.891585C264.698 1.46162 264.999 2.23448 265 3.04063V111.173C264.999 111.979 264.698 112.752 264.163 113.322C263.628 113.892 262.903 114.213 262.146 114.214V114.214Z" fill="#E6E6E6"/>
<path id="Vector_2" d="M258.255 110.068H81.5798C80.8232 110.067 80.0978 109.746 79.5628 109.176C79.0278 108.606 78.7269 107.833 78.726 107.027V7.18697C78.7269 6.38082 79.0278 5.60795 79.5628 5.03792C80.0978 4.46789 80.8232 4.14724 81.5798 4.14633H258.255C259.011 4.14724 259.737 4.46789 260.272 5.03792C260.807 5.60795 261.108 6.38082 261.108 7.18697V107.027C261.108 107.833 260.807 108.606 260.272 109.176C259.737 109.746 259.011 110.067 258.255 110.068V110.068Z" fill="white"/>
<path id="Vector_3" d="M131.018 65.7494H97.779C97.4118 65.7489 97.0598 65.5933 96.8002 65.3167C96.5406 65.0401 96.3945 64.665 96.3941 64.2738V27.3906C96.3945 26.9994 96.5406 26.6243 96.8002 26.3477C97.0598 26.071 97.4118 25.9154 97.779 25.915H131.018C131.385 25.9154 131.737 26.071 131.996 26.3477C132.256 26.6243 132.402 26.9994 132.403 27.3906V64.2738C132.402 64.665 132.256 65.0401 131.996 65.3167C131.737 65.5933 131.385 65.7489 131.018 65.7494V65.7494ZM97.779 26.5052C97.5587 26.5055 97.3475 26.5988 97.1917 26.7648C97.0359 26.9308 96.9483 27.1559 96.948 27.3906V64.2738C96.9483 64.5085 97.0359 64.7336 97.1917 64.8995C97.3475 65.0655 97.5587 65.1589 97.779 65.1592H131.018C131.238 65.1589 131.449 65.0655 131.605 64.8995C131.761 64.7336 131.848 64.5085 131.849 64.2738V27.3906C131.848 27.1559 131.761 26.9308 131.605 26.7648C131.449 26.5988 131.238 26.5055 131.018 26.5052H97.779Z" fill="#3F3D56"/>
<path id="Vector_4" d="M186.537 65.7494H153.298C152.931 65.7489 152.579 65.5933 152.319 65.3167C152.06 65.0401 151.914 64.665 151.913 64.2738V27.3906C151.914 26.9994 152.06 26.6243 152.319 26.3477C152.579 26.071 152.931 25.9154 153.298 25.915H186.537C186.904 25.9154 187.256 26.071 187.515 26.3477C187.775 26.6243 187.921 26.9994 187.921 27.3906V64.2738C187.921 64.665 187.775 65.0401 187.515 65.3167C187.256 65.5933 186.904 65.7489 186.537 65.7494V65.7494ZM153.298 26.5052C153.078 26.5055 152.866 26.5988 152.711 26.7648C152.555 26.9308 152.467 27.1559 152.467 27.3906V64.2738C152.467 64.5085 152.555 64.7336 152.711 64.8995C152.866 65.0655 153.078 65.1589 153.298 65.1592H186.537C186.757 65.1589 186.968 65.0655 187.124 64.8995C187.28 64.7336 187.367 64.5085 187.368 64.2738V27.3906C187.367 27.1559 187.28 26.9308 187.124 26.7648C186.968 26.5988 186.757 26.5055 186.537 26.5052H153.298Z" fill="#3F3D56"/>
<path id="Vector_5" d="M242.056 65.7494H208.817C208.45 65.7489 208.098 65.5933 207.838 65.3167C207.579 65.0401 207.432 64.665 207.432 64.2738V27.3906C207.432 26.9994 207.579 26.6243 207.838 26.3477C208.098 26.071 208.45 25.9154 208.817 25.915H242.056C242.423 25.9154 242.775 26.071 243.034 26.3477C243.294 26.6243 243.44 26.9994 243.44 27.3906V64.2738C243.44 64.665 243.294 65.0401 243.034 65.3167C242.775 65.5933 242.423 65.7489 242.056 65.7494ZM208.817 26.5052C208.597 26.5055 208.385 26.5988 208.23 26.7648C208.074 26.9308 207.986 27.1559 207.986 27.3906V64.2738C207.986 64.5085 208.074 64.7336 208.23 64.8995C208.385 65.0655 208.597 65.1589 208.817 65.1592H242.056C242.276 65.1589 242.487 65.0655 242.643 64.8995C242.799 64.7336 242.886 64.5085 242.886 64.2738V27.3906C242.886 27.1559 242.799 26.9308 242.643 26.7648C242.487 26.5988 242.276 26.5055 242.056 26.5052H208.817Z" fill="#3F3D56"/>
<path id="Vector_6" d="M107.98 88.299C108.103 88.2992 108.226 88.2735 108.34 88.2233C108.454 88.173 108.558 88.0993 108.646 88.0062C108.733 87.9132 108.803 87.8026 108.85 87.681C108.897 87.5593 108.922 87.4289 108.922 87.2972C108.922 87.1655 108.897 87.0351 108.85 86.9134C108.803 86.7917 108.733 86.6812 108.646 86.5882C108.558 86.4951 108.454 86.4214 108.34 86.3711C108.226 86.3209 108.103 86.2951 107.98 86.2954H99.5431C99.2937 86.2954 99.0545 86.4009 98.8782 86.5888C98.7019 86.7767 98.6028 87.0315 98.6028 87.2972C98.6028 87.5629 98.7019 87.8177 98.8782 88.0056C99.0545 88.1935 99.2937 88.299 99.5431 88.299H107.98Z" fill="#E6E6E6"/>
<path id="Vector_7" d="M129.253 82.3965C129.503 82.3965 129.742 82.291 129.918 82.1031C130.095 81.9152 130.194 81.6604 130.194 81.3947C130.194 81.129 130.095 80.8742 129.918 80.6863C129.742 80.4984 129.503 80.3929 129.253 80.3929H99.5431C99.2937 80.3929 99.0545 80.4984 98.8782 80.6863C98.7019 80.8742 98.6028 81.129 98.6028 81.3947C98.6028 81.6604 98.7019 81.9152 98.8782 82.1031C99.0545 82.291 99.2937 82.3965 99.5431 82.3965H129.253Z" fill="#E6E6E6"/>
<path id="Vector_8" d="M163.499 88.299C163.748 88.2985 163.987 88.1928 164.163 88.0049C164.339 87.8171 164.437 87.5626 164.437 87.2972C164.437 87.0318 164.339 86.7772 164.163 86.5894C163.987 86.4016 163.748 86.2958 163.499 86.2954H155.062C154.813 86.2954 154.574 86.4009 154.397 86.5888C154.221 86.7767 154.122 87.0315 154.122 87.2972C154.122 87.5629 154.221 87.8177 154.397 88.0056C154.574 88.1934 154.813 88.299 155.062 88.299H163.499Z" fill="#E6E6E6"/>
<path id="Vector_9" d="M184.772 82.3965C185.022 82.3965 185.261 82.291 185.437 82.1031C185.614 81.9152 185.713 81.6604 185.713 81.3947C185.713 81.129 185.614 80.8742 185.437 80.6863C185.261 80.4984 185.022 80.3929 184.772 80.3929H155.062C154.813 80.3929 154.574 80.4984 154.397 80.6863C154.221 80.8742 154.122 81.129 154.122 81.3947C154.122 81.6604 154.221 81.9152 154.397 82.1031C154.574 82.291 154.813 82.3965 155.062 82.3965H184.772Z" fill="#E6E6E6"/>
<path id="Vector_10" d="M219.018 88.299C219.267 88.2985 219.506 88.1928 219.682 88.005C219.858 87.8171 219.956 87.5626 219.956 87.2972C219.956 87.0318 219.858 86.7772 219.682 86.5894C219.506 86.4016 219.267 86.2958 219.018 86.2954H210.581C210.457 86.2951 210.335 86.3209 210.221 86.3711C210.106 86.4214 210.003 86.4951 209.915 86.5882C209.828 86.6812 209.758 86.7917 209.711 86.9134C209.664 87.0351 209.639 87.1655 209.639 87.2972C209.639 87.4289 209.664 87.5593 209.711 87.681C209.758 87.8026 209.828 87.9132 209.915 88.0062C210.003 88.0993 210.106 88.173 210.221 88.2233C210.335 88.2735 210.457 88.2992 210.581 88.299H219.018Z" fill="#E6E6E6"/>
<path id="Vector_11" d="M240.291 82.3965C240.541 82.3965 240.78 82.291 240.956 82.1031C241.133 81.9152 241.232 81.6604 241.232 81.3947C241.232 81.129 241.133 80.8742 240.956 80.6863C240.78 80.4984 240.541 80.3929 240.291 80.3929H210.581C210.332 80.3929 210.092 80.4984 209.916 80.6863C209.74 80.8742 209.641 81.129 209.641 81.3947C209.641 81.6604 209.74 81.9152 209.916 82.1031C210.092 82.291 210.332 82.3965 210.581 82.3965H240.291Z" fill="#E6E6E6"/>
<path id="Vector_12" d="M129.254 76.5917C129.377 76.5919 129.5 76.5662 129.614 76.5159C129.728 76.4657 129.832 76.3919 129.919 76.2989C130.007 76.2058 130.076 76.0953 130.124 75.9736C130.171 75.852 130.195 75.7216 130.195 75.5899C130.195 75.4582 130.171 75.3277 130.124 75.2061C130.076 75.0844 130.007 74.9739 129.919 74.8809C129.832 74.7878 129.728 74.714 129.614 74.6638C129.5 74.6136 129.377 74.5878 129.254 74.5881H99.5431C99.2937 74.5881 99.0545 74.6936 98.8782 74.8815C98.7019 75.0694 98.6028 75.3242 98.6028 75.5899C98.6028 75.8556 98.7019 76.1104 98.8782 76.2982C99.0545 76.4861 99.2937 76.5917 99.5431 76.5917H129.254Z" fill="black"/>
<path id="Vector_13" d="M184.772 76.5917C185.022 76.5912 185.26 76.4855 185.436 76.2976C185.612 76.1098 185.711 75.8553 185.711 75.5899C185.711 75.3245 185.612 75.0699 185.436 74.8821C185.26 74.6943 185.022 74.5885 184.772 74.5881H155.062C154.813 74.5881 154.574 74.6936 154.397 74.8815C154.221 75.0693 154.122 75.3242 154.122 75.5899C154.122 75.8556 154.221 76.1104 154.397 76.2983C154.574 76.4861 154.813 76.5917 155.062 76.5917H184.772Z" fill="black"/>
<path id="Vector_14" d="M240.291 76.5917C240.541 76.5917 240.78 76.4861 240.956 76.2982C241.133 76.1104 241.232 75.8556 241.232 75.5899C241.232 75.3242 241.133 75.0694 240.956 74.8815C240.78 74.6936 240.541 74.5881 240.291 74.5881H210.581C210.457 74.5878 210.335 74.6136 210.221 74.6638C210.106 74.714 210.003 74.7878 209.915 74.8809C209.828 74.9739 209.758 75.0844 209.711 75.2061C209.664 75.3277 209.639 75.4582 209.639 75.5899C209.639 75.7216 209.664 75.852 209.711 75.9736C209.758 76.0953 209.828 76.2058 209.915 76.2989C210.003 76.3919 210.106 76.4657 210.221 76.5159C210.335 76.5662 210.457 76.5919 210.581 76.5917H240.291Z" fill="black"/>
<path id="Vector_15" d="M123.935 58.6014C124.184 58.6014 124.424 58.4958 124.6 58.3079C124.776 58.1201 124.875 57.8652 124.875 57.5996C124.875 57.3339 124.776 57.079 124.6 56.8912C124.424 56.7033 124.184 56.5977 123.935 56.5977H104.861C104.612 56.5977 104.373 56.7033 104.197 56.8912C104.02 57.079 103.921 57.3339 103.921 57.5996C103.921 57.8652 104.02 58.1201 104.197 58.3079C104.373 58.4958 104.612 58.6014 104.861 58.6014H123.935Z" fill="#E6E6E6"/>
<path id="Vector_16" d="M123.935 52.6989C124.184 52.6989 124.424 52.5934 124.6 52.4055C124.776 52.2176 124.875 51.9628 124.875 51.6971C124.875 51.4314 124.776 51.1766 124.6 50.9887C124.424 50.8008 124.184 50.6953 123.935 50.6953H104.861C104.612 50.6953 104.373 50.8008 104.197 50.9887C104.02 51.1766 103.921 51.4314 103.921 51.6971C103.921 51.9628 104.02 52.2176 104.197 52.4055C104.373 52.5934 104.612 52.6989 104.861 52.6989H123.935Z" fill="#E6E6E6"/>
<g id="Vector_17" style="mix-blend-mode:darken">
<path d="M114.398 45.7784C117.694 45.7784 120.365 42.932 120.365 39.4207C120.365 35.9095 117.694 33.063 114.398 33.063C111.103 33.063 108.431 35.9095 108.431 39.4207C108.431 42.932 111.103 45.7784 114.398 45.7784Z" fill="black"/>
</g>
<path id="Vector_18" d="M179.454 58.6014C179.703 58.6014 179.943 58.4958 180.119 58.3079C180.295 58.1201 180.394 57.8652 180.394 57.5996C180.394 57.3339 180.295 57.079 180.119 56.8912C179.943 56.7033 179.703 56.5977 179.454 56.5977H160.38C160.131 56.5977 159.892 56.7033 159.716 56.8912C159.539 57.079 159.44 57.3339 159.44 57.5996C159.44 57.8652 159.539 58.1201 159.716 58.3079C159.892 58.4958 160.131 58.6014 160.38 58.6014H179.454Z" fill="#E6E6E6"/>
<path id="Vector_19" d="M179.454 52.6989C179.703 52.6989 179.943 52.5934 180.119 52.4055C180.295 52.2176 180.394 51.9628 180.394 51.6971C180.394 51.4314 180.295 51.1766 180.119 50.9887C179.943 50.8008 179.703 50.6953 179.454 50.6953H160.38C160.131 50.6953 159.892 50.8008 159.716 50.9887C159.539 51.1766 159.44 51.4314 159.44 51.6971C159.44 51.9628 159.539 52.2176 159.716 52.4055C159.892 52.5934 160.131 52.6989 160.38 52.6989H179.454Z" fill="#E6E6E6"/>
<path id="Vector_20" d="M169.917 45.7784C173.213 45.7784 175.884 42.932 175.884 39.4207C175.884 35.9095 173.213 33.063 169.917 33.063C166.622 33.063 163.95 35.9095 163.95 39.4207C163.95 42.932 166.622 45.7784 169.917 45.7784Z" fill="black"/>
<path id="Vector_21" d="M234.973 58.6014C235.222 58.6014 235.462 58.4958 235.638 58.3079C235.814 58.1201 235.913 57.8652 235.913 57.5996C235.913 57.3339 235.814 57.079 235.638 56.8912C235.462 56.7033 235.222 56.5977 234.973 56.5977H215.899C215.65 56.5977 215.411 56.7033 215.235 56.8912C215.058 57.079 214.959 57.3339 214.959 57.5996C214.959 57.8652 215.058 58.1201 215.235 58.3079C215.411 58.4958 215.65 58.6014 215.899 58.6014H234.973Z" fill="#E6E6E6"/>
<path id="Vector_22" d="M234.973 52.6989C235.222 52.6989 235.462 52.5934 235.638 52.4055C235.814 52.2176 235.913 51.9628 235.913 51.6971C235.913 51.4314 235.814 51.1766 235.638 50.9887C235.462 50.8008 235.222 50.6953 234.973 50.6953H215.899C215.65 50.6953 215.411 50.8008 215.235 50.9887C215.058 51.1766 214.959 51.4314 214.959 51.6971C214.959 51.9628 215.058 52.2176 215.235 52.4055C215.411 52.5934 215.65 52.6989 215.899 52.6989H234.973Z" fill="#E6E6E6"/>
<path id="Vector_23" d="M225.436 45.7784C228.732 45.7784 231.403 42.932 231.403 39.4207C231.403 35.9095 228.732 33.063 225.436 33.063C222.141 33.063 219.469 35.9095 219.469 39.4207C219.469 42.932 222.141 45.7784 225.436 45.7784Z" fill="black"/>
<path id="Vector_24" d="M44.33 147.732L47.5268 149.59L45.4924 156.711L42.2959 157.021L40.5521 152.996L44.33 147.732Z" fill="#FFB9B9"/>
<path id="Vector_25" d="M34.4492 161.975V165.381L29.5089 165.072L29.5777 162.266L34.4492 161.975Z" fill="#FFB9B9"/>
<path id="Vector_26" d="M45.4924 106.859L43.7489 130.082L38.2272 164.143L29.5089 162.904L32.4149 135.965L31.2524 111.194L45.4924 106.859Z" fill="#2F2E41"/>
<path id="Vector_27" d="M22.2435 89.5193L43.1676 89.8289L45.4925 106.859L31.2524 113.981L27.7651 127.605L45.4925 147.732L38.5178 157.021C38.5178 157.021 28.6369 142.777 21.3716 134.727C14.1063 126.676 17.5937 102.215 17.5937 102.215L22.2435 89.5193Z" fill="#2F2E41"/>
<path id="Vector_28" d="M34.7398 45.5503C38.2708 45.5503 41.1333 42.5004 41.1333 38.7382C41.1333 34.976 38.2708 31.9261 34.7398 31.9261C31.2088 31.9261 28.3463 34.976 28.3463 38.7382C28.3463 42.5004 31.2088 45.5503 34.7398 45.5503Z" fill="#FFB9B9"/>
<path id="Vector_29" d="M37.0647 43.3828V50.1949L32.7055 57.6263C32.7055 57.6263 26.0215 52.3624 27.4745 51.1238C28.9276 49.8853 29.2182 40.2864 29.2182 40.2864L37.0647 43.3828Z" fill="#FFB9B9"/>
<path id="Vector_30" d="M37.0647 48.9565L41.424 54.5299L39.6802 93.2348L26.0215 92.9253L23.6966 59.1746L26.6026 50.5046L28.5961 47.6148L32.1243 53.2913L37.0647 48.9565Z" fill="white"/>
<path id="Vector_31" d="M44.0394 69.083L47.2362 82.0879L44.0394 95.0928L49.2704 102.524L53.9203 78.9915C53.9203 78.9915 50.4329 59.7938 50.1423 57.6263C49.8517 55.4588 49.2704 55.1491 49.2704 55.1491L46.9455 55.4588L44.0394 69.083Z" fill="#2F2E41"/>
<path id="Vector_32" d="M20.7906 74.0371L18.7562 78.0627L18.1749 84.8747L19.3373 92.6157L15.2689 99.7375L11.2004 80.23L15.5594 55.149H17.3032L20.7906 74.0371Z" fill="#2F2E41"/>
<path id="Vector_33" d="M45.4925 147.422C45.4925 147.422 49.5611 148.661 51.0141 148.97C52.4672 149.28 50.1423 155.163 50.1423 155.163C50.1423 155.163 48.6892 163.214 48.3986 164.762C48.108 166.31 46.0737 171.574 43.4582 172.193C40.8427 172.813 42.5864 161.356 42.5864 161.356C42.5864 161.356 41.4239 157.64 41.4239 156.402C41.4239 155.163 43.1676 155.782 43.1676 155.782C47.8174 155.163 45.4925 147.422 45.4925 147.422Z" fill="#2F2E41"/>
<path id="Vector_34" d="M35.9023 171.264C35.6116 173.122 36.1929 173.122 31.5431 173.742C26.8933 174.361 28.0557 170.335 28.0557 170.335C28.2501 168.438 28.64 166.569 29.2182 164.762C30.09 162.285 34.7398 165.381 34.7398 165.381C34.7398 165.381 36.1929 169.407 35.9023 171.264Z" fill="#2F2E41"/>
<path id="Vector_35" d="M29.2106 40.5027L29.0591 43.2564C29.0591 43.2564 27.1839 38.7382 26.8933 34.0936C26.6027 29.449 31.5431 28.5201 34.4492 28.2104C37.3553 27.9008 42.2958 30.0683 42.2958 32.5454C42.2958 35.0225 37.0647 34.4032 35.0304 33.784C32.9962 33.1647 32.1243 38.4286 32.1243 38.4286L30.9619 38.7382L29.2106 40.5027Z" fill="#2F2E41"/>
<path id="Vector_36" d="M38.78 51.1492L37.0647 48.9565L32.1243 53.2913L37.0647 57.007L38.78 51.1492Z" fill="white"/>
<path id="Vector_37" d="M26.6026 50.5046L28.637 47.7179L32.1243 53.2913L27.7651 56.6975L26.6026 50.5046Z" fill="white"/>
<path id="Vector_38" d="M44.9112 73.418L43.7488 85.1843L46.0737 92.3061L47.5267 99.1182C47.5267 99.1182 47.5267 105.621 41.7145 105.93C35.9022 106.24 30.9618 86.4229 30.9618 86.4229C30.9618 86.4229 30.09 90.7578 29.5088 93.235C28.9275 95.7121 19.0467 105.621 19.0467 105.621C19.0467 105.621 16.7218 105.311 14.6875 100.357C12.6532 95.4025 18.7561 90.7579 18.7561 90.7579L20.4998 84.2554L19.9186 76.2047L15.85 55.1492L27.9104 48.4919L26.6026 66.2962L30.9618 80.2301L37.5006 49.4208L39.6802 51.1238L48.9798 55.1492L44.9112 73.418Z" fill="#2F2E41"/>
<path id="Vector_39" d="M74.2158 174H0V173.354H74.3258L74.2158 174Z" fill="#3F3D56"/>
</g>
<defs>
<clipPath id="clip0">
<rect width="265" height="174" fill="white"/>
</clipPath>
</defs>
</svg>
