<svg width="319" height="237" viewBox="0 0 249 203" fill="none" xmlns="http://www.w3.org/2000/svg">
<rect width="249" height="203" fill="#E5E5E5"/>
<g id="reactjs 1">
<path id="Vector" d="M172.52 91.8384L174.069 91.0888C174.217 91.0166 174.363 90.9388 174.518 90.8639C171.652 89.5605 169.231 87.0912 167.652 83.8622C166.074 80.6332 165.431 76.8366 165.831 73.0966C166.23 69.3566 167.648 65.8959 169.851 63.2836C172.054 60.6712 174.911 59.0626 177.952 58.7223L176.873 65.441L180.968 58.8H181.004C184.538 59.4003 187.735 61.7103 189.891 65.2221C192.047 68.7338 192.986 73.1597 192.501 77.5264C192.467 77.8401 192.413 78.1455 192.366 78.4537C193.627 77.2237 194.809 75.8661 195.694 74.2892C197.492 71.0853 198.101 67.1373 198.721 62.3037C199.951 52.7309 201.058 43.0526 202.056 33.3799C198.992 32.2378 196.359 29.7831 194.629 26.4569C192.898 23.1307 192.185 19.1512 192.618 15.2337C192.674 14.7284 192.753 14.237 192.842 13.7512C192.865 13.629 192.887 13.5069 192.912 13.3875C193.009 12.9183 193.117 12.4574 193.242 11.9993C193.263 11.9244 193.29 11.8549 193.31 11.7828C193.422 11.4024 193.535 11.0276 193.681 10.6722C193.73 10.5334 193.78 10.3946 193.831 10.2641C193.986 9.86709 194.15 9.4784 194.33 9.10082C194.391 8.97588 194.456 8.8565 194.517 8.73157C194.656 8.45393 194.802 8.1763 194.953 7.9181C195.034 7.77928 195.112 7.64047 195.195 7.50443L195.256 7.39615C197.164 4.31074 199.887 2.14899 202.952 1.28671C206.016 0.424428 209.228 0.916146 212.03 2.67638L210.627 11.4191L214.673 4.8558C216.848 7.13313 218.378 10.2102 219.038 13.6376C219.698 17.0651 219.453 20.6634 218.34 23.907H218.356C218.318 24.0181 218.271 24.1236 218.232 24.2346C218.158 24.4401 218.082 24.6427 218.008 24.8454C217.904 25.1036 217.783 25.3563 217.682 25.6061C217.596 25.7949 217.513 25.9837 217.421 26.1614C217.288 26.439 217.145 26.6889 217.001 26.9471C216.915 27.097 216.837 27.2525 216.749 27.3996C216.524 27.7856 216.273 28.1548 216.016 28.5102C215.927 28.6351 215.83 28.7489 215.736 28.8711C215.554 29.1099 215.371 29.3459 215.178 29.5707C215.059 29.7096 214.933 29.8484 214.81 29.9761C214.632 30.1704 214.45 30.3592 214.264 30.5313C214.131 30.6618 213.996 30.7868 213.861 30.9089C213.666 31.0838 213.468 31.2476 213.268 31.4114C213.133 31.5197 212.998 31.628 212.861 31.7307C212.637 31.9001 212.401 32.0556 212.165 32.2083C212.046 32.2832 211.94 32.3665 211.807 32.4387C211.452 32.6525 211.088 32.8496 210.717 33.0245C210.648 33.0578 210.574 33.0828 210.504 33.1133C210.194 33.2522 209.881 33.391 209.565 33.4881C209.427 33.5353 209.288 33.5742 209.149 33.6159C208.89 33.6936 208.63 33.7658 208.367 33.8269C208.217 33.8602 208.062 33.8907 207.902 33.9185C207.643 33.9657 207.382 34.0018 207.119 34.0295C206.964 34.0462 206.812 34.0628 206.654 34.074C206.371 34.0906 206.086 34.0934 205.8 34.0906C205.782 34.0892 205.763 34.0892 205.744 34.0906C205.322 38.1626 204.878 42.2345 204.414 46.3065C205.504 44.4888 206.882 42.9653 208.466 41.8295C210.049 40.6936 211.804 39.9693 213.622 39.7011C215.44 39.4328 217.283 39.6261 219.039 40.2693C220.794 40.9125 222.425 41.9919 223.83 43.4413L220.307 50.8208L225.972 46.2149C228.114 49.7173 229.044 54.1268 228.556 58.4752C228.39 60.0019 228.05 61.4919 227.545 62.9006C226.464 65.9509 224.665 68.5292 222.383 70.301C220.1 72.0727 217.44 72.956 214.746 72.8363C212.052 72.7165 209.45 71.5993 207.276 69.6296C205.103 67.6598 203.459 64.9285 202.557 61.7901C202.506 62.201 202.456 62.623 202.405 63.0283C201.856 67.29 201.175 72.5956 198.757 76.91C197.119 79.8418 194.863 82.0074 192.669 83.9119C191.243 85.152 189.784 86.3338 188.292 87.4573C186.725 89.2516 184.836 90.5593 182.779 91.272C180.382 92.7879 177.933 94.1585 175.433 95.3838L173.871 96.1389C172.466 96.8163 171.028 97.5104 169.601 98.2489C169.826 98.2739 170.05 98.2961 170.275 98.3322C173.103 98.8119 175.734 100.39 177.788 102.837C179.843 105.285 181.214 108.476 181.705 111.95L172.197 118.366L181.676 117.842C181.296 120.438 180.416 122.884 179.109 124.971C176.966 128.399 173.824 130.658 170.353 131.266C166.882 131.875 163.355 130.786 160.524 128.231L160.996 129.316C161.311 130.032 161.621 130.746 161.922 131.454C166.041 141.099 166.34 149.428 162.765 154.911L159.843 152.01C163.324 146.674 160.562 138.192 158.607 133.611C158.311 132.917 158.005 132.223 157.708 131.512C155.063 125.451 152.063 118.583 153.265 111.273C155.063 100.251 164.738 95.5864 172.52 91.8384Z" fill="#F2F2F2"/>
<path id="Vector_2" d="M60.587 144.095L59.378 143.509C59.2611 143.453 59.1532 143.389 59.0319 143.334C61.269 142.315 63.1589 140.386 64.3911 137.864C65.6233 135.342 66.1245 132.377 65.8124 129.457C65.5002 126.537 64.3933 123.834 62.6734 121.794C60.9536 119.754 58.7232 118.497 56.3486 118.23L57.1914 123.477L53.9957 118.291H53.9665C52.5988 118.522 51.2812 119.083 50.0892 119.943C48.8972 120.803 47.8539 121.945 47.0192 123.303C46.1844 124.662 45.5744 126.21 45.224 127.859C44.8737 129.509 44.7899 131.227 44.9773 132.917C45.0043 133.164 45.047 133.4 45.0829 133.642C44.0915 132.721 43.216 131.623 42.4851 130.385C41.085 127.886 40.6041 124.799 40.1187 121.026C39.1681 113.549 38.3051 105.992 37.5298 98.446C39.9217 97.5527 41.9773 95.6348 43.3272 93.0369C44.6771 90.439 45.2327 87.3315 44.8942 84.2729C44.8492 83.8786 44.7885 83.4955 44.7166 83.1151L44.6627 82.8375C44.5863 82.471 44.5031 82.1101 44.4043 81.7603C44.3885 81.702 44.3683 81.6464 44.3503 81.5909C44.2627 81.2938 44.166 81.0023 44.0627 80.7164C44.0222 80.6109 43.984 80.5026 43.9436 80.3971C43.8222 80.0889 43.6941 79.7863 43.5548 79.492C43.5076 79.3921 43.4559 79.2977 43.4087 79.2144C43.2986 78.9978 43.184 78.784 43.0671 78.5786C43.0042 78.4703 42.9435 78.3593 42.8783 78.2538L42.8312 78.1705C41.3409 75.7612 39.2151 74.0723 36.8224 73.3968C34.4297 72.7213 31.9211 73.1018 29.7317 74.4724L30.8284 81.3022L27.6664 76.1771C25.9674 77.9557 24.7729 80.3588 24.2575 83.0354C23.742 85.712 23.9325 88.522 24.8011 91.0554H24.7899C24.8191 91.1415 24.8551 91.2248 24.8865 91.3109C24.945 91.4719 25.0034 91.6301 25.0663 91.7884C25.1472 91.9883 25.2326 92.1854 25.3225 92.3797C25.3877 92.5297 25.4528 92.6768 25.5248 92.8212C25.6281 93.0294 25.7495 93.2321 25.8529 93.4348C25.9203 93.5514 25.981 93.6735 26.0506 93.7873C26.2304 94.0872 26.4214 94.3759 26.6214 94.6563C26.6911 94.7535 26.7675 94.8424 26.8462 94.934C26.9877 95.12 27.1316 95.3032 27.2821 95.4892C27.3743 95.6003 27.4732 95.703 27.5698 95.8057C27.7091 95.9594 27.8507 96.1065 27.9945 96.2472C28.0979 96.3471 28.2035 96.4443 28.3092 96.5415C28.462 96.6775 28.617 96.8191 28.7721 96.9329C28.8777 97.019 28.9833 97.1023 29.0912 97.1828C29.2687 97.3161 29.4508 97.4355 29.6351 97.5548C29.7294 97.6159 29.8193 97.6798 29.9137 97.7381C30.1924 97.9047 30.4755 98.0574 30.7654 98.1934C30.8194 98.2212 30.8778 98.2378 30.9317 98.2628C31.1722 98.3711 31.4172 98.471 31.6666 98.5571C31.7722 98.5932 31.8913 98.6237 31.9902 98.6543C32.1925 98.7153 32.3947 98.7736 32.6015 98.8208L32.9633 98.893C33.1655 98.9291 33.3701 98.9569 33.5746 98.9791C33.6959 98.993 33.815 99.0041 33.9386 99.0124C34.1633 99.0263 34.3881 99.0291 34.6128 99.0263H34.6555C34.9851 102.214 35.3312 105.398 35.6938 108.58C34.8441 107.158 33.7683 105.966 32.5323 105.076C31.2963 104.187 29.9262 103.619 28.5061 103.407C27.086 103.196 25.6458 103.345 24.2741 103.846C22.9023 104.347 21.6279 105.188 20.529 106.32L23.2572 112.05L18.8346 108.455C18.005 109.809 17.3994 111.351 17.0524 112.994C16.7053 114.637 16.6237 116.348 16.812 118.03C16.9425 119.224 17.2096 120.389 17.6053 121.49C18.4501 123.872 19.8548 125.885 21.6372 127.269C23.4197 128.652 25.4976 129.342 27.6013 129.249C29.705 129.155 31.7375 128.283 33.4349 126.745C35.1324 125.207 36.4166 123.074 37.1208 120.623C37.1612 120.943 37.1994 121.268 37.2399 121.59C37.6669 124.921 38.1995 129.063 40.0872 132.439C41.3682 134.727 43.13 136.418 44.8425 137.906C45.9571 138.876 47.0965 139.801 48.2606 140.682C49.4845 142.084 50.9603 143.106 52.5664 143.664C54.4362 144.847 56.3509 145.924 58.306 146.874L59.524 147.465C60.6207 147.993 61.7444 148.534 62.8523 149.111C62.677 149.131 62.4995 149.147 62.3219 149.178C60.1146 149.552 58.0605 150.782 56.4561 152.692C54.8517 154.602 53.78 157.092 53.3957 159.803L60.8117 164.8L53.4092 164.392C53.7351 166.55 54.4981 168.57 55.6271 170.264C56.7561 171.958 58.2142 173.272 59.8653 174.081C61.5164 174.891 63.3066 175.17 65.0688 174.894C66.8311 174.617 68.5078 173.793 69.9425 172.499C69.8189 172.777 69.6975 173.054 69.5739 173.346C69.329 173.901 69.0863 174.457 68.8503 175.012C65.6344 182.544 65.4007 189.052 68.1941 193.336L70.4706 191.07C67.7514 186.906 69.9088 180.278 71.4369 176.7C71.6617 176.158 71.9066 175.611 72.1471 175.062C74.2124 170.342 76.554 164.964 75.6214 159.253C74.2258 150.663 66.6637 147.032 60.587 144.095Z" fill="#F2F2F2"/>
<path id="Vector_3" d="M124.5 203C193.259 203 249 200.079 249 196.476C249 192.872 193.259 189.951 124.5 189.951C55.7405 189.951 0 192.872 0 196.476C0 200.079 55.7405 203 124.5 203Z" fill="#3F3D56"/>
<path id="Vector_4" opacity="0.1" d="M124.5 203C193.259 203 249 200.079 249 196.476C249 192.872 193.259 189.951 124.5 189.951C55.7405 189.951 0 192.872 0 196.476C0 200.079 55.7405 203 124.5 203Z" fill="black"/>
<path id="Vector_5" d="M124.5 199.391C193.259 199.391 249 196.47 249 192.866C249 189.263 193.259 186.342 124.5 186.342C55.7405 186.342 0 189.263 0 192.866C0 196.47 55.7405 199.391 124.5 199.391Z" fill="#3F3D56"/>
<path id="Vector_6" opacity="0.2" d="M15.6277 192.564C18.439 192.592 22.1583 192.009 22.9089 191.453C23.4774 191.026 23.7044 189.485 23.7808 188.774H23.864C23.864 188.774 23.7067 191.253 22.9651 191.828C22.2235 192.403 18.4952 192.961 15.6861 192.939C14.8748 192.939 14.5939 192.575 14.6096 192.045C14.7153 192.358 15.0254 192.564 15.6277 192.564Z" fill="black"/>
<path id="Vector_7" d="M167.551 91.9383C166.065 91.309 164.567 90.726 163.057 90.1892C163.305 88.9325 163.537 87.6692 163.751 86.3995C167.154 65.9907 164.929 49.5492 157.331 44.1382C150.045 38.9464 138.13 44.3603 126.093 57.2952C124.907 58.576 123.748 59.8902 122.617 61.2376C121.857 60.3399 121.086 59.4598 120.302 58.5973C107.693 44.7628 95.0605 38.9353 87.4601 44.363C80.1811 49.5687 78.0215 65.0245 81.089 84.3672C81.3887 86.2829 81.7325 88.1875 82.1206 90.0809C80.334 90.7084 78.6058 91.3775 76.9518 92.091C62.1669 98.446 52.7237 108.441 52.7237 118.794C52.7237 129.485 62.8613 140.21 78.262 146.713C79.5115 147.236 80.7699 147.723 82.0374 148.173C81.6269 150.209 81.2613 152.262 80.9407 154.331C78.0193 173.338 80.3025 188.43 87.5613 193.602C95.0605 198.949 107.645 193.452 119.898 180.22C120.866 179.173 121.837 178.063 122.819 176.902C124.045 178.363 125.302 179.781 126.592 181.156C138.462 193.774 150.189 198.872 157.439 193.683C164.929 188.327 167.363 172.113 164.203 152.39C163.963 150.884 163.684 149.346 163.365 147.779C164.25 147.457 165.116 147.123 165.963 146.776C181.972 140.224 192.391 129.63 192.391 118.794C192.391 108.402 182.642 98.3544 167.558 91.9383H167.551Z" fill="#53C1DE"/>
<g id="react">
<path id="Vector_8" d="M164.079 139.78C163.315 140.094 162.533 140.394 161.733 140.688C159.781 133.212 157.418 125.909 154.661 118.83C157.313 111.846 159.584 104.65 161.459 97.2911C162.886 97.8019 164.275 98.3405 165.61 98.9097C178.534 104.404 186.417 112.53 186.417 118.794C186.417 125.457 177.902 134.122 164.079 139.78ZM158.344 153.823C159.742 162.543 159.94 170.428 159.018 176.589C158.187 182.128 156.515 185.82 154.447 187.3C150.045 190.445 140.633 186.356 130.482 175.564C129.318 174.326 128.147 173.007 126.97 171.608C131.202 165.82 135.113 159.685 138.676 153.245C145.041 152.579 151.361 151.373 157.591 149.636C157.876 151.058 158.128 152.446 158.349 153.801L158.344 153.823ZM100.337 186.761C96.0358 188.638 92.6109 188.691 90.5412 187.217C86.1365 184.077 84.3049 171.947 86.8039 155.705C87.1036 153.786 87.4429 151.877 87.8219 149.978C94.0269 151.623 100.315 152.749 106.643 153.345C110.31 159.762 114.315 165.874 118.632 171.641C117.765 172.68 116.878 173.689 115.972 174.67C110.553 180.523 105.122 184.665 100.337 186.761V186.761ZM80.1924 139.738C73.3808 136.862 67.7581 133.125 63.9018 129.05C60.4387 125.385 58.6903 121.745 58.6903 118.794C58.6903 112.511 66.2727 104.496 78.9159 99.0513C80.504 98.3683 82.1063 97.7455 83.7229 97.1828C85.6009 104.623 87.8748 111.902 90.5299 118.971C87.8418 126.143 85.54 133.525 83.6397 141.071C82.4801 140.662 81.331 140.218 80.1924 139.738ZM86.9455 82.9513C84.3207 66.3794 86.0623 53.8775 90.449 50.7458C95.1212 47.4142 105.452 52.1673 116.342 64.1139C117.039 64.8774 117.738 65.677 118.437 66.5015C114.151 72.2336 110.177 78.3105 106.542 84.6921C100.274 85.3865 94.0483 86.5819 87.9051 88.2708C87.547 86.5087 87.2272 84.7365 86.9455 82.9541V82.9513ZM147.198 101.328C145.833 98.4146 144.418 95.5383 142.953 92.699C147.409 93.3959 151.677 94.3176 155.686 95.4504C154.399 100.492 152.907 105.451 151.216 110.307C149.926 107.28 148.586 104.287 147.198 101.328ZM122.621 71.7682C125.526 75.6801 128.268 79.7702 130.84 84.023C125.34 83.7028 119.838 83.7028 114.333 84.023C117.046 79.6031 119.826 75.4941 122.621 71.771V71.7682ZM97.9011 101.378C96.5302 104.315 95.2155 107.29 93.9571 110.301C92.2199 105.212 90.7344 100.206 89.5209 95.3726C93.5053 94.2621 97.755 93.3709 102.182 92.6851C100.696 95.5429 99.2674 98.4405 97.8966 101.378H97.9011ZM102.308 145.424C97.9868 144.845 93.6925 143.991 89.4422 142.867C90.676 137.95 92.1952 132.836 93.9705 127.636C95.2335 130.652 96.5527 133.628 97.928 136.565C99.3273 139.562 100.786 142.515 102.304 145.424H102.308ZM122.79 166.339C119.958 162.579 117.138 158.415 114.387 153.914C117.061 154.046 119.785 154.112 122.558 154.112C125.405 154.112 128.215 154.034 130.988 153.878C128.428 158.202 125.69 162.361 122.785 166.339H122.79ZM151.261 127.373C153.04 132.327 154.609 137.392 155.962 142.548C151.659 143.744 147.308 144.661 142.928 145.294C144.404 142.401 145.833 139.474 147.216 136.512C148.621 133.503 149.969 130.456 151.261 127.373ZM142.047 132.831C139.931 137.369 137.698 141.821 135.348 146.185C131.204 146.552 126.923 146.74 122.558 146.74C118.194 146.74 113.985 146.574 109.913 146.246C107.502 141.897 105.226 137.439 103.083 132.873C100.941 128.306 98.955 123.672 97.1257 118.969C98.964 114.243 100.944 109.607 103.065 105.059C105.184 100.513 107.441 96.0713 109.836 91.7329C113.992 91.3442 118.248 91.1415 122.554 91.1415C126.86 91.1415 131.143 91.3469 135.294 91.7356C137.662 96.0612 139.91 100.486 142.036 105.009C144.162 109.533 146.168 114.148 148.056 118.855C146.191 123.597 144.19 128.252 142.054 132.82L142.047 132.831ZM154.355 50.5237C159.032 53.8553 160.85 67.2928 157.913 84.9142C157.719 86.0599 157.51 87.2028 157.284 88.343C151.131 86.6199 144.893 85.4021 138.611 84.6976C135.011 78.3103 131.067 72.2293 126.806 66.496C127.854 65.2485 128.925 64.0352 130.017 62.8562C140.328 51.7703 149.964 47.3948 154.355 50.5237Z" fill="white"/>
</g>
<path id="Vector_9" d="M122.554 103.385C125.021 103.385 127.432 104.289 129.483 105.982C131.534 107.675 133.133 110.082 134.077 112.897C135.021 115.713 135.268 118.811 134.787 121.8C134.305 124.789 133.118 127.534 131.373 129.689C129.629 131.844 127.407 133.312 124.987 133.906C122.568 134.501 120.06 134.196 117.781 133.03C115.502 131.863 113.554 129.888 112.183 127.354C110.813 124.82 110.081 121.841 110.081 118.794C110.081 116.77 110.403 114.766 111.03 112.897C111.657 111.027 112.576 109.328 113.734 107.897C114.892 106.467 116.267 105.332 117.78 104.557C119.294 103.783 120.916 103.385 122.554 103.385" fill="#53C1DE"/>
<path id="Vector_10" opacity="0.1" d="M129.747 23.2074C129.001 24.8954 126.639 24.1541 126.32 24.0403C126.305 24.6511 126.282 25.0176 126.282 25.0176C126.282 25.0176 128.947 26.0032 129.747 24.1847C129.911 23.8126 129.997 22.7604 129.972 21.3528C129.95 22.2551 129.871 22.9298 129.747 23.2074Z" fill="black"/>
<path id="Vector_11" opacity="0.2" d="M191.335 190.065C186.856 190.109 180.927 189.202 179.734 188.305C178.835 187.619 178.464 185.168 178.343 184.035H178.21C178.21 184.035 178.462 187.988 179.655 188.885C180.849 189.782 186.777 190.69 191.256 190.645C192.548 190.645 192.995 190.065 192.971 189.224C192.791 189.726 192.299 190.043 191.335 190.065Z" fill="black"/>
<path id="Vector_12" d="M72.5875 11.8994L68.4862 15.1116L70.9762 9.51727C70.2736 8.82319 69.4038 8.43828 68.5042 8.4234H68.4368C68.1523 8.42831 67.8681 8.4023 67.5873 8.34566L66.1962 9.43398L66.7918 8.09579C65.8074 7.67083 64.9565 6.87323 64.3602 5.81642L61.8725 7.75985L63.4456 4.22836C61.9893 2.07114 60.0297 0.746834 57.87 0.746834C55.2834 0.746834 52.9799 2.64862 51.4922 5.61097C51.0522 6.49671 50.4305 7.22306 49.6902 7.71645C48.9498 8.20985 48.1171 8.45278 47.2763 8.42062H47.137C44.2806 8.42062 41.9682 12.4213 41.9682 17.3576C41.9682 22.294 44.2829 26.2919 47.137 26.2919C47.7638 26.2896 48.3808 26.0991 48.9348 25.7366C50.7978 24.54 53.2429 24.5178 55.1935 25.5867C56.0298 26.0514 56.9361 26.2928 57.8531 26.2952C58.7701 26.2976 59.6772 26.0609 60.5151 25.6006C62.4523 24.5539 64.8681 24.5761 66.7199 25.7505C67.2692 26.1096 67.8805 26.3 68.502 26.3058C71.3583 26.3058 73.6707 22.3051 73.6707 17.3715C73.6879 15.464 73.3153 13.5819 72.5875 11.8994V11.8994Z" fill="#F2F2F2"/>
<path id="Vector_13" opacity="0.03" d="M64.8546 24.9731C63.3624 24.6226 61.8195 24.8294 60.423 25.5673C59.5854 26.0272 58.6787 26.2637 57.7621 26.2613C56.8455 26.2589 55.9396 26.0177 55.1036 25.5534C53.1507 24.4845 50.7057 24.5067 48.8426 25.7033C48.2887 26.0658 47.6717 26.2563 47.0448 26.2586C44.5076 26.2586 42.3974 23.0991 41.9569 18.9346C42.4638 18.4785 42.8942 17.9052 43.2244 17.2466C44.7211 14.287 47.0156 12.3797 49.6022 12.3797C52.1889 12.3797 54.4654 14.2593 55.9531 17.1883C56.397 18.0733 57.0184 18.8017 57.7569 19.3032C58.4955 19.8046 59.3263 20.0621 60.169 20.0507H60.2274C62.25 20.0535 64.0029 22.0552 64.8546 24.9731Z" fill="black"/>
<path id="Vector_14" d="M179.799 18.4404L177.761 20.0424L179.004 17.266C178.653 16.9154 178.217 16.7199 177.765 16.7108H177.734C177.592 16.7132 177.45 16.7002 177.309 16.6719L176.615 17.2272L176.907 16.5442C176.416 16.3328 175.991 15.9354 175.693 15.4087L174.453 16.3804L175.237 14.6202C174.907 14.094 174.486 13.665 174.006 13.3644C173.525 13.0639 172.996 12.8991 172.457 12.8822C171.165 12.8822 170.017 13.8317 169.275 15.3087C169.055 15.7486 168.744 16.1087 168.375 16.3525C168.005 16.5963 167.59 16.7151 167.172 16.6969H167.102C165.677 16.6969 164.522 18.6931 164.522 21.139C164.522 23.585 165.677 25.595 167.102 25.595C167.415 25.5937 167.724 25.4984 168.001 25.3174C168.486 25.0263 169.016 24.8689 169.555 24.856C170.094 24.843 170.629 24.9749 171.122 25.2424C171.54 25.4721 171.992 25.5908 172.449 25.5908C172.907 25.5908 173.359 25.4721 173.776 25.2424C174.266 24.9802 174.796 24.8512 175.33 24.8642C175.864 24.8771 176.39 25.0317 176.871 25.3174C177.148 25.4985 177.456 25.5938 177.77 25.595C179.195 25.595 180.35 23.6016 180.35 21.139C180.352 20.1967 180.163 19.2689 179.799 18.4404V18.4404Z" fill="#F2F2F2"/>
<path id="Vector_15" opacity="0.03" d="M175.945 24.962C175.201 24.7885 174.432 24.8919 173.736 25.2591C173.318 25.4888 172.866 25.6075 172.409 25.6075C171.952 25.6075 171.5 25.4888 171.082 25.2591C170.588 24.9915 170.053 24.8596 169.513 24.8726C168.974 24.8855 168.443 25.043 167.958 25.3341C167.681 25.5158 167.373 25.6111 167.059 25.6117C165.792 25.6117 164.74 24.0375 164.52 21.9608C164.772 21.7353 164.987 21.4526 165.154 21.1279C165.895 19.6509 167.046 18.7042 168.336 18.7042C169.626 18.7042 170.761 19.6398 171.502 21.1001C171.723 21.5419 172.033 21.9054 172.402 22.1555C172.77 22.4055 173.185 22.5336 173.606 22.5272H173.639C174.648 22.5078 175.514 23.5072 175.945 24.962Z" fill="black"/>
<path id="Vector_16" d="M45.9212 59.9299L49.2157 62.5064L47.2201 58.0226C47.786 57.4661 48.4858 57.1584 49.209 57.1481H49.2607C49.4864 57.1522 49.712 57.1318 49.9348 57.087L51.0472 57.9588L50.5641 56.8871C51.3522 56.5447 52.0336 55.9059 52.5125 55.0603L54.5058 56.6206L53.2608 53.7915C54.4272 52.0646 55.998 51.0151 57.7262 51.0151C59.8005 51.0151 61.6455 52.5366 62.8388 54.902C63.1904 55.6108 63.6873 56.1923 64.2792 56.5877C64.8712 56.9831 65.5371 57.1783 66.2097 57.1536H66.3221C68.6098 57.1536 70.4639 60.3575 70.4639 64.311C70.4639 68.2645 68.6098 71.4712 66.3221 71.4712C65.8183 71.4687 65.3224 71.3154 64.8771 71.0242C64.0983 70.5567 63.2466 70.3039 62.3809 70.2833C61.5152 70.2627 60.6562 70.4747 59.8634 70.9048C59.1917 71.2757 58.4642 71.4674 57.7285 71.4674C56.9927 71.4674 56.2652 71.2757 55.5935 70.9048C54.8064 70.4836 53.9552 70.2762 53.0975 70.2968C52.2399 70.3174 51.3958 70.5655 50.6225 71.0242C50.1817 71.3076 49.6925 71.4571 49.1955 71.4601C46.9055 71.4601 45.0515 68.2562 45.0515 64.2999C45.0407 62.7763 45.3397 61.2737 45.9212 59.9299V59.9299Z" fill="#F2F2F2"/>
<path id="Vector_17" opacity="0.03" d="M52.1125 70.4051C53.3082 70.1267 54.5439 70.2929 55.6632 70.8826C56.3349 71.2535 57.0624 71.4452 57.7981 71.4452C58.5339 71.4452 59.2613 71.2535 59.933 70.8826C60.7262 70.4525 61.5856 70.2404 62.4516 70.261C63.3177 70.2816 64.1698 70.5345 64.949 71.002C65.3935 71.2931 65.8886 71.4465 66.3918 71.449C68.4256 71.449 70.1155 68.9197 70.4683 65.5826C70.0625 65.2156 69.7177 64.7557 69.4526 64.2277C68.2593 61.8567 66.4142 60.3409 64.34 60.3409C62.2657 60.3409 60.4454 61.8456 59.2521 64.1944C58.897 64.902 58.4003 65.4846 57.8098 65.8858C57.2193 66.287 56.555 66.4933 55.8812 66.4849H55.8295C54.198 66.4654 52.7956 68.0702 52.1125 70.4051Z" fill="black"/>
</g>
</svg>
