<svg width="319" height="237" viewBox="0 0 312 205" fill="none" xmlns="http://www.w3.org/2000/svg">
<rect width="312" height="205" fill="#E5E5E5"/>
<g clip-path="url(#clip0)">
<path d="M286.84 115.855C294.565 115.855 300.827 106.827 300.827 95.6891C300.827 84.5515 294.565 75.5227 286.84 75.5227C279.115 75.5227 272.852 84.5515 272.852 95.6891C272.852 106.827 279.115 115.855 286.84 115.855Z" fill="#F2F2F2"/>
<path d="M286.84 100.996C288.873 100.996 290.521 98.62 290.521 95.6891C290.521 92.7581 288.873 90.3821 286.84 90.3821C284.807 90.3821 283.159 92.7581 283.159 95.6891C283.159 98.62 284.807 100.996 286.84 100.996Z" fill="#E6E6E6"/>
<path d="M286.167 95.8024C287.718 97.6261 288.19 100.5 287.902 103.276C287.547 106.32 286.452 109.082 284.812 111.067C282.968 113.43 280.719 115.026 278.549 116.661C276.555 118.128 274.639 119.805 272.816 121.679C265.837 128.992 260.564 139.405 257.546 151.026C254.534 162.627 253.726 175.794 256.015 187.817C257.147 193.766 259.439 200.184 263.707 202.422C267.11 204.207 271.755 203.057 273.488 198.002C275.349 192.571 272.752 186.466 269.408 183.77C265.072 180.275 259.893 182.829 255.994 186.366C251.701 190.261 248.25 195.85 243.768 199.341C241.75 200.962 239.505 201.906 237.2 202.103C235.082 202.223 232.969 201.753 230.976 200.717C226.84 198.544 223.279 194.56 220.794 189.322C217.947 183.356 216.672 176.042 216.44 168.877C215.92 152.847 220.312 137.85 223.836 122.984C225.73 115.243 227.149 107.277 228.076 99.1777C228.958 91.0374 229.272 82.7903 229.013 74.5598C228.78 67.282 228.282 59.6717 226.054 53.0249C224.095 47.1802 220.515 42.3966 215.988 41.1906C213.948 40.6132 211.833 40.9634 209.937 42.1928C209.291 42.6174 209.852 43.99 210.494 43.5675C214.5 40.9328 219.235 43.4963 222.194 47.7503C225.649 52.7179 226.918 60.0537 227.481 66.8227C228.747 82.8645 227.749 99.1097 224.548 114.581C221.476 129.628 216.643 144.046 215.528 159.81C215.019 167.003 215.28 174.44 216.875 181.337C218.243 187.482 220.809 192.928 224.266 197.028C227.52 200.821 231.524 203.406 235.739 203.694C240.471 204.017 244.62 200.976 248.291 196.93C252.223 192.597 255.84 187.251 260.603 184.821C262.774 183.714 265.247 183.197 267.476 184.263C269.388 185.205 271.011 187.086 272.06 189.576C273.028 191.898 273.385 194.8 272.501 197.293C271.671 199.638 270.049 200.994 268.294 201.458C266.435 201.932 264.52 201.463 262.874 200.13C260.951 198.547 259.544 195.89 258.558 193.082C256.593 187.484 255.932 180.819 255.832 174.605C255.744 168.535 256.284 162.48 257.433 156.639C259.719 144.824 264.333 134.219 270.717 126.109C272.325 124.09 274.045 122.263 275.86 120.649C277.841 118.889 279.954 117.483 281.973 115.823C283.96 114.189 285.918 112.237 287.285 109.548C288.452 107.244 289.081 104.466 289.084 101.614C289.105 100.302 288.924 98.9997 288.555 97.8004C288.186 96.601 287.637 95.5343 286.948 94.6767C286.402 94.0342 285.616 95.1542 286.167 95.8024V95.8024Z" fill="#CCCCCC"/>
<path d="M155.586 188.56C160.477 193.118 166.135 195.675 171.955 195.958C171.851 196.313 171.735 196.66 171.606 196.998C170.928 198.801 169.971 200.354 168.808 201.536C167.432 202.932 165.815 203.757 164.136 203.92C162.456 204.083 160.778 203.578 159.284 202.46C157.79 201.342 156.538 199.654 155.664 197.58C154.79 195.506 154.328 193.126 154.328 190.699V188.56H155.586Z" fill="#3F3D56"/>
<path d="M189.918 189.186V190.699C189.919 193.643 189.239 196.504 187.986 198.83C186.733 201.155 184.979 202.812 183 203.54C181.021 204.267 178.93 204.023 177.058 202.846C175.186 201.669 173.639 199.626 172.662 197.041C172.527 196.695 172.406 196.339 172.298 195.974C172.566 195.985 172.831 195.99 173.1 195.99C179.034 196 184.854 193.645 189.918 189.186Z" fill="#3F3D56"/>
<path d="M202.301 29.2464C202.025 29.188 201.745 29.1509 201.465 29.1243C204.644 39.6866 204.864 51.6128 202.08 62.404C202.36 62.3563 202.636 62.2926 202.912 62.2183C205.607 61.4652 208.03 59.3574 209.749 56.2701C211.468 53.1828 212.371 49.3164 212.297 45.359C212.224 41.4016 211.179 37.6102 209.349 34.6596C207.518 31.7091 205.02 29.7908 202.301 29.2464Z" fill="#3F3D56"/>
<path d="M144.735 29.1243C144.455 29.1509 144.176 29.188 143.9 29.2464C141.18 29.7908 138.682 31.7091 136.852 34.6596C135.021 37.6102 133.976 41.4016 133.903 45.359C133.829 49.3164 134.732 53.1828 136.451 56.2702C138.17 59.3575 140.593 61.4652 143.288 62.2183C143.565 62.2926 143.841 62.3563 144.12 62.404C141.336 51.6128 141.556 39.6867 144.735 29.1243Z" fill="#3F3D56"/>
<path d="M202.301 29.2464C199.268 18.8023 193.651 10.3562 186.541 5.54901C179.431 0.741791 171.335 -0.0833112 163.827 3.234C156.318 6.55131 149.933 13.7742 145.912 23.4994C141.89 33.2245 140.52 44.7576 142.067 55.8581C143.614 66.9585 147.967 76.8337 154.282 83.5651C160.596 90.2966 168.421 93.4036 176.235 92.2826C184.05 91.1616 191.296 85.8926 196.567 77.4993C201.838 69.106 204.756 58.1876 204.756 46.8654C204.754 40.816 203.92 34.8272 202.301 29.2464ZM202.08 62.404C199.387 72.8395 194.083 81.444 187.211 86.5238C180.339 91.6037 172.397 92.7911 164.948 89.8523C157.499 86.9134 151.083 80.0613 146.962 70.6444C142.842 61.2275 141.315 49.9281 142.683 38.97C144.051 28.0119 148.215 18.1889 154.354 11.4344C160.493 4.6799 168.164 1.48313 175.856 2.47328C183.548 3.46344 190.705 8.56878 195.917 16.7845C201.129 25.0002 204.02 35.7312 204.02 46.8654C204.018 52.17 203.362 57.4318 202.08 62.4041V62.404Z" fill="#3F3D56"/>
<path d="M189.296 36.5169H156.904C155.196 36.5169 153.557 37.4953 152.349 39.237C151.141 40.9787 150.463 43.3409 150.463 45.804C150.463 48.2671 151.141 50.6293 152.349 52.371C153.557 54.1126 155.196 55.0911 156.904 55.0911H189.296C191.005 55.0911 192.643 54.1126 193.851 52.371C195.059 50.6293 195.738 48.2671 195.738 45.804C195.738 43.3409 195.059 40.9787 193.851 39.237C192.643 37.4953 191.005 36.5169 189.296 36.5169Z" fill="#3F3D56"/>
<path d="M173.1 101.527C164.446 101.532 156.138 106.42 149.951 115.144C143.765 123.868 140.192 135.736 139.997 148.21C139.802 160.683 142.999 172.771 148.907 181.889C154.814 191.007 162.961 196.43 171.606 196.998C171.955 197.025 172.309 197.041 172.662 197.041C172.809 197.051 172.953 197.051 173.1 197.051C181.886 197.051 190.312 192.019 196.525 183.062C202.738 174.105 206.228 161.956 206.228 149.289C206.228 136.622 202.738 124.473 196.525 115.516C190.312 106.559 181.886 101.527 173.1 101.527ZM189.918 189.186C184.854 193.645 179.034 196 173.1 195.99C172.831 195.99 172.566 195.985 172.298 195.974C172.183 195.974 172.069 195.969 171.955 195.958C164.177 195.568 156.756 191.156 151.048 183.528C145.34 175.899 141.727 165.564 140.868 154.411C140.01 143.258 141.964 132.033 146.373 122.786C150.782 113.539 157.352 106.889 164.882 104.05C172.412 101.211 180.399 102.374 187.383 107.326C194.368 112.277 199.883 120.687 202.921 131.018C205.959 141.349 206.317 152.912 203.929 163.592C201.542 174.272 196.569 183.357 189.918 189.186Z" fill="#3F3D56"/>
<path d="M196.351 137.525H181.873C180.864 137.525 179.897 136.948 179.183 135.919C178.47 134.891 178.069 133.496 178.069 132.041C178.069 130.587 178.47 129.192 179.183 128.164C179.897 127.135 180.864 126.558 181.873 126.558H196.351C197.36 126.558 198.327 127.135 199.041 128.164C199.754 129.192 200.155 130.587 200.155 132.041C200.155 133.496 199.754 134.891 199.041 135.919C198.327 136.948 197.36 137.525 196.351 137.525Z" fill="#3F3D56"/>
<path d="M182.838 134.825C183.904 134.825 184.769 133.579 184.769 132.041C184.769 130.504 183.904 129.258 182.838 129.258C181.772 129.258 180.908 130.504 180.908 132.041C180.908 133.579 181.772 134.825 182.838 134.825Z" fill="#F2F2F2"/>
<path d="M189.112 134.825C190.178 134.825 191.042 133.579 191.042 132.041C191.042 130.504 190.178 129.258 189.112 129.258C188.046 129.258 187.182 130.504 187.182 132.041C187.182 133.579 188.046 134.825 189.112 134.825Z" fill="#F2F2F2"/>
<path d="M195.386 134.825C196.452 134.825 197.316 133.579 197.316 132.041C197.316 130.504 196.452 129.258 195.386 129.258C194.32 129.258 193.455 130.504 193.455 132.041C193.455 133.579 194.32 134.825 195.386 134.825Z" fill="black"/>
<path d="M60.5969 202.564C63.907 198.531 65.9176 192.161 65.3903 185.96C64.863 179.758 61.5972 174.057 57.361 172.74C53.1248 171.423 48.2958 175.069 47.0092 181.035C46.3011 169.532 45.4851 157.548 41.2434 147.753C37.4026 138.883 30.7504 132.537 23.5408 131.401C16.3313 130.266 8.74057 134.554 4.24424 142.758C-0.252081 150.962 -1.35299 162.889 1.79612 172.308C4.11596 179.247 8.38992 184.411 12.868 188.612C27.1545 202.015 44.8769 206.543 61.7401 202.965L60.5969 202.564Z" fill="#F2F2F2"/>
<path d="M11.3736 134.792C17.3224 141.777 22.7798 149.59 27.6668 158.118C32.5546 166.636 36.8578 175.818 40.5159 185.535C42.5606 190.985 44.3974 196.593 46.0181 202.332C46.3486 203.499 45.0337 204.007 44.7069 202.853C41.8362 192.735 38.2846 183.047 34.1031 173.927C29.9418 164.841 25.179 156.358 19.8816 148.598C16.8854 144.211 13.7241 140.065 10.4121 136.178C9.73323 135.381 10.7004 134.001 11.3736 134.792Z" fill="white"/>
<path d="M59.4746 35.0257C65.7766 35.0257 70.8854 27.6601 70.8854 18.5742C70.8854 9.48833 65.7766 2.12276 59.4746 2.12276C53.1726 2.12276 48.0639 9.48833 48.0639 18.5742C48.0639 27.6601 53.1726 35.0257 59.4746 35.0257Z" fill="#2F2E41"/>
<path d="M102.032 78.8138C101.813 79.2879 101.547 79.7123 101.241 80.0729C100.801 80.5962 100.289 80.9795 99.7388 81.1976C99.1887 81.4158 98.6128 81.4638 98.0488 81.3387C97.4849 81.2136 96.9456 80.918 96.4665 80.4715C95.9873 80.0249 95.5789 79.4374 95.2682 78.7474C95.1963 78.5867 95.1302 78.4206 95.0704 78.2498L77.0894 75.7486C75.6702 75.5434 74.3348 74.6839 73.2814 73.2977C72.2279 71.9115 71.5126 70.0725 71.2415 68.0537L70.2209 60.2965L77.2383 58.7226L78.4976 64.9362L96.0289 71.1448C96.1647 70.973 96.3087 70.8152 96.4598 70.6725C97.2418 69.9408 98.175 69.6205 99.1018 69.7656C100.029 69.9107 100.892 70.5124 101.547 71.4692C102.202 72.4259 102.608 73.679 102.696 75.0171C102.785 76.3551 102.55 77.6961 102.032 78.8138L102.032 78.8138Z" fill="#FFB8B8"/>
<path d="M78.9286 63.9983L71.0898 67.0513C70.6657 67.2157 70.2137 67.1309 69.8329 66.8154C69.4522 66.5 69.1737 65.9796 69.0587 65.3686L66.3132 50.7152C66.019 49.1456 66.1384 47.4746 66.6482 46.0243C67.1581 44.5741 68.0223 43.4474 69.0742 42.8614C70.1261 42.2755 71.2913 42.2718 72.345 42.851C73.3987 43.4303 74.2664 44.5516 74.7806 45.9985L79.9709 60.6038C80.0834 60.9205 80.1455 61.2694 80.1525 61.6251C80.1595 61.9807 80.1113 62.3342 80.0114 62.6595C79.9115 62.9849 79.7625 63.274 79.5751 63.5056C79.3878 63.7372 79.1669 63.9056 78.9286 63.9983Z" fill="#2F2E41"/>
<path d="M74.388 198.549H78.9004L81.0474 173.454L74.3869 173.455L74.388 198.549Z" fill="#FFB8B8"/>
<path d="M87.6037 204.59L73.421 204.591L73.4207 196.691L82.1238 196.69C83.5771 196.69 84.9709 197.522 85.9986 199.004C87.0263 200.485 87.6037 202.495 87.6037 204.59Z" fill="#2F2E41"/>
<path d="M34.1668 192.209L38.3888 194.507L46.5464 172.123L40.3154 168.731L34.1668 192.209Z" fill="#FFB8B8"/>
<path d="M45.0505 204.591L31.7821 197.368L33.7177 189.977L41.8597 194.409C43.2193 195.149 44.3193 196.638 44.9177 198.547C45.5161 200.457 45.5639 202.631 45.0505 204.591L45.0505 204.591Z" fill="#2F2E41"/>
<path d="M74.2454 192.721C73.8956 192.72 73.5549 192.56 73.2721 192.263C72.9894 191.966 72.7791 191.548 72.6716 191.068L61.1619 139.822C61.1278 139.67 61.0628 139.536 60.9754 139.438C60.8879 139.34 60.782 139.283 60.6715 139.272C60.561 139.262 60.4509 139.3 60.3556 139.382C60.2602 139.463 60.184 139.584 60.1368 139.728L44.1859 188.658C44.0131 189.187 43.7118 189.607 43.3391 189.837C42.9663 190.067 42.5479 190.093 42.1631 189.908L35.881 186.889C35.4819 186.696 35.1487 186.292 34.9486 185.758C34.7485 185.224 34.6966 184.601 34.8033 184.014L44.574 130.654C45.5964 125.002 46.3349 119.251 46.7838 113.446C47.469 103.886 50.5777 95.0275 55.5137 88.5685C57.6689 85.7217 59.07 81.8823 59.4765 77.709L59.5029 77.4421L73.8119 80.6994L82.8756 187.331C82.9224 187.901 82.8257 188.477 82.603 188.953C82.3803 189.43 82.0464 189.775 81.662 189.927L74.6779 192.638C74.5369 192.693 74.3915 192.721 74.2454 192.721Z" fill="#2F2E41"/>
<path d="M64.0076 34.9473C69.0007 34.9473 73.0483 29.1117 73.0483 21.913C73.0483 14.7143 69.0007 8.87865 64.0076 8.87865C59.0146 8.87865 54.967 14.7143 54.967 21.913C54.967 29.1117 59.0146 34.9473 64.0076 34.9473Z" fill="#FFB8B8"/>
<path d="M72.9227 82.973C72.8944 82.973 72.866 82.9719 72.8375 82.9699L58.6528 81.9474C58.2569 81.9216 57.8807 81.6909 57.5932 81.2975C57.3057 80.9042 57.1263 80.3746 57.0877 79.8059L55.1499 52.5665C55.0081 50.5717 55.2067 48.5572 55.7285 46.6984C56.2504 44.8397 57.0796 43.1931 58.1439 41.9022C59.2082 40.6113 60.4753 39.7152 61.8348 39.2921C63.1943 38.8689 64.605 38.9315 65.9439 39.4744H65.944C67.0532 39.9124 68.0869 40.679 68.9791 41.7254C78.9573 53.5398 75.7399 74.9457 74.5161 81.2249C74.4202 81.7279 74.2123 82.1714 73.9244 82.4873C73.6364 82.8032 73.2845 82.9738 72.9227 82.973Z" fill="black"/>
<path d="M60.5825 101.264C60.1876 101.264 59.7948 101.179 59.4173 101.012C58.8712 100.773 58.3663 100.371 57.9356 99.8315C57.5049 99.292 57.1581 98.6273 56.918 97.881C56.6778 97.1348 56.5498 96.3238 56.5422 95.5013C56.5347 94.6787 56.6478 93.8631 56.8741 93.108C56.9271 92.9325 56.9864 92.7613 57.0519 92.5949L48.5361 69.6259C47.8685 67.8087 47.6251 65.7297 47.8421 63.6973C48.059 61.665 48.7247 59.7876 49.7404 58.344L53.6546 52.822L58.4506 60.3735L55.56 65.327L61.6858 89.8098C61.8602 89.8776 62.0311 89.963 62.1972 90.0653C63.0529 90.5987 63.7548 91.5414 64.1844 92.7343C64.6139 93.9272 64.7449 95.2973 64.5552 96.6132C64.3654 97.9292 63.8666 99.1105 63.1428 99.9577C62.4191 100.805 61.5148 101.266 60.5825 101.264L60.5825 101.264Z" fill="#FFB8B8"/>
<path d="M56.3403 65.3248L50.2352 57.6066C49.9053 57.1887 49.7039 56.5991 49.6752 55.9673C49.6464 55.3355 49.7927 54.7131 50.0819 54.2366L57.0229 42.8241C57.7664 41.6016 58.7975 40.8192 59.9173 40.6279C61.0372 40.4366 62.1666 40.8498 63.0876 41.7879C64.0087 42.726 64.6562 44.1225 64.9054 45.7082C65.1546 47.2939 64.9877 48.9565 64.437 50.3753L58.8779 64.6956C58.7574 65.0061 58.5903 65.2739 58.3888 65.4793C58.1873 65.6848 57.9564 65.8227 57.7132 65.883C57.47 65.9433 57.2205 65.9245 56.983 65.8279C56.7454 65.7313 56.5259 65.5595 56.3403 65.3248V65.3248Z" fill="#2F2E41"/>
<path d="M58.19 34.5742C59.0148 34.9959 60.0261 35.3677 60.6752 34.4931C61.3088 33.6393 61.1934 32.0779 60.8201 30.9277C60.4468 29.7774 59.8679 28.7538 59.6904 27.5018C59.436 25.7075 60.0937 23.8433 61.0327 22.6735C61.9716 21.5036 63.1535 20.8891 64.3073 20.2978L70.6359 17.0543C72.2025 16.2515 73.8906 15.3084 74.7672 13.1956C76.0356 10.1385 74.876 5.7685 72.7954 3.98461C70.7148 2.20073 68.0867 2.53306 65.8419 3.7874C64.6003 4.48115 63.4193 5.43714 62.1353 5.92551C59.6013 6.88933 56.72 6.02468 54.4932 8.08462C52.5548 9.87778 51.6557 13.5366 51.721 16.9601C51.7863 20.3836 52.6606 23.6439 53.5828 26.7748C54.1314 28.6375 54.7175 30.5217 55.6468 32.0032C56.5761 33.4847 57.919 34.5211 59.2604 34.2485L58.19 34.5742Z" fill="#2F2E41"/>
<path d="M49.9043 21.2277C53.9701 21.2277 57.2661 16.4757 57.2661 10.6138C57.2661 4.75198 53.9701 0 49.9043 0C45.8385 0 42.5425 4.75198 42.5425 10.6138C42.5425 16.4757 45.8385 21.2277 49.9043 21.2277Z" fill="#2F2E41"/>
<path d="M109.613 71.8824L109.482 71.8566L109.974 66.6968C110.05 65.9047 109.904 65.1019 109.569 64.4648C109.234 63.8278 108.737 63.4087 108.187 63.2998L100.605 61.7971C100.056 61.6882 99.4987 61.8984 99.0568 62.3815C98.615 62.8646 98.3243 63.5809 98.2488 64.373L95.5498 92.6803C95.4743 93.4724 95.6201 94.2753 95.9552 94.9123C96.2902 95.5494 96.7871 95.9684 97.3365 96.0773L104.919 97.5801C105.468 97.6889 106.025 97.4787 106.467 96.9956C106.909 96.5126 107.2 95.7962 107.275 95.0042L109.132 75.5294L109.263 75.5553L109.613 71.8824Z" fill="#3F3D56"/>
<path d="M107.949 64.8136L107.005 64.6265C107.034 64.7886 107.035 64.9584 107.007 65.1209C106.98 65.2835 106.925 65.4338 106.848 65.5586C106.77 65.6835 106.673 65.779 106.564 65.8368C106.455 65.8947 106.338 65.913 106.223 65.8902L102.08 65.069C101.965 65.0462 101.856 64.983 101.762 64.885C101.667 64.787 101.592 64.6571 101.541 64.5068C101.49 64.3565 101.465 64.1905 101.469 64.0233C101.473 63.8561 101.505 63.6929 101.564 63.548L100.682 63.3733C100.488 63.3349 100.291 63.3519 100.102 63.4233C99.9125 63.4947 99.7349 63.6192 99.579 63.7896C99.4232 63.96 99.2921 64.1729 99.1934 64.4163C99.0946 64.6597 99.0301 64.9288 99.0034 65.2081L96.4328 92.1695C96.379 92.7337 96.4828 93.3056 96.7215 93.7594C96.9602 94.2132 97.3141 94.5117 97.7054 94.5893L104.973 96.0296C105.364 96.1071 105.761 95.9574 106.075 95.6133C106.39 95.2692 106.597 94.7589 106.651 94.1947L109.222 67.2332C109.276 66.669 109.172 66.0972 108.933 65.6434C108.694 65.1896 108.34 64.8911 107.949 64.8136V64.8136Z" fill="white"/>
<path d="M102.795 87.198C105.031 87.198 106.844 84.5844 106.844 81.3604C106.844 78.1363 105.031 75.5227 102.795 75.5227C100.559 75.5227 98.746 78.1363 98.746 81.3604C98.746 84.5844 100.559 87.198 102.795 87.198Z" fill="black"/>
<path d="M102.394 83.5873C102.303 83.5875 102.214 83.5451 102.141 83.4663L102.136 83.4614L101.185 82.411C101.141 82.3625 101.103 82.3018 101.075 82.2325C101.047 82.1631 101.029 82.0865 101.022 82.0069C101.014 81.9274 101.018 81.8466 101.032 81.769C101.046 81.6915 101.071 81.6187 101.105 81.555C101.139 81.4913 101.181 81.4379 101.229 81.3978C101.278 81.3577 101.331 81.3317 101.386 81.3214C101.441 81.311 101.497 81.3164 101.551 81.3374C101.605 81.3583 101.655 81.3944 101.699 81.4434L102.315 82.1248L103.772 79.3862C103.806 79.3227 103.848 79.2694 103.896 79.2293C103.944 79.1893 103.997 79.1633 104.052 79.1528C104.107 79.1423 104.163 79.1476 104.217 79.1683C104.27 79.189 104.321 79.2247 104.365 79.2734L104.356 79.2911L104.365 79.2737C104.454 79.3721 104.512 79.5174 104.527 79.6776C104.541 79.8378 104.511 79.9999 104.443 80.1282L102.73 83.3494C102.69 83.4237 102.639 83.4837 102.581 83.525C102.523 83.5662 102.459 83.5875 102.394 83.5873Z" fill="white"/>
<path d="M311.562 205H2.62632C2.5103 205 2.39915 204.933 2.31723 204.814C2.23531 204.696 2.18931 204.535 2.18931 204.368C2.18931 204.201 2.23531 204.04 2.31723 203.922C2.39915 203.804 2.5103 203.737 2.62632 203.736H311.562C311.678 203.736 311.789 203.803 311.872 203.921C311.954 204.04 312 204.201 312 204.368C312 204.536 311.954 204.696 311.872 204.815C311.789 204.933 311.678 205 311.562 205Z" fill="#CCCCCC"/>
</g>
<defs>
<clipPath id="clip0">
<rect width="312" height="205" fill="white"/>
</clipPath>
</defs>
</svg>
