<svg width="319" height="237" viewBox="0 0 301 282" fill="none" xmlns="http://www.w3.org/2000/svg">
<rect width="301" height="282" fill="#E5E5E5"/>
<g id="ux 1">
<path id="Vector" d="M30.636 275.545H23.6432L17.3162 233.67L12.6541 209.426L29.3041 205.962L29.4705 227.687L30.636 275.545Z" fill="#9F616A"/>
<path id="Vector_2" d="M53.1137 275.545H45.4547L39.1277 233.67L34.4656 209.426L51.116 205.962L51.2824 227.687L53.1137 275.545Z" fill="#9F616A"/>
<path id="Vector_3" d="M54.9454 229.419L34.9653 232.882L31.6351 227.215L30.9693 232.568L11.9883 233.197L11.3221 189.432L49.2842 187.543L54.9454 229.419Z" fill="#2F2E41"/>
<path id="Vector_4" d="M61.2774 282H45.9685C45.3465 282 44.75 281.766 44.3102 281.351C43.8703 280.935 43.6232 280.371 43.6232 279.783V275.552C43.6232 275.311 43.6736 275.071 43.7715 274.848C43.8693 274.624 44.0128 274.421 44.1936 274.25C44.3745 274.079 44.5892 273.944 44.8255 273.851C45.0617 273.759 45.315 273.711 45.5707 273.711C47.4347 275.436 49.5824 275.3 51.9517 273.711L52.0671 273.092C52.1229 272.793 52.26 272.513 52.465 272.28C52.67 272.046 52.9357 271.867 53.2361 271.76C53.5365 271.653 53.8612 271.621 54.1783 271.669C54.4955 271.716 54.794 271.841 55.0448 272.03L59.1843 275.162L60.3176 274.884C60.883 274.745 61.4743 274.731 62.0464 274.842C62.6184 274.953 63.156 275.186 63.6179 275.524C64.0798 275.862 64.4536 276.296 64.7109 276.791C64.9681 277.287 65.1018 277.832 65.1018 278.384V278.384C65.1018 278.859 65.0029 279.329 64.8107 279.768C64.6185 280.206 64.3368 280.605 63.9817 280.941C63.6266 281.277 63.205 281.543 62.741 281.725C62.277 281.906 61.7797 282 61.2774 282V282Z" fill="#2F2E41"/>
<path id="Vector_5" d="M38.9663 282H23.6574C23.0353 282 22.4388 281.766 21.999 281.351C21.5592 280.935 21.3121 280.371 21.3121 279.783V275.552C21.3121 275.311 21.3624 275.071 21.4603 274.848C21.5582 274.624 21.7016 274.421 21.8825 274.25C22.0633 274.079 22.278 273.944 22.5143 273.851C22.7506 273.759 23.0038 273.711 23.2596 273.711C25.1235 275.436 27.2713 275.3 29.6405 273.711L29.756 273.092C29.8118 272.793 29.9489 272.513 30.1538 272.28C30.3588 272.046 30.6245 271.867 30.925 271.76C31.2254 271.653 31.5501 271.621 31.8672 271.669C32.1843 271.716 32.4829 271.841 32.7336 272.03L36.8731 275.162L38.0065 274.884C38.5718 274.745 39.1632 274.731 39.7352 274.842C40.3073 274.953 40.8449 275.186 41.3067 275.524C41.7686 275.862 42.1425 276.296 42.3997 276.791C42.657 277.287 42.7907 277.832 42.7907 278.384V278.384C42.7907 278.859 42.6918 279.329 42.4996 279.768C42.3074 280.206 42.0257 280.605 41.6705 280.941C41.3154 281.277 40.8938 281.543 40.4298 281.725C39.9658 281.906 39.4685 282 38.9663 282V282Z" fill="#2F2E41"/>
<path id="Vector_6" d="M41.2922 106.625C48.0969 106.625 53.6133 101.409 53.6133 94.9753C53.6133 88.5414 48.0969 83.3257 41.2922 83.3257C34.4875 83.3257 28.9711 88.5414 28.9711 94.9753C28.9711 101.409 34.4875 106.625 41.2922 106.625Z" fill="#9F616A"/>
<path id="Vector_7" d="M33.9662 114.182L22.6442 111.348L30.6361 94.9755L41.2923 102.217L33.9662 114.182Z" fill="#9F616A"/>
<path id="Vector_8" d="M52.6163 194.641C42.6053 189.599 35.6728 192.694 26.6824 198.795C19.6805 203.546 9.79824 198.276 2 196.845L8.03818 131.81C8.51851 126.637 10.6034 121.712 14.0313 117.655C17.4593 113.597 22.0779 110.586 27.3081 109V109L38.2972 113.723C43.3653 120.546 44.9814 134.843 47.6212 151.506C49.8985 165.88 50.714 178.747 52.6163 194.641Z" fill="black"/>
<path id="Vector_9" d="M38.6282 182.82L40.1754 190.683C40.3196 191.416 40.3052 192.169 40.133 192.897C39.9609 193.624 39.6346 194.312 39.1737 194.917C38.7129 195.522 38.1272 196.032 37.4519 196.417C36.7766 196.802 36.0258 197.054 35.2448 197.157C34.3147 197.28 33.367 197.188 32.4822 196.891C31.5974 196.593 30.8017 196.098 30.1626 195.447C29.5235 194.797 29.0599 194.01 28.8112 193.154C28.5625 192.297 28.536 191.397 28.734 190.529L30.6362 182.191L21.3121 147.871L22.6441 135.592L35.9642 135.277C37.2316 138.89 36.7782 142.681 34.9652 146.612L38.6282 182.82Z" fill="#9F616A"/>
<path id="Vector_10" d="M34.1702 96.417C35.1469 96.3619 36.1006 96.674 37.0705 96.7958C40.5406 97.2314 44.1506 94.8505 44.9168 91.6209C44.9782 91.1908 45.1138 90.7732 45.3181 90.3846C45.8522 89.5602 47.0685 89.403 48.0712 89.5926C49.0738 89.7821 50.0243 90.2258 51.0454 90.2765C52.622 90.3547 54.1356 89.437 54.9759 88.1732C55.7699 86.8694 56.1076 85.3616 55.9406 83.8654L55.1848 84.6154C54.8776 84.0011 54.7591 83.3176 54.8425 82.6426C54.442 82.5418 54.0208 82.5398 53.6193 82.637C53.2177 82.7341 52.8493 82.9271 52.5492 83.1975C51.8827 83.2646 52.3857 82.0287 51.8906 81.6016C51.6498 81.4617 51.3628 81.4109 51.0848 81.459C49.667 81.472 48.52 80.4466 47.4028 79.6212C45.467 78.1942 43.2032 77.2179 40.7946 76.7712C39.1936 76.4759 37.4911 76.4285 35.9728 76.9922C34.7472 77.5124 33.641 78.2543 32.7166 79.1761C30.3396 81.3372 28.2347 83.8765 27.2458 86.851C26.4418 89.2874 26.419 91.8943 27.1803 94.3429C27.5788 95.6145 28.7797 99.9695 30.5378 100.071C32.7469 100.198 31.4205 96.5721 34.1702 96.417Z" fill="#2F2E41"/>
<path id="Vector_11" d="M39.6272 141.259C33.0352 136.635 26.1659 135.73 18.9811 139.055L21.8343 121.07C22.1521 119.067 23.2199 117.238 24.8435 115.916C26.4671 114.594 28.5386 113.867 30.6812 113.867V113.867C33.0538 113.867 35.3293 114.758 37.007 116.344C38.6846 117.93 39.6272 120.082 39.6272 122.325L39.6272 141.259Z" fill="black"/>
<path id="Vector_12" d="M287.721 96.0458L286.253 95.581L299.722 57.5638C300.746 54.6743 301.158 51.6224 300.934 48.5824C300.711 45.5424 299.856 42.5739 298.419 39.8462C296.982 37.1186 294.99 34.6853 292.559 32.6852C290.127 30.6852 287.303 29.1576 284.247 28.1896L284.247 28.1896L199.06 1.20809C196.004 0.240125 192.776 -0.149226 189.561 0.0622624C186.346 0.273751 183.206 1.08194 180.322 2.44068C177.437 3.79942 174.863 5.68211 172.748 7.98125C170.633 10.2804 169.017 12.9509 167.993 15.8405L167.993 15.8405L94.0997 224.406C92.0322 230.241 92.5011 236.614 95.4034 242.123C98.3056 247.632 103.403 251.825 109.575 253.78H109.575L194.762 280.761C200.934 282.716 207.674 282.273 213.5 279.529C219.327 276.785 223.761 271.965 225.829 266.129L225.829 266.129L276.665 122.642L278.133 123.107L287.721 96.0458Z" fill="#3F3D56"/>
<path id="Vector_13" d="M283.531 30.009L272.412 26.487C272.503 27.8343 272.243 29.1823 271.653 30.412C271.064 31.6418 270.164 32.7156 269.032 33.5389C267.9 34.3623 266.572 34.9098 265.164 35.1334C263.756 35.3569 262.311 35.2496 260.957 34.8208L212.155 19.3634C210.801 18.9345 209.579 18.1973 208.597 17.2168C207.616 16.2363 206.904 15.0426 206.525 13.7409C206.147 12.4391 206.112 11.0693 206.425 9.75199C206.738 8.43471 207.389 7.21044 208.321 6.18702L197.935 2.89748C193.326 1.4376 188.292 1.76871 183.941 3.81798C179.59 5.86725 176.278 9.46681 174.734 13.8248L100.949 222.084C99.4052 226.442 99.7554 231.201 101.923 235.315C104.09 239.429 107.897 242.56 112.506 244.02H112.506L198.103 271.132C200.385 271.855 202.796 272.145 205.197 271.987C207.598 271.83 209.942 271.226 212.097 270.211C214.251 269.197 216.173 267.791 217.753 266.074C219.332 264.357 220.539 262.362 221.303 260.204V260.204L295.088 51.9453C295.853 49.7874 296.161 47.5083 295.993 45.2381C295.826 42.9679 295.188 40.751 294.115 38.714C293.042 36.677 291.555 34.8599 289.739 33.3662C287.923 31.8726 285.814 30.7318 283.531 30.009V30.009Z" fill="white"/>
<path id="Vector_14" d="M261.751 104.08L170.403 75.147C169.955 75.0045 169.584 74.6996 169.374 74.2993C169.163 73.899 169.128 73.436 169.278 73.0118L176.869 51.5869C177.019 51.163 177.342 50.813 177.765 50.6136C178.189 50.4142 178.678 50.3817 179.127 50.5232L270.475 79.4564C270.923 79.599 271.294 79.9038 271.505 80.3041C271.715 80.7044 271.75 81.1675 271.6 81.5917L264.009 103.017C263.859 103.44 263.536 103.791 263.113 103.99C262.689 104.189 262.2 104.222 261.751 104.08V104.08ZM178.9 51.163C178.631 51.078 178.337 51.0975 178.083 51.2172C177.829 51.3368 177.636 51.5469 177.545 51.8012L169.955 73.2261C169.865 73.4806 169.885 73.7584 170.012 73.9986C170.138 74.2388 170.361 74.4217 170.63 74.5072L261.978 103.44C262.247 103.525 262.541 103.506 262.795 103.386C263.049 103.267 263.242 103.057 263.333 102.802L270.923 81.3774C271.013 81.1228 270.993 80.845 270.866 80.6048C270.74 80.3647 270.517 80.1817 270.248 80.0962L178.9 51.163Z" fill="#3F3D56"/>
<path id="Vector_15" d="M231.717 188.851L140.369 159.918C139.921 159.775 139.551 159.471 139.34 159.07C139.129 158.67 139.094 158.207 139.244 157.783L153.295 118.124C153.446 117.7 153.768 117.35 154.191 117.151C154.615 116.951 155.105 116.919 155.553 117.06L246.901 145.994C247.35 146.136 247.72 146.441 247.931 146.841C248.142 147.242 248.176 147.705 248.026 148.129L233.975 187.788C233.825 188.211 233.502 188.561 233.079 188.761C232.656 188.96 232.166 188.993 231.717 188.851ZM155.327 117.7C155.057 117.615 154.763 117.635 154.509 117.754C154.255 117.874 154.062 118.084 153.972 118.338L139.921 157.997C139.831 158.252 139.851 158.529 139.978 158.77C140.105 159.01 140.327 159.193 140.596 159.278L231.944 188.211C232.213 188.296 232.507 188.277 232.761 188.157C233.015 188.038 233.208 187.828 233.299 187.573L247.35 147.915C247.44 147.66 247.419 147.382 247.292 147.142C247.166 146.902 246.944 146.719 246.675 146.633L155.327 117.7Z" fill="#3F3D56"/>
<path id="Vector_16" d="M249.288 137.135L208.688 124.275C208.24 124.133 207.87 123.828 207.659 123.428C207.448 123.027 207.414 122.564 207.563 122.14L215.154 100.715C215.305 100.291 215.627 99.9412 216.051 99.7418C216.474 99.5424 216.964 99.5099 217.412 99.6515L258.012 112.511C258.46 112.653 258.83 112.958 259.041 113.358C259.252 113.759 259.286 114.222 259.137 114.646L251.546 136.071C251.395 136.495 251.073 136.845 250.649 137.044C250.226 137.244 249.736 137.276 249.288 137.135V137.135ZM217.186 100.291C216.916 100.206 216.623 100.226 216.369 100.345C216.115 100.465 215.921 100.675 215.831 100.929L208.24 122.354C208.15 122.609 208.171 122.887 208.297 123.127C208.424 123.367 208.646 123.55 208.915 123.635L249.514 136.495C249.783 136.58 250.077 136.56 250.331 136.441C250.585 136.321 250.779 136.111 250.869 135.857L258.46 114.432C258.55 114.177 258.529 113.899 258.403 113.659C258.276 113.419 258.054 113.236 257.785 113.151L217.186 100.291Z" fill="#E6E6E6"/>
<path id="Vector_17" d="M162.608 224.599L122.009 211.74C121.56 211.598 121.19 211.293 120.979 210.893C120.768 210.492 120.734 210.029 120.884 209.605L135.048 169.627C135.199 169.203 135.521 168.853 135.944 168.653C136.368 168.454 136.858 168.421 137.306 168.563L177.905 181.422C178.354 181.565 178.724 181.869 178.935 182.27C179.146 182.67 179.18 183.133 179.03 183.557L164.866 223.536C164.715 223.96 164.393 224.31 163.97 224.509C163.546 224.709 163.057 224.741 162.608 224.599V224.599ZM137.08 169.203C136.81 169.118 136.516 169.137 136.262 169.257C136.008 169.376 135.815 169.586 135.725 169.841L121.56 209.819C121.471 210.074 121.491 210.352 121.618 210.592C121.744 210.832 121.966 211.015 122.235 211.1L162.835 223.96C163.104 224.045 163.398 224.025 163.652 223.906C163.906 223.786 164.099 223.576 164.19 223.321L178.354 183.343C178.444 183.088 178.423 182.811 178.296 182.57C178.17 182.33 177.948 182.147 177.679 182.062L137.08 169.203Z" fill="#E6E6E6"/>
<path id="Vector_18" d="M212.68 240.459L172.081 227.6C171.633 227.457 171.262 227.153 171.051 226.752C170.841 226.352 170.806 225.889 170.956 225.465L185.12 185.486C185.271 185.062 185.593 184.712 186.017 184.513C186.44 184.313 186.93 184.281 187.378 184.423L227.978 197.282C228.426 197.424 228.796 197.729 229.007 198.129C229.218 198.53 229.252 198.993 229.103 199.417L214.938 239.396C214.788 239.819 214.465 240.169 214.042 240.369C213.619 240.568 213.129 240.601 212.68 240.459V240.459ZM187.152 185.062C186.883 184.977 186.589 184.997 186.335 185.116C186.081 185.236 185.887 185.446 185.797 185.7L171.633 225.679C171.543 225.934 171.563 226.211 171.69 226.452C171.816 226.692 172.039 226.875 172.308 226.96L212.907 239.819C213.176 239.904 213.47 239.885 213.724 239.765C213.978 239.646 214.171 239.436 214.262 239.181L228.426 199.203C228.516 198.948 228.495 198.67 228.369 198.43C228.242 198.19 228.02 198.007 227.751 197.922L187.152 185.062Z" fill="#E6E6E6"/>
<path id="Vector_19" d="M164.093 142.262C168.106 142.262 171.36 139.186 171.36 135.391C171.36 131.596 168.106 128.52 164.093 128.52C160.079 128.52 156.826 131.596 156.826 135.391C156.826 139.186 160.079 142.262 164.093 142.262Z" fill="black"/>
<path id="Vector_20" d="M181.546 136.088C181.395 136.039 181.235 136.019 181.076 136.029C180.917 136.039 180.761 136.078 180.618 136.145C180.475 136.212 180.347 136.305 180.242 136.419C180.137 136.533 180.057 136.665 180.007 136.808C179.956 136.951 179.936 137.102 179.947 137.253C179.958 137.403 180.001 137.55 180.072 137.685C180.144 137.82 180.243 137.94 180.364 138.039C180.485 138.137 180.625 138.212 180.777 138.26L234.919 155.408C235.07 155.457 235.23 155.477 235.389 155.467C235.548 155.457 235.704 155.418 235.847 155.351C235.99 155.284 236.118 155.191 236.223 155.077C236.328 154.964 236.408 154.831 236.458 154.688C236.509 154.545 236.529 154.394 236.518 154.243C236.507 154.093 236.464 153.946 236.392 153.811C236.321 153.676 236.222 153.556 236.101 153.457C235.98 153.359 235.84 153.284 235.688 153.237L181.546 136.088Z" fill="#E6E6E6"/>
<path id="Vector_21" d="M179.238 142.603C179.087 142.554 178.927 142.534 178.768 142.544C178.608 142.554 178.453 142.594 178.31 142.661C178.167 142.728 178.039 142.821 177.934 142.934C177.829 143.048 177.749 143.18 177.698 143.323C177.648 143.466 177.627 143.618 177.639 143.768C177.65 143.919 177.693 144.066 177.764 144.2C177.836 144.335 177.935 144.456 178.056 144.554C178.176 144.653 178.317 144.728 178.468 144.775L201.766 152.154C202.07 152.249 202.401 152.226 202.687 152.09C202.973 151.954 203.191 151.717 203.293 151.43C203.394 151.143 203.372 150.83 203.23 150.558C203.088 150.287 202.838 150.08 202.535 149.982L179.238 142.603Z" fill="#E6E6E6"/>
<path id="Vector_22" d="M154.347 146.305C153.474 146.028 152.59 146.29 152.378 146.889C152.166 147.487 152.704 148.2 153.578 148.476L228.277 172.136C229.151 172.413 230.035 172.151 230.247 171.552C230.459 170.954 229.92 170.241 229.047 169.964L154.347 146.305Z" fill="#E6E6E6"/>
<path id="Vector_23" d="M152.039 152.82C151.166 152.543 150.282 152.805 150.07 153.404C149.858 154.003 150.396 154.715 151.27 154.992L225.969 178.652C226.843 178.928 227.726 178.666 227.938 178.068C228.15 177.469 227.612 176.756 226.739 176.48L152.039 152.82Z" fill="#E6E6E6"/>
<path id="Vector_24" d="M189.25 73.3798C193.263 73.3798 196.517 70.3035 196.517 66.5087C196.517 62.7138 193.263 59.6375 189.25 59.6375C185.236 59.6375 181.983 62.7138 181.983 66.5087C181.983 70.3035 185.236 73.3798 189.25 73.3798Z" fill="black"/>
<path id="Vector_25" d="M206.703 67.2058C206.552 67.1579 206.393 67.1386 206.234 67.1489C206.075 67.1593 205.92 67.1991 205.778 67.2662C205.636 67.3332 205.508 67.4261 205.404 67.5396C205.3 67.6531 205.22 67.785 205.169 67.9276C205.119 68.0703 205.098 68.221 205.109 68.3711C205.12 68.5212 205.163 68.6678 205.234 68.8024C205.305 68.9371 205.403 69.0572 205.523 69.1558C205.643 69.2545 205.783 69.3299 205.934 69.3776L260.076 86.5263C260.38 86.6208 260.711 86.5978 260.997 86.4621C261.283 86.3264 261.501 86.0891 261.603 85.8022C261.704 85.5152 261.682 85.2018 261.54 84.9306C261.398 84.6593 261.148 84.4522 260.845 84.3545L206.703 67.2058Z" fill="#E6E6E6"/>
<path id="Vector_26" d="M204.395 73.7211C204.244 73.6732 204.085 73.6539 203.926 73.6642C203.767 73.6746 203.612 73.7144 203.47 73.7815C203.327 73.8485 203.2 73.9414 203.096 74.0549C202.991 74.1684 202.911 74.3003 202.861 74.443C202.81 74.5856 202.79 74.7363 202.801 74.8864C202.812 75.0365 202.854 75.1831 202.925 75.3177C202.996 75.4524 203.095 75.5725 203.215 75.6712C203.335 75.7698 203.474 75.8452 203.625 75.8929L226.923 83.272C227.227 83.3666 227.558 83.3435 227.844 83.2078C228.131 83.0722 228.348 82.8349 228.45 82.5479C228.552 82.261 228.529 81.9476 228.387 81.6763C228.245 81.405 227.995 81.1979 227.692 81.1003L204.395 73.7211Z" fill="#E6E6E6"/>
<path id="Vector_27" d="M199.178 121.267L161.092 109.204L175.256 97.3647C175.51 97.1525 175.818 97.0072 176.15 96.9435C176.482 96.8797 176.826 96.8997 177.147 97.0014C177.469 97.1032 177.756 97.2832 177.98 97.5232C178.205 97.7632 178.358 98.0549 178.426 98.3688L180.033 105.852L190.321 97.2523C190.639 96.9866 191.025 96.8047 191.44 96.7249C191.856 96.645 192.287 96.6701 192.689 96.7975C193.091 96.9249 193.451 97.1502 193.732 97.4507C194.013 97.7512 194.205 98.1163 194.29 98.5094L199.178 121.267ZM162.491 108.936L198.233 120.256L193.59 98.6437C193.531 98.3667 193.395 98.1093 193.197 97.8976C192.999 97.6858 192.746 97.527 192.462 97.4373C192.179 97.3475 191.876 97.3298 191.583 97.3861C191.29 97.4424 191.017 97.5706 190.794 97.7578L179.58 107.131L177.726 98.5031C177.684 98.3052 177.587 98.1214 177.446 97.9701C177.304 97.8188 177.123 97.7054 176.921 97.6412C176.718 97.5771 176.501 97.5645 176.292 97.6047C176.083 97.6449 175.888 97.7365 175.728 97.8703L162.491 108.936Z" fill="#E6E6E6"/>
<path id="Vector_28" d="M247.897 136.698L209.811 124.635L223.975 112.796C224.228 112.584 224.537 112.438 224.869 112.374C225.201 112.311 225.545 112.331 225.866 112.432C226.188 112.534 226.475 112.714 226.699 112.954C226.924 113.194 227.077 113.486 227.145 113.8L228.752 121.283L239.04 112.683C239.358 112.418 239.744 112.236 240.159 112.156C240.575 112.076 241.006 112.101 241.408 112.228C241.81 112.356 242.17 112.581 242.451 112.882C242.732 113.182 242.924 113.547 243.009 113.94L247.897 136.698ZM211.21 124.367L246.952 135.687L242.309 114.075C242.25 113.798 242.114 113.54 241.916 113.329C241.718 113.117 241.465 112.958 241.181 112.868C240.898 112.778 240.594 112.761 240.302 112.817C240.009 112.873 239.736 113.002 239.512 113.189L228.299 122.562L226.445 113.934C226.403 113.736 226.306 113.552 226.165 113.401C226.023 113.25 225.842 113.136 225.64 113.072C225.437 113.008 225.22 112.995 225.011 113.036C224.802 113.076 224.607 113.167 224.447 113.301L211.21 124.367Z" fill="#E6E6E6"/>
<path id="Vector_29" d="M199.215 121.275L158.616 108.416C158.168 108.273 157.798 107.968 157.587 107.568C157.376 107.168 157.341 106.705 157.491 106.28L165.082 84.8555C165.233 84.4316 165.555 84.0816 165.978 83.8822C166.402 83.6828 166.891 83.6503 167.34 83.7918L207.939 96.6511C208.388 96.7936 208.758 97.0985 208.969 97.4988C209.18 97.8991 209.214 98.3621 209.064 98.7863L201.474 120.211C201.323 120.635 201 120.985 200.577 121.185C200.154 121.384 199.664 121.416 199.215 121.275ZM167.113 84.4316C166.844 84.3467 166.55 84.3661 166.296 84.4858C166.042 84.6054 165.849 84.8155 165.758 85.0698L158.168 106.495C158.078 106.749 158.098 107.027 158.225 107.267C158.352 107.507 158.574 107.69 158.843 107.776L199.442 120.635C199.711 120.72 200.005 120.701 200.259 120.581C200.513 120.461 200.707 120.251 200.797 119.997L208.388 98.572C208.478 98.3175 208.457 98.0396 208.33 97.7995C208.204 97.5593 207.982 97.3764 207.713 97.2908L167.113 84.4316Z" fill="#E6E6E6"/>
<path id="Vector_30" d="M143.036 179.547C142.885 179.498 142.725 179.478 142.566 179.488C142.407 179.498 142.251 179.538 142.108 179.605C141.965 179.672 141.837 179.765 141.732 179.878C141.628 179.992 141.547 180.124 141.497 180.267C141.446 180.41 141.426 180.562 141.437 180.712C141.448 180.863 141.491 181.01 141.563 181.144C141.634 181.279 141.733 181.4 141.854 181.498C141.975 181.597 142.115 181.672 142.267 181.719L165.564 189.098C165.715 189.146 165.874 189.165 166.033 189.155C166.192 189.145 166.347 189.105 166.489 189.038C166.632 188.971 166.759 188.878 166.863 188.764C166.968 188.651 167.048 188.519 167.098 188.376C167.149 188.234 167.169 188.083 167.158 187.933C167.147 187.783 167.105 187.636 167.034 187.501C166.963 187.367 166.864 187.247 166.744 187.148C166.624 187.049 166.485 186.974 166.334 186.926L143.036 179.547Z" fill="#E6E6E6"/>
<path id="Vector_31" d="M140.769 185.945C140.465 185.85 140.134 185.873 139.848 186.009C139.562 186.145 139.344 186.382 139.242 186.669C139.141 186.956 139.163 187.269 139.305 187.541C139.447 187.812 139.697 188.019 140 188.117L163.297 195.496C163.602 195.591 163.933 195.567 164.219 195.432C164.505 195.296 164.723 195.059 164.825 194.772C164.926 194.485 164.904 194.171 164.762 193.9C164.62 193.629 164.37 193.422 164.067 193.324L140.769 185.945Z" fill="#E6E6E6"/>
<path id="Vector_32" d="M145.229 209.926C143.8 209.473 142.544 208.629 141.621 207.502C140.698 206.374 140.15 205.013 140.045 203.591C139.941 202.168 140.285 200.749 141.033 199.511C141.782 198.274 142.902 197.274 144.252 196.638C145.601 196.002 147.12 195.759 148.616 195.94C150.111 196.12 151.517 196.716 152.655 197.652C153.792 198.588 154.611 199.821 155.007 201.197C155.403 202.572 155.359 204.028 154.88 205.38C154.236 207.192 152.858 208.688 151.049 209.54C149.239 210.392 147.147 210.531 145.229 209.926V209.926ZM149.846 196.895C148.55 196.485 147.154 196.447 145.836 196.786C144.517 197.126 143.334 197.827 142.437 198.802C141.54 199.777 140.969 200.982 140.796 202.264C140.623 203.545 140.856 204.847 141.466 206.004C142.075 207.16 143.033 208.12 144.22 208.762C145.406 209.404 146.767 209.698 148.131 209.608C149.494 209.519 150.799 209.049 151.88 208.258C152.961 207.467 153.769 206.391 154.203 205.166C154.783 203.523 154.65 201.729 153.833 200.179C153.016 198.628 151.582 197.447 149.846 196.895V196.895Z" fill="#E6E6E6"/>
<path id="Vector_33" d="M206.95 229.475C207.101 229.524 207.261 229.543 207.42 229.534C207.58 229.524 207.735 229.484 207.878 229.417C208.021 229.35 208.149 229.257 208.254 229.144C208.359 229.03 208.439 228.898 208.49 228.755C208.54 228.612 208.561 228.46 208.549 228.31C208.538 228.159 208.495 228.012 208.424 227.877C208.352 227.743 208.253 227.622 208.132 227.524C208.012 227.425 207.871 227.35 207.72 227.303L184.422 219.924C184.271 219.875 184.111 219.855 183.952 219.865C183.793 219.875 183.637 219.914 183.494 219.981C183.351 220.048 183.223 220.141 183.118 220.255C183.014 220.369 182.933 220.501 182.883 220.644C182.832 220.787 182.812 220.938 182.823 221.089C182.834 221.239 182.877 221.386 182.949 221.521C183.02 221.656 183.119 221.776 183.24 221.875C183.361 221.973 183.501 222.048 183.653 222.096L206.95 229.475Z" fill="#E6E6E6"/>
<path id="Vector_34" d="M209.217 223.077C209.368 223.125 209.527 223.144 209.686 223.134C209.845 223.123 210 223.084 210.142 223.017C210.285 222.95 210.412 222.857 210.516 222.743C210.621 222.63 210.7 222.498 210.751 222.355C210.802 222.212 210.822 222.062 210.811 221.912C210.8 221.762 210.757 221.615 210.686 221.48C210.615 221.346 210.517 221.226 210.397 221.127C210.277 221.028 210.137 220.953 209.986 220.905L186.689 213.526C186.538 213.477 186.378 213.457 186.219 213.467C186.06 213.477 185.904 213.517 185.761 213.584C185.618 213.65 185.49 213.743 185.385 213.857C185.28 213.971 185.2 214.103 185.149 214.246C185.099 214.389 185.078 214.541 185.09 214.691C185.101 214.842 185.144 214.989 185.215 215.123C185.287 215.258 185.386 215.379 185.507 215.477C185.628 215.576 185.768 215.651 185.919 215.698L209.217 223.077Z" fill="#E6E6E6"/>
<path id="Vector_35" d="M204.757 199.096C206.187 199.549 207.442 200.393 208.365 201.52C209.288 202.648 209.836 204.009 209.941 205.431C210.046 206.854 209.702 208.273 208.953 209.511C208.204 210.748 207.084 211.748 205.735 212.384C204.385 213.02 202.866 213.263 201.371 213.082C199.875 212.902 198.469 212.306 197.332 211.37C196.194 210.434 195.375 209.201 194.979 207.825C194.583 206.45 194.627 204.994 195.106 203.642C195.751 201.83 197.128 200.334 198.938 199.482C200.747 198.63 202.84 198.491 204.757 199.096V199.096ZM200.14 212.127C201.436 212.537 202.832 212.575 204.151 212.236C205.469 211.896 206.652 211.195 207.549 210.22C208.446 209.245 209.017 208.04 209.19 206.758C209.363 205.477 209.13 204.175 208.521 203.018C207.911 201.862 206.953 200.902 205.767 200.26C204.58 199.618 203.219 199.324 201.856 199.414C200.492 199.503 199.188 199.973 198.107 200.764C197.026 201.555 196.217 202.631 195.783 203.856C195.203 205.499 195.336 207.293 196.153 208.843C196.97 210.394 198.404 211.575 200.14 212.127V212.127Z" fill="#E6E6E6"/>
</g>
</svg>
