<svg width="312" height="214" viewBox="0 0 312 214" fill="none" xmlns="http://www.w3.org/2000/svg">
<rect width="312" height="214" fill="#E5E5E5"/>
<g id="profil 1" clip-path="url(#clip0)">
<path id="Vector" d="M226.463 64.8622H3.20713C2.35676 64.8629 1.54145 65.1827 0.940162 65.7514C0.338874 66.32 0.000745986 67.0911 0 67.8953V210.967C0.000745986 211.771 0.338874 212.542 0.940162 213.111C1.54145 213.679 2.35676 213.999 3.20713 214H226.463C226.926 214 227.384 213.905 227.806 213.721C228.227 213.537 228.6 213.269 228.901 212.936C228.927 212.909 228.95 212.882 228.971 212.852C229.163 212.631 229.318 212.383 229.431 212.118C229.592 211.754 229.675 211.362 229.673 210.967V67.8953C229.673 67.0906 229.334 66.319 228.732 65.7503C228.13 65.1816 227.314 64.8621 226.463 64.8622ZM228.758 210.967C228.758 211.39 228.626 211.804 228.379 212.156C228.159 212.467 227.861 212.72 227.511 212.894C227.187 213.052 226.827 213.135 226.463 213.134H3.20713C2.59964 213.133 2.01724 212.905 1.58768 212.498C1.15811 212.092 0.916458 211.541 0.915721 210.967V67.8953C0.916458 67.3208 1.15811 66.77 1.58768 66.3638C2.01724 65.9576 2.59964 65.729 3.20713 65.7283H226.463C227.071 65.7282 227.654 65.9564 228.084 66.3627C228.515 66.769 228.757 67.3202 228.758 67.8953V210.967Z" fill="#3F3D56"/>
<path id="Vector_2" d="M229.214 77.0187H0.457047V77.8858H229.214V77.0187Z" fill="#3F3D56"/>
<path id="Vector_3" d="M8.25032 73.9666C9.76943 73.9666 11.0009 72.802 11.0009 71.3653C11.0009 69.9287 9.76943 68.7641 8.25032 68.7641C6.73122 68.7641 5.49974 69.9287 5.49974 71.3653C5.49974 72.802 6.73122 73.9666 8.25032 73.9666Z" fill="#3F3D56"/>
<path id="Vector_4" d="M16.1583 73.9666C17.6774 73.9666 18.9089 72.802 18.9089 71.3653C18.9089 69.9287 17.6774 68.7641 16.1583 68.7641C14.6392 68.7641 13.4077 69.9287 13.4077 71.3653C13.4077 72.802 14.6392 73.9666 16.1583 73.9666Z" fill="#3F3D56"/>
<path id="Vector_5" d="M24.0662 73.9666C25.5853 73.9666 26.8168 72.802 26.8168 71.3653C26.8168 69.9287 25.5853 68.7641 24.0662 68.7641C22.5471 68.7641 21.3156 69.9287 21.3156 71.3653C21.3156 72.802 22.5471 73.9666 24.0662 73.9666Z" fill="#3F3D56"/>
<g id="inpute">
<path id="Vector_6" d="M172.249 97.0898H57.4945C56.2264 97.0898 55.0102 96.6134 54.1135 95.7654C53.2168 94.9174 52.713 93.7672 52.713 92.5679C52.713 91.3687 53.2168 90.2185 54.1135 89.3705C55.0102 88.5225 56.2264 88.0461 57.4945 88.0461H172.249C173.517 88.0461 174.733 88.5225 175.63 89.3705C176.526 90.2185 177.03 91.3687 177.03 92.5679C177.03 93.7672 176.526 94.9174 175.63 95.7654C174.733 96.6134 173.517 97.0898 172.249 97.0898ZM57.4945 88.7418C56.4214 88.7418 55.3924 89.1449 54.6336 89.8624C53.8749 90.58 53.4486 91.5532 53.4486 92.5679C53.4486 93.5827 53.8749 94.5559 54.6336 95.2735C55.3924 95.991 56.4214 96.3941 57.4945 96.3941H172.249C173.322 96.3941 174.351 95.991 175.109 95.2735C175.868 94.5559 176.294 93.5827 176.294 92.5679C176.294 91.5532 175.868 90.58 175.109 89.8624C174.351 89.1449 173.322 88.7418 172.249 88.7418H57.4945Z" fill="#3F3D56"/>
</g>
<g id="part1">
<path id="Vector_7" d="M67.0225 150.176H22.8864C21.2287 150.174 19.6394 149.55 18.4672 148.442C17.295 147.333 16.6356 145.83 16.6338 144.262V124.784C16.6356 123.216 17.295 121.713 18.4672 120.604C19.6394 119.496 21.2287 118.872 22.8864 118.87H67.0225C68.6803 118.872 70.2696 119.496 71.4418 120.604C72.614 121.713 73.2733 123.216 73.2752 124.784V144.262C73.2733 145.83 72.614 147.333 71.4418 148.442C70.2696 149.55 68.6803 150.174 67.0225 150.176Z" fill="black"/>
</g>
<g id="part2">
<path id="Vector_8" d="M136.905 150.176H92.7687C91.111 150.174 89.5216 149.55 88.3494 148.442C87.1773 147.333 86.5179 145.83 86.516 144.262V124.784C86.5179 123.216 87.1773 121.713 88.3494 120.604C89.5216 119.496 91.111 118.872 92.7687 118.87H136.905C138.563 118.872 140.152 119.496 141.324 120.604C142.496 121.713 143.156 123.216 143.157 124.784V144.262C143.156 145.83 142.496 147.333 141.324 148.442C140.152 149.55 138.563 150.174 136.905 150.176Z" fill="black"/>
</g>
<path id="part3" d="M206.787 150.176H162.651C160.993 150.174 159.404 149.55 158.232 148.442C157.06 147.333 156.4 145.83 156.398 144.262V124.784C156.4 123.216 157.06 121.713 158.232 120.604C159.404 119.496 160.993 118.872 162.651 118.87H206.787C208.445 118.872 210.034 119.496 211.206 120.604C212.378 121.713 213.038 123.216 213.04 124.784V144.262C213.038 145.83 212.378 147.333 211.206 148.442C210.034 149.55 208.445 150.174 206.787 150.176Z" fill="black"/>
<g id="part4">
<path id="Vector_9" d="M67.0225 191.22H22.8864C21.2287 191.218 19.6394 190.595 18.4672 189.486C17.295 188.378 16.6356 186.875 16.6338 185.307V165.828C16.6356 164.26 17.295 162.757 18.4672 161.649C19.6394 160.54 21.2287 159.917 22.8864 159.915H67.0225C68.6803 159.917 70.2696 160.54 71.4418 161.649C72.614 162.757 73.2733 164.26 73.2752 165.828V185.307C73.2733 186.875 72.614 188.378 71.4418 189.486C70.2696 190.595 68.6803 191.218 67.0225 191.22Z" fill="black"/>
</g>
<g id="part5">
<path id="Vector_10" d="M136.905 191.22H92.7687C91.111 191.218 89.5216 190.595 88.3494 189.486C87.1773 188.378 86.5179 186.875 86.516 185.307V165.828C86.5179 164.26 87.1773 162.757 88.3494 161.649C89.5216 160.54 91.111 159.917 92.7687 159.915H136.905C138.563 159.917 140.152 160.54 141.324 161.649C142.496 162.757 143.156 164.26 143.157 165.828V185.307C143.156 186.875 142.496 188.378 141.324 189.486C140.152 190.595 138.563 191.218 136.905 191.22Z" fill="black"/>
</g>
<g id="part6">
<path id="Vector_11" d="M206.787 191.22H162.651C160.993 191.218 159.404 190.595 158.232 189.486C157.06 188.378 156.4 186.875 156.398 185.307V165.828C156.4 164.26 157.06 162.757 158.232 161.649C159.404 160.54 160.993 159.917 162.651 159.915H206.787C208.445 159.917 210.034 160.54 211.206 161.649C212.378 162.757 213.038 164.26 213.04 165.828V185.307C213.038 186.875 212.378 188.378 211.206 189.486C210.034 190.595 208.445 191.218 206.787 191.22Z" fill="black"/>
</g>
<path id="Vector_12" d="M256.4 98.0004C263.103 98.0004 268.537 92.8612 268.537 86.5218C268.537 80.1824 263.103 75.0432 256.4 75.0432C249.696 75.0432 244.262 80.1824 244.262 86.5218C244.262 92.8612 249.696 98.0004 256.4 98.0004Z" fill="#2F2E41"/>
<path id="Vector_13" d="M225.993 146.234C225.724 145.751 225.57 145.218 225.543 144.672C225.516 144.126 225.615 143.582 225.834 143.076C226.054 142.571 226.387 142.117 226.812 141.747C227.237 141.377 227.742 141.099 228.293 140.933L243.673 110.164L250.708 114.83L233.378 143.608C233.61 144.501 233.489 145.444 233.035 146.257C232.582 147.071 231.829 147.699 230.919 148.023C230.009 148.347 229.004 148.344 228.097 148.014C227.189 147.684 226.44 147.051 225.993 146.234Z" fill="#FFB8B8"/>
<path id="Vector_14" d="M239.172 114.249C239.099 114.019 239.079 113.776 239.114 113.537C239.149 113.299 239.238 113.07 239.375 112.867L244.157 105.778C244.689 104.653 245.67 103.774 246.886 103.333C248.102 102.891 249.454 102.924 250.644 103.424C251.835 103.923 252.767 104.849 253.237 105.998C253.707 107.146 253.677 108.424 253.152 109.552L250.743 117.675C250.674 117.907 250.554 118.122 250.389 118.306C250.224 118.489 250.02 118.637 249.789 118.739C249.559 118.842 249.308 118.896 249.053 118.898C248.799 118.9 248.547 118.85 248.314 118.752L240.146 115.298C239.913 115.199 239.706 115.055 239.538 114.874C239.37 114.693 239.245 114.48 239.172 114.249Z" fill="black"/>
<path id="Vector_15" d="M277.87 149.285C277.308 149.161 276.78 148.923 276.326 148.585C275.871 148.248 275.501 147.821 275.239 147.334C274.978 146.846 274.834 146.311 274.815 145.765C274.796 145.219 274.905 144.676 275.132 144.174L260.566 113.052L268.899 111.067L280.596 142.283C281.463 142.7 282.138 143.404 282.493 144.26C282.848 145.116 282.858 146.066 282.522 146.929C282.186 147.792 281.527 148.509 280.669 148.943C279.812 149.377 278.816 149.499 277.87 149.285V149.285Z" fill="#FFB8B8"/>
<path id="Vector_16" d="M281.841 205.695L277.604 207.154L269.637 192.393L275.89 190.239L281.841 205.695Z" fill="#FFB8B8"/>
<path id="Vector_17" d="M274.137 207.052L282.308 204.238L284.181 209.104L270.865 213.689C270.619 213.05 270.508 212.371 270.54 211.692C270.571 211.013 270.743 210.346 271.047 209.729C271.351 209.113 271.78 208.559 272.31 208.1C272.84 207.64 273.461 207.284 274.137 207.052Z" fill="#2F2E41"/>
<path id="Vector_18" d="M270.274 196.358L254.132 169.644C253.976 169.385 253.896 169.092 253.899 168.795C253.903 168.497 253.99 168.206 254.151 167.95L261.42 156.494C261.592 156.222 261.843 156.002 262.142 155.859C262.441 155.717 262.777 155.657 263.11 155.688C263.444 155.719 263.761 155.838 264.026 156.032C264.291 156.227 264.491 156.488 264.605 156.786L278.348 192.776C278.499 193.168 278.49 193.599 278.322 193.985C278.154 194.37 277.839 194.682 277.44 194.86L272.57 197.041C272.335 197.146 272.079 197.201 271.819 197.2C271.506 197.201 271.198 197.123 270.927 196.975C270.655 196.827 270.43 196.615 270.274 196.358Z" fill="#2F2E41"/>
<path id="Vector_19" d="M255.295 99.0635C260.284 99.0635 264.328 95.2386 264.328 90.5203C264.328 85.802 260.284 81.9771 255.295 81.9771C250.306 81.9771 246.261 85.802 246.261 90.5203C246.261 95.2386 250.306 99.0635 255.295 99.0635Z" fill="#FFB8B8"/>
<path id="Vector_20" d="M242.446 129.217C235.332 114.299 242.504 105.962 245.917 103.07C246.9 102.235 248.175 101.774 249.496 101.775H262.222C263.136 101.775 264.034 101.996 264.832 102.417C265.631 102.838 266.302 103.444 266.782 104.18C267.263 104.915 267.536 105.754 267.577 106.617C267.619 107.481 267.426 108.34 267.017 109.113L258.51 125.203L242.515 129.363L242.446 129.217Z" fill="black"/>
<path id="Vector_21" d="M261.063 118.63C260.83 118.531 260.623 118.387 260.455 118.206C260.287 118.025 260.163 117.812 260.09 117.581L257.543 109.524C256.992 108.408 256.93 107.132 257.372 105.973C257.814 104.815 258.723 103.87 259.901 103.344C261.079 102.819 262.429 102.757 263.655 103.171C264.881 103.585 265.884 104.442 266.443 105.554L271.368 112.588C271.509 112.789 271.602 113.016 271.641 113.254C271.681 113.492 271.665 113.735 271.596 113.967C271.528 114.198 271.407 114.413 271.242 114.597C271.077 114.781 270.873 114.928 270.642 115.031L262.538 118.618C262.308 118.72 262.056 118.774 261.802 118.776C261.547 118.778 261.295 118.728 261.063 118.63Z" fill="black"/>
<path id="Vector_22" d="M252.734 209.729L248.224 209.729L246.079 193.28L252.734 193.281L252.734 209.729Z" fill="#FFB8B8"/>
<path id="Vector_23" d="M245.003 208.51H253.7V213.688H239.528C239.528 213.008 239.67 212.335 239.945 211.707C240.22 211.079 240.623 210.508 241.132 210.027C241.64 209.546 242.244 209.165 242.908 208.904C243.572 208.644 244.284 208.51 245.003 208.51Z" fill="#2F2E41"/>
<path id="Vector_24" d="M250.823 203.45L243.603 202.662C243.37 202.637 243.144 202.567 242.939 202.458C242.734 202.349 242.554 202.203 242.409 202.027C242.265 201.852 242.158 201.651 242.097 201.436C242.035 201.222 242.019 200.997 242.05 200.777L248.494 154.897C248.516 154.738 248.507 154.575 248.467 154.419L241.991 129.15C241.929 128.917 241.922 128.674 241.97 128.438C242.018 128.203 242.12 127.979 242.268 127.784C243.272 126.475 246.713 123.424 256.948 123.366H256.959C257.3 123.366 257.634 123.459 257.921 123.633C258.207 123.807 258.435 124.056 258.577 124.349L259.942 127.19C260.044 127.4 260.203 127.582 260.403 127.716C262.282 128.974 271.386 136.035 266.04 151.538C260.786 166.776 254.055 196.359 252.759 202.134C252.676 202.51 252.459 202.847 252.144 203.088C251.83 203.33 251.436 203.462 251.031 203.461C250.961 203.461 250.892 203.457 250.823 203.45Z" fill="#2F2E41"/>
<path id="Vector_25" d="M264.787 85.1466C262.723 86.4922 260.273 87.2083 257.765 87.1988C258.66 87.7852 259.678 88.1814 260.75 88.3599C257.416 89.0361 253.971 89.0544 250.63 88.4137C249.887 88.301 249.171 88.0683 248.512 87.7256C248.183 87.5521 247.897 87.3152 247.672 87.0302C247.446 86.7453 247.287 86.4187 247.204 86.0717C246.982 84.8722 247.97 83.7824 248.997 83.0479C250.57 81.9406 252.383 81.1777 254.306 80.8143C256.228 80.451 258.212 80.4964 260.114 80.9471C261.356 81.2507 262.6 81.7636 263.406 82.7067C264.213 83.6498 264.452 85.1038 263.683 86.075L264.787 85.1466Z" fill="#2F2E41"/>
<path id="Vector_26" d="M258.756 79.2039C257.724 78.879 256.662 78.5381 255.844 77.86C255.026 77.1818 254.507 76.0726 254.875 75.1046C255.229 74.1718 256.308 73.627 257.353 73.5536C258.398 73.4803 259.426 73.7862 260.424 74.0884C259.973 73.4434 259.507 72.193 259.099 70.8741C258.167 67.8648 262.049 65.1165 265.355 65.3434C265.453 65.35 265.547 65.3596 265.638 65.3721C268.973 65.8322 270.703 67.0352 273.031 69.3385C275.945 72.2199 277.468 76.1078 278.489 79.9759C279.509 83.844 280.108 87.8245 281.543 91.5731C282.978 95.3216 285.399 98.925 289.1 100.833C291.127 101.844 293.409 102.307 295.696 102.174C297.984 102.041 300.188 101.315 302.069 100.077C302.325 101.723 302.167 103.404 301.608 104.981C301.05 106.559 300.105 107.99 298.853 109.159C297.6 110.327 296.074 111.199 294.398 111.706C292.721 112.212 290.943 112.337 289.206 112.072C284.427 111.342 280.6 107.702 278.555 103.553C276.51 99.4039 275.952 94.7596 275.439 90.2078C274.926 85.6559 274.407 81.0131 272.429 76.8351C271.628 75.1442 270.45 73.4232 268.343 73.1534C267.794 73.0686 267.229 73.1575 266.738 73.4064C266.247 73.6553 265.856 74.0504 265.627 74.5304C264.701 76.65 267.869 78.445 267.057 80.4649C266.881 80.8559 266.59 81.1911 266.219 81.4307C265.848 81.6703 265.413 81.8044 264.963 81.817C263.432 81.9123 262.174 81.0822 260.989 80.2809C258.565 78.6417 258.756 79.2039 258.756 79.2039Z" fill="#2F2E41"/>
</g>
<defs>
<clipPath id="clip0">
<rect width="312" height="214" fill="white"/>
</clipPath>
</defs>
</svg>
