<svg width="319" height="237" viewBox="0 0 317 256" fill="none" xmlns="http://www.w3.org/2000/svg">
<rect width="317" height="256" fill="#E5E5E5"/>
<path d="M218.884 203.573C218.884 203.573 219.494 217.129 218.273 219.389C218.273 219.389 245.129 226.619 248.486 224.359C251.843 222.1 250.317 218.485 248.486 217.129C246.655 215.774 237.5 210.803 236.279 201.313C236.279 201.313 240.246 198.602 227.429 202.217C214.611 205.832 218.884 203.573 218.884 203.573Z" fill="#DC9BA3"/>
<path opacity="0.05" d="M218.884 203.573C218.884 203.573 219.494 217.129 218.273 219.389C218.273 219.389 245.129 226.619 248.486 224.359C251.843 222.1 250.317 218.485 248.486 217.129C246.655 215.774 237.5 210.803 236.279 201.313C236.279 201.313 240.246 198.602 227.429 202.217C214.611 205.832 218.884 203.573 218.884 203.573Z" fill="black"/>
<path d="M114.148 14.7946L114.032 14.8759C108.492 18.745 103.673 24.5571 99.9933 31.8079C97.9119 35.8749 95.3545 39.752 92.9222 40.3937C87.5205 41.8036 47.8009 102.97 57.3348 159.898C66.8687 216.826 122.488 219.176 122.488 219.176C122.488 219.176 134.317 222.145 141.105 228.083C142.689 229.47 144.461 230.325 146.294 230.586C148.126 230.846 149.975 230.507 151.71 229.592C159.791 225.335 173.072 219.163 179.06 221.061C187.956 223.885 264.206 176.835 264.206 176.835C264.206 176.835 232.431 131.647 185.722 132.609C185.722 132.609 112.005 56.3903 114.547 24.867L114.148 14.7946Z" fill="black"/>
<path opacity="0.1" d="M114.148 14.7946L114.032 14.8759C108.492 18.745 103.673 24.5571 99.9933 31.8079C97.9119 35.8749 95.3545 39.752 92.9222 40.3937C87.5205 41.8036 47.8009 102.97 57.3348 159.898C66.8687 216.826 122.488 219.176 122.488 219.176C122.488 219.176 134.317 222.145 141.105 228.083C142.689 229.47 144.461 230.325 146.294 230.586C148.126 230.846 149.975 230.507 151.71 229.592C159.791 225.335 173.072 219.163 179.06 221.061C187.956 223.885 264.206 176.835 264.206 176.835C264.206 176.835 232.431 131.647 185.722 132.609C185.722 132.609 112.005 56.3903 114.547 24.867L114.148 14.7946Z" fill="black"/>
<path d="M114.206 14.6862L106.576 25.5313C106.576 25.5313 100.778 42.2509 95.5895 43.6066C90.4014 44.9622 52.2535 103.707 61.409 158.385C70.5645 213.062 123.972 215.322 123.972 215.322C123.972 215.322 135.086 218.11 141.626 223.69C143.212 225.065 144.98 225.914 146.809 226.179C148.638 226.443 150.484 226.117 152.219 225.222C159.998 221.155 172.599 215.322 178.291 217.129C186.836 219.84 260.08 174.652 260.08 174.652C260.08 174.652 229.562 131.272 184.7 132.175C184.7 132.175 113.897 58.9706 116.339 28.6945L114.206 14.6862Z" fill="black"/>
<path opacity="0.1" d="M165.258 188.123C174.656 174.207 168.405 142.388 151.296 117.054C134.186 91.7198 112.697 82.464 103.298 96.3805C93.8995 110.297 100.151 142.116 117.26 167.45C134.37 192.784 155.859 202.04 165.258 188.123Z" fill="black"/>
<path d="M114.206 72.0751C114.206 72.0751 117.563 80.209 115.426 96.0248C113.29 111.841 120.92 111.841 120.92 111.841H136.179L141.367 91.9579L134.043 92.8617C134.043 92.8617 129.16 91.0541 131.296 74.3345L114.206 72.0751Z" fill="#FFD2D9"/>
<path d="M159.983 53.0961C157.649 64.0994 154.722 77.4977 153.159 84.6465L152.048 89.6985L141.977 74.3345C141.977 74.3345 142.42 72.8117 143.082 70.6788C144.556 65.9521 147.123 58.2385 148.386 57.6149C148.386 57.6149 134.348 56.2593 130.075 61.23C125.803 66.2006 127.023 47.6735 127.023 47.6735C127.023 47.6735 135.263 46.7697 138.315 44.0585C141.367 41.3472 157.847 38.6359 157.847 38.6359C157.847 38.6359 163.34 37.2802 159.983 53.0961Z" fill="#FFD2D9"/>
<path opacity="0.1" d="M104.745 189.564C104.745 189.564 130.686 171.941 139.841 174.652Z" fill="black"/>
<path opacity="0.1" d="M78.1941 147.991C78.1941 147.991 109.628 146.184 126.718 162.451Z" fill="black"/>
<path opacity="0.1" d="M93.7584 166.518C93.7584 166.518 118.478 157.481 131.601 160.644Z" fill="black"/>
<path d="M251.538 185.949L249.402 208.995L243.909 208.091C243.909 208.091 243.576 207.64 243.011 206.88C241.531 204.951 238.452 201.169 235.504 199.108C234.507 198.354 233.425 197.877 232.312 197.698L238.415 184.142C239.9 184.965 241.423 185.633 242.972 186.139C244.58 186.697 246.227 186.985 247.879 186.998C249.135 187.032 250.382 186.675 251.538 185.949Z" fill="#FFD2D9"/>
<path d="M236.279 202.217C233.532 205.832 221.02 198.15 218.884 209.899L216.918 198.756L210.866 164.462L210.033 159.74L204.992 159.419L147.135 155.764L143.851 155.565L142.124 155.456L144.416 153.775L159.675 142.578C159.675 142.578 165.168 142.008 172.752 140.467C184.245 138.136 200.524 133.576 209.716 125.411C224.975 111.854 230.774 157.494 230.774 157.494C230.774 157.494 233.093 169.076 234.863 180.486C235.705 185.909 236.422 191.331 236.694 195.425C236.953 198.9 236.874 201.435 236.279 202.217Z" fill="#E9E9EF"/>
<path opacity="0.05" d="M236.279 202.217C233.532 205.832 221.02 198.15 218.884 209.899L216.918 198.756L210.866 164.462L210.033 159.74L204.845 159.288L148.936 154.178L145.484 153.861L144.422 153.766L143.046 153.64L159.678 142.569C159.678 142.569 165.171 141.999 172.755 140.458C184.248 138.127 200.527 133.567 209.719 125.402C224.978 111.845 230.777 157.485 230.777 157.485C230.777 157.485 233.096 169.067 234.866 180.477C235.708 185.9 236.425 191.322 236.697 195.416C236.953 198.9 236.874 201.435 236.279 202.217Z" fill="black"/>
<path opacity="0.1" d="M242.972 186.139L237.631 195.412L235.495 199.108C234.497 198.354 233.416 197.877 232.302 197.698L238.406 184.142C239.894 184.966 241.42 185.633 242.972 186.139V186.139Z" fill="black"/>
<path d="M242.688 185.046L236.715 195.412L233.838 200.41V201.765C230.316 202.967 219.338 199.542 216.918 198.756C216.613 198.661 216.442 198.602 216.442 198.602C209.423 199.054 183.482 176.46 183.482 176.46C183.482 176.46 155.1 183.69 141.367 181.882C133.698 180.87 131.549 176.763 131.146 173.328C130.969 171.631 131.127 169.894 131.601 168.326L143.851 155.565L145.478 153.87L148.075 151.159C148.075 151.159 152.589 149.645 158.323 147.77C167.28 144.846 179.219 141.046 181.636 140.77C185.603 140.318 195.674 145.289 201.473 155.23C202.471 156.791 203.599 158.158 204.83 159.297L204.989 159.451C206.618 161.051 208.626 162.754 210.863 164.494C218.252 170.255 228.1 176.442 234.872 180.504C239.499 183.256 242.688 185.046 242.688 185.046Z" fill="#E9E9EF"/>
<path opacity="0.1" d="M251.538 185.949L249.402 208.995L243.909 208.091C243.909 208.091 243.576 207.64 243.011 206.88C244.232 206.921 246.234 206.401 246.655 202.669C246.655 202.669 244.54 191.711 247.876 186.998C249.133 187.033 250.381 186.675 251.538 185.949V185.949Z" fill="black"/>
<path d="M247.266 202.669C247.266 202.669 244.214 186.853 251.233 185.046L262.83 191.824L276.258 193.179C276.258 193.179 279.765 201.657 274.143 211.146C272.603 213.719 270.728 215.806 268.63 217.281C266.533 218.757 264.256 219.59 261.936 219.732L247.263 220.749L242.685 206.74C242.685 206.74 246.655 208.091 247.266 202.669Z" fill="#DC9BA3"/>
<path opacity="0.1" d="M172.755 140.458C171.229 141.123 164.857 143.938 158.338 147.761C155.117 149.597 151.98 151.739 148.945 154.173C148.313 154.697 147.724 155.226 147.144 155.759C145.435 157.363 144.059 159.008 143.207 160.639C139.441 167.87 133.908 171.738 131.156 173.324C130.978 171.626 131.136 169.889 131.61 168.321L143.851 155.565L142.124 155.456L144.416 153.775L143.039 153.649L159.672 142.578C159.672 142.578 165.174 142.008 172.755 140.458Z" fill="black"/>
<path opacity="0.1" d="M153.159 84.6465L152.048 89.6985L141.977 74.3345C141.977 74.3345 142.42 72.8117 143.082 70.6788C144.355 74.678 150.434 81.6505 153.159 84.6465Z" fill="black"/>
<path d="M116.824 92.1522C116.464 90.6205 116.2 89.0427 116.037 87.4391L102.914 94.2173C102.914 94.2173 93.911 104.385 94.8265 126.527C94.8265 126.527 105.966 120.426 110.849 127.657L110.949 128.931C111.982 141.564 115.757 153.359 121.707 162.542C124.149 166.315 126.422 170.572 127.634 174.652C127.634 174.652 136.179 171.037 141.367 161.096C146.555 151.154 171.275 140.761 171.275 140.761C171.275 140.761 158.152 141.213 156.321 134.435C154.49 127.657 148.386 113.196 150.523 101.899C152.659 90.6023 153.88 86.9872 153.88 86.9872C153.88 86.9872 141.367 73.8826 142.283 69.8157L134.348 83.3722L130.686 85.1797C130.973 86.2287 131.119 87.3508 131.116 88.4829C131.311 100.77 119.604 103.725 116.824 92.1522Z" fill="#CEDAD5"/>
<path d="M127.786 184.82C127.786 184.82 157.389 166.744 181.499 183.916L175.7 201.991L147.928 202.895L127.786 184.82Z" fill="black"/>
<path opacity="0.1" d="M130.832 80.2723C130.925 78.5831 131.08 76.9026 131.296 75.2383L114.206 72.9789C114.206 72.9789 115.39 74.4927 115.906 80.1412C117.911 81.9035 120.251 84.2759 122.751 84.2759C125.667 84.2825 128.505 82.8765 130.832 80.2723Z" fill="black"/>
<path d="M122.903 83.5981C130.32 83.5981 136.331 74.6963 136.331 63.7153C136.331 52.7343 130.32 43.8325 122.903 43.8325C115.487 43.8325 109.475 52.7343 109.475 63.7153C109.475 74.6963 115.487 83.5981 122.903 83.5981Z" fill="#FFD2D9"/>
<path d="M112.985 68.912H114.816V61.23L116.647 53.0961C116.647 53.0961 125.803 46.7698 130.075 48.1254L133.432 52.6442C133.432 52.6442 134.348 41.7991 128.855 37.7321C123.361 33.6652 113.595 35.4727 111.154 38.6359C108.712 41.7991 104.745 47.2216 107.797 62.1337L108.712 65.7488C108.712 65.7488 112.375 63.9413 112.985 68.912Z" fill="#844F6E"/>
<g opacity="0.05">
<path opacity="0.05" d="M136.704 79.3504L137.705 78.8579L142.325 70.9816C142.235 70.6084 142.224 70.2028 142.295 69.8202L136.704 79.3504Z" fill="black"/>
<path opacity="0.05" d="M130.28 93.9236C132.7 92.342 134.552 88.9077 134.47 83.9822C134.47 83.7156 134.47 83.4625 134.439 83.223L134.342 83.3857L130.68 85.1932C130.967 86.2422 131.113 87.3644 131.11 88.4965C131.158 90.3818 130.872 92.253 130.28 93.9236V93.9236Z" fill="black"/>
<path opacity="0.05" d="M165.879 140.391C158.231 144.331 147.874 150.535 144.724 156.577C144.648 156.726 144.568 156.866 144.489 157.029C152.869 148.52 171.275 140.761 171.275 140.761C169.473 140.789 167.672 140.665 165.879 140.391V140.391Z" fill="black"/>
<path opacity="0.05" d="M130.991 170.133C129.77 166.067 127.49 161.796 125.064 158.023C119.114 148.84 115.339 137.045 114.306 124.412L114.206 123.138C109.323 115.908 98.1836 122.008 98.1836 122.008C97.6037 107.964 101.013 98.7407 103.582 93.8694L102.914 94.2173C102.914 94.2173 93.911 104.385 94.8265 126.527C94.8265 126.527 105.966 120.426 110.849 127.657L110.949 128.931C111.982 141.564 115.757 153.359 121.707 162.542C124.149 166.315 126.422 170.572 127.634 174.652C127.634 174.652 135.071 171.489 140.281 163.012C137.473 166.134 134.333 168.54 130.991 170.133V170.133Z" fill="black"/>
</g>
<path d="M127.634 117.263C127.634 117.263 112.985 148.443 105.355 157.481C97.7258 166.518 95.5895 153.414 95.5895 153.414V124.493L109.018 122.234L109.161 124.977L109.323 128.108L121.835 108.226C121.835 108.226 134.348 91.506 136.789 101.447C139.231 111.389 127.634 117.263 127.634 117.263Z" fill="#FFD2D9"/>
<path opacity="0.1" d="M109.161 124.977C107.328 126.556 105.383 127.833 103.363 128.786C100.479 130.101 97.1734 128.718 95.5804 127.883V124.507L109.008 122.248L109.161 124.977Z" fill="black"/>
<path d="M95.4369 121.556L94.6343 126.396C94.6343 126.396 99.4043 129.69 103.372 127.883C107.339 126.075 110.391 122.912 111.001 122.46C111.612 122.008 108.56 117.037 108.56 117.037L95.4369 121.556Z" fill="#CEDAD5"/>
<path opacity="0.1" d="M183.33 176.686C185.365 174.375 187.63 172.545 190.044 171.263C192.337 170.096 194.498 168.42 196.453 166.292" fill="black"/>
<path opacity="0.2" d="M276.258 193.179L275.758 193.13C276.484 195.841 277.534 202.524 273.228 209.804C271.687 212.377 269.812 214.464 267.715 215.939C265.617 217.414 263.34 218.248 261.02 218.39L246.808 219.375L247.263 220.762L261.939 219.732C264.259 219.59 266.536 218.757 268.633 217.281C270.731 215.806 272.606 213.719 274.146 211.146C279.765 201.657 276.258 193.179 276.258 193.179Z" fill="white"/>
<path opacity="0.05" d="M207.055 216.451H207.009C207.049 217.518 207.119 219.718 207.131 222.136C207.143 220.012 207.097 217.924 207.055 216.451Z" fill="#00FF00"/>
<path opacity="0.05" d="M224.438 212.547C224.481 212.821 224.528 213.091 224.581 213.356C224.88 213.103 225.311 212.624 224.438 212.547Z" fill="#00FF00"/>
<path opacity="0.2" d="M248.486 223.004C245.358 225.109 221.835 218.977 218.636 218.128C218.572 218.579 218.449 219.008 218.273 219.389C218.273 219.389 245.129 226.619 248.486 224.359C250.214 223.198 250.647 221.675 250.412 220.292C250.235 221.255 249.661 222.213 248.486 223.004Z" fill="white"/>
<path opacity="0.05" d="M207.009 216.456C206.994 216.004 206.981 215.773 206.981 215.773C206.981 215.773 205.428 216.596 207.009 216.456Z" fill="#00FF00"/>
<path opacity="0.1" d="M134.781 53.7739H116.214C115.526 53.7739 114.969 54.5994 114.969 55.6176V67.2942C114.969 68.3124 115.526 69.1379 116.214 69.1379H134.781C135.469 69.1379 136.026 68.3124 136.026 67.2942V55.6176C136.026 54.5994 135.469 53.7739 134.781 53.7739Z" fill="black"/>
<path opacity="0.1" d="M115.14 58.7446H107.779C107.367 58.7446 107.034 59.2383 107.034 59.8472V63.5165C107.034 64.1254 107.367 64.6191 107.779 64.6191H115.14C115.551 64.6191 115.884 64.1254 115.884 63.5165V59.8472C115.884 59.2383 115.551 58.7446 115.14 58.7446Z" fill="black"/>
<path d="M134.781 53.322H116.214C115.526 53.322 114.969 54.1475 114.969 55.1657V66.8423C114.969 67.8606 115.526 68.686 116.214 68.686H134.781C135.469 68.686 136.026 67.8606 136.026 66.8423V55.1657C136.026 54.1475 135.469 53.322 134.781 53.322Z" fill="#7679B4"/>
<path d="M134.76 54.2258H118.671C117.983 54.2258 117.425 55.0512 117.425 56.0695V65.9386C117.425 66.9568 117.983 67.7822 118.671 67.7822H134.76C135.447 67.7822 136.005 66.9568 136.005 65.9386V56.0695C136.005 55.0512 135.447 54.2258 134.76 54.2258Z" fill="#565388"/>
<path d="M115.14 58.2927H107.779C107.367 58.2927 107.034 58.7864 107.034 59.3953V63.0646C107.034 63.6736 107.367 64.1672 107.779 64.1672H115.14C115.551 64.1672 115.884 63.6736 115.884 63.0646V59.3953C115.884 58.7864 115.551 58.2927 115.14 58.2927Z" fill="#565388"/>
<path opacity="0.1" d="M131.436 54.2168C134.739 51.2602 137.421 47.0013 139.182 41.9165C139.386 41.3246 139.582 40.6603 139.469 40.0186C139.252 38.7895 138.169 38.5726 137.387 38.0439C135.932 37.0543 135.318 34.5554 134.363 32.653C133.547 31.0661 132.449 29.8458 131.192 29.1278C129.935 28.4098 128.568 28.2223 127.243 28.586C125.851 29.0018 124.564 30.023 123.16 30.3303C120.132 30.9855 116.83 28.2697 114.111 30.3303C112.872 31.2747 112.033 33.0416 111.294 34.8039C109.442 39.1917 107.119 43.8416 108.804 48.9885C109.771 51.9302 111.316 54.3704 113.485 55.229C115.655 56.0876 118.167 55.3736 120.373 55.0166C122.189 54.7274 124.091 54.1128 125.919 54.3975C128.058 54.7409 129.395 56.0333 131.436 54.2168Z" fill="black"/>
<path d="M131.436 53.313C134.739 50.3564 137.421 46.0975 139.182 41.0128C139.386 40.4208 139.582 39.7565 139.469 39.1149C139.252 37.8858 138.169 37.6688 137.387 37.1401C135.932 36.1505 135.318 33.6516 134.363 31.7492C133.547 30.1624 132.449 28.9421 131.192 28.2241C129.935 27.506 128.568 27.3185 127.243 27.6823C125.851 28.098 124.564 29.1193 123.16 29.4265C120.132 30.0818 116.83 27.366 114.111 29.4265C112.872 30.371 112.033 32.1378 111.294 33.9002C109.442 38.2879 107.119 42.9378 108.804 48.0847C109.771 51.0265 111.316 53.4666 113.485 54.3252C115.655 55.1838 118.167 54.4698 120.373 54.1128C122.189 53.8236 124.091 53.2091 125.919 53.4937C128.058 53.8372 129.395 55.1296 131.436 53.313Z" fill="#844F6E"/>
<path opacity="0.2" d="M316.997 105.401L184.245 140.535V35.1338L316.997 0V105.401Z" fill="black"/>
<path opacity="0.2" d="M289.494 12.1601L314.046 5.89253L314.403 22.1829L289.201 28.4234L289.494 12.1601Z" fill="black"/>
<g opacity="0.2">
<path opacity="0.1" d="M241.739 103.11C242.571 102.832 243.426 102.727 244.278 102.799C249.298 102.93 254.508 103.657 259.433 101.443C262.049 100.277 264.396 98.352 267.093 97.5251C271.671 96.1288 276.249 98.1668 280.75 96.4677C281.666 96.1197 282.786 95.6317 283.436 96.1559C284.19 96.7614 283.656 98.334 284.574 98.7316C284.865 98.785 285.151 98.8819 285.429 99.0208C285.764 99.31 285.554 99.9246 285.218 100.318C283.177 102.771 279.023 101.14 276.466 103.124C275.898 103.576 275.471 104.145 274.94 104.615C274.099 105.257 273.208 105.742 272.288 106.061L258.087 111.936C254.688 113.341 251.242 114.764 247.726 115.383C244.211 116.003 240.564 115.749 237.988 113.983C237.436 113.603 236.923 113.138 236.712 112.505C235.711 109.523 238.202 104.502 241.739 103.11Z" fill="#252223"/>
<path opacity="0.3" d="M229.211 61.483L241.092 75.3919L252.973 89.2963L233.459 94.7596L213.946 100.218L221.578 80.8507L229.211 61.483Z" fill="black"/>
<path opacity="0.3" d="M241.565 58.2656L253.446 72.17L265.326 86.0789L245.813 91.5377L226.299 97.0009L233.932 77.6333L241.565 58.2656Z" fill="black"/>
<path opacity="0.2" d="M259.94 29.3316L237.011 94.0049L280.494 81.4743L296.562 76.978L259.94 29.3316Z" fill="black"/>
<path opacity="0.1" d="M296.562 76.978L280.494 81.4743L259.94 29.3316L296.562 76.978Z" fill="black"/>
<path opacity="0.2" d="M272.028 59.314C271.951 58.8929 271.776 58.5258 271.533 58.2777C271.291 58.0296 270.997 57.9164 270.704 57.9583C270.704 57.9583 271.009 54.4066 266.065 55.839C265.98 55.5828 265.856 55.3589 265.704 55.1846C265.551 55.0102 265.373 54.8901 265.184 54.8333C264.995 54.7766 264.8 54.7848 264.614 54.8573C264.427 54.9298 264.254 55.0647 264.109 55.2516L263.898 53.6022C263.898 53.6022 261.188 55.9023 264.06 59.1829L264.405 61.8942C264.413 61.9628 264.428 62.0296 264.447 62.0931C264.463 62.1424 264.475 62.1939 264.484 62.2467C264.615 63.0375 265.58 69.3051 263.388 71.447C261.042 73.7742 259.699 66.6028 259.699 66.6028C258.173 57.2353 255.267 57.2715 254.578 57.4206C254.495 57.4206 254.41 57.4477 254.324 57.4568C254.001 57.4839 252.997 58.0171 252.612 63.4171C252.152 69.897 250.476 68.2793 250.476 68.2793C246.719 65.2472 244.067 67.8997 244.067 67.8997C237.549 73.5754 243.091 84.2217 244.235 86.2416C243.805 89.4545 242.935 95.1166 242.099 95.3515C240.915 95.6814 238.699 101.836 244.699 111.407L246.295 110.955C246.295 110.955 241.36 101.411 245.245 96.662C245.161 97.0118 245.059 97.3516 244.94 97.6787C242.764 103.187 250.168 109.825 250.168 109.825L251.944 109.328L247.842 101.678C246.213 98.5147 249.252 95.93 249.252 95.93C252.85 91.4744 250.998 86.097 250.998 86.097L259.397 83.7472C258.359 87.1454 256.833 95.4961 261.905 106.495L263.089 106.165L262.122 92.8255C262.122 92.8255 262.427 89.9561 264.484 85.6271C265.302 91.0496 267.035 100.408 269.654 104.326L271.369 103.847C271.369 103.847 269.278 94.9674 269.233 91.6461C269.211 90.2905 269.172 88.9574 269.089 87.6199L268.662 80.6247C269.355 79.9744 269.898 79.0277 270.22 77.9101C270.541 76.7925 270.626 75.5566 270.463 74.3662L268.885 62.2286C268.863 62.0578 268.864 61.882 268.889 61.7121C268.914 61.5422 268.963 61.3817 269.031 61.2404C269.1 61.0991 269.187 60.9801 269.288 60.8905C269.389 60.8009 269.501 60.7426 269.617 60.7193L271.641 60.3126C271.714 60.2936 271.783 60.2511 271.844 60.188C271.905 60.1249 271.955 60.0428 271.992 59.9476C272.029 59.8523 272.051 59.7462 272.058 59.6367C272.064 59.5272 272.054 59.4171 272.028 59.314V59.314Z" fill="url(#paint0_linear)"/>
<path opacity="0.2" d="M263.788 81.6189C263.788 81.6189 265.686 98.3656 269.401 103.915L271.085 103.463C271.085 103.463 269.034 94.746 268.979 91.497C268.958 90.1775 268.921 88.858 268.839 87.543L268.149 76.246L263.788 81.6189Z" fill="#535461"/>
<path opacity="0.05" d="M263.788 81.6189C263.788 81.6189 265.686 98.3656 269.401 103.915L271.085 103.463C271.085 103.463 269.034 94.746 268.979 91.497C268.958 90.1775 268.921 88.858 268.839 87.543L268.149 76.246L263.788 81.6189Z" fill="black"/>
<path opacity="0.2" d="M244.717 84.0184C244.717 84.0184 243.497 94.7777 242.343 95.103C241.189 95.4284 239.004 101.47 244.897 110.865L246.466 110.413C246.466 110.413 241.034 99.911 246.201 95.6136C246.197 95.6272 247.098 86.6438 244.717 84.0184Z" fill="#535461"/>
<path opacity="0.05" d="M244.717 84.0184C244.717 84.0184 243.497 94.7777 242.343 95.103C241.189 95.4284 239.004 101.47 244.897 110.865L246.466 110.413C246.466 110.413 241.034 99.911 246.201 95.6136C246.197 95.6272 247.098 86.6438 244.717 84.0184Z" fill="black"/>
<path opacity="0.2" d="M264.255 62.2783L263.916 59.6303C261.1 56.4129 263.758 54.1535 263.758 54.1535L264.121 56.9913C270.795 54.1444 270.438 58.4283 270.438 58.4283C270.725 58.385 271.013 58.4933 271.251 58.734C271.488 58.9746 271.661 59.3322 271.738 59.7433C271.763 59.8466 271.772 59.9567 271.764 60.0657C271.756 60.1748 271.732 60.2799 271.694 60.3734C271.655 60.4669 271.603 60.5465 271.541 60.6063C271.479 60.6662 271.409 60.7048 271.335 60.7193L269.349 61.1215C269.234 61.1443 269.124 61.2013 269.025 61.2893C268.926 61.3772 268.84 61.4941 268.773 61.6329C268.705 61.7716 268.658 61.9293 268.633 62.0962C268.608 62.2631 268.607 62.4358 268.628 62.6037L270.176 74.5198C270.288 75.3725 270.274 76.2512 270.134 77.0948C269.994 77.9384 269.731 78.7267 269.364 79.4046C268.79 80.4485 267.872 81.3884 266.407 81.7318L251.074 86.0247C251.074 86.0247 252.905 91.3072 249.359 95.6769C249.359 95.6769 246.374 98.2029 247.974 101.321L251.999 108.831L250.256 109.319C250.256 109.319 242.99 102.803 245.126 97.394C245.706 95.6751 245.967 93.7584 245.88 91.8411C245.794 89.9238 245.364 88.0753 244.635 86.4856C244.635 86.4856 237.188 74.321 244.278 68.1483C244.278 68.1483 246.893 65.5454 250.58 68.5233C250.58 68.5233 252.225 70.1094 252.677 63.7515C253.052 58.4509 254.038 57.9267 254.355 57.8996C254.437 57.8996 254.52 57.8996 254.602 57.8634C255.28 57.7188 258.139 57.6827 259.632 66.8785C259.632 66.8785 260.95 73.9007 263.248 71.6549C265.4 69.5536 264.469 63.399 264.325 62.6172C264.316 62.5659 264.304 62.516 264.289 62.4681V62.4681C264.273 62.407 264.261 62.3433 264.255 62.2783V62.2783Z" fill="#535461"/>
<path opacity="0.2" d="M259.928 82.0753C259.928 82.0753 255.21 91.7681 261.786 106.025L262.949 105.7L262 92.5951C262 92.5951 262.561 87.0957 267.655 79.8791L259.928 82.0753Z" fill="#535461"/>
<path opacity="0.2" d="M265.004 58.995C265.678 58.8064 266.121 57.8444 265.994 56.8463C265.866 55.8483 265.217 55.1921 264.543 55.3806C263.869 55.5692 263.425 56.5312 263.553 57.5293C263.68 58.5274 264.33 59.1836 265.004 58.995Z" fill="#535461"/>
<path opacity="0.2" d="M259.543 69.2283C260.978 65.9973 260.123 65.7849 259.568 64.9354C259.189 64.357 256.009 64.1356 254.028 64.0542C253.986 63.8283 253.919 63.4487 253.839 62.9878C253.839 62.9878 253.681 62.1382 253.607 61.5418H253.732L253.714 61.3655L256.156 61.1712C258.24 61.0447 258.341 59.8156 258.341 59.8156C258.39 57.7053 256.037 59.7297 256.037 59.7297C255.57 60.0686 254.331 59.8156 253.363 59.5354C253.336 59.2357 253.321 58.9339 253.317 58.6316C253.329 58.1643 253.309 57.6964 253.256 57.2353C253.222 56.8371 253.117 56.4597 252.951 56.1418C252.236 54.8751 251.408 53.7565 250.491 52.8159C250.437 52.0185 250.487 51.2132 250.638 50.4435C251.008 50.162 251.308 49.712 251.492 49.1596C251.677 48.6073 251.737 47.9819 251.663 47.3753C251.628 47.0974 251.564 46.8293 251.474 46.58C251.911 45.7214 251.706 44.2528 251.102 43.4484C251.037 43.3625 250.968 43.2854 250.894 43.218C250.502 42.8299 250.028 42.6691 249.561 42.7661C249.04 42.8921 248.545 43.1918 248.114 43.6427C247.598 44.1488 247.098 44.7905 246.481 44.8899C246.036 44.9622 245.566 44.7363 245.148 44.9396C244.595 45.2017 244.311 46.0738 244.134 46.8737C243.957 47.6735 243.787 48.5547 243.307 49.0337C242.889 49.4494 242.349 49.4449 241.858 49.6211C241.515 49.728 241.195 49.9583 240.926 50.2916C240.657 50.625 240.448 51.0512 240.317 51.5326C240.22 51.9661 240.222 52.4347 240.322 52.8664C240.422 53.2982 240.616 53.6693 240.872 53.923C240.953 54.0108 241.041 54.0822 241.134 54.1354C241.239 54.1831 241.341 54.242 241.44 54.3116C241.467 54.3411 241.49 54.3783 241.507 54.4209C241.524 54.4636 241.536 54.5109 241.54 54.5602C241.542 54.6835 241.524 54.8057 241.489 54.9172C241.432 55.1664 241.41 55.4302 241.425 55.6923C241.441 55.9543 241.492 56.2089 241.577 56.44C241.633 56.6088 241.721 56.75 241.83 56.8467C241.861 56.8846 241.895 56.9165 241.931 56.9416C242.288 57.1721 242.731 56.6524 243.085 56.8874H243.112C243.25 57.1077 243.368 57.352 243.466 57.6149C243.55 57.7701 243.654 57.8991 243.771 57.9945C244.082 58.2957 244.457 58.4149 244.824 58.3289C245.29 58.196 245.735 57.9322 246.133 57.5516C246.674 57.0998 247.263 56.4716 247.305 55.5769C247.33 55.0301 247.137 54.5014 247.183 53.9592C247.208 53.7002 247.279 53.4555 247.388 53.2497C247.327 53.7078 247.305 54.1754 247.324 54.6415C247.335 55.0195 247.365 55.3957 247.415 55.7667C247.531 56.7367 247.767 57.6666 248.111 58.5096C248.574 59.6067 248.913 60.8078 249.115 62.0659C249.187 62.6204 249.193 63.1893 249.133 63.7469C248.938 65.3647 248.959 66.0606 249.014 66.3543C249.048 66.7519 249.136 66.7565 249.136 66.7565H249.158C249.167 67.0306 249.215 67.2989 249.296 67.5451C249.378 67.7914 249.493 68.0104 249.634 68.1889C252.396 69.879 258.014 67.484 258.014 67.484C256.879 68.076 256.067 72.6806 256.067 72.6806C255.943 73.6829 255.661 74.6276 255.243 75.4371V75.4371C254.633 75.3015 253.913 76.3138 253.369 76.9057L253.324 76.9509C253.271 77.0044 253.226 77.0741 253.193 77.1553C253.16 77.2364 253.139 77.3271 253.131 77.4213C253.124 77.5155 253.13 77.6109 253.149 77.7013C253.169 77.7916 253.201 77.8748 253.244 77.9451L255.405 81.4517C256.65 82.7576 257.367 82.8435 257.569 82.4729C257.7 82.2289 257.611 81.7951 257.306 81.3748C256.568 80.3581 256.674 77.0594 256.696 76.7792C257.035 75.6495 258.338 71.9441 259.543 69.2283Z" fill="url(#paint1_linear)"/>
<path opacity="0.2" d="M250.812 50.0278C250.812 50.0278 250.183 52.1652 250.598 54.0044L248.257 52.1652C248.257 52.1652 249.002 51.867 248.846 49.2415L250.812 50.0278Z" fill="#F9D5C6"/>
<path opacity="0.2" d="M252.38 64.1943C252.38 64.1943 258.591 64.3253 259.119 65.1568C259.647 65.9883 260.456 66.2097 259.119 69.3458C257.782 72.4818 256.305 76.9916 256.305 76.9916L254.724 75.9206C255.297 75.0237 255.677 73.8941 255.814 72.6761C255.814 72.6761 256.565 68.1889 257.645 67.6241C257.645 67.6241 252.344 69.9106 249.71 68.2386C249.71 68.2386 249.008 67.4569 249.335 65.7623C249.661 64.0678 252.38 64.1943 252.38 64.1943Z" fill="#353535"/>
<path opacity="0.1" d="M248.932 52.2465C248.932 52.2465 247.382 51.6817 247.494 55.2018C247.539 56.4777 247.793 57.7183 248.233 58.8169C248.737 60.0912 249.454 62.2828 249.243 64.1039C248.938 66.8604 249.243 66.8649 249.243 66.8649L250.037 66.1509C251.106 65.1842 252.333 64.6685 253.586 64.6597H253.955C253.955 64.6597 253.211 60.7013 253.195 58.948C253.195 58.1165 253.195 57.3438 252.857 56.6885C251.798 54.6641 249.673 52.242 248.932 52.2465Z" fill="black"/>
<path opacity="0.2" d="M248.911 52.0839C248.911 52.0839 247.36 51.519 247.473 55.0392C247.518 56.315 247.771 57.5556 248.212 58.6542C248.715 59.9285 249.432 62.1202 249.222 63.9412C248.917 66.6977 249.222 66.7022 249.222 66.7022L250.015 65.9883C251.084 65.0215 252.312 64.5058 253.565 64.4971H253.934C253.934 64.4971 253.189 60.5386 253.174 58.7853C253.174 57.9538 253.174 57.1811 252.835 56.5259C251.776 54.4924 249.652 52.0839 248.911 52.0839Z" fill="#409CD6"/>
<path opacity="0.1" d="M248.334 54.9036C248.398 54.6438 248.505 54.4119 248.645 54.2291C248.785 54.0463 248.954 53.9185 249.136 53.8574C249.318 53.7962 249.508 53.8037 249.688 53.8791C249.867 53.9545 250.031 54.0955 250.165 54.2891C250.404 54.6615 250.595 55.0967 250.726 55.5724C251.462 58.0397 252.02 59.5761 252.02 59.5761C252.493 59.6799 252.96 59.8401 253.415 60.0551C253.485 60.9001 253.577 61.7768 253.577 61.7768L251.596 61.9213L248.883 57.1585C248.883 57.1585 248.056 56.1508 248.334 54.9036Z" fill="black"/>
<path opacity="0.2" d="M248.309 54.7274C248.373 54.4676 248.48 54.2357 248.621 54.0529C248.761 53.8701 248.93 53.7423 249.112 53.6811C249.294 53.62 249.484 53.6275 249.663 53.7029C249.843 53.7783 250.007 53.9193 250.14 54.1128C250.38 54.4853 250.57 54.9205 250.702 55.3962C251.437 57.8634 251.996 59.3998 251.996 59.3998C251.996 59.3998 254.978 60.6154 255.747 60.0415C255.747 60.0415 257.962 58.0849 257.926 60.1454C257.926 60.1454 257.837 61.3294 255.866 61.4333L251.575 61.7451L248.862 56.9823C248.862 56.9823 248.035 55.9565 248.309 54.7274Z" fill="#F9D5C6"/>
<path opacity="0.1" d="M248.666 50.4029C248.724 49.9917 248.856 50.1498 248.813 49.4268L250.778 50.2131C250.697 50.5069 250.629 50.8089 250.577 51.1169C250.38 51.2167 250.174 51.2731 249.966 51.2841C249.533 51.4106 249.036 50.7056 248.666 50.4029Z" fill="black"/>
<path opacity="0.2" d="M250.062 51.2417C251.089 50.9544 251.764 49.489 251.57 47.9686C251.376 46.4481 250.386 45.4485 249.359 45.7358C248.333 46.0231 247.657 47.4885 247.851 49.0089C248.045 50.5293 249.035 51.529 250.062 51.2417Z" fill="#F9D5C6"/>
<path opacity="0.1" d="M250.485 47.8181C250.15 47.8452 249.783 47.6871 249.5 47.9492C249.216 48.2113 249.133 48.9298 249.194 49.4901C249.255 50.0504 249.414 50.6153 249.326 51.1711C249.207 51.8986 248.715 52.346 248.288 52.7301C247.861 53.1142 247.372 53.6338 247.327 54.3659C247.287 54.8946 247.47 55.4142 247.449 55.9475C247.412 56.8196 246.86 57.4206 246.347 57.8635C245.977 58.2274 245.562 58.4807 245.126 58.6091C244.904 58.6675 244.676 58.638 244.464 58.5238C244.253 58.4095 244.065 58.2144 243.921 57.9583C243.783 57.6782 243.701 57.3031 243.487 57.1585C243.152 56.9235 242.734 57.4296 242.398 57.2037C242.28 57.111 242.185 56.9633 242.129 56.7834C242.049 56.5575 241.999 56.3101 241.984 56.0556C241.969 55.8011 241.988 55.5446 242.041 55.3013C242.074 55.1919 242.089 55.0729 242.087 54.9533C242.059 54.6686 241.824 54.5738 241.641 54.4698C241.34 54.2563 241.101 53.8878 240.97 53.433C240.838 52.9782 240.823 52.4682 240.927 51.998C241.045 51.5343 241.239 51.1216 241.492 50.7979C241.745 50.4742 242.05 50.2498 242.377 50.1453C242.84 49.9736 243.353 49.9826 243.744 49.585C244.195 49.1331 244.354 48.261 244.516 47.4837C244.678 46.7065 244.943 45.857 245.465 45.6084C245.868 45.4141 246.304 45.6355 246.725 45.5723C247.308 45.4819 247.778 44.8583 248.251 44.3703C248.655 43.9344 249.122 43.6449 249.615 43.5252C249.862 43.4686 250.115 43.4918 250.355 43.5932C250.595 43.6946 250.818 43.8718 251.007 44.1127C251.849 45.2469 251.901 47.7051 250.485 47.8181Z" fill="black"/>
<path opacity="0.2" d="M250.415 47.7503C250.079 47.7775 249.713 47.6193 249.429 47.8814C249.146 48.1435 249.063 48.862 249.124 49.4223C249.185 49.9826 249.344 50.5475 249.255 51.1033C249.136 51.8308 248.645 52.2782 248.218 52.6623C247.79 53.0464 247.302 53.5661 247.256 54.2981C247.217 54.8268 247.4 55.3465 247.379 55.8797C247.342 56.7518 246.79 57.3528 246.277 57.7957C245.907 58.1597 245.492 58.4129 245.056 58.5413C244.835 58.5999 244.608 58.5715 244.397 58.4588C244.186 58.3462 243.998 58.1533 243.854 57.8996C243.716 57.6194 243.634 57.2444 243.42 57.0998C243.085 56.8648 242.666 57.3709 242.331 57.145C242.213 57.0522 242.118 56.9046 242.062 56.7247C241.982 56.4988 241.932 56.2513 241.917 55.9968C241.902 55.7423 241.921 55.4859 241.974 55.2425C242.006 55.1331 242.022 55.0142 242.019 54.8946C241.992 54.6099 241.757 54.515 241.574 54.4111C241.273 54.1976 241.034 53.8291 240.903 53.3743C240.771 52.9195 240.756 52.4094 240.86 51.9393C240.977 51.4755 241.172 51.0629 241.425 50.7392C241.678 50.4155 241.982 50.1911 242.309 50.0866C242.773 49.9148 243.286 49.9239 243.677 49.5262C244.128 49.0744 244.287 48.2022 244.449 47.425C244.61 46.6478 244.876 45.7982 245.398 45.5497C245.801 45.3554 246.237 45.5768 246.658 45.5135C247.241 45.4231 247.711 44.7996 248.184 44.3115C248.588 43.8756 249.055 43.5862 249.548 43.4665C249.795 43.4099 250.047 43.4331 250.288 43.5345C250.528 43.6359 250.75 43.8131 250.94 44.054C251.779 45.1791 251.831 47.6329 250.415 47.7503Z" fill="#2F302F"/>
<path opacity="0.1" d="M250.971 54.8358C250.971 54.8358 248.529 55.0708 248.737 57.5968C248.944 60.1229 247.888 54.7183 247.888 54.7183L248.837 53.2045L250.192 53.4486L250.971 54.8358Z" fill="black"/>
<path opacity="0.2" d="M250.906 54.7635C250.906 54.7635 248.465 54.9985 248.672 57.5245C248.88 60.0506 247.824 54.6461 247.824 54.6461L248.773 53.1322L250.128 53.3763L250.906 54.7635Z" fill="#409CD6"/>
<path opacity="0.2" d="M253.159 77.7733L255.216 81.2122C256.4 82.4955 257.077 82.5678 257.266 82.2289C257.389 81.9939 257.303 81.5691 257.013 81.1579C256.278 80.1186 256.403 76.6391 256.403 76.6391C256.112 76.6527 255.824 76.5345 255.58 76.3004C255.335 76.0663 255.144 75.7273 255.033 75.3287C254.45 75.1931 253.778 76.1737 253.266 76.7431L253.223 76.7883C253.172 76.8431 253.129 76.9135 253.097 76.9948C253.066 77.076 253.047 77.1662 253.041 77.2594C253.035 77.3525 253.042 77.4466 253.062 77.5352C253.083 77.6238 253.116 77.705 253.159 77.7733V77.7733Z" fill="#409CD6"/>
<path opacity="0.1" d="M256.406 76.6482C256.406 76.6482 255.234 76.8877 255.036 75.3377C255.151 75.7319 255.343 76.0667 255.587 76.2999C255.831 76.5331 256.116 76.6543 256.406 76.6482V76.6482Z" fill="black"/>
<path opacity="0.1" d="M253.159 77.7733L255.216 81.2122C256.4 82.4955 257.077 82.5678 257.266 82.2289C256.674 81.9578 254.999 80.8733 253.272 76.7566L253.229 76.8018C253.179 76.856 253.137 76.9252 253.106 77.0049C253.075 77.0846 253.055 77.1731 253.048 77.2646C253.042 77.356 253.048 77.4486 253.067 77.5362C253.086 77.6238 253.117 77.7046 253.159 77.7733V77.7733Z" fill="black"/>
<path opacity="0.2" d="M219.485 104.687C219.485 104.687 214.043 111.89 226.443 117.155C226.443 117.155 228.06 109.599 224.59 104.782C223.916 103.842 223.032 103.301 222.107 103.261C221.181 103.221 220.277 103.685 219.567 104.565L219.485 104.687Z" fill="black"/>
<path opacity="0.2" d="M219.537 104.552C219.537 104.552 225.558 109.021 226.443 117.155" stroke="#535461" stroke-miterlimit="10"/>
<path opacity="0.2" d="M226.101 117.232C226.101 117.232 222.943 108.095 224.319 100.336C224.913 97.0793 224.776 93.6249 223.928 90.4938C223.519 89.0149 223.02 87.5945 222.436 86.2506" stroke="#535461" stroke-width="2" stroke-miterlimit="10"/>
<path opacity="0.2" d="M223.284 81.3748C223.437 82.5588 222.424 86.4043 222.424 86.4043C222.424 86.4043 220.535 83.3722 220.385 82.1882C220.312 81.619 220.395 81.0302 220.615 80.5514C220.836 80.0726 221.176 79.743 221.56 79.6351C221.944 79.5272 222.342 79.6499 222.666 79.9762C222.989 80.3025 223.211 80.8056 223.284 81.3748Z" fill="black"/>
<path opacity="0.2" d="M226.519 87.2719C226.214 88.388 223.953 90.8011 223.953 90.8011C223.953 90.8011 223.48 86.7342 223.788 85.618C223.861 85.351 223.969 85.1079 224.106 84.9028C224.243 84.6976 224.406 84.5344 224.585 84.4223C224.764 84.3103 224.957 84.2517 225.152 84.2498C225.346 84.248 225.539 84.3029 225.72 84.4115C225.9 84.5201 226.064 84.6802 226.203 84.8827C226.341 85.0853 226.452 85.3262 226.527 85.5918C226.603 85.8574 226.642 86.1425 226.644 86.4308C226.645 86.7191 226.608 87.0049 226.535 87.2719H226.519Z" fill="black"/>
<path opacity="0.2" d="M227.847 98.5238C227.2 99.2558 224.426 99.6535 224.426 99.6535C224.426 99.6535 225.405 95.7899 226.049 95.0578C226.36 94.7055 226.752 94.5501 227.14 94.626C227.527 94.7018 227.879 95.0026 228.117 95.4623C228.355 95.9219 228.46 96.5026 228.409 97.0768C228.357 97.6509 228.154 98.1714 227.844 98.5238H227.847Z" fill="black"/>
<path opacity="0.2" d="M227.557 107.372C227.004 108.275 224.316 109.337 224.316 109.337C224.316 109.337 224.838 105.27 225.393 104.403C225.525 104.192 225.683 104.022 225.859 103.903C226.035 103.783 226.225 103.716 226.419 103.705C226.612 103.694 226.806 103.74 226.987 103.839C227.169 103.939 227.335 104.09 227.478 104.285C227.62 104.48 227.734 104.715 227.815 104.975C227.896 105.236 227.942 105.517 227.949 105.804C227.956 106.091 227.925 106.377 227.858 106.646C227.791 106.915 227.689 107.161 227.557 107.372V107.372Z" fill="black"/>
<path opacity="0.2" d="M220.937 91.8811C221.618 92.5454 224.401 92.6538 224.401 92.6538C224.401 92.6538 223.245 88.9032 222.57 88.2344C222.408 88.0763 222.227 87.9668 222.037 87.9124C221.847 87.8579 221.651 87.8594 221.461 87.9169C221.271 87.9744 221.091 88.0867 220.93 88.2474C220.77 88.4081 220.632 88.614 220.525 88.8535C220.419 89.0929 220.345 89.3612 220.308 89.6429C220.271 89.9247 220.272 90.2144 220.311 90.4955C220.35 90.7766 220.426 91.0437 220.534 91.2815C220.643 91.5192 220.782 91.723 220.944 91.8811H220.937Z" fill="black"/>
<path opacity="0.2" d="M220.687 102.243C221.471 102.577 224.148 101.443 224.148 101.443C224.148 101.443 222.286 98.3746 221.502 98.0402C221.126 97.8802 220.723 97.9479 220.38 98.2284C220.038 98.509 219.785 98.9793 219.677 99.536C219.569 100.093 219.615 100.69 219.804 101.197C219.994 101.704 220.311 102.078 220.687 102.238V102.243Z" fill="black"/>
<path opacity="0.2" d="M221.368 112.351C222.1 112.876 224.871 112.433 224.871 112.433C224.871 112.433 223.385 108.944 222.653 108.42C222.3 108.168 221.894 108.133 221.525 108.324C221.155 108.514 220.851 108.915 220.681 109.437C220.511 109.959 220.487 110.559 220.616 111.107C220.745 111.654 221.015 112.104 221.368 112.356V112.351Z" fill="black"/>
<path opacity="0.25" d="M223.284 81.3748C223.437 82.5588 222.424 86.4043 222.424 86.4043C222.424 86.4043 220.535 83.3722 220.385 82.1882C220.312 81.619 220.395 81.0302 220.615 80.5514C220.836 80.0726 221.176 79.743 221.56 79.6351C221.944 79.5272 222.342 79.6499 222.666 79.9762C222.989 80.3025 223.211 80.8056 223.284 81.3748Z" fill="black"/>
<path opacity="0.25" d="M226.519 87.2719C226.214 88.388 223.953 90.8011 223.953 90.8011C223.953 90.8011 223.48 86.7342 223.788 85.618C223.861 85.351 223.969 85.1079 224.106 84.9028C224.243 84.6976 224.406 84.5344 224.585 84.4223C224.764 84.3103 224.957 84.2517 225.152 84.2498C225.346 84.248 225.539 84.3029 225.72 84.4115C225.9 84.5201 226.064 84.6802 226.203 84.8827C226.341 85.0853 226.452 85.3262 226.527 85.5918C226.603 85.8574 226.642 86.1425 226.644 86.4308C226.645 86.7191 226.608 87.0049 226.535 87.2719H226.519Z" fill="black"/>
<path opacity="0.25" d="M227.847 98.5238C227.2 99.2558 224.426 99.6535 224.426 99.6535C224.426 99.6535 225.405 95.7899 226.049 95.0578C226.36 94.7055 226.752 94.5501 227.14 94.626C227.527 94.7018 227.879 95.0026 228.117 95.4623C228.355 95.9219 228.46 96.5026 228.409 97.0768C228.357 97.6509 228.154 98.1714 227.844 98.5238H227.847Z" fill="black"/>
<path opacity="0.25" d="M227.557 107.372C227.004 108.275 224.316 109.337 224.316 109.337C224.316 109.337 224.838 105.27 225.393 104.403C225.525 104.192 225.683 104.022 225.859 103.903C226.035 103.783 226.225 103.716 226.419 103.705C226.612 103.694 226.806 103.74 226.987 103.839C227.169 103.939 227.335 104.09 227.478 104.285C227.62 104.48 227.734 104.715 227.815 104.975C227.896 105.236 227.942 105.517 227.949 105.804C227.956 106.091 227.925 106.377 227.858 106.646C227.791 106.915 227.689 107.161 227.557 107.372V107.372Z" fill="black"/>
<path opacity="0.25" d="M220.937 91.8811C221.618 92.5454 224.401 92.6538 224.401 92.6538C224.401 92.6538 223.245 88.9032 222.57 88.2344C222.408 88.0763 222.227 87.9668 222.037 87.9124C221.847 87.8579 221.651 87.8594 221.461 87.9169C221.271 87.9744 221.091 88.0867 220.93 88.2474C220.77 88.4081 220.632 88.614 220.525 88.8535C220.419 89.0929 220.345 89.3612 220.308 89.6429C220.271 89.9247 220.272 90.2144 220.311 90.4955C220.35 90.7766 220.426 91.0437 220.534 91.2815C220.643 91.5192 220.782 91.723 220.944 91.8811H220.937Z" fill="black"/>
<path opacity="0.25" d="M220.687 102.243C221.471 102.577 224.148 101.443 224.148 101.443C224.148 101.443 222.286 98.3746 221.502 98.0402C221.126 97.8802 220.723 97.9479 220.38 98.2284C220.038 98.509 219.785 98.9793 219.677 99.536C219.569 100.093 219.615 100.69 219.804 101.197C219.994 101.704 220.311 102.078 220.687 102.238V102.243Z" fill="black"/>
<path opacity="0.25" d="M221.368 112.351C222.1 112.876 224.871 112.433 224.871 112.433C224.871 112.433 223.385 108.944 222.653 108.42C222.3 108.168 221.894 108.133 221.525 108.324C221.155 108.514 220.851 108.915 220.681 109.437C220.511 109.959 220.487 110.559 220.616 111.107C220.745 111.654 221.015 112.104 221.368 112.356V112.351Z" fill="black"/>
<path opacity="0.2" d="M232.049 118.962C232.049 118.962 228.891 109.825 230.267 102.066C230.859 98.8175 230.723 95.3719 229.879 92.2471C229.47 90.7682 228.971 89.3478 228.387 88.0039" stroke="#535461" stroke-width="2" stroke-miterlimit="10"/>
<path opacity="0.2" d="M229.245 83.101C229.397 84.285 228.384 88.1305 228.384 88.1305C228.384 88.1305 226.495 85.0983 226.345 83.9144C226.272 83.3451 226.355 82.7563 226.576 82.2775C226.796 81.7987 227.136 81.4691 227.52 81.3613C227.905 81.2534 228.302 81.3761 228.626 81.7024C228.949 82.0287 229.172 82.5318 229.245 83.101Z" fill="black"/>
<path opacity="0.2" d="M232.479 88.9981C232.174 90.1142 229.913 92.5273 229.913 92.5273C229.913 92.5273 229.44 88.4603 229.748 87.3442C229.896 86.8049 230.183 86.3748 230.545 86.1485C230.908 85.9223 231.316 85.9183 231.68 86.1377C232.044 86.357 232.335 86.7816 232.487 87.318C232.64 87.8544 232.643 88.4588 232.495 88.9981H232.479Z" fill="black"/>
<path opacity="0.2" d="M233.807 100.25C233.16 100.982 230.386 101.38 230.386 101.38C230.386 101.38 231.366 97.5161 232.009 96.784C232.32 96.4317 232.712 96.2763 233.1 96.3522C233.488 96.428 233.839 96.7288 234.077 97.1885C234.315 97.6481 234.42 98.2288 234.369 98.803C234.318 99.3771 234.114 99.8976 233.804 100.25H233.807Z" fill="black"/>
<path opacity="0.2" d="M233.517 109.098C232.965 110.002 230.276 111.063 230.276 111.063C230.276 111.063 230.798 106.997 231.353 106.129C231.619 105.704 231.988 105.453 232.379 105.431C232.77 105.409 233.151 105.618 233.438 106.011C233.725 106.405 233.894 106.951 233.909 107.53C233.924 108.109 233.783 108.673 233.517 109.098V109.098Z" fill="black"/>
<path opacity="0.2" d="M226.898 93.6073C227.578 94.2716 230.361 94.38 230.361 94.38C230.361 94.38 229.205 90.6294 228.53 89.9606C228.369 89.8024 228.188 89.693 227.997 89.6385C227.807 89.5841 227.611 89.5856 227.421 89.6431C227.232 89.7006 227.051 89.8129 226.891 89.9736C226.73 90.1343 226.592 90.3402 226.486 90.5797C226.379 90.8191 226.305 91.0874 226.268 91.3691C226.231 91.6508 226.232 91.9405 226.271 92.2217C226.31 92.5028 226.386 92.7699 226.494 93.0076C226.603 93.2454 226.742 93.4491 226.904 93.6073H226.898Z" fill="black"/>
<path opacity="0.2" d="M226.647 103.964C227.432 104.299 230.108 103.165 230.108 103.165C230.108 103.165 228.247 100.096 227.462 99.7619C227.086 99.6019 226.683 99.6696 226.341 99.9501C225.998 100.231 225.745 100.701 225.637 101.258C225.529 101.814 225.575 102.412 225.764 102.919C225.954 103.425 226.271 103.8 226.647 103.96V103.964Z" fill="black"/>
<path opacity="0.2" d="M227.337 114.078C228.07 114.602 230.841 114.159 230.841 114.159C230.841 114.159 229.354 110.67 228.622 110.146C228.447 110.021 228.258 109.948 228.064 109.932C227.871 109.915 227.677 109.956 227.494 110.05C227.311 110.144 227.142 110.291 226.997 110.482C226.853 110.673 226.735 110.904 226.65 111.163C226.566 111.421 226.517 111.702 226.506 111.988C226.495 112.275 226.522 112.562 226.586 112.833C226.649 113.104 226.748 113.354 226.877 113.568C227.006 113.783 227.163 113.957 227.337 114.082V114.078Z" fill="black"/>
<path opacity="0.1" d="M244.659 35.4546L244.122 35.6038C244.222 35.5756 244.31 35.49 244.367 35.3659C244.424 35.2417 244.445 35.0892 244.426 34.9418C244.407 34.7943 244.349 34.6642 244.265 34.5798C244.181 34.4955 244.078 34.464 243.979 34.4921L239.63 35.7077C239.53 35.7359 239.442 35.8214 239.385 35.9456C239.329 36.0697 239.307 36.2223 239.326 36.3697C239.345 36.5171 239.403 36.6473 239.487 36.7316C239.571 36.8159 239.674 36.8475 239.773 36.8193L240.31 36.6702C240.261 36.6841 240.214 36.7123 240.172 36.7532C240.13 36.794 240.094 36.8466 240.066 36.9081C240.038 36.9696 240.018 37.0387 240.008 37.1114C239.998 37.1842 239.997 37.2592 240.007 37.3322C240.016 37.4052 240.035 37.4747 240.063 37.5368C240.09 37.5989 240.126 37.6524 240.167 37.6941C240.209 37.7359 240.256 37.7651 240.305 37.7802C240.354 37.7952 240.405 37.7958 240.454 37.7818L239.703 37.9942C239.604 38.0224 239.516 38.108 239.459 38.2321C239.402 38.3563 239.38 38.5088 239.4 38.6562C239.419 38.8036 239.476 38.9338 239.56 39.0181C239.644 39.1025 239.747 39.134 239.847 39.1058L244.195 37.8903C244.245 37.8763 244.292 37.8482 244.334 37.8073C244.376 37.7665 244.412 37.7139 244.44 37.6524C244.468 37.5909 244.488 37.5218 244.498 37.4491C244.508 37.3763 244.509 37.3013 244.499 37.2283C244.49 37.1553 244.471 37.0858 244.443 37.0237C244.416 36.9616 244.38 36.9081 244.338 36.8664C244.297 36.8246 244.25 36.7954 244.201 36.7803C244.152 36.7653 244.101 36.7647 244.052 36.7787L244.803 36.5663C244.852 36.5523 244.899 36.5241 244.941 36.4833C244.983 36.4425 245.019 36.3899 245.047 36.3284C245.075 36.2669 245.095 36.1978 245.105 36.1251C245.115 36.0523 245.116 35.9773 245.106 35.9043C245.097 35.8313 245.078 35.7617 245.05 35.6996C245.023 35.6376 244.987 35.5841 244.946 35.5423C244.904 35.5006 244.858 35.4714 244.808 35.4563C244.759 35.4413 244.709 35.4407 244.659 35.4546Z" fill="#252223"/>
<path opacity="0.1" d="M236.783 46.5122L236.245 46.6613C236.295 46.6473 236.342 46.6192 236.384 46.5783C236.426 46.5375 236.462 46.4849 236.49 46.4234C236.518 46.3619 236.538 46.2928 236.548 46.2201C236.558 46.1473 236.558 46.0723 236.549 45.9993C236.54 45.9263 236.521 45.8568 236.493 45.7947C236.465 45.7326 236.43 45.6791 236.388 45.6374C236.347 45.5956 236.3 45.5664 236.251 45.5513C236.202 45.5363 236.151 45.5357 236.102 45.5497L231.744 46.7652C231.644 46.7934 231.557 46.879 231.5 47.0031C231.443 47.1273 231.421 47.2798 231.44 47.4272C231.459 47.5746 231.517 47.7048 231.601 47.7891C231.685 47.8735 231.788 47.905 231.887 47.8769L232.425 47.7277C232.375 47.7417 232.328 47.7699 232.286 47.8107C232.244 47.8515 232.208 47.9041 232.18 47.9656C232.152 48.0271 232.132 48.0962 232.122 48.169C232.112 48.2417 232.111 48.3168 232.121 48.3897C232.13 48.4627 232.149 48.5323 232.177 48.5944C232.204 48.6565 232.24 48.7099 232.282 48.7517C232.323 48.7934 232.37 48.8226 232.419 48.8377C232.468 48.8527 232.519 48.8533 232.568 48.8394L231.817 49.0518C231.768 49.0657 231.721 49.0939 231.679 49.1347C231.637 49.1755 231.601 49.2282 231.573 49.2896C231.545 49.3511 231.525 49.4202 231.515 49.493C231.505 49.5657 231.504 49.6408 231.514 49.7138C231.523 49.7867 231.542 49.8563 231.57 49.9184C231.597 49.9805 231.633 50.0339 231.674 50.0757C231.716 50.1174 231.762 50.1467 231.812 50.1617C231.861 50.1768 231.911 50.1773 231.961 50.1634L236.322 48.9478C236.371 48.9339 236.418 48.9057 236.46 48.8649C236.502 48.824 236.538 48.7714 236.566 48.7099C236.594 48.6485 236.614 48.5794 236.624 48.5066C236.634 48.4338 236.635 48.3588 236.625 48.2858C236.616 48.2128 236.597 48.1433 236.569 48.0812C236.542 48.0191 236.506 47.9656 236.465 47.9239C236.423 47.8821 236.377 47.8529 236.327 47.8379C236.278 47.8228 236.228 47.8222 236.178 47.8362L236.929 47.6238C236.978 47.6099 237.025 47.5817 237.067 47.5409C237.109 47.5 237.145 47.4474 237.173 47.3859C237.202 47.3244 237.221 47.2554 237.232 47.1826C237.242 47.1098 237.242 47.0348 237.233 46.9618C237.223 46.8888 237.204 46.8193 237.177 46.7572C237.149 46.6951 237.114 46.6416 237.072 46.5999C237.03 46.5581 236.984 46.5289 236.935 46.5138C236.886 46.4988 236.835 46.4982 236.786 46.5122H236.783Z" fill="#252223"/>
<path opacity="0.1" d="M281.269 32.3864L280.732 32.5355C280.781 32.5215 280.828 32.4933 280.87 32.4525C280.912 32.4117 280.948 32.3591 280.976 32.2976C281.005 32.2361 281.024 32.167 281.035 32.0943C281.045 32.0215 281.045 31.9465 281.036 31.8735C281.026 31.8005 281.007 31.731 280.98 31.6689C280.952 31.6068 280.917 31.5533 280.875 31.5116C280.834 31.4698 280.787 31.4406 280.738 31.4255C280.689 31.4105 280.638 31.4099 280.589 31.4238L276.243 32.653C276.143 32.6811 276.055 32.7667 275.998 32.8909C275.941 33.015 275.92 33.1676 275.939 33.315C275.958 33.4624 276.016 33.5926 276.1 33.6769C276.184 33.7612 276.287 33.7928 276.386 33.7646L276.923 33.6155C276.874 33.6294 276.827 33.6576 276.785 33.6984C276.743 33.7392 276.707 33.7919 276.679 33.8534C276.651 33.9148 276.631 33.9839 276.621 34.0567C276.611 34.1295 276.61 34.2045 276.62 34.2775C276.629 34.3505 276.648 34.42 276.676 34.4821C276.703 34.5442 276.739 34.5976 276.78 34.6394C276.822 34.6811 276.869 34.7104 276.918 34.7254C276.967 34.7405 277.017 34.741 277.067 34.7271L276.301 34.9124C276.201 34.9405 276.113 35.0261 276.056 35.1503C275.999 35.2744 275.978 35.427 275.997 35.5744C276.016 35.7218 276.074 35.852 276.158 35.9363C276.242 36.0206 276.345 36.0522 276.444 36.024L280.793 34.8084C280.842 34.7945 280.889 34.7663 280.931 34.7255C280.973 34.6847 281.009 34.632 281.037 34.5706C281.066 34.5091 281.085 34.44 281.096 34.3672C281.106 34.2945 281.106 34.2194 281.097 34.1464C281.087 34.0734 281.068 34.0039 281.041 33.9418C281.013 33.8797 280.978 33.8263 280.936 33.7845C280.895 33.7428 280.848 33.7135 280.799 33.6985C280.75 33.6834 280.699 33.6829 280.65 33.6968L281.4 33.4844C281.45 33.4705 281.497 33.4423 281.539 33.4015C281.581 33.3607 281.617 33.308 281.645 33.2465C281.673 33.1851 281.693 33.116 281.703 33.0432C281.713 32.9704 281.713 32.8954 281.704 32.8224C281.695 32.7494 281.676 32.6799 281.648 32.6178C281.62 32.5557 281.585 32.5023 281.543 32.4605C281.502 32.4188 281.455 32.3895 281.406 32.3745C281.357 32.3594 281.306 32.3589 281.257 32.3728L281.269 32.3864Z" fill="#252223"/>
<path opacity="0.3" d="M223.932 52.3511C226.13 51.7362 227.575 48.5998 227.16 45.3456C226.745 42.0914 224.626 39.9518 222.429 40.5667C220.231 41.1816 218.786 44.3181 219.201 47.5723C219.616 50.8264 221.735 52.966 223.932 52.3511Z" fill="black"/>
<path opacity="0.05" d="M247.345 77.4751C247.345 77.4751 249.381 80.1367 250.33 82.5C251.279 84.8634 250.977 85.6632 250.977 85.6632" fill="black"/>
</g>
<defs>
<linearGradient id="paint0_linear" x1="259.828" y1="107.189" x2="246.234" y2="58.6032" gradientUnits="userSpaceOnUse">
<stop stop-color="#808080" stop-opacity="0.25"/>
<stop offset="0.54" stop-color="#808080" stop-opacity="0.12"/>
<stop offset="1" stop-color="#808080" stop-opacity="0.1"/>
</linearGradient>
<linearGradient id="paint1_linear" x1="18323.7" y1="14032.8" x2="18323.7" y2="10383.7" gradientUnits="userSpaceOnUse">
<stop stop-color="#808080" stop-opacity="0.25"/>
<stop offset="0.54" stop-color="#808080" stop-opacity="0.12"/>
<stop offset="1" stop-color="#808080" stop-opacity="0.1"/>
</linearGradient>
</defs>
</svg>
